# MagicaVoxel @ Ephtracy

# group
o 

# material
mtllib blue.mtl
usemtl palette

# normals
vn -1 0 0
vn 1 0 0
vn 0 0 1
vn 0 0 -1
vn 0 -1 0
vn 0 1 0

# texcoords
vt 0.716797 0.5
vt 0.755859 0.5
vt 0.857422 0.5
vt 0.978516 0.5
vt 0.982422 0.5
vt 0.986328 0.5
vt 0.994141 0.5

# verts
v -0.4 1 0
v -0.4 1 -0.1
v -0.4 1 -0.2
v -0.4 1.1 0
v -0.4 1.1 -0.1
v -0.4 1.1 -0.2
v -0.4 1.2 0
v -0.4 1.2 -0.1
v -0.3 0.8 0.2
v -0.3 0.8 0.1
v -0.3 0.8 -0.1
v -0.3 0.8 -0.2
v -0.3 0.9 0.2
v -0.3 0.9 0.1
v -0.3 0.9 0
v -0.3 0.9 -0.1
v -0.3 0.9 -0.2
v -0.3 1 0.3
v -0.3 1 0.2
v -0.3 1 0.1
v -0.3 1 0
v -0.3 1 -0.1
v -0.3 1 -0.2
v -0.3 1 -0.3
v -0.3 1 -0.4
v -0.3 1 -0.6
v -0.3 1.1 0.3
v -0.3 1.1 0.2
v -0.3 1.1 0
v -0.3 1.1 -0.1
v -0.3 1.1 -0.2
v -0.3 1.1 -0.3
v -0.3 1.1 -0.4
v -0.3 1.1 -0.6
v -0.3 1.2 0
v -0.3 1.2 -0.1
v -0.3 1.2 -0.2
v -0.3 1.2 -0.3
v -0.3 1.3 0
v -0.3 1.3 -0.2
v -0.2 0 0
v -0.2 0 -0.1
v -0.2 0.1 0.1
v -0.2 0.1 0
v -0.2 0.2 0.1
v -0.2 0.2 0
v -0.2 0.2 -0.1
v -0.2 0.3 0.1
v -0.2 0.3 0
v -0.2 0.3 -0.1
v -0.2 0.4 0
v -0.2 0.4 -0.1
v -0.2 0.5 0.1
v -0.2 0.5 0
v -0.2 0.6 0.1
v -0.2 0.6 0
v -0.2 0.6 -0.1
v -0.2 0.7 0.2
v -0.2 0.7 0.1
v -0.2 0.7 0
v -0.2 0.7 -0.1
v -0.2 0.8 0.2
v -0.2 0.8 0.1
v -0.2 0.8 0
v -0.2 0.8 -0.1
v -0.2 0.8 -0.2
v -0.2 0.8 -0.3
v -0.2 0.9 0.1
v -0.2 0.9 0
v -0.2 0.9 -0.1
v -0.2 0.9 -0.2
v -0.2 0.9 -0.3
v -0.2 1 0.1
v -0.2 1 0
v -0.2 1 -0.2
v -0.2 1 -0.3
v -0.2 1.1 0.2
v -0.2 1.1 0.1
v -0.2 1.1 0
v -0.2 1.2 0.2
v -0.2 1.2 0.1
v -0.2 1.2 0
v -0.1 0.6 0.2
v -0.1 0.6 0.1
v -0.1 0.6 -0.1
v -0.1 0.6 -0.2
v -0.1 0.7 0.2
v -0.1 0.7 0.1
v -0.1 0.7 -0.1
v -0.1 0.7 -0.2
v -0.1 0.8 -0.1
v -0.1 0.8 -0.2
v 0.1 0 0.1
v 0.1 0 0
v 0.1 0.1 0
v 0.1 0.1 -0.1
v 0.1 0.2 0.1
v 0.1 0.2 0
v 0.1 0.3 0.1
v 0.1 0.3 0
v 0.1 0.3 -0.1
v 0.1 0.4 0
v 0.1 0.4 -0.1
v 0.1 0.5 0.1
v 0.1 0.5 0
v 0.1 0.6 0.1
v 0.1 0.6 0
v 0.2 1 -0.2
v 0.2 1 -0.3
v 0.2 1 -0.4
v 0.2 1 -0.6
v 0.2 1.1 -0.1
v 0.2 1.1 -0.2
v 0.2 1.1 -0.3
v 0.2 1.1 -0.4
v 0.2 1.1 -0.6
v 0.2 1.2 0
v 0.2 1.2 -0.1
v 0.2 1.2 -0.2
v 0.2 1.2 -0.3
v 0.2 1.3 0
v 0.2 1.3 -0.1
v 0.2 1.3 -0.2
v -0.2 1 -0.2
v -0.2 1 -0.3
v -0.2 1 -0.4
v -0.2 1 -0.6
v -0.2 1.1 -0.1
v -0.2 1.1 -0.2
v -0.2 1.1 -0.3
v -0.2 1.1 -0.4
v -0.2 1.1 -0.6
v -0.2 1.2 0
v -0.2 1.2 -0.1
v -0.2 1.2 -0.2
v -0.2 1.2 -0.3
v -0.2 1.3 0
v -0.2 1.3 -0.2
v -0.1 0 0
v -0.1 0 -0.1
v -0.1 0.1 0.1
v -0.1 0.1 0
v -0.1 0.2 0.1
v -0.1 0.2 0
v -0.1 0.2 -0.1
v -0.1 0.3 0.1
v -0.1 0.3 0
v -0.1 0.3 -0.1
v -0.1 0.4 0
v -0.1 0.4 -0.1
v -0.1 0.5 0.1
v -0.1 0.5 0
v -0.1 0.6 0.1
v -0.1 0.6 0
v 0.1 0.6 0.2
v 0.1 0.6 0.1
v 0.1 0.6 -0.1
v 0.1 0.6 -0.2
v 0.1 0.7 0.2
v 0.1 0.7 0.1
v 0.1 0.8 -0.1
v 0.1 0.8 -0.2
v 0.2 0 0.1
v 0.2 0 0
v 0.2 0.1 0
v 0.2 0.1 -0.1
v 0.2 0.2 0.1
v 0.2 0.2 0
v 0.2 0.3 0.1
v 0.2 0.3 0
v 0.2 0.3 -0.1
v 0.2 0.4 0
v 0.2 0.4 -0.1
v 0.2 0.5 0.1
v 0.2 0.5 0
v 0.2 0.6 0
v 0.2 0.6 -0.1
v 0.2 0.7 0.2
v 0.2 0.7 0.1
v 0.2 0.7 0
v 0.2 0.8 0.2
v 0.2 0.8 0.1
v 0.2 0.8 0
v 0.2 0.8 -0.1
v 0.2 0.8 -0.2
v 0.2 0.8 -0.3
v 0.2 0.9 0
v 0.2 0.9 -0.1
v 0.2 1 0.1
v 0.2 1 0
v 0.2 1 -0.2
v 0.2 1 -0.3
v 0.2 1.1 0.2
v 0.2 1.1 0.1
v 0.2 1.1 0
v 0.2 1.2 0.2
v 0.2 1.2 0.1
v 0.2 1.2 0
v 0.3 0.8 0.2
v 0.3 0.8 0.1
v 0.3 0.8 -0.1
v 0.3 0.8 -0.2
v 0.3 0.9 0
v 0.3 0.9 -0.1
v 0.3 1 0.3
v 0.3 1 0.2
v 0.3 1 0.1
v 0.3 1 0
v 0.3 1 -0.1
v 0.3 1 -0.2
v 0.3 1 -0.3
v 0.3 1 -0.4
v 0.3 1 -0.6
v 0.3 1.1 0.3
v 0.3 1.1 0.1
v 0.3 1.1 0
v 0.3 1.1 -0.1
v 0.3 1.1 -0.2
v 0.3 1.1 -0.3
v 0.3 1.1 -0.4
v 0.3 1.1 -0.6
v 0.3 1.2 0
v 0.3 1.2 -0.1
v 0.3 1.2 -0.2
v 0.3 1.2 -0.3
v 0.3 1.3 0
v 0.3 1.3 -0.1
v 0.3 1.3 -0.2
v 0.4 1 0
v 0.4 1 -0.1
v 0.4 1 -0.2
v 0.4 1.1 -0.1
v 0.4 1.1 -0.2
v 0.4 1.2 0
v 0.4 1.2 -0.1
v -0.3 1 0.3
v -0.3 1.1 0.3
v -0.1 1 0.3
v -0.1 1.1 0.3
v 0.2 1 0.3
v 0.2 1.1 0.3
v 0.3 1 0.3
v 0.3 1.1 0.3
v -0.3 0.8 0.2
v -0.3 0.9 0.2
v -0.3 1 0.2
v -0.2 0.7 0.2
v -0.2 0.8 0.2
v -0.2 0.9 0.2
v -0.2 1 0.2
v -0.2 1.1 0.2
v -0.2 1.2 0.2
v -0.1 0.6 0.2
v -0.1 0.7 0.2
v -0.1 0.8 0.2
v -0.1 0.9 0.2
v -0.1 1 0.2
v -0.1 1.1 0.2
v 0 0.6 0.2
v 0 0.7 0.2
v 0 1.1 0.2
v 0 1.2 0.2
v 0.1 0.6 0.2
v 0.1 0.7 0.2
v 0.1 0.9 0.2
v 0.1 1 0.2
v 0.2 0.7 0.2
v 0.2 0.8 0.2
v 0.2 0.9 0.2
v 0.2 1 0.2
v 0.2 1.1 0.2
v 0.2 1.2 0.2
v 0.3 0.8 0.2
v 0.3 1 0.2
v -0.2 0.1 0.1
v -0.2 0.2 0.1
v -0.2 0.3 0.1
v -0.2 0.5 0.1
v -0.2 0.6 0.1
v -0.2 0.7 0.1
v -0.1 0.1 0.1
v -0.1 0.2 0.1
v -0.1 0.3 0.1
v -0.1 0.5 0.1
v -0.1 0.6 0.1
v -0.1 0.7 0.1
v 0.1 0 0.1
v 0.1 0.2 0.1
v 0.1 0.3 0.1
v 0.1 0.5 0.1
v 0.1 0.6 0.1
v 0.1 0.7 0.1
v 0.2 0 0.1
v 0.2 0.2 0.1
v 0.2 0.3 0.1
v 0.2 0.5 0.1
v 0.2 0.7 0.1
v -0.4 1 0
v -0.4 1.1 0
v -0.4 1.2 0
v -0.3 0.9 0
v -0.3 1 0
v -0.3 1.1 0
v -0.3 1.2 0
v -0.3 1.3 0
v -0.2 0 0
v -0.2 0.1 0
v -0.2 0.9 0
v -0.2 1 0
v -0.2 1.1 0
v -0.2 1.2 0
v -0.2 1.3 0
v -0.1 0 0
v -0.1 0.1 0
v 0.1 0.2 0
v 0.1 0.3 0
v 0.2 0.2 0
v 0.2 0.3 0
v 0.2 0.9 0
v 0.2 1 0
v 0.2 1.1 0
v 0.2 1.2 0
v 0.2 1.3 0
v 0.3 0.9 0
v 0.3 1 0
v 0.3 1.1 0
v 0.3 1.2 0
v 0.3 1.3 0
v 0.4 1 0
v 0.4 1.2 0
v -0.3 0.8 -0.1
v -0.3 0.9 -0.1
v -0.2 0.8 -0.1
v -0.2 0.9 -0.1
v 0.2 0.8 -0.1
v 0.2 0.9 -0.1
v 0.3 0.8 -0.1
v 0.3 0.9 -0.1
v -0.3 0.8 0.1
v -0.3 0.9 0.1
v -0.3 1 0.1
v -0.2 0.8 0.1
v -0.2 0.9 0.1
v -0.2 1 0.1
v 0.2 0.8 0.1
v 0.2 1 0.1
v 0.3 0.8 0.1
v 0.3 1 0.1
v -0.2 0.2 0
v -0.2 0.3 0
v -0.2 0.4 0
v -0.2 0.5 0
v -0.2 0.6 0
v -0.1 0.2 0
v -0.1 0.3 0
v -0.1 0.4 0
v -0.1 0.5 0
v -0.1 0.6 0
v 0.1 0 0
v 0.1 0.1 0
v 0.1 0.4 0
v 0.1 0.5 0
v 0.1 0.6 0
v 0.2 0 0
v 0.2 0.1 0
v 0.2 0.4 0
v 0.2 0.5 0
v 0.2 0.6 0
v -0.4 1.1 -0.1
v -0.4 1.2 -0.1
v -0.3 1.1 -0.1
v -0.3 1.2 -0.1
v -0.2 0 -0.1
v -0.2 0.2 -0.1
v -0.2 0.3 -0.1
v -0.2 0.4 -0.1
v -0.2 0.6 -0.1
v -0.2 0.7 -0.1
v -0.2 0.8 -0.1
v -0.2 1.1 -0.1
v -0.2 1.2 -0.1
v -0.1 0 -0.1
v -0.1 0.2 -0.1
v -0.1 0.3 -0.1
v -0.1 0.4 -0.1
v -0.1 0.6 -0.1
v -0.1 0.7 -0.1
v -0.1 0.8 -0.1
v 0 1.1 -0.1
v 0.1 0.1 -0.1
v 0.1 0.3 -0.1
v 0.1 0.4 -0.1
v 0.1 0.6 -0.1
v 0.1 0.8 -0.1
v 0.1 1.1 -0.1
v 0.1 1.2 -0.1
v 0.2 0.1 -0.1
v 0.2 0.3 -0.1
v 0.2 0.4 -0.1
v 0.2 0.6 -0.1
v 0.2 0.8 -0.1
v 0.2 1.1 -0.1
v 0.2 1.2 -0.1
v 0.3 1.1 -0.1
v 0.3 1.2 -0.1
v 0.4 1.1 -0.1
v 0.4 1.2 -0.1
v -0.4 1 -0.2
v -0.4 1.1 -0.2
v -0.3 0.8 -0.2
v -0.3 0.9 -0.2
v -0.3 1 -0.2
v -0.3 1.1 -0.2
v -0.3 1.2 -0.2
v -0.3 1.3 -0.2
v -0.2 0.8 -0.2
v -0.2 0.9 -0.2
v -0.2 1 -0.2
v -0.2 1.1 -0.2
v -0.2 1.2 -0.2
v -0.2 1.3 -0.2
v -0.1 0.6 -0.2
v -0.1 0.7 -0.2
v -0.1 0.8 -0.2
v -0.1 1 -0.2
v 0 0.6 -0.2
v 0 0.7 -0.2
v 0 1 -0.2
v 0 1.1 -0.2
v 0.1 0.6 -0.2
v 0.1 0.8 -0.2
v 0.1 1 -0.2
v 0.2 0.8 -0.2
v 0.2 1 -0.2
v 0.2 1.1 -0.2
v 0.2 1.2 -0.2
v 0.2 1.3 -0.2
v 0.3 0.8 -0.2
v 0.3 1 -0.2
v 0.3 1.1 -0.2
v 0.3 1.2 -0.2
v 0.3 1.3 -0.2
v 0.4 1 -0.2
v 0.4 1.1 -0.2
v -0.3 1.1 -0.3
v -0.3 1.2 -0.3
v -0.2 0.8 -0.3
v -0.2 0.9 -0.3
v -0.2 1 -0.3
v -0.2 1.1 -0.3
v -0.2 1.2 -0.3
v -0.1 0.9 -0.3
v -0.1 1 -0.3
v 0 0.9 -0.3
v 0 1 -0.3
v 0.1 0.9 -0.3
v 0.1 1 -0.3
v 0.2 0.8 -0.3
v 0.2 1 -0.3
v 0.2 1.1 -0.3
v 0.2 1.2 -0.3
v 0.3 1.1 -0.3
v 0.3 1.2 -0.3
v -0.3 1 -0.6
v -0.3 1.1 -0.6
v -0.2 1 -0.6
v -0.2 1.1 -0.6
v 0.2 1 -0.6
v 0.2 1.1 -0.6
v 0.3 1 -0.6
v 0.3 1.1 -0.6
v 0.1 0 0.1
v 0.2 0 0.1
v -0.2 0 0
v -0.1 0 0
v 0.1 0 0
v 0.2 0 0
v -0.2 0 -0.1
v -0.1 0 -0.1
v -0.2 0.1 0.1
v -0.1 0.1 0.1
v -0.2 0.1 0
v -0.1 0.1 0
v 0.1 0.1 0
v 0.2 0.1 0
v 0.1 0.1 -0.1
v 0.2 0.1 -0.1
v 0.1 0.3 0.1
v 0.2 0.3 0.1
v -0.2 0.3 0
v -0.1 0.3 0
v 0.1 0.3 0
v 0.2 0.3 0
v -0.2 0.3 -0.1
v -0.1 0.3 -0.1
v -0.1 0.6 0.2
v 0 0.6 0.2
v 0.1 0.6 0.2
v -0.1 0.6 0.1
v 0 0.6 0.1
v 0.1 0.6 0.1
v -0.2 0.6 0
v -0.1 0.6 0
v 0.1 0.6 0
v 0.2 0.6 0
v -0.2 0.6 -0.1
v -0.1 0.6 -0.1
v 0 0.6 -0.1
v 0.1 0.6 -0.1
v 0.2 0.6 -0.1
v -0.1 0.6 -0.2
v 0 0.6 -0.2
v 0.1 0.6 -0.2
v -0.2 0.7 0.2
v -0.1 0.7 0.2
v 0.1 0.7 0.2
v 0.2 0.7 0.2
v -0.2 0.7 0.1
v -0.1 0.7 0.1
v 0.1 0.7 0.1
v 0.2 0.7 0.1
v -0.3 0.8 0.2
v -0.2 0.8 0.2
v 0.2 0.8 0.2
v 0.3 0.8 0.2
v -0.3 0.8 0.1
v -0.2 0.8 0.1
v 0.2 0.8 0.1
v 0.3 0.8 0.1
v -0.3 0.8 -0.1
v -0.2 0.8 -0.1
v -0.1 0.8 -0.1
v 0.1 0.8 -0.1
v 0.2 0.8 -0.1
v 0.3 0.8 -0.1
v -0.3 0.8 -0.2
v -0.2 0.8 -0.2
v -0.1 0.8 -0.2
v 0.1 0.8 -0.2
v 0.2 0.8 -0.2
v 0.3 0.8 -0.2
v -0.2 0.8 -0.3
v 0.2 0.8 -0.3
v -0.3 0.9 0
v -0.2 0.9 0
v 0.2 0.9 0
v 0.3 0.9 0
v -0.3 0.9 -0.1
v -0.2 0.9 -0.1
v 0.2 0.9 -0.1
v 0.3 0.9 -0.1
v -0.3 1 0.3
v -0.1 1 0.3
v 0.2 1 0.3
v 0.3 1 0.3
v -0.3 1 0.2
v -0.2 1 0.2
v -0.1 1 0.2
v 0.1 1 0.2
v 0.2 1 0.2
v 0.3 1 0.2
v -0.3 1 0.1
v -0.2 1 0.1
v 0.2 1 0.1
v 0.3 1 0.1
v -0.4 1 0
v -0.3 1 0
v -0.2 1 0
v 0.2 1 0
v 0.3 1 0
v 0.4 1 0
v -0.4 1 -0.1
v -0.3 1 -0.1
v 0.3 1 -0.1
v 0.4 1 -0.1
v -0.4 1 -0.2
v -0.3 1 -0.2
v -0.2 1 -0.2
v 0.2 1 -0.2
v 0.3 1 -0.2
v 0.4 1 -0.2
v -0.3 1 -0.3
v -0.2 1 -0.3
v 0.2 1 -0.3
v 0.3 1 -0.3
v -0.3 1 -0.4
v -0.2 1 -0.4
v 0.2 1 -0.4
v 0.3 1 -0.4
v -0.3 1 -0.6
v -0.2 1 -0.6
v 0.2 1 -0.6
v 0.3 1 -0.6
v 0.1 0.2 0.1
v 0.2 0.2 0.1
v -0.2 0.2 0
v -0.1 0.2 0
v 0.1 0.2 0
v 0.2 0.2 0
v -0.2 0.2 -0.1
v -0.1 0.2 -0.1
v -0.2 0.4 0
v -0.1 0.4 0
v 0.1 0.4 0
v 0.2 0.4 0
v -0.2 0.4 -0.1
v -0.1 0.4 -0.1
v 0.1 0.4 -0.1
v 0.2 0.4 -0.1
v -0.2 1 -0.2
v -0.1 1 -0.2
v 0 1 -0.2
v 0.1 1 -0.2
v 0.2 1 -0.2
v -0.2 1 -0.3
v -0.1 1 -0.3
v 0 1 -0.3
v 0.1 1 -0.3
v 0.2 1 -0.3
v -0.3 1.1 0.3
v -0.1 1.1 0.3
v 0.2 1.1 0.3
v 0.3 1.1 0.3
v -0.3 1.1 0.2
v -0.2 1.1 0.2
v -0.1 1.1 0.2
v 0 1.1 0.2
v 0.2 1.1 0.2
v -0.2 1.1 0.1
v 0.2 1.1 0.1
v 0.3 1.1 0.1
v -0.3 1.1 0
v -0.2 1.1 0
v 0.2 1.1 0
v 0.3 1.1 0
v -0.4 1.1 -0.1
v -0.3 1.1 -0.1
v -0.2 1.1 -0.1
v 0 1.1 -0.1
v 0.1 1.1 -0.1
v 0.2 1.1 -0.1
v 0.3 1.1 -0.1
v 0.4 1.1 -0.1
v -0.4 1.1 -0.2
v -0.3 1.1 -0.2
v -0.2 1.1 -0.2
v 0 1.1 -0.2
v 0.2 1.1 -0.2
v 0.3 1.1 -0.2
v 0.4 1.1 -0.2
v -0.3 1.1 -0.3
v -0.2 1.1 -0.3
v 0.2 1.1 -0.3
v 0.3 1.1 -0.3
v -0.3 1.1 -0.4
v -0.2 1.1 -0.4
v 0.2 1.1 -0.4
v 0.3 1.1 -0.4
v -0.3 1.1 -0.6
v -0.2 1.1 -0.6
v 0.2 1.1 -0.6
v 0.3 1.1 -0.6
v -0.2 1.2 0.2
v 0 1.2 0.2
v 0.2 1.2 0.2
v -0.2 1.2 0.1
v -0.1 1.2 0.1
v 0 1.2 0.1
v 0.1 1.2 0.1
v 0.2 1.2 0.1
v -0.4 1.2 0
v -0.3 1.2 0
v -0.2 1.2 0
v -0.1 1.2 0
v 0 1.2 0
v 0.1 1.2 0
v 0.2 1.2 0
v 0.3 1.2 0
v 0.4 1.2 0
v -0.4 1.2 -0.1
v -0.3 1.2 -0.1
v -0.2 1.2 -0.1
v 0.1 1.2 -0.1
v 0.2 1.2 -0.1
v 0.3 1.2 -0.1
v 0.4 1.2 -0.1
v -0.3 1.2 -0.2
v -0.2 1.2 -0.2
v 0.2 1.2 -0.2
v 0.3 1.2 -0.2
v -0.3 1.2 -0.3
v -0.2 1.2 -0.3
v 0.2 1.2 -0.3
v 0.3 1.2 -0.3
v -0.3 1.3 0
v -0.2 1.3 0
v 0.2 1.3 0
v 0.3 1.3 0
v 0.2 1.3 -0.1
v 0.3 1.3 -0.1
v -0.3 1.3 -0.2
v -0.2 1.3 -0.2
v 0.2 1.3 -0.2
v 0.3 1.3 -0.2

# faces
f 4/1/1 2/1/1 1/1/1
f 5/2/1 3/2/1 2/2/1
f 5/1/1 2/1/1 4/1/1
f 6/2/1 3/2/1 5/2/1
f 7/2/1 5/2/1 4/2/1
f 8/2/1 5/2/1 7/2/1
f 13/5/1 10/5/1 9/5/1
f 14/5/1 10/5/1 13/5/1
f 16/5/1 12/5/1 11/5/1
f 17/5/1 12/5/1 16/5/1
f 19/6/1 14/6/1 13/6/1
f 20/6/1 14/6/1 19/6/1
f 21/5/1 16/5/1 15/5/1
f 22/6/1 17/6/1 16/6/1
f 22/5/1 16/5/1 21/5/1
f 23/6/1 17/6/1 22/6/1
f 27/6/1 19/6/1 18/6/1
f 28/4/1 20/4/1 19/4/1
f 28/6/1 19/6/1 27/6/1
f 28/4/1 21/4/1 20/4/1
f 29/4/1 21/4/1 28/4/1
f 31/1/1 24/1/1 23/1/1
f 32/2/1 25/2/1 24/2/1
f 32/1/1 24/1/1 31/1/1
f 33/1/1 26/1/1 25/1/1
f 33/2/1 25/2/1 32/2/1
f 34/1/1 26/1/1 33/1/1
f 36/2/1 32/2/1 31/2/1
f 36/2/1 31/2/1 30/2/1
f 37/2/1 32/2/1 36/2/1
f 38/2/1 32/2/1 37/2/1
f 39/2/1 36/2/1 35/2/1
f 39/2/1 37/2/1 36/2/1
f 40/2/1 37/2/1 39/2/1
f 44/1/1 42/1/1 41/1/1
f 45/1/1 44/1/1 43/1/1
f 46/1/1 42/1/1 44/1/1
f 46/1/1 44/1/1 45/1/1
f 47/1/1 42/1/1 46/1/1
f 48/2/1 46/2/1 45/2/1
f 49/2/1 46/2/1 48/2/1
f 51/1/1 49/1/1 48/1/1
f 51/1/1 50/1/1 49/1/1
f 52/1/1 50/1/1 51/1/1
f 53/1/1 51/1/1 48/1/1
f 54/1/1 51/1/1 53/1/1
f 55/2/1 54/2/1 53/2/1
f 56/2/1 54/2/1 55/2/1
f 59/1/1 56/1/1 55/1/1
f 59/1/1 57/1/1 56/1/1
f 60/1/1 57/1/1 59/1/1
f 61/1/1 57/1/1 60/1/1
f 62/1/1 59/1/1 58/1/1
f 62/1/1 60/1/1 59/1/1
f 63/1/1 60/1/1 62/1/1
f 64/2/1 61/2/1 60/2/1
f 64/1/1 60/1/1 63/1/1
f 65/2/1 61/2/1 64/2/1
f 68/2/1 65/2/1 64/2/1
f 68/2/1 64/2/1 63/2/1
f 69/2/1 65/2/1 68/2/1
f 70/2/1 65/2/1 69/2/1
f 71/5/1 67/5/1 66/5/1
f 72/5/1 67/5/1 71/5/1
f 73/2/1 69/2/1 68/2/1
f 74/2/1 69/2/1 73/2/1
f 75/4/1 72/4/1 71/4/1
f 76/4/1 72/4/1 75/4/1
f 80/6/1 78/6/1 77/6/1
f 81/4/1 79/4/1 78/4/1
f 81/6/1 78/6/1 80/6/1
f 82/4/1 79/4/1 81/4/1
f 87/2/1 84/2/1 83/2/1
f 88/2/1 84/2/1 87/2/1
f 89/2/1 86/2/1 85/2/1
f 90/2/1 86/2/1 89/2/1
f 91/1/1 90/1/1 89/1/1
f 92/1/1 90/1/1 91/1/1
f 95/1/1 94/1/1 93/1/1
f 97/1/1 95/1/1 93/1/1
f 98/2/1 96/2/1 95/2/1
f 98/1/1 95/1/1 97/1/1
f 100/2/1 96/2/1 98/2/1
f 101/2/1 96/2/1 100/2/1
f 102/1/1 100/1/1 99/1/1
f 102/1/1 101/1/1 100/1/1
f 103/1/1 101/1/1 102/1/1
f 104/1/1 102/1/1 99/1/1
f 105/1/1 102/1/1 104/1/1
f 106/2/1 105/2/1 104/2/1
f 107/2/1 105/2/1 106/2/1
f 113/1/1 109/1/1 108/1/1
f 114/2/1 110/2/1 109/2/1
f 114/1/1 109/1/1 113/1/1
f 115/1/1 111/1/1 110/1/1
f 115/2/1 110/2/1 114/2/1
f 116/1/1 111/1/1 115/1/1
f 118/2/1 114/2/1 113/2/1
f 118/2/1 113/2/1 112/2/1
f 119/2/1 114/2/1 118/2/1
f 120/2/1 114/2/1 119/2/1
f 121/1/1 118/1/1 117/1/1
f 122/2/1 119/2/1 118/2/1
f 122/1/1 118/1/1 121/1/1
f 123/2/1 119/2/1 122/2/1
f 124/1/2 125/1/2 129/1/2
f 125/2/2 126/2/2 130/2/2
f 129/1/2 125/1/2 130/1/2
f 126/1/2 127/1/2 131/1/2
f 130/2/2 126/2/2 131/2/2
f 131/1/2 127/1/2 132/1/2
f 129/2/2 130/2/2 134/2/2
f 128/2/2 129/2/2 134/2/2
f 134/2/2 130/2/2 135/2/2
f 135/2/2 130/2/2 136/2/2
f 133/2/2 134/2/2 137/2/2
f 134/2/2 135/2/2 137/2/2
f 137/2/2 135/2/2 138/2/2
f 139/1/2 140/1/2 142/1/2
f 141/1/2 142/1/2 143/1/2
f 142/1/2 140/1/2 144/1/2
f 143/1/2 142/1/2 144/1/2
f 144/1/2 140/1/2 145/1/2
f 143/2/2 144/2/2 146/2/2
f 146/2/2 144/2/2 147/2/2
f 146/1/2 147/1/2 149/1/2
f 147/1/2 148/1/2 149/1/2
f 149/1/2 148/1/2 150/1/2
f 146/1/2 149/1/2 151/1/2
f 151/1/2 149/1/2 152/1/2
f 151/2/2 152/2/2 153/2/2
f 153/2/2 152/2/2 154/2/2
f 155/1/2 156/1/2 159/1/2
f 159/1/2 156/1/2 160/1/2
f 157/1/2 158/1/2 161/1/2
f 161/1/2 158/1/2 162/1/2
f 163/1/2 164/1/2 165/1/2
f 163/1/2 165/1/2 167/1/2
f 165/2/2 166/2/2 168/2/2
f 167/1/2 165/1/2 168/1/2
f 168/2/2 166/2/2 170/2/2
f 170/2/2 166/2/2 171/2/2
f 169/1/2 170/1/2 172/1/2
f 170/1/2 171/1/2 172/1/2
f 172/1/2 171/1/2 173/1/2
f 169/1/2 172/1/2 174/1/2
f 174/1/2 172/1/2 175/1/2
f 174/2/2 175/2/2 176/2/2
f 174/2/2 176/2/2 179/2/2
f 176/1/2 177/1/2 180/1/2
f 179/2/2 176/2/2 180/2/2
f 178/2/2 179/2/2 181/2/2
f 179/1/2 180/1/2 182/1/2
f 181/2/2 179/2/2 182/2/2
f 180/1/2 177/1/2 183/1/2
f 182/1/2 180/1/2 183/1/2
f 183/1/2 177/1/2 184/1/2
f 183/1/2 184/1/2 187/1/2
f 182/2/2 183/2/2 187/2/2
f 187/1/2 184/1/2 188/1/2
f 182/2/2 187/2/2 189/2/2
f 189/2/2 187/2/2 190/2/2
f 185/5/2 186/5/2 191/5/2
f 191/5/2 186/5/2 192/5/2
f 193/5/2 194/5/2 196/5/2
f 194/6/2 195/6/2 197/6/2
f 196/5/2 194/5/2 197/5/2
f 197/6/2 195/6/2 198/6/2
f 201/5/2 202/5/2 204/5/2
f 199/5/2 200/5/2 206/5/2
f 206/5/2 200/5/2 207/5/2
f 203/5/2 204/5/2 208/5/2
f 204/5/2 202/5/2 209/5/2
f 208/5/2 204/5/2 209/5/2
f 209/5/2 202/5/2 210/5/2
f 206/4/2 207/4/2 214/4/2
f 205/4/2 206/4/2 214/4/2
f 207/5/2 208/5/2 215/5/2
f 214/4/2 207/4/2 215/4/2
f 215/5/2 208/5/2 216/5/2
f 210/1/2 211/1/2 218/1/2
f 211/2/2 212/2/2 219/2/2
f 218/1/2 211/1/2 219/1/2
f 212/1/2 213/1/2 220/1/2
f 219/2/2 212/2/2 220/2/2
f 220/1/2 213/1/2 221/1/2
f 218/2/2 219/2/2 223/2/2
f 217/2/2 218/2/2 223/2/2
f 223/2/2 219/2/2 224/2/2
f 224/2/2 219/2/2 225/2/2
f 222/1/2 223/1/2 226/1/2
f 223/2/2 224/2/2 227/2/2
f 226/1/2 223/1/2 227/1/2
f 227/2/2 224/2/2 228/2/2
f 229/2/2 230/2/2 232/2/2
f 230/1/2 231/1/2 232/1/2
f 232/1/2 231/1/2 233/1/2
f 229/2/2 232/2/2 234/2/2
f 234/2/2 232/2/2 235/2/2
f 238/6/3 237/6/3 236/6/3
f 239/6/3 237/6/3 238/6/3
f 240/5/3 239/5/3 238/5/3
f 241/5/3 239/5/3 240/5/3
f 242/4/3 241/4/3 240/4/3
f 243/4/3 241/4/3 242/4/3
f 248/5/3 245/5/3 244/5/3
f 249/6/3 246/6/3 245/6/3
f 249/5/3 245/5/3 248/5/3
f 250/6/3 246/6/3 249/6/3
f 254/1/3 248/1/3 247/1/3
f 255/2/3 249/2/3 248/2/3
f 255/1/3 248/1/3 254/1/3
f 256/7/3 250/7/3 249/7/3
f 256/2/3 249/2/3 255/2/3
f 257/7/3 250/7/3 256/7/3
f 258/6/3 252/6/3 251/6/3
f 259/2/3 254/2/3 253/2/3
f 260/1/3 255/1/3 254/1/3
f 260/2/3 254/2/3 259/2/3
f 260/1/3 256/1/3 255/1/3
f 261/6/3 252/6/3 258/6/3
f 262/6/3 252/6/3 261/6/3
f 263/1/3 260/1/3 259/1/3
f 264/1/3 256/1/3 260/1/3
f 264/1/3 260/1/3 263/1/3
f 265/2/3 257/2/3 256/2/3
f 265/1/3 256/1/3 264/1/3
f 266/2/3 257/2/3 265/2/3
f 267/2/3 265/2/3 264/2/3
f 268/2/3 265/2/3 267/2/3
f 269/7/3 266/7/3 265/7/3
f 269/2/3 265/2/3 268/2/3
f 270/7/3 266/7/3 269/7/3
f 271/5/3 262/5/3 261/5/3
f 272/5/3 262/5/3 271/5/3
f 273/5/3 270/5/3 269/5/3
f 273/5/3 269/5/3 268/5/3
f 274/5/3 270/5/3 273/5/3
f 281/1/3 276/1/3 275/1/3
f 282/2/3 277/2/3 276/2/3
f 282/1/3 276/1/3 281/1/3
f 283/1/3 278/1/3 277/1/3
f 283/2/3 277/2/3 282/2/3
f 284/2/3 279/2/3 278/2/3
f 284/1/3 278/1/3 283/1/3
f 285/1/3 280/1/3 279/1/3
f 285/2/3 279/2/3 284/2/3
f 286/1/3 280/1/3 285/1/3
f 293/1/3 288/1/3 287/1/3
f 294/1/3 288/1/3 293/1/3
f 295/1/3 290/1/3 289/1/3
f 296/2/3 292/2/3 291/2/3
f 296/1/3 290/1/3 295/1/3
f 296/2/3 291/2/3 290/2/3
f 297/2/3 292/2/3 296/2/3
f 302/1/3 299/1/3 298/1/3
f 303/2/3 300/2/3 299/2/3
f 303/1/3 299/1/3 302/1/3
f 304/2/3 300/2/3 303/2/3
f 308/5/3 302/5/3 301/5/3
f 309/5/3 302/5/3 308/5/3
f 310/1/3 304/1/3 303/1/3
f 311/2/3 305/2/3 304/2/3
f 311/1/3 304/1/3 310/1/3
f 312/2/3 305/2/3 311/2/3
f 313/1/3 307/1/3 306/1/3
f 314/1/3 307/1/3 313/1/3
f 317/2/3 316/2/3 315/2/3
f 318/2/3 316/2/3 317/2/3
f 324/5/3 320/5/3 319/5/3
f 325/5/3 320/5/3 324/5/3
f 326/1/3 323/1/3 322/1/3
f 326/1/3 322/1/3 321/1/3
f 327/1/3 323/1/3 326/1/3
f 328/1/3 323/1/3 327/1/3
f 329/2/3 326/2/3 325/2/3
f 329/2/3 327/2/3 326/2/3
f 330/2/3 327/2/3 329/2/3
f 333/5/3 332/5/3 331/5/3
f 334/5/3 332/5/3 333/5/3
f 337/5/3 336/5/3 335/5/3
f 338/5/3 336/5/3 337/5/3
f 339/5/4 340/5/4 342/5/4
f 340/6/4 341/6/4 343/6/4
f 342/5/4 340/5/4 343/5/4
f 343/6/4 341/6/4 344/6/4
f 345/5/4 346/5/4 347/5/4
f 347/5/4 346/5/4 348/5/4
f 349/2/4 350/2/4 354/2/4
f 354/2/4 350/2/4 355/2/4
f 351/1/4 352/1/4 356/1/4
f 352/2/4 353/2/4 357/2/4
f 356/1/4 352/1/4 357/1/4
f 357/2/4 353/2/4 358/2/4
f 359/1/4 360/1/4 364/1/4
f 364/1/4 360/1/4 365/1/4
f 361/1/4 362/1/4 366/1/4
f 362/2/4 363/2/4 367/2/4
f 366/1/4 362/1/4 367/1/4
f 367/2/4 363/2/4 368/2/4
f 369/2/4 370/2/4 371/2/4
f 371/2/4 370/2/4 372/2/4
f 373/1/4 374/1/4 382/1/4
f 382/1/4 374/1/4 383/1/4
f 375/1/4 376/1/4 384/1/4
f 384/1/4 376/1/4 385/1/4
f 377/1/4 378/1/4 386/1/4
f 378/2/4 379/2/4 387/2/4
f 386/1/4 378/1/4 387/1/4
f 387/2/4 379/2/4 388/2/4
f 380/6/4 381/6/4 389/6/4
f 389/6/4 381/6/4 395/6/4
f 395/6/4 381/6/4 396/6/4
f 390/2/4 391/2/4 397/2/4
f 391/1/4 392/1/4 398/1/4
f 397/2/4 391/2/4 398/2/4
f 398/1/4 392/1/4 399/1/4
f 393/1/4 394/1/4 400/1/4
f 400/1/4 394/1/4 401/1/4
f 395/4/4 396/4/4 402/4/4
f 402/4/4 396/4/4 403/4/4
f 404/2/4 405/2/4 406/2/4
f 406/2/4 405/2/4 407/2/4
f 408/2/4 409/2/4 412/2/4
f 412/2/4 409/2/4 413/2/4
f 410/5/4 411/5/4 416/5/4
f 411/6/4 412/6/4 417/6/4
f 416/5/4 411/5/4 417/5/4
f 417/6/4 412/6/4 418/6/4
f 414/2/4 415/2/4 420/2/4
f 420/2/4 415/2/4 421/2/4
f 418/6/4 419/6/4 425/6/4
f 422/2/4 423/2/4 426/2/4
f 423/1/4 424/1/4 427/1/4
f 426/2/4 423/2/4 427/2/4
f 425/6/4 419/6/4 428/6/4
f 428/6/4 419/6/4 429/6/4
f 426/1/4 427/1/4 430/1/4
f 427/1/4 424/1/4 431/1/4
f 430/1/4 427/1/4 431/1/4
f 428/4/4 429/4/4 432/4/4
f 432/4/4 429/4/4 434/4/4
f 434/4/4 429/4/4 435/4/4
f 433/5/4 434/5/4 438/5/4
f 438/5/4 434/5/4 439/5/4
f 436/2/4 437/2/4 441/2/4
f 441/2/4 437/2/4 442/2/4
f 439/1/4 440/1/4 443/1/4
f 443/1/4 440/1/4 444/1/4
f 445/2/4 446/2/4 450/2/4
f 450/2/4 446/2/4 451/2/4
f 448/4/4 449/4/4 452/4/4
f 447/5/4 448/5/4 452/5/4
f 452/4/4 449/4/4 453/4/4
f 447/5/4 452/5/4 454/5/4
f 452/5/4 453/5/4 454/5/4
f 454/5/4 453/5/4 455/5/4
f 447/5/4 454/5/4 456/5/4
f 454/4/4 455/4/4 456/4/4
f 456/4/4 455/4/4 457/4/4
f 447/5/4 456/5/4 458/5/4
f 456/5/4 457/5/4 458/5/4
f 458/5/4 457/5/4 459/5/4
f 460/2/4 461/2/4 462/2/4
f 462/2/4 461/2/4 463/2/4
f 464/1/4 465/1/4 466/1/4
f 466/1/4 465/1/4 467/1/4
f 468/1/4 469/1/4 470/1/4
f 470/1/4 469/1/4 471/1/4
f 476/1/5 473/1/5 472/1/5
f 477/1/5 473/1/5 476/1/5
f 478/1/5 475/1/5 474/1/5
f 479/1/5 475/1/5 478/1/5
f 482/1/5 481/1/5 480/1/5
f 483/1/5 481/1/5 482/1/5
f 486/2/5 485/2/5 484/2/5
f 487/2/5 485/2/5 486/2/5
f 492/1/5 489/1/5 488/1/5
f 493/1/5 489/1/5 492/1/5
f 494/1/5 491/1/5 490/1/5
f 495/1/5 491/1/5 494/1/5
f 499/2/5 497/2/5 496/2/5
f 500/1/5 498/1/5 497/1/5
f 500/2/5 497/2/5 499/2/5
f 501/1/5 498/1/5 500/1/5
f 503/1/5 500/1/5 499/1/5
f 504/2/5 501/2/5 500/2/5
f 506/1/5 503/1/5 502/1/5
f 507/1/5 500/1/5 503/1/5
f 507/1/5 503/1/5 506/1/5
f 508/2/5 504/2/5 500/2/5
f 508/1/5 500/1/5 507/1/5
f 509/1/5 505/1/5 504/1/5
f 509/2/5 504/2/5 508/2/5
f 510/1/5 505/1/5 509/1/5
f 511/2/5 508/2/5 507/2/5
f 512/1/5 509/1/5 508/1/5
f 512/2/5 508/2/5 511/2/5
f 513/1/5 509/1/5 512/1/5
f 518/1/5 515/1/5 514/1/5
f 519/1/5 515/1/5 518/1/5
f 520/2/5 517/2/5 516/2/5
f 521/2/5 517/2/5 520/2/5
f 526/5/5 523/5/5 522/5/5
f 527/5/5 523/5/5 526/5/5
f 528/5/5 525/5/5 524/5/5
f 529/5/5 525/5/5 528/5/5
f 536/5/5 531/5/5 530/5/5
f 537/2/5 532/2/5 531/2/5
f 537/5/5 531/5/5 536/5/5
f 538/2/5 532/2/5 537/2/5
f 539/2/5 534/2/5 533/2/5
f 540/5/5 535/5/5 534/5/5
f 540/2/5 534/2/5 539/2/5
f 541/5/5 535/5/5 540/5/5
f 542/5/5 539/5/5 538/5/5
f 542/5/5 538/5/5 537/5/5
f 542/5/5 540/5/5 539/5/5
f 543/5/5 540/5/5 542/5/5
f 548/5/5 545/5/5 544/5/5
f 549/5/5 545/5/5 548/5/5
f 550/5/5 547/5/5 546/5/5
f 551/5/5 547/5/5 550/5/5
f 556/6/5 553/6/5 552/6/5
f 557/6/5 553/6/5 556/6/5
f 558/5/5 554/5/5 553/5/5
f 558/6/5 553/6/5 557/6/5
f 559/5/5 554/5/5 558/5/5
f 560/4/5 555/4/5 554/4/5
f 560/5/5 554/5/5 559/5/5
f 561/4/5 555/4/5 560/4/5
f 567/4/5 563/4/5 562/4/5
f 568/4/5 563/4/5 567/4/5
f 569/5/5 565/5/5 564/5/5
f 570/5/5 565/5/5 569/5/5
f 572/1/5 567/1/5 566/1/5
f 573/1/5 567/1/5 572/1/5
f 574/2/5 571/2/5 570/2/5
f 575/2/5 571/2/5 574/2/5
f 576/2/5 573/2/5 572/2/5
f 577/2/5 573/2/5 576/2/5
f 580/1/5 575/1/5 574/1/5
f 581/1/5 575/1/5 580/1/5
f 582/1/5 578/1/5 577/1/5
f 583/1/5 578/1/5 582/1/5
f 584/1/5 580/1/5 579/1/5
f 585/1/5 580/1/5 584/1/5
f 586/2/5 583/2/5 582/2/5
f 587/2/5 583/2/5 586/2/5
f 588/2/5 585/2/5 584/2/5
f 589/2/5 585/2/5 588/2/5
f 590/1/5 587/1/5 586/1/5
f 591/1/5 587/1/5 590/1/5
f 592/1/5 589/1/5 588/1/5
f 593/1/5 589/1/5 592/1/5
f 594/1/6 595/1/6 598/1/6
f 598/1/6 595/1/6 599/1/6
f 596/1/6 597/1/6 600/1/6
f 600/1/6 597/1/6 601/1/6
f 602/1/6 603/1/6 606/1/6
f 606/1/6 603/1/6 607/1/6
f 604/1/6 605/1/6 608/1/6
f 608/1/6 605/1/6 609/1/6
f 610/4/6 611/4/6 615/4/6
f 611/5/6 612/5/6 616/5/6
f 615/4/6 611/4/6 616/4/6
f 612/4/6 613/4/6 617/4/6
f 616/5/6 612/5/6 617/5/6
f 613/5/6 614/5/6 618/5/6
f 617/4/6 613/4/6 618/4/6
f 618/5/6 614/5/6 619/5/6
f 620/6/6 621/6/6 624/6/6
f 624/6/6 621/6/6 625/6/6
f 621/5/6 622/5/6 626/5/6
f 625/6/6 621/6/6 626/6/6
f 626/5/6 622/5/6 627/5/6
f 622/4/6 623/4/6 628/4/6
f 627/5/6 622/5/6 628/5/6
f 624/4/6 625/4/6 629/4/6
f 628/4/6 623/4/6 630/4/6
f 630/4/6 623/4/6 631/4/6
f 624/4/6 629/4/6 632/4/6
f 632/4/6 629/4/6 633/4/6
f 630/5/6 631/5/6 634/5/6
f 634/5/6 631/5/6 635/5/6
f 636/2/6 637/2/6 644/2/6
f 644/2/6 637/2/6 645/2/6
f 638/6/6 639/6/6 646/6/6
f 640/4/6 641/4/6 647/4/6
f 646/6/6 639/6/6 647/6/6
f 639/4/6 640/4/6 647/4/6
f 647/4/6 641/4/6 648/4/6
f 642/1/6 643/1/6 649/1/6
f 649/1/6 643/1/6 650/1/6
f 651/2/6 652/2/6 655/2/6
f 655/2/6 652/2/6 656/2/6
f 653/2/6 654/2/6 657/2/6
f 657/2/6 654/2/6 658/2/6
f 655/1/6 656/1/6 659/1/6
f 659/1/6 656/1/6 660/1/6
f 657/1/6 658/1/6 661/1/6
f 661/1/6 658/1/6 662/1/6
f 663/6/6 664/6/6 666/6/6
f 666/6/6 664/6/6 667/6/6
f 664/5/6 665/5/6 668/5/6
f 667/6/6 664/6/6 668/6/6
f 668/5/6 665/5/6 669/5/6
f 669/5/6 665/5/6 670/5/6
f 666/4/6 667/4/6 673/4/6
f 667/5/6 668/5/6 674/5/6
f 673/4/6 667/4/6 674/4/6
f 668/4/6 669/4/6 675/4/6
f 674/5/6 668/5/6 675/5/6
f 669/6/6 670/6/6 676/6/6
f 675/4/6 669/4/6 676/4/6
f 676/6/6 670/6/6 677/6/6
f 671/2/6 672/2/6 680/2/6
f 680/2/6 672/2/6 681/2/6
f 673/6/6 674/6/6 682/6/6
f 674/6/6 675/6/6 682/6/6
f 675/6/6 676/6/6 682/6/6
f 676/4/6 677/4/6 683/4/6
f 682/6/6 676/6/6 683/6/6
f 683/4/6 677/4/6 684/4/6
f 678/2/6 679/2/6 685/2/6
f 685/2/6 679/2/6 686/2/6
f 687/2/6 688/2/6 691/2/6
f 691/2/6 688/2/6 692/2/6
f 689/2/6 690/2/6 693/2/6
f 693/2/6 690/2/6 694/2/6
f 697/1/6 698/1/6 699/1/6
f 699/1/6 698/1/6 700/1/6
f 695/2/6 696/2/6 701/2/6
f 701/2/6 696/2/6 702/2/6
f 699/2/6 700/2/6 703/2/6
f 703/2/6 700/2/6 704/2/6
