# MagicaVoxel @ Ephtracy

# group
o 

# material
mtllib red.mtl
usemtl palette

# normals
vn -1 0 0
vn 1 0 0
vn 0 0 1
vn 0 0 -1
vn 0 -1 0
vn 0 1 0

# texcoords
vt 0.0957031 0.5
vt 0.115234 0.5
vt 0.130859 0.5
vt 0.142578 0.5
vt 0.154297 0.5
vt 0.158203 0.5
vt 0.978516 0.5
vt 0.982422 0.5
vt 0.986328 0.5
vt 0.994141 0.5

# verts
v -0.4 0.3 0.1
v -0.4 0.3 0
v -0.4 0.4 0.2
v -0.4 0.4 0.1
v -0.4 0.4 0
v -0.4 0.5 0.2
v -0.4 0.5 0.1
v -0.4 0.6 0
v -0.4 0.6 -0.2
v -0.4 0.7 0
v -0.4 0.7 -0.2
v -0.3 0.3 0.2
v -0.3 0.3 0.1
v -0.3 0.3 0
v -0.3 0.3 -0.2
v -0.3 0.3 -0.3
v -0.3 0.4 0.2
v -0.3 0.4 0.1
v -0.3 0.4 0
v -0.3 0.4 -0.2
v -0.3 0.5 0.2
v -0.3 0.5 0.1
v -0.3 0.5 -0.1
v -0.3 0.5 -0.2
v -0.3 0.5 -0.3
v -0.3 0.6 0.2
v -0.3 0.6 0.1
v -0.3 0.6 0
v -0.3 0.6 -0.1
v -0.3 0.6 -0.2
v -0.3 0.7 0.3
v -0.3 0.7 0.2
v -0.3 0.7 0.1
v -0.3 0.7 0
v -0.3 0.7 -0.1
v -0.3 0.7 -0.2
v -0.3 0.7 -0.3
v -0.3 0.8 0.3
v -0.3 0.8 0.2
v -0.3 0.8 0.1
v -0.3 0.8 0
v -0.3 0.8 -0.1
v -0.3 0.8 -0.2
v -0.3 1 0.1
v -0.3 1 0
v -0.2 0 0
v -0.2 0 -0.1
v -0.2 0.1 0.1
v -0.2 0.1 0
v -0.2 0.1 -0.1
v -0.2 0.2 0.1
v -0.2 0.2 0
v -0.2 0.2 -0.2
v -0.2 0.3 0.3
v -0.2 0.3 0.2
v -0.2 0.3 0.1
v -0.2 0.3 0
v -0.2 0.3 -0.2
v -0.2 0.4 -0.3
v -0.2 0.4 -0.4
v -0.2 0.5 0.3
v -0.2 0.5 0.2
v -0.2 0.5 -0.3
v -0.2 0.5 -0.4
v -0.2 0.7 -0.3
v -0.2 0.7 -0.4
v -0.2 0.8 0.2
v -0.2 0.8 0.1
v -0.2 0.8 0
v -0.2 0.8 -0.1
v -0.2 0.9 0.2
v -0.2 0.9 0.1
v -0.2 0.9 0
v -0.2 0.9 -0.1
v -0.1 0.2 -0.2
v -0.1 0.2 -0.3
v -0.1 0.3 -0.2
v -0.1 0.3 -0.3
v 0.1 0 0
v 0.1 0 -0.1
v 0.1 0.1 0.1
v 0.1 0.1 0
v 0.1 0.1 -0.1
v 0.1 0.2 0.1
v 0.1 0.2 0
v 0.1 0.3 0.3
v 0.1 0.3 0.2
v 0.1 0.4 0.3
v 0.1 0.4 0.2
v 0.1 0.4 -0.3
v 0.1 0.4 -0.4
v 0.1 0.5 -0.3
v 0.1 0.5 -0.4
v 0.1 0.6 -0.3
v 0.1 0.7 -0.3
v 0.1 0.7 -0.4
v 0.2 0.9 0.1
v 0.2 0.9 0
v 0.2 1 0.1
v 0.2 1 0
v -0.2 0.9 0.1
v -0.2 0.9 0
v -0.2 1 0.1
v -0.2 1 0
v -0.1 0 0
v -0.1 0 -0.1
v -0.1 0.1 0.1
v -0.1 0.1 0
v -0.1 0.1 -0.1
v -0.1 0.2 0.1
v -0.1 0.2 0
v -0.1 0.3 0.3
v -0.1 0.3 0.2
v -0.1 0.4 0.3
v -0.1 0.4 0.2
v -0.1 0.4 -0.3
v -0.1 0.4 -0.4
v -0.1 0.5 -0.3
v -0.1 0.5 -0.4
v -0.1 0.7 -0.3
v -0.1 0.7 -0.4
v 0.1 0.2 -0.2
v 0.1 0.2 -0.3
v 0.1 0.3 -0.2
v 0.1 0.3 -0.3
v 0.2 0 0
v 0.2 0 -0.1
v 0.2 0.1 0.1
v 0.2 0.1 0
v 0.2 0.1 -0.1
v 0.2 0.2 0.1
v 0.2 0.2 0
v 0.2 0.2 -0.2
v 0.2 0.3 0.3
v 0.2 0.3 0.2
v 0.2 0.3 0.1
v 0.2 0.3 0
v 0.2 0.3 -0.2
v 0.2 0.4 -0.3
v 0.2 0.4 -0.4
v 0.2 0.5 0.3
v 0.2 0.5 0.2
v 0.2 0.5 -0.3
v 0.2 0.5 -0.4
v 0.2 0.6 -0.3
v 0.2 0.7 -0.3
v 0.2 0.7 -0.4
v 0.2 0.8 0.2
v 0.2 0.8 0.1
v 0.2 0.8 0
v 0.2 0.8 -0.1
v 0.2 0.9 0.2
v 0.2 0.9 0.1
v 0.2 0.9 0
v 0.2 0.9 -0.1
v 0.3 0.3 0.2
v 0.3 0.3 0.1
v 0.3 0.3 0
v 0.3 0.3 -0.2
v 0.3 0.3 -0.3
v 0.3 0.4 0.2
v 0.3 0.4 0.1
v 0.3 0.4 0
v 0.3 0.4 -0.1
v 0.3 0.5 0.2
v 0.3 0.5 0.1
v 0.3 0.5 -0.1
v 0.3 0.5 -0.2
v 0.3 0.6 0
v 0.3 0.6 -0.1
v 0.3 0.6 -0.2
v 0.3 0.6 -0.3
v 0.3 0.7 0.3
v 0.3 0.7 0.2
v 0.3 0.7 0.1
v 0.3 0.7 0
v 0.3 0.7 -0.1
v 0.3 0.7 -0.2
v 0.3 0.7 -0.3
v 0.3 0.8 0.3
v 0.3 0.8 0.1
v 0.3 0.8 0
v 0.3 0.8 -0.1
v 0.3 0.8 -0.2
v 0.3 1 0.1
v 0.3 1 0
v 0.4 0.3 0.1
v 0.4 0.3 0
v 0.4 0.4 0.2
v 0.4 0.4 0.1
v 0.4 0.4 0
v 0.4 0.5 0.2
v 0.4 0.5 0.1
v 0.4 0.6 0
v 0.4 0.6 -0.2
v 0.4 0.7 0
v 0.4 0.7 -0.2
v -0.3 0.7 0.3
v -0.3 0.8 0.3
v -0.2 0.3 0.3
v -0.2 0.5 0.3
v -0.1 0.3 0.3
v -0.1 0.4 0.3
v -0.1 0.7 0.3
v -0.1 0.8 0.3
v 0 0.4 0.3
v 0 0.5 0.3
v 0.1 0.3 0.3
v 0.1 0.4 0.3
v 0.1 0.5 0.3
v 0.2 0.3 0.3
v 0.2 0.5 0.3
v 0.2 0.7 0.3
v 0.2 0.8 0.3
v 0.3 0.7 0.3
v 0.3 0.8 0.3
v -0.4 0.4 0.2
v -0.4 0.5 0.2
v -0.3 0.3 0.2
v -0.3 0.4 0.2
v -0.3 0.5 0.2
v -0.3 0.6 0.2
v -0.3 0.7 0.2
v -0.2 0.3 0.2
v -0.2 0.5 0.2
v -0.2 0.6 0.2
v -0.2 0.7 0.2
v -0.2 0.8 0.2
v -0.2 0.9 0.2
v -0.1 0.3 0.2
v -0.1 0.4 0.2
v -0.1 0.5 0.2
v -0.1 0.6 0.2
v -0.1 0.7 0.2
v -0.1 0.8 0.2
v 0 0.4 0.2
v 0 0.5 0.2
v 0 0.6 0.2
v 0 0.7 0.2
v 0 0.8 0.2
v 0 0.9 0.2
v 0.1 0.3 0.2
v 0.1 0.4 0.2
v 0.1 0.5 0.2
v 0.1 0.6 0.2
v 0.1 0.7 0.2
v 0.2 0.3 0.2
v 0.2 0.5 0.2
v 0.2 0.6 0.2
v 0.2 0.7 0.2
v 0.2 0.8 0.2
v 0.2 0.9 0.2
v 0.3 0.3 0.2
v 0.3 0.4 0.2
v 0.3 0.5 0.2
v 0.3 0.7 0.2
v 0.4 0.4 0.2
v 0.4 0.5 0.2
v -0.4 0.3 0.1
v -0.4 0.4 0.1
v -0.3 0.3 0.1
v -0.3 0.4 0.1
v -0.3 0.8 0.1
v -0.3 1 0.1
v -0.2 0.1 0.1
v -0.2 0.2 0.1
v -0.2 0.3 0.1
v -0.2 0.8 0.1
v -0.2 0.9 0.1
v -0.2 1 0.1
v -0.1 0.1 0.1
v -0.1 0.2 0.1
v -0.1 0.3 0.1
v 0 0.2 0.1
v 0 0.3 0.1
v 0.1 0.1 0.1
v 0.1 0.2 0.1
v 0.1 0.3 0.1
v 0.2 0.1 0.1
v 0.2 0.2 0.1
v 0.2 0.3 0.1
v 0.2 0.8 0.1
v 0.2 0.9 0.1
v 0.2 1 0.1
v 0.3 0.3 0.1
v 0.3 0.4 0.1
v 0.3 0.8 0.1
v 0.3 1 0.1
v 0.4 0.3 0.1
v 0.4 0.4 0.1
v -0.4 0.6 0
v -0.4 0.7 0
v -0.3 0.6 0
v -0.3 0.7 0
v -0.2 0 0
v -0.2 0.1 0
v -0.1 0 0
v -0.1 0.1 0
v 0.1 0 0
v 0.1 0.1 0
v 0.2 0 0
v 0.2 0.1 0
v 0.3 0.6 0
v 0.3 0.7 0
v 0.4 0.6 0
v 0.4 0.7 0
v -0.4 0.4 0.1
v -0.4 0.5 0.1
v -0.3 0.4 0.1
v -0.3 0.5 0.1
v 0.3 0.4 0.1
v 0.3 0.5 0.1
v 0.4 0.4 0.1
v 0.4 0.5 0.1
v -0.4 0.3 0
v -0.4 0.4 0
v -0.3 0.3 0
v -0.3 0.4 0
v -0.3 0.8 0
v -0.3 1 0
v -0.2 0.1 0
v -0.2 0.2 0
v -0.2 0.8 0
v -0.2 0.9 0
v -0.2 1 0
v -0.1 0.1 0
v -0.1 0.2 0
v 0.1 0.1 0
v 0.1 0.2 0
v 0.2 0.1 0
v 0.2 0.2 0
v 0.2 0.8 0
v 0.2 0.9 0
v 0.2 1 0
v 0.3 0.3 0
v 0.3 0.4 0
v 0.3 0.8 0
v 0.3 1 0
v 0.4 0.3 0
v 0.4 0.4 0
v -0.2 0 -0.1
v -0.2 0.1 -0.1
v -0.2 0.8 -0.1
v -0.2 0.9 -0.1
v -0.1 0 -0.1
v -0.1 0.1 -0.1
v 0 0.8 -0.1
v 0.1 0 -0.1
v 0.1 0.1 -0.1
v 0.1 0.8 -0.1
v 0.1 0.9 -0.1
v 0.2 0 -0.1
v 0.2 0.1 -0.1
v 0.2 0.8 -0.1
v 0.2 0.9 -0.1
v -0.4 0.6 -0.2
v -0.4 0.7 -0.2
v -0.3 0.6 -0.2
v -0.3 0.7 -0.2
v -0.3 0.8 -0.2
v -0.2 0.2 -0.2
v -0.2 0.3 -0.2
v -0.2 0.7 -0.2
v -0.2 0.8 -0.2
v -0.1 0.2 -0.2
v -0.1 0.3 -0.2
v -0.1 0.7 -0.2
v 0 0.7 -0.2
v 0 0.8 -0.2
v 0.1 0.2 -0.2
v 0.1 0.3 -0.2
v 0.1 0.7 -0.2
v 0.2 0.2 -0.2
v 0.2 0.3 -0.2
v 0.2 0.7 -0.2
v 0.2 0.8 -0.2
v 0.3 0.6 -0.2
v 0.3 0.7 -0.2
v 0.3 0.8 -0.2
v 0.4 0.6 -0.2
v 0.4 0.7 -0.2
v -0.3 0.3 -0.3
v -0.3 0.5 -0.3
v -0.3 0.7 -0.3
v -0.2 0.4 -0.3
v -0.2 0.5 -0.3
v -0.2 0.7 -0.3
v -0.1 0.2 -0.3
v -0.1 0.3 -0.3
v -0.1 0.4 -0.3
v -0.1 0.5 -0.3
v -0.1 0.7 -0.3
v 0 0.3 -0.3
v 0 0.4 -0.3
v 0 0.6 -0.3
v 0 0.7 -0.3
v 0.1 0.2 -0.3
v 0.1 0.3 -0.3
v 0.1 0.4 -0.3
v 0.1 0.5 -0.3
v 0.1 0.6 -0.3
v 0.1 0.7 -0.3
v 0.2 0.4 -0.3
v 0.2 0.5 -0.3
v 0.2 0.6 -0.3
v 0.2 0.7 -0.3
v 0.3 0.3 -0.3
v 0.3 0.6 -0.3
v 0.3 0.7 -0.3
v -0.2 0.4 -0.4
v -0.2 0.5 -0.4
v -0.2 0.7 -0.4
v -0.1 0.4 -0.4
v -0.1 0.5 -0.4
v -0.1 0.7 -0.4
v 0.1 0.4 -0.4
v 0.1 0.5 -0.4
v 0.1 0.7 -0.4
v 0.2 0.4 -0.4
v 0.2 0.5 -0.4
v 0.2 0.7 -0.4
v -0.2 0 0
v -0.1 0 0
v 0.1 0 0
v 0.2 0 0
v -0.2 0 -0.1
v -0.1 0 -0.1
v 0.1 0 -0.1
v 0.2 0 -0.1
v -0.2 0.1 0.1
v -0.1 0.1 0.1
v 0.1 0.1 0.1
v 0.2 0.1 0.1
v -0.2 0.1 0
v -0.1 0.1 0
v 0.1 0.1 0
v 0.2 0.1 0
v -0.1 0.2 0.1
v 0 0.2 0.1
v 0.1 0.2 0.1
v -0.2 0.2 0
v -0.1 0.2 0
v 0 0.2 0
v 0.1 0.2 0
v 0.2 0.2 0
v -0.2 0.2 -0.2
v -0.1 0.2 -0.2
v 0.1 0.2 -0.2
v 0.2 0.2 -0.2
v -0.1 0.2 -0.3
v 0.1 0.2 -0.3
v -0.2 0.3 0.3
v -0.1 0.3 0.3
v 0.1 0.3 0.3
v 0.2 0.3 0.3
v -0.3 0.3 0.2
v -0.2 0.3 0.2
v -0.1 0.3 0.2
v 0.1 0.3 0.2
v 0.2 0.3 0.2
v 0.3 0.3 0.2
v -0.4 0.3 0.1
v -0.3 0.3 0.1
v -0.2 0.3 0.1
v -0.1 0.3 0.1
v 0 0.3 0.1
v 0.1 0.3 0.1
v 0.2 0.3 0.1
v 0.3 0.3 0.1
v 0.4 0.3 0.1
v -0.4 0.3 0
v -0.3 0.3 0
v -0.2 0.3 0
v 0.2 0.3 0
v 0.3 0.3 0
v 0.4 0.3 0
v -0.3 0.3 -0.2
v -0.2 0.3 -0.2
v -0.1 0.3 -0.2
v 0.1 0.3 -0.2
v 0.2 0.3 -0.2
v 0.3 0.3 -0.2
v -0.3 0.3 -0.3
v -0.1 0.3 -0.3
v 0.1 0.3 -0.3
v 0.3 0.3 -0.3
v -0.1 0.4 0.3
v 0 0.4 0.3
v 0.1 0.4 0.3
v -0.4 0.4 0.2
v -0.3 0.4 0.2
v -0.1 0.4 0.2
v 0 0.4 0.2
v 0.1 0.4 0.2
v 0.3 0.4 0.2
v 0.4 0.4 0.2
v -0.4 0.4 0.1
v -0.3 0.4 0.1
v 0.3 0.4 0.1
v 0.4 0.4 0.1
v -0.2 0.4 -0.3
v -0.1 0.4 -0.3
v 0.1 0.4 -0.3
v 0.2 0.4 -0.3
v -0.2 0.4 -0.4
v -0.1 0.4 -0.4
v 0.1 0.4 -0.4
v 0.2 0.4 -0.4
v -0.4 0.6 0
v -0.3 0.6 0
v 0.3 0.6 0
v 0.4 0.6 0
v -0.3 0.6 -0.1
v 0.3 0.6 -0.1
v -0.4 0.6 -0.2
v -0.3 0.6 -0.2
v 0.3 0.6 -0.2
v 0.4 0.6 -0.2
v -0.3 0.7 0.3
v -0.1 0.7 0.3
v 0.2 0.7 0.3
v 0.3 0.7 0.3
v -0.3 0.7 0.2
v -0.2 0.7 0.2
v -0.1 0.7 0.2
v 0 0.7 0.2
v 0.1 0.7 0.2
v 0.2 0.7 0.2
v 0.3 0.7 0.2
v -0.2 0.1 0
v -0.1 0.1 0
v 0.1 0.1 0
v 0.2 0.1 0
v -0.2 0.1 -0.1
v -0.1 0.1 -0.1
v 0.1 0.1 -0.1
v 0.2 0.1 -0.1
v -0.4 0.4 0.1
v -0.3 0.4 0.1
v 0.3 0.4 0.1
v 0.4 0.4 0.1
v -0.4 0.4 0
v -0.3 0.4 0
v 0.3 0.4 0
v 0.4 0.4 0
v -0.2 0.5 0.3
v 0 0.5 0.3
v 0.1 0.5 0.3
v 0.2 0.5 0.3
v -0.4 0.5 0.2
v -0.3 0.5 0.2
v -0.2 0.5 0.2
v -0.1 0.5 0.2
v 0 0.5 0.2
v 0.1 0.5 0.2
v 0.2 0.5 0.2
v 0.3 0.5 0.2
v 0.4 0.5 0.2
v -0.4 0.5 0.1
v -0.3 0.5 0.1
v 0.3 0.5 0.1
v 0.4 0.5 0.1
v -0.4 0.7 0
v -0.3 0.7 0
v 0.3 0.7 0
v 0.4 0.7 0
v -0.3 0.7 -0.1
v 0.3 0.7 -0.1
v -0.4 0.7 -0.2
v -0.3 0.7 -0.2
v -0.2 0.7 -0.2
v -0.1 0.7 -0.2
v 0 0.7 -0.2
v 0.1 0.7 -0.2
v 0.2 0.7 -0.2
v 0.3 0.7 -0.2
v 0.4 0.7 -0.2
v -0.3 0.7 -0.3
v -0.2 0.7 -0.3
v -0.1 0.7 -0.3
v 0 0.7 -0.3
v 0.1 0.7 -0.3
v 0.2 0.7 -0.3
v 0.3 0.7 -0.3
v -0.2 0.7 -0.4
v -0.1 0.7 -0.4
v 0.1 0.7 -0.4
v 0.2 0.7 -0.4
v -0.3 0.8 0.3
v -0.1 0.8 0.3
v 0.2 0.8 0.3
v 0.3 0.8 0.3
v -0.3 0.8 0.2
v -0.2 0.8 0.2
v -0.1 0.8 0.2
v 0 0.8 0.2
v 0.2 0.8 0.2
v -0.3 0.8 0.1
v -0.2 0.8 0.1
v 0.2 0.8 0.1
v 0.3 0.8 0.1
v -0.3 0.8 0
v -0.2 0.8 0
v 0.2 0.8 0
v 0.3 0.8 0
v -0.3 0.8 -0.1
v -0.2 0.8 -0.1
v 0 0.8 -0.1
v 0.1 0.8 -0.1
v 0.2 0.8 -0.1
v 0.3 0.8 -0.1
v -0.3 0.8 -0.2
v -0.2 0.8 -0.2
v 0 0.8 -0.2
v 0.2 0.8 -0.2
v 0.3 0.8 -0.2
v -0.2 0.9 0.2
v 0 0.9 0.2
v 0.2 0.9 0.2
v -0.2 0.9 0.1
v -0.1 0.9 0.1
v 0 0.9 0.1
v 0.1 0.9 0.1
v 0.2 0.9 0.1
v -0.2 0.9 0
v -0.1 0.9 0
v 0 0.9 0
v 0.1 0.9 0
v 0.2 0.9 0
v -0.2 0.9 -0.1
v 0.1 0.9 -0.1
v 0.2 0.9 -0.1
v -0.3 1 0.1
v -0.2 1 0.1
v 0.2 1 0.1
v 0.3 1 0.1
v -0.3 1 0
v -0.2 1 0
v 0.2 1 0
v 0.3 1 0

# faces
f 4/6/1 2/6/1 1/6/1
f 5/6/1 2/6/1 4/6/1
f 6/4/1 4/4/1 3/4/1
f 7/4/1 4/4/1 6/4/1
f 10/3/1 9/3/1 8/3/1
f 11/3/1 9/3/1 10/3/1
f 17/4/1 13/4/1 12/4/1
f 18/4/1 13/4/1 17/4/1
f 19/6/1 15/6/1 14/6/1
f 20/4/1 16/4/1 15/4/1
f 20/6/1 15/6/1 19/6/1
f 22/4/1 19/4/1 18/4/1
f 22/4/1 20/4/1 19/4/1
f 23/4/1 20/4/1 22/4/1
f 24/4/1 16/4/1 20/4/1
f 24/4/1 20/4/1 23/4/1
f 25/4/1 16/4/1 24/4/1
f 26/8/1 22/8/1 21/8/1
f 27/3/1 23/3/1 22/3/1
f 27/8/1 22/8/1 26/8/1
f 28/3/1 23/3/1 27/3/1
f 29/8/1 24/8/1 23/8/1
f 29/3/1 23/3/1 28/3/1
f 30/3/1 25/3/1 24/3/1
f 30/8/1 24/8/1 29/8/1
f 32/9/1 27/9/1 26/9/1
f 33/3/1 28/3/1 27/3/1
f 33/9/1 27/9/1 32/9/1
f 34/3/1 28/3/1 33/3/1
f 36/3/1 25/3/1 30/3/1
f 37/3/1 25/3/1 36/3/1
f 38/9/1 32/9/1 31/9/1
f 39/7/1 35/7/1 34/7/1
f 39/9/1 32/9/1 38/9/1
f 39/7/1 33/7/1 32/7/1
f 39/7/1 34/7/1 33/7/1
f 40/7/1 35/7/1 39/7/1
f 41/7/1 35/7/1 40/7/1
f 42/3/1 36/3/1 35/3/1
f 42/7/1 35/7/1 41/7/1
f 43/3/1 36/3/1 42/3/1
f 44/3/1 41/3/1 40/3/1
f 45/3/1 41/3/1 44/3/1
f 49/1/1 47/1/1 46/1/1
f 50/1/1 47/1/1 49/1/1
f 51/1/1 49/1/1 48/1/1
f 52/1/1 49/1/1 51/1/1
f 56/4/1 52/4/1 51/4/1
f 57/6/1 53/6/1 52/6/1
f 57/4/1 52/4/1 56/4/1
f 58/6/1 53/6/1 57/6/1
f 61/4/1 55/4/1 54/4/1
f 62/4/1 55/4/1 61/4/1
f 63/4/1 60/4/1 59/4/1
f 64/4/1 60/4/1 63/4/1
f 65/3/1 64/3/1 63/3/1
f 66/3/1 64/3/1 65/3/1
f 71/9/1 68/9/1 67/9/1
f 72/9/1 68/9/1 71/9/1
f 73/9/1 70/9/1 69/9/1
f 74/9/1 70/9/1 73/9/1
f 77/6/1 76/6/1 75/6/1
f 78/6/1 76/6/1 77/6/1
f 82/1/1 80/1/1 79/1/1
f 83/1/1 80/1/1 82/1/1
f 84/1/1 82/1/1 81/1/1
f 85/1/1 82/1/1 84/1/1
f 88/4/1 87/4/1 86/4/1
f 89/4/1 87/4/1 88/4/1
f 92/4/1 91/4/1 90/4/1
f 93/4/1 91/4/1 92/4/1
f 94/3/1 93/3/1 92/3/1
f 95/3/1 93/3/1 94/3/1
f 96/3/1 93/3/1 95/3/1
f 99/3/1 98/3/1 97/3/1
f 100/3/1 98/3/1 99/3/1
f 101/3/2 102/3/2 103/3/2
f 103/3/2 102/3/2 104/3/2
f 105/1/2 106/1/2 108/1/2
f 108/1/2 106/1/2 109/1/2
f 107/1/2 108/1/2 110/1/2
f 110/1/2 108/1/2 111/1/2
f 112/4/2 113/4/2 114/4/2
f 114/4/2 113/4/2 115/4/2
f 116/4/2 117/4/2 118/4/2
f 118/4/2 117/4/2 119/4/2
f 118/3/2 119/3/2 120/3/2
f 120/3/2 119/3/2 121/3/2
f 122/6/2 123/6/2 124/6/2
f 124/6/2 123/6/2 125/6/2
f 126/1/2 127/1/2 129/1/2
f 129/1/2 127/1/2 130/1/2
f 128/1/2 129/1/2 131/1/2
f 131/1/2 129/1/2 132/1/2
f 131/4/2 132/4/2 136/4/2
f 132/4/2 133/4/2 136/4/2
f 136/4/2 133/4/2 137/4/2
f 137/4/2 133/4/2 138/4/2
f 134/4/2 135/4/2 141/4/2
f 141/4/2 135/4/2 142/4/2
f 139/4/2 140/4/2 143/4/2
f 143/4/2 140/4/2 144/4/2
f 143/3/2 144/3/2 145/3/2
f 145/3/2 144/3/2 146/3/2
f 146/3/2 144/3/2 147/3/2
f 148/8/2 149/8/2 152/8/2
f 152/8/2 149/8/2 153/8/2
f 150/7/2 151/7/2 154/7/2
f 154/7/2 151/7/2 155/7/2
f 156/4/2 157/4/2 161/4/2
f 161/4/2 157/4/2 162/4/2
f 158/6/2 159/6/2 163/6/2
f 163/6/2 159/6/2 164/6/2
f 162/4/2 163/4/2 166/4/2
f 163/4/2 164/4/2 166/4/2
f 164/6/2 159/6/2 167/6/2
f 166/4/2 164/4/2 167/4/2
f 159/4/2 160/4/2 168/4/2
f 167/6/2 159/6/2 168/6/2
f 166/3/2 167/3/2 169/3/2
f 167/4/2 168/4/2 170/4/2
f 169/3/2 167/3/2 170/3/2
f 168/4/2 160/4/2 171/4/2
f 170/4/2 168/4/2 171/4/2
f 171/4/2 160/4/2 172/4/2
f 165/8/2 166/8/2 174/8/2
f 166/3/2 169/3/2 175/3/2
f 174/8/2 166/8/2 175/8/2
f 175/3/2 169/3/2 176/3/2
f 171/3/2 172/3/2 178/3/2
f 178/3/2 172/3/2 179/3/2
f 173/7/2 174/7/2 180/7/2
f 174/7/2 175/7/2 180/7/2
f 176/8/2 177/8/2 181/8/2
f 180/7/2 175/7/2 181/7/2
f 175/8/2 176/8/2 181/8/2
f 181/8/2 177/8/2 182/8/2
f 177/3/2 178/3/2 183/3/2
f 182/8/2 177/8/2 183/8/2
f 183/3/2 178/3/2 184/3/2
f 181/3/2 182/3/2 185/3/2
f 185/3/2 182/3/2 186/3/2
f 187/4/2 188/4/2 190/4/2
f 190/4/2 188/4/2 191/4/2
f 189/4/2 190/4/2 192/4/2
f 192/4/2 190/4/2 193/4/2
f 194/3/2 195/3/2 196/3/2
f 196/3/2 195/3/2 197/3/2
f 202/4/3 201/4/3 200/4/3
f 203/4/3 201/4/3 202/4/3
f 204/9/3 199/9/3 198/9/3
f 205/9/3 199/9/3 204/9/3
f 206/4/3 201/4/3 203/4/3
f 207/4/3 201/4/3 206/4/3
f 209/5/3 207/5/3 206/5/3
f 210/5/3 207/5/3 209/5/3
f 211/4/3 209/4/3 208/4/3
f 211/4/3 210/4/3 209/4/3
f 212/4/3 210/4/3 211/4/3
f 213/8/3 205/8/3 204/8/3
f 214/8/3 205/8/3 213/8/3
f 215/7/3 214/7/3 213/7/3
f 216/7/3 214/7/3 215/7/3
f 220/4/3 218/4/3 217/4/3
f 221/4/3 218/4/3 220/4/3
f 224/4/3 220/4/3 219/4/3
f 224/4/3 221/4/3 220/4/3
f 225/8/3 222/8/3 221/8/3
f 225/4/3 221/4/3 224/4/3
f 226/9/3 223/9/3 222/9/3
f 226/8/3 222/8/3 225/8/3
f 227/9/3 223/9/3 226/9/3
f 232/1/3 226/1/3 225/1/3
f 233/10/3 227/10/3 226/10/3
f 233/1/3 226/1/3 232/1/3
f 234/10/3 227/10/3 233/10/3
f 235/9/3 229/9/3 228/9/3
f 236/5/3 231/5/3 230/5/3
f 237/3/3 233/3/3 232/3/3
f 238/2/3 234/2/3 233/2/3
f 238/3/3 233/3/3 237/3/3
f 239/2/3 234/2/3 238/2/3
f 240/9/3 229/9/3 235/9/3
f 241/9/3 229/9/3 240/9/3
f 242/5/3 236/5/3 230/5/3
f 243/5/3 236/5/3 242/5/3
f 244/3/3 238/3/3 237/3/3
f 245/1/3 239/1/3 238/1/3
f 245/3/3 238/3/3 244/3/3
f 246/1/3 239/1/3 245/1/3
f 248/2/3 245/2/3 244/2/3
f 249/10/3 246/10/3 245/10/3
f 249/2/3 245/2/3 248/2/3
f 250/10/3 246/10/3 249/10/3
f 251/8/3 241/8/3 240/8/3
f 252/8/3 241/8/3 251/8/3
f 253/4/3 248/4/3 247/4/3
f 254/4/3 248/4/3 253/4/3
f 255/8/3 250/8/3 249/8/3
f 255/4/3 248/4/3 254/4/3
f 255/8/3 249/8/3 248/8/3
f 256/8/3 250/8/3 255/8/3
f 257/4/3 255/4/3 254/4/3
f 258/4/3 255/4/3 257/4/3
f 261/6/3 260/6/3 259/6/3
f 262/6/3 260/6/3 261/6/3
f 268/3/3 264/3/3 263/3/3
f 269/3/3 264/3/3 268/3/3
f 270/3/3 264/3/3 269/3/3
f 271/1/3 266/1/3 265/1/3
f 272/4/3 267/4/3 266/4/3
f 272/1/3 266/1/3 271/1/3
f 273/4/3 267/4/3 272/4/3
f 274/5/3 273/5/3 272/5/3
f 275/5/3 273/5/3 274/5/3
f 277/4/3 275/4/3 274/4/3
f 278/4/3 275/4/3 277/4/3
f 279/1/3 277/1/3 276/1/3
f 280/4/3 278/4/3 277/4/3
f 280/1/3 277/1/3 279/1/3
f 281/4/3 278/4/3 280/4/3
f 287/3/3 284/3/3 283/3/3
f 287/3/3 283/3/3 282/3/3
f 288/3/3 284/3/3 287/3/3
f 289/4/3 286/4/3 285/4/3
f 290/4/3 286/4/3 289/4/3
f 293/3/3 292/3/3 291/3/3
f 294/3/3 292/3/3 293/3/3
f 297/1/3 296/1/3 295/1/3
f 298/1/3 296/1/3 297/1/3
f 301/1/3 300/1/3 299/1/3
f 302/1/3 300/1/3 301/1/3
f 305/3/3 304/3/3 303/3/3
f 306/3/3 304/3/3 305/3/3
f 307/4/4 308/4/4 309/4/4
f 309/4/4 308/4/4 310/4/4
f 311/4/4 312/4/4 313/4/4
f 313/4/4 312/4/4 314/4/4
f 315/6/4 316/6/4 317/6/4
f 317/6/4 316/6/4 318/6/4
f 319/3/4 320/3/4 323/3/4
f 323/3/4 320/3/4 324/3/4
f 324/3/4 320/3/4 325/3/4
f 321/1/4 322/1/4 326/1/4
f 326/1/4 322/1/4 327/1/4
f 328/1/4 329/1/4 330/1/4
f 330/1/4 329/1/4 331/1/4
f 333/3/4 334/3/4 337/3/4
f 332/3/4 333/3/4 337/3/4
f 337/3/4 334/3/4 338/3/4
f 335/4/4 336/4/4 339/4/4
f 339/4/4 336/4/4 340/4/4
f 341/1/4 342/1/4 345/1/4
f 345/1/4 342/1/4 346/1/4
f 343/9/4 344/9/4 347/9/4
f 347/9/4 344/9/4 350/9/4
f 350/9/4 344/9/4 351/9/4
f 348/1/4 349/1/4 352/1/4
f 352/1/4 349/1/4 353/1/4
f 350/7/4 351/7/4 354/7/4
f 354/7/4 351/7/4 355/7/4
f 356/3/4 357/3/4 358/3/4
f 358/3/4 357/3/4 359/3/4
f 359/3/4 360/3/4 363/3/4
f 363/3/4 360/3/4 364/3/4
f 361/6/4 362/6/4 365/6/4
f 365/6/4 362/6/4 366/6/4
f 363/9/4 364/9/4 367/9/4
f 367/9/4 364/9/4 368/9/4
f 368/9/4 364/9/4 369/9/4
f 368/7/4 369/7/4 372/7/4
f 370/4/4 371/4/4 373/4/4
f 373/4/4 371/4/4 374/4/4
f 372/7/4 369/7/4 375/7/4
f 375/7/4 369/7/4 376/7/4
f 375/3/4 376/3/4 378/3/4
f 378/3/4 376/3/4 379/3/4
f 377/3/4 378/3/4 380/3/4
f 380/3/4 378/3/4 381/3/4
f 382/4/4 383/4/4 385/4/4
f 383/3/4 384/3/4 386/3/4
f 385/4/4 383/4/4 386/4/4
f 386/3/4 384/3/4 387/3/4
f 382/4/4 385/4/4 389/4/4
f 389/4/4 385/4/4 390/4/4
f 388/6/4 389/6/4 393/6/4
f 389/6/4 390/6/4 393/6/4
f 390/4/4 391/4/4 394/4/4
f 393/6/4 390/6/4 394/6/4
f 391/8/4 392/8/4 395/8/4
f 395/8/4 392/8/4 396/8/4
f 388/6/4 393/6/4 397/6/4
f 393/4/4 394/4/4 398/4/4
f 397/6/4 393/6/4 398/6/4
f 394/4/4 391/4/4 399/4/4
f 398/4/4 394/4/4 399/4/4
f 391/8/4 395/8/4 400/8/4
f 399/4/4 391/4/4 400/4/4
f 395/7/4 396/7/4 401/7/4
f 400/8/4 395/8/4 401/8/4
f 401/7/4 396/7/4 402/7/4
f 398/4/4 399/4/4 403/4/4
f 398/4/4 403/4/4 407/4/4
f 403/4/4 404/4/4 407/4/4
f 404/4/4 405/4/4 407/4/4
f 405/3/4 406/3/4 408/3/4
f 407/4/4 405/4/4 408/4/4
f 408/3/4 406/3/4 409/3/4
f 410/4/4 411/4/4 413/4/4
f 411/3/4 412/3/4 414/3/4
f 413/4/4 411/4/4 414/4/4
f 414/3/4 412/3/4 415/3/4
f 416/4/4 417/4/4 419/4/4
f 417/3/4 418/3/4 420/3/4
f 419/4/4 417/4/4 420/4/4
f 420/3/4 418/3/4 421/3/4
f 426/1/5 423/1/5 422/1/5
f 427/1/5 423/1/5 426/1/5
f 428/1/5 425/1/5 424/1/5
f 429/1/5 425/1/5 428/1/5
f 434/1/5 431/1/5 430/1/5
f 435/1/5 431/1/5 434/1/5
f 436/1/5 433/1/5 432/1/5
f 437/1/5 433/1/5 436/1/5
f 442/5/5 439/5/5 438/5/5
f 443/4/5 440/4/5 439/4/5
f 443/5/5 439/5/5 442/5/5
f 444/4/5 440/4/5 443/4/5
f 446/6/5 442/6/5 441/6/5
f 447/4/5 445/4/5 444/4/5
f 447/6/5 442/6/5 446/6/5
f 447/4/5 443/4/5 442/4/5
f 447/4/5 444/4/5 443/4/5
f 448/4/5 445/4/5 447/4/5
f 449/4/5 445/4/5 448/4/5
f 450/6/5 448/6/5 447/6/5
f 451/6/5 448/6/5 450/6/5
f 457/4/5 453/4/5 452/4/5
f 458/4/5 453/4/5 457/4/5
f 459/4/5 455/4/5 454/4/5
f 460/4/5 455/4/5 459/4/5
f 463/4/5 458/4/5 457/4/5
f 463/4/5 457/4/5 456/4/5
f 464/4/5 458/4/5 463/4/5
f 465/5/5 459/5/5 458/5/5
f 465/4/5 458/4/5 464/4/5
f 466/5/5 459/5/5 465/5/5
f 467/4/5 461/4/5 460/4/5
f 467/5/5 459/5/5 466/5/5
f 467/4/5 460/4/5 459/4/5
f 468/4/5 461/4/5 467/4/5
f 469/4/5 461/4/5 468/4/5
f 471/6/5 463/6/5 462/6/5
f 472/4/5 464/4/5 463/4/5
f 472/6/5 463/6/5 471/6/5
f 473/4/5 464/4/5 472/4/5
f 474/4/5 470/4/5 469/4/5
f 474/4/5 469/4/5 468/4/5
f 475/4/5 470/4/5 474/4/5
f 476/4/5 470/4/5 475/4/5
f 477/6/5 473/6/5 472/6/5
f 478/6/5 473/6/5 477/6/5
f 481/6/5 475/6/5 474/6/5
f 482/6/5 475/6/5 481/6/5
f 483/4/5 479/4/5 478/4/5
f 483/4/5 478/4/5 477/4/5
f 484/4/5 479/4/5 483/4/5
f 485/4/5 482/4/5 481/4/5
f 485/4/5 481/4/5 480/4/5
f 486/4/5 482/4/5 485/4/5
f 492/4/5 488/4/5 487/4/5
f 493/5/5 489/5/5 488/5/5
f 493/4/5 488/4/5 492/4/5
f 494/5/5 489/5/5 493/5/5
f 497/4/5 491/4/5 490/4/5
f 498/4/5 491/4/5 497/4/5
f 499/4/5 496/4/5 495/4/5
f 500/4/5 496/4/5 499/4/5
f 505/4/5 502/4/5 501/4/5
f 506/4/5 502/4/5 505/4/5
f 507/4/5 504/4/5 503/4/5
f 508/4/5 504/4/5 507/4/5
f 513/3/5 510/3/5 509/3/5
f 514/3/5 512/3/5 511/3/5
f 515/3/5 513/3/5 509/3/5
f 516/3/5 513/3/5 515/3/5
f 517/3/5 512/3/5 514/3/5
f 518/3/5 512/3/5 517/3/5
f 523/9/5 520/9/5 519/9/5
f 524/9/5 520/9/5 523/9/5
f 525/8/5 521/8/5 520/8/5
f 525/9/5 520/9/5 524/9/5
f 526/8/5 521/8/5 525/8/5
f 527/8/5 521/8/5 526/8/5
f 528/7/5 522/7/5 521/7/5
f 528/8/5 521/8/5 527/8/5
f 529/7/5 522/7/5 528/7/5
f 530/1/6 531/1/6 534/1/6
f 534/1/6 531/1/6 535/1/6
f 532/1/6 533/1/6 536/1/6
f 536/1/6 533/1/6 537/1/6
f 538/6/6 539/6/6 542/6/6
f 542/6/6 539/6/6 543/6/6
f 540/4/6 541/4/6 544/4/6
f 544/4/6 541/4/6 545/4/6
f 546/4/6 547/4/6 552/4/6
f 552/4/6 547/4/6 553/4/6
f 547/5/6 548/5/6 554/5/6
f 553/4/6 547/4/6 554/4/6
f 548/4/6 549/4/6 555/4/6
f 554/5/6 548/5/6 555/5/6
f 555/4/6 549/4/6 556/4/6
f 550/4/6 551/4/6 559/4/6
f 559/4/6 551/4/6 560/4/6
f 557/4/6 558/4/6 561/4/6
f 561/4/6 558/4/6 562/4/6
f 563/3/6 564/3/6 567/3/6
f 565/3/6 566/3/6 568/3/6
f 563/3/6 567/3/6 569/3/6
f 569/3/6 567/3/6 570/3/6
f 568/3/6 566/3/6 576/3/6
f 576/3/6 566/3/6 577/3/6
f 570/3/6 571/3/6 578/3/6
f 571/7/6 572/7/6 579/7/6
f 578/3/6 571/3/6 579/3/6
f 572/8/6 573/8/6 580/8/6
f 579/7/6 572/7/6 580/7/6
f 573/7/6 574/7/6 581/7/6
f 580/8/6 573/8/6 581/8/6
f 574/8/6 575/8/6 582/8/6
f 581/7/6 574/7/6 582/7/6
f 575/3/6 576/3/6 583/3/6
f 582/8/6 575/8/6 583/8/6
f 583/3/6 576/3/6 584/3/6
f 579/3/6 580/3/6 585/3/6
f 585/3/6 580/3/6 586/3/6
f 582/3/6 583/3/6 587/3/6
f 587/3/6 583/3/6 588/3/6
f 589/9/6 590/9/6 593/9/6
f 593/9/6 590/9/6 594/9/6
f 590/8/6 591/8/6 595/8/6
f 594/9/6 590/9/6 595/9/6
f 595/8/6 591/8/6 596/8/6
f 591/7/6 592/7/6 597/7/6
f 596/8/6 591/8/6 597/8/6
f 593/7/6 594/7/6 598/7/6
f 598/7/6 594/7/6 599/7/6
f 597/7/6 592/7/6 600/7/6
f 600/7/6 592/7/6 601/7/6
f 602/7/6 603/7/6 606/7/6
f 606/7/6 603/7/6 607/7/6
f 604/8/6 605/8/6 610/8/6
f 610/8/6 605/8/6 611/8/6
f 606/3/6 607/3/6 612/3/6
f 607/9/6 608/9/6 613/9/6
f 612/3/6 607/3/6 613/3/6
f 608/7/6 609/7/6 614/7/6
f 613/9/6 608/9/6 614/9/6
f 609/7/6 610/7/6 614/7/6
f 610/3/6 611/3/6 615/3/6
f 614/7/6 610/7/6 615/7/6
f 615/3/6 611/3/6 616/3/6
f 617/9/6 618/9/6 620/9/6
f 620/9/6 618/9/6 621/9/6
f 618/8/6 619/8/6 622/8/6
f 621/9/6 618/9/6 622/9/6
f 622/8/6 619/8/6 623/8/6
f 623/8/6 619/8/6 624/8/6
f 620/7/6 621/7/6 625/7/6
f 621/8/6 622/8/6 626/8/6
f 625/7/6 621/7/6 626/7/6
f 622/7/6 623/7/6 627/7/6
f 626/8/6 622/8/6 627/8/6
f 623/9/6 624/9/6 628/9/6
f 627/7/6 623/7/6 628/7/6
f 628/9/6 624/9/6 629/9/6
f 625/9/6 626/9/6 630/9/6
f 626/9/6 627/9/6 630/9/6
f 627/9/6 628/9/6 630/9/6
f 628/7/6 629/7/6 631/7/6
f 630/9/6 628/9/6 631/9/6
f 631/7/6 629/7/6 632/7/6
f 633/3/6 634/3/6 637/3/6
f 637/3/6 634/3/6 638/3/6
f 635/3/6 636/3/6 639/3/6
f 639/3/6 636/3/6 640/3/6
