# MagicaVoxel @ Ephtracy

# group
o 

# material
mtllib yellow.mtl
usemtl palette

# normals
vn -1 0 0
vn 1 0 0
vn 0 0 1
vn 0 0 -1
vn 0 -1 0
vn 0 1 0

# texcoords
vt 0.310547 0.5
vt 0.380859 0.5
vt 0.384766 0.5
vt 0.388672 0.5
vt 0.857422 0.5
vt 0.978516 0.5
vt 0.982422 0.5
vt 0.986328 0.5
vt 0.994141 0.5

# verts
v -0.5 0.5 0.1
v -0.5 0.5 0
v -0.5 0.6 0.1
v -0.5 0.6 0
v -0.4 0 0.1
v -0.4 0 0
v -0.4 0.2 0.1
v -0.4 0.2 0
v -0.4 0.6 0.1
v -0.4 0.6 0
v -0.4 0.7 0.1
v -0.4 0.7 0
v -0.3 0.1 0.2
v -0.3 0.1 0.1
v -0.3 0.1 0
v -0.3 0.1 -0.1
v -0.3 0.2 0.3
v -0.3 0.2 0.2
v -0.3 0.2 0.1
v -0.3 0.2 0
v -0.3 0.2 -0.1
v -0.3 0.3 0.3
v -0.3 0.3 0.2
v -0.3 0.3 0.1
v -0.3 0.3 0
v -0.3 0.3 -0.1
v -0.3 0.3 -0.2
v -0.3 0.4 0.2
v -0.3 0.4 0.1
v -0.3 0.4 0
v -0.3 0.4 -0.1
v -0.3 0.4 -0.2
v -0.3 0.5 0.2
v -0.3 0.5 0.1
v -0.3 0.5 -0.1
v -0.3 0.5 -0.2
v -0.3 0.6 0.2
v -0.3 0.6 0.1
v -0.3 0.7 0.1
v -0.3 0.8 0.2
v -0.3 0.8 0.1
v -0.2 0.2 -0.1
v -0.2 0.2 -0.2
v -0.2 0.3 0.3
v -0.2 0.3 0.2
v -0.2 0.3 0.1
v -0.2 0.3 0
v -0.2 0.3 -0.1
v -0.2 0.3 -0.2
v -0.2 0.3 -0.3
v -0.2 0.4 0.3
v -0.2 0.4 0.2
v -0.2 0.4 0.1
v -0.2 0.4 0
v -0.2 0.4 -0.1
v -0.2 0.4 -0.2
v -0.2 0.4 -0.3
v -0.2 0.5 0.2
v -0.2 0.5 0.1
v -0.2 0.5 -0.1
v -0.2 0.5 -0.2
v -0.2 0.5 -0.3
v -0.2 0.6 0.2
v -0.2 0.6 0.1
v -0.2 0.6 0
v -0.2 0.6 -0.1
v -0.2 0.6 -0.2
v -0.2 0.7 0
v -0.2 0.7 -0.2
v -0.1 0.4 0.3
v -0.1 0.4 0.2
v -0.1 0.5 0.3
v -0.1 0.5 0.2
v 0.1 0.3 0.3
v 0.1 0.3 0.2
v 0.1 0.4 0.3
v 0.1 0.4 0.2
v 0.1 0.7 0.2
v 0.1 0.7 0.1
v 0.1 0.8 0.2
v 0.1 0.8 0.1
v 0.2 0 0.1
v 0.2 0 0
v 0.2 0.1 0.1
v 0.2 0.1 0
v 0.4 0.5 0.1
v 0.4 0.5 0
v 0.4 0.6 0.1
v 0.4 0.6 0
v -0.4 0.5 0.1
v -0.4 0.5 0
v -0.4 0.6 0.1
v -0.4 0.6 0
v -0.2 0 0.1
v -0.2 0 0
v -0.2 0.1 0.1
v -0.2 0.1 0
v -0.1 0.3 0.3
v -0.1 0.3 0.2
v -0.1 0.4 0.3
v -0.1 0.4 0.2
v -0.1 0.7 0.2
v -0.1 0.7 0.1
v -0.1 0.8 0.2
v -0.1 0.8 0.1
v 0.1 0.4 0.3
v 0.1 0.4 0.2
v 0.1 0.5 0.3
v 0.1 0.5 0.2
v 0.2 0.2 -0.1
v 0.2 0.2 -0.2
v 0.2 0.3 0.3
v 0.2 0.3 0.2
v 0.2 0.3 0.1
v 0.2 0.3 0
v 0.2 0.3 -0.1
v 0.2 0.3 -0.2
v 0.2 0.3 -0.3
v 0.2 0.4 0.3
v 0.2 0.4 0.2
v 0.2 0.4 0
v 0.2 0.4 -0.1
v 0.2 0.5 0.2
v 0.2 0.5 0.1
v 0.2 0.5 0
v 0.2 0.5 -0.1
v 0.2 0.5 -0.2
v 0.2 0.5 -0.3
v 0.2 0.6 0.2
v 0.2 0.6 0.1
v 0.2 0.6 0
v 0.2 0.7 0
v 0.2 0.7 -0.1
v 0.2 0.7 -0.2
v 0.3 0.1 0.2
v 0.3 0.1 0.1
v 0.3 0.1 0
v 0.3 0.1 -0.1
v 0.3 0.2 0.3
v 0.3 0.2 0.2
v 0.3 0.2 0.1
v 0.3 0.2 0
v 0.3 0.2 -0.1
v 0.3 0.3 0.3
v 0.3 0.3 0.2
v 0.3 0.3 0.1
v 0.3 0.3 0
v 0.3 0.3 -0.1
v 0.3 0.3 -0.2
v 0.3 0.4 0
v 0.3 0.4 -0.1
v 0.3 0.5 0.2
v 0.3 0.5 0.1
v 0.3 0.5 -0.1
v 0.3 0.5 -0.2
v 0.3 0.6 0.2
v 0.3 0.6 0.1
v 0.3 0.7 0.1
v 0.3 0.8 0.2
v 0.3 0.8 0.1
v 0.4 0 0.1
v 0.4 0 0
v 0.4 0.2 0.1
v 0.4 0.2 0
v 0.4 0.6 0.1
v 0.4 0.6 0
v 0.4 0.7 0.1
v 0.4 0.7 0
v 0.5 0.5 0.1
v 0.5 0.5 0
v 0.5 0.6 0.1
v 0.5 0.6 0
v -0.3 0.2 0.3
v -0.3 0.3 0.3
v -0.2 0.3 0.3
v -0.2 0.4 0.3
v -0.1 0.2 0.3
v -0.1 0.3 0.3
v -0.1 0.4 0.3
v -0.1 0.5 0.3
v 0.1 0.3 0.3
v 0.1 0.4 0.3
v 0.1 0.5 0.3
v 0.2 0.2 0.3
v 0.2 0.3 0.3
v 0.2 0.4 0.3
v 0.3 0.2 0.3
v 0.3 0.3 0.3
v -0.3 0.1 0.2
v -0.3 0.2 0.2
v -0.3 0.3 0.2
v -0.3 0.4 0.2
v -0.3 0.5 0.2
v -0.3 0.6 0.2
v -0.3 0.8 0.2
v -0.2 0.1 0.2
v -0.2 0.2 0.2
v -0.2 0.3 0.2
v -0.2 0.4 0.2
v -0.2 0.5 0.2
v -0.2 0.6 0.2
v -0.2 0.7 0.2
v -0.1 0.2 0.2
v -0.1 0.3 0.2
v -0.1 0.4 0.2
v -0.1 0.5 0.2
v -0.1 0.6 0.2
v -0.1 0.7 0.2
v -0.1 0.8 0.2
v 0 0.1 0.2
v 0 0.2 0.2
v 0 0.3 0.2
v 0 0.4 0.2
v 0 0.5 0.2
v 0 0.7 0.2
v 0.1 0.3 0.2
v 0.1 0.4 0.2
v 0.1 0.5 0.2
v 0.1 0.6 0.2
v 0.1 0.7 0.2
v 0.1 0.8 0.2
v 0.2 0.1 0.2
v 0.2 0.2 0.2
v 0.2 0.3 0.2
v 0.2 0.4 0.2
v 0.2 0.5 0.2
v 0.2 0.6 0.2
v 0.2 0.7 0.2
v 0.3 0.1 0.2
v 0.3 0.2 0.2
v 0.3 0.3 0.2
v 0.3 0.5 0.2
v 0.3 0.6 0.2
v 0.3 0.8 0.2
v -0.5 0.5 0.1
v -0.5 0.6 0.1
v -0.4 0 0.1
v -0.4 0.2 0.1
v -0.4 0.5 0.1
v -0.4 0.6 0.1
v -0.4 0.7 0.1
v -0.3 0.1 0.1
v -0.3 0.2 0.1
v -0.3 0.6 0.1
v -0.3 0.7 0.1
v -0.2 0 0.1
v -0.2 0.1 0.1
v 0.2 0 0.1
v 0.2 0.1 0.1
v 0.3 0.1 0.1
v 0.3 0.2 0.1
v 0.3 0.6 0.1
v 0.3 0.7 0.1
v 0.4 0 0.1
v 0.4 0.2 0.1
v 0.4 0.5 0.1
v 0.4 0.6 0.1
v 0.4 0.7 0.1
v 0.5 0.5 0.1
v 0.5 0.6 0.1
v -0.3 0.3 0
v -0.3 0.4 0
v -0.2 0.3 0
v -0.2 0.4 0
v 0.2 0.3 0
v 0.2 0.4 0
v 0.3 0.3 0
v 0.3 0.4 0
v -0.3 0.4 -0.1
v -0.3 0.5 -0.1
v -0.2 0.4 -0.1
v -0.2 0.5 -0.1
v 0.2 0.4 -0.1
v 0.2 0.5 -0.1
v 0.3 0.4 -0.1
v 0.3 0.5 -0.1
v -0.3 0.3 0.1
v -0.3 0.4 0.1
v -0.3 0.5 0.1
v -0.3 0.7 0.1
v -0.3 0.8 0.1
v -0.2 0.3 0.1
v -0.2 0.4 0.1
v -0.2 0.5 0.1
v -0.1 0.7 0.1
v -0.1 0.8 0.1
v 0.1 0.7 0.1
v 0.1 0.8 0.1
v 0.2 0.3 0.1
v 0.2 0.5 0.1
v 0.2 0.7 0.1
v 0.3 0.3 0.1
v 0.3 0.5 0.1
v 0.3 0.7 0.1
v 0.3 0.8 0.1
v -0.5 0.5 0
v -0.5 0.6 0
v -0.4 0 0
v -0.4 0.2 0
v -0.4 0.5 0
v -0.4 0.6 0
v -0.4 0.7 0
v -0.3 0.1 0
v -0.3 0.2 0
v -0.3 0.6 0
v -0.3 0.7 0
v -0.2 0 0
v -0.2 0.1 0
v -0.2 0.6 0
v -0.2 0.7 0
v 0.2 0 0
v 0.2 0.1 0
v 0.2 0.6 0
v 0.2 0.7 0
v 0.3 0.1 0
v 0.3 0.2 0
v 0.3 0.6 0
v 0.3 0.7 0
v 0.4 0 0
v 0.4 0.2 0
v 0.4 0.5 0
v 0.4 0.6 0
v 0.4 0.7 0
v 0.5 0.5 0
v 0.5 0.6 0
v -0.3 0.1 -0.1
v -0.3 0.2 -0.1
v -0.3 0.3 -0.1
v -0.2 0.1 -0.1
v -0.2 0.2 -0.1
v -0.2 0.3 -0.1
v 0 0.2 -0.1
v 0.1 0.1 -0.1
v 0.1 0.2 -0.1
v 0.2 0.1 -0.1
v 0.2 0.2 -0.1
v 0.2 0.3 -0.1
v 0.3 0.1 -0.1
v 0.3 0.2 -0.1
v 0.3 0.3 -0.1
v -0.3 0.3 -0.2
v -0.3 0.4 -0.2
v -0.3 0.5 -0.2
v -0.2 0.2 -0.2
v -0.2 0.3 -0.2
v -0.2 0.4 -0.2
v -0.2 0.5 -0.2
v -0.2 0.6 -0.2
v -0.2 0.7 -0.2
v -0.1 0.3 -0.2
v -0.1 0.6 -0.2
v -0.1 0.7 -0.2
v 0 0.2 -0.2
v 0 0.3 -0.2
v 0 0.5 -0.2
v 0 0.6 -0.2
v 0 0.7 -0.2
v 0.1 0.3 -0.2
v 0.1 0.6 -0.2
v 0.1 0.7 -0.2
v 0.2 0.2 -0.2
v 0.2 0.3 -0.2
v 0.2 0.5 -0.2
v 0.2 0.7 -0.2
v 0.3 0.3 -0.2
v 0.3 0.5 -0.2
v -0.2 0.3 -0.3
v -0.2 0.4 -0.3
v -0.2 0.5 -0.3
v -0.1 0.3 -0.3
v -0.1 0.4 -0.3
v 0 0.3 -0.3
v 0 0.4 -0.3
v 0.1 0.3 -0.3
v 0.1 0.4 -0.3
v 0.2 0.3 -0.3
v 0.2 0.5 -0.3
v -0.4 0 0.1
v -0.2 0 0.1
v 0.2 0 0.1
v 0.4 0 0.1
v -0.4 0 0
v -0.2 0 0
v 0.2 0 0
v 0.4 0 0
v -0.3 0.1 0.2
v -0.2 0.1 0.2
v 0 0.1 0.2
v 0.2 0.1 0.2
v 0.3 0.1 0.2
v -0.3 0.1 0.1
v -0.2 0.1 0.1
v -0.1 0.1 0.1
v 0 0.1 0.1
v 0.1 0.1 0.1
v 0.2 0.1 0.1
v 0.3 0.1 0.1
v -0.3 0.1 0
v -0.2 0.1 0
v -0.1 0.1 0
v 0 0.1 0
v 0.1 0.1 0
v 0.2 0.1 0
v 0.3 0.1 0
v -0.3 0.1 -0.1
v -0.2 0.1 -0.1
v 0.1 0.1 -0.1
v 0.2 0.1 -0.1
v 0.3 0.1 -0.1
v -0.3 0.2 0.3
v -0.1 0.2 0.3
v 0.2 0.2 0.3
v 0.3 0.2 0.3
v -0.3 0.2 0.2
v -0.2 0.2 0.2
v -0.1 0.2 0.2
v 0 0.2 0.2
v 0.2 0.2 0.2
v 0.3 0.2 0.2
v -0.2 0.2 -0.1
v 0 0.2 -0.1
v 0.1 0.2 -0.1
v 0.2 0.2 -0.1
v -0.2 0.2 -0.2
v 0 0.2 -0.2
v 0.2 0.2 -0.2
v -0.3 0.3 -0.1
v -0.2 0.3 -0.1
v 0.2 0.3 -0.1
v 0.3 0.3 -0.1
v -0.3 0.3 -0.2
v -0.2 0.3 -0.2
v -0.1 0.3 -0.2
v 0 0.3 -0.2
v 0.1 0.3 -0.2
v 0.2 0.3 -0.2
v 0.3 0.3 -0.2
v -0.2 0.3 -0.3
v -0.1 0.3 -0.3
v 0 0.3 -0.3
v 0.1 0.3 -0.3
v 0.2 0.3 -0.3
v -0.1 0.4 0.3
v 0.1 0.4 0.3
v -0.1 0.4 0.2
v 0 0.4 0.2
v 0.1 0.4 0.2
v -0.5 0.5 0.1
v -0.4 0.5 0.1
v 0.4 0.5 0.1
v 0.5 0.5 0.1
v -0.5 0.5 0
v -0.4 0.5 0
v 0.4 0.5 0
v 0.5 0.5 0
v -0.3 0.6 0.2
v -0.2 0.6 0.2
v 0.2 0.6 0.2
v 0.3 0.6 0.2
v -0.4 0.6 0.1
v -0.3 0.6 0.1
v -0.2 0.6 0.1
v 0.2 0.6 0.1
v 0.3 0.6 0.1
v 0.4 0.6 0.1
v -0.4 0.6 0
v -0.3 0.6 0
v -0.2 0.6 0
v 0.2 0.6 0
v 0.3 0.6 0
v 0.4 0.6 0
v -0.4 0.2 0.1
v -0.3 0.2 0.1
v 0.3 0.2 0.1
v 0.4 0.2 0.1
v -0.4 0.2 0
v -0.3 0.2 0
v 0.3 0.2 0
v 0.4 0.2 0
v -0.3 0.3 0.3
v -0.2 0.3 0.3
v -0.1 0.3 0.3
v 0.1 0.3 0.3
v 0.2 0.3 0.3
v 0.3 0.3 0.3
v -0.3 0.3 0.2
v -0.2 0.3 0.2
v -0.1 0.3 0.2
v 0 0.3 0.2
v 0.1 0.3 0.2
v 0.2 0.3 0.2
v 0.3 0.3 0.2
v -0.3 0.3 0.1
v -0.2 0.3 0.1
v 0.2 0.3 0.1
v 0.3 0.3 0.1
v -0.3 0.3 0
v -0.2 0.3 0
v 0.2 0.3 0
v 0.3 0.3 0
v -0.2 0.4 0.3
v -0.1 0.4 0.3
v 0.1 0.4 0.3
v 0.2 0.4 0.3
v -0.2 0.4 0.2
v -0.1 0.4 0.2
v 0.1 0.4 0.2
v 0.2 0.4 0.2
v -0.3 0.4 0
v -0.2 0.4 0
v 0.2 0.4 0
v 0.3 0.4 0
v -0.3 0.4 -0.1
v -0.2 0.4 -0.1
v 0.2 0.4 -0.1
v 0.3 0.4 -0.1
v -0.1 0.5 0.3
v 0.1 0.5 0.3
v -0.3 0.5 0.2
v -0.2 0.5 0.2
v -0.1 0.5 0.2
v 0 0.5 0.2
v 0.1 0.5 0.2
v 0.2 0.5 0.2
v 0.3 0.5 0.2
v -0.3 0.5 0.1
v -0.2 0.5 0.1
v 0.2 0.5 0.1
v 0.3 0.5 0.1
v -0.3 0.5 -0.1
v -0.2 0.5 -0.1
v 0.2 0.5 -0.1
v 0.3 0.5 -0.1
v -0.3 0.5 -0.2
v -0.2 0.5 -0.2
v 0 0.5 -0.2
v 0.2 0.5 -0.2
v 0.3 0.5 -0.2
v -0.2 0.5 -0.3
v 0.2 0.5 -0.3
v -0.5 0.6 0.1
v -0.4 0.6 0.1
v 0.4 0.6 0.1
v 0.5 0.6 0.1
v -0.5 0.6 0
v -0.4 0.6 0
v 0.4 0.6 0
v 0.5 0.6 0
v -0.1 0.7 0.2
v 0 0.7 0.2
v 0.1 0.7 0.2
v -0.4 0.7 0.1
v -0.3 0.7 0.1
v -0.1 0.7 0.1
v 0 0.7 0.1
v 0.1 0.7 0.1
v 0.2 0.7 0.1
v 0.3 0.7 0.1
v 0.4 0.7 0.1
v -0.4 0.7 0
v -0.3 0.7 0
v -0.2 0.7 0
v -0.1 0.7 0
v 0 0.7 0
v 0.2 0.7 0
v 0.3 0.7 0
v 0.4 0.7 0
v -0.1 0.7 -0.1
v 0 0.7 -0.1
v 0.1 0.7 -0.1
v 0.2 0.7 -0.1
v -0.2 0.7 -0.2
v -0.1 0.7 -0.2
v 0 0.7 -0.2
v 0.1 0.7 -0.2
v 0.2 0.7 -0.2
v -0.3 0.8 0.2
v -0.1 0.8 0.2
v 0.1 0.8 0.2
v 0.3 0.8 0.2
v -0.3 0.8 0.1
v -0.1 0.8 0.1
v 0.1 0.8 0.1
v 0.3 0.8 0.1

# faces
f 3/4/1 2/4/1 1/4/1
f 4/4/1 2/4/1 3/4/1
f 7/4/1 6/4/1 5/4/1
f 8/4/1 6/4/1 7/4/1
f 11/2/1 10/2/1 9/2/1
f 12/2/1 10/2/1 11/2/1
f 18/4/1 14/4/1 13/4/1
f 19/4/1 14/4/1 18/4/1
f 20/4/1 16/4/1 15/4/1
f 21/4/1 16/4/1 20/4/1
f 22/8/1 18/8/1 17/8/1
f 23/6/1 19/6/1 18/6/1
f 23/8/1 18/8/1 22/8/1
f 23/6/1 20/6/1 19/6/1
f 23/6/1 21/6/1 20/6/1
f 24/6/1 21/6/1 23/6/1
f 25/6/1 21/6/1 24/6/1
f 26/6/1 21/6/1 25/6/1
f 28/8/1 24/8/1 23/8/1
f 29/8/1 24/8/1 28/8/1
f 30/7/1 26/7/1 25/7/1
f 31/8/1 27/8/1 26/8/1
f 31/7/1 26/7/1 30/7/1
f 32/8/1 27/8/1 31/8/1
f 33/7/1 29/7/1 28/7/1
f 34/7/1 29/7/1 33/7/1
f 35/7/1 32/7/1 31/7/1
f 36/7/1 32/7/1 35/7/1
f 39/1/1 38/1/1 37/1/1
f 40/1/1 39/1/1 37/1/1
f 41/1/1 39/1/1 40/1/1
f 48/8/1 43/8/1 42/8/1
f 49/8/1 43/8/1 48/8/1
f 51/1/1 45/1/1 44/1/1
f 52/1/1 45/1/1 51/1/1
f 53/2/1 47/2/1 46/2/1
f 54/2/1 47/2/1 53/2/1
f 56/6/1 50/6/1 49/6/1
f 57/6/1 50/6/1 56/6/1
f 59/4/1 55/4/1 54/4/1
f 59/4/1 54/4/1 53/4/1
f 60/4/1 55/4/1 59/4/1
f 61/7/1 57/7/1 56/7/1
f 62/7/1 57/7/1 61/7/1
f 63/4/1 60/4/1 59/4/1
f 63/4/1 59/4/1 58/4/1
f 64/4/1 60/4/1 63/4/1
f 65/4/1 60/4/1 64/4/1
f 66/2/1 61/2/1 60/2/1
f 66/4/1 60/4/1 65/4/1
f 67/2/1 61/2/1 66/2/1
f 68/4/1 67/4/1 66/4/1
f 68/4/1 66/4/1 65/4/1
f 69/4/1 67/4/1 68/4/1
f 72/1/1 71/1/1 70/1/1
f 73/1/1 71/1/1 72/1/1
f 76/1/1 75/1/1 74/1/1
f 77/1/1 75/1/1 76/1/1
f 80/1/1 79/1/1 78/1/1
f 81/1/1 79/1/1 80/1/1
f 84/4/1 83/4/1 82/4/1
f 85/4/1 83/4/1 84/4/1
f 88/3/1 87/3/1 86/3/1
f 89/3/1 87/3/1 88/3/1
f 90/4/2 91/4/2 92/4/2
f 92/4/2 91/4/2 93/4/2
f 94/4/2 95/4/2 96/4/2
f 96/4/2 95/4/2 97/4/2
f 98/1/2 99/1/2 100/1/2
f 100/1/2 99/1/2 101/1/2
f 102/1/2 103/1/2 104/1/2
f 104/1/2 103/1/2 105/1/2
f 106/1/2 107/1/2 108/1/2
f 108/1/2 107/1/2 109/1/2
f 110/6/2 111/6/2 116/6/2
f 116/6/2 111/6/2 117/6/2
f 112/1/2 113/1/2 119/1/2
f 119/1/2 113/1/2 120/1/2
f 114/2/2 115/2/2 121/2/2
f 121/2/2 122/2/2 124/2/2
f 114/2/2 121/2/2 124/2/2
f 124/2/2 122/2/2 125/2/2
f 125/2/2 122/2/2 126/2/2
f 117/7/2 118/7/2 127/7/2
f 127/7/2 118/7/2 128/7/2
f 123/3/2 124/3/2 129/3/2
f 124/3/2 125/3/2 129/3/2
f 129/3/2 125/3/2 130/3/2
f 125/4/2 126/4/2 131/4/2
f 130/3/2 125/3/2 131/3/2
f 131/4/2 126/4/2 132/4/2
f 126/3/2 127/3/2 133/3/2
f 132/4/2 126/4/2 133/4/2
f 133/3/2 127/3/2 134/3/2
f 135/4/2 136/4/2 140/4/2
f 140/4/2 136/4/2 141/4/2
f 137/4/2 138/4/2 142/4/2
f 142/4/2 138/4/2 143/4/2
f 140/6/2 141/6/2 144/6/2
f 139/6/2 140/6/2 144/6/2
f 144/6/2 141/6/2 145/6/2
f 142/7/2 143/7/2 146/7/2
f 145/6/2 141/6/2 146/6/2
f 141/7/2 142/7/2 146/7/2
f 146/7/2 143/7/2 147/7/2
f 147/7/2 143/7/2 148/7/2
f 147/7/2 148/7/2 150/7/2
f 148/7/2 149/7/2 150/7/2
f 150/7/2 149/7/2 151/7/2
f 145/7/2 146/7/2 152/7/2
f 152/7/2 146/7/2 153/7/2
f 151/7/2 149/7/2 154/7/2
f 154/7/2 149/7/2 155/7/2
f 156/1/2 157/1/2 158/1/2
f 156/1/2 158/1/2 159/1/2
f 159/1/2 158/1/2 160/1/2
f 161/4/2 162/4/2 163/4/2
f 163/4/2 162/4/2 164/4/2
f 165/4/2 166/4/2 167/4/2
f 167/4/2 166/4/2 168/4/2
f 169/3/2 170/3/2 171/3/2
f 171/3/2 170/3/2 172/3/2
f 175/8/3 174/8/3 173/8/3
f 177/8/3 175/8/3 173/8/3
f 178/1/3 176/1/3 175/1/3
f 178/8/3 175/8/3 177/8/3
f 179/1/3 176/1/3 178/1/3
f 181/7/3 178/7/3 177/7/3
f 182/1/3 180/1/3 179/1/3
f 183/1/3 180/1/3 182/1/3
f 184/7/3 181/7/3 177/7/3
f 185/1/3 182/1/3 181/1/3
f 185/7/3 181/7/3 184/7/3
f 186/1/3 182/1/3 185/1/3
f 187/6/3 185/6/3 184/6/3
f 188/6/3 185/6/3 187/6/3
f 196/4/3 190/4/3 189/4/3
f 197/4/3 190/4/3 196/4/3
f 198/8/3 192/8/3 191/8/3
f 199/7/3 193/7/3 192/7/3
f 199/8/3 192/8/3 198/8/3
f 200/7/3 193/7/3 199/7/3
f 201/1/3 195/1/3 194/1/3
f 202/1/3 195/1/3 201/1/3
f 203/8/3 197/8/3 196/8/3
f 205/3/3 200/3/3 199/3/3
f 206/4/3 201/4/3 200/4/3
f 206/3/3 200/3/3 205/3/3
f 207/9/3 202/9/3 201/9/3
f 207/4/3 201/4/3 206/4/3
f 208/1/3 195/1/3 202/1/3
f 208/9/3 202/9/3 207/9/3
f 209/1/3 195/1/3 208/1/3
f 210/8/3 203/8/3 196/8/3
f 211/8/3 203/8/3 210/8/3
f 212/3/3 205/3/3 204/3/3
f 213/3/3 205/3/3 212/3/3
f 214/4/3 207/4/3 206/4/3
f 214/4/3 208/4/3 207/4/3
f 215/4/3 208/4/3 214/4/3
f 216/2/3 213/2/3 212/2/3
f 217/2/3 213/2/3 216/2/3
f 218/3/3 215/3/3 214/3/3
f 219/3/3 215/3/3 218/3/3
f 220/3/3 215/3/3 219/3/3
f 222/7/3 211/7/3 210/7/3
f 223/7/3 211/7/3 222/7/3
f 225/3/3 219/3/3 218/3/3
f 225/3/3 218/3/3 217/3/3
f 226/3/3 219/3/3 225/3/3
f 227/9/3 220/9/3 219/9/3
f 227/3/3 219/3/3 226/3/3
f 228/1/3 221/1/3 220/1/3
f 228/9/3 220/9/3 227/9/3
f 229/4/3 223/4/3 222/4/3
f 230/4/3 223/4/3 229/4/3
f 231/7/3 226/7/3 225/7/3
f 231/7/3 225/7/3 224/7/3
f 232/7/3 226/7/3 231/7/3
f 233/1/3 228/1/3 227/1/3
f 234/1/3 221/1/3 228/1/3
f 234/1/3 228/1/3 233/1/3
f 239/4/3 236/4/3 235/4/3
f 240/4/3 236/4/3 239/4/3
f 242/4/3 238/4/3 237/4/3
f 243/4/3 238/4/3 242/4/3
f 244/2/3 241/2/3 240/2/3
f 245/2/3 241/2/3 244/2/3
f 246/4/3 242/4/3 237/4/3
f 247/4/3 242/4/3 246/4/3
f 250/4/3 249/4/3 248/4/3
f 254/4/3 250/4/3 248/4/3
f 254/4/3 251/4/3 250/4/3
f 255/4/3 251/4/3 254/4/3
f 257/4/3 253/4/3 252/4/3
f 258/4/3 253/4/3 257/4/3
f 259/3/3 257/3/3 256/3/3
f 260/3/3 257/3/3 259/3/3
f 263/7/3 262/7/3 261/7/3
f 264/7/3 262/7/3 263/7/3
f 267/7/3 266/7/3 265/7/3
f 268/7/3 266/7/3 267/7/3
f 271/7/3 270/7/3 269/7/3
f 272/7/3 270/7/3 271/7/3
f 275/7/3 274/7/3 273/7/3
f 276/7/3 274/7/3 275/7/3
f 277/8/4 278/8/4 282/8/4
f 278/7/4 279/7/4 283/7/4
f 282/8/4 278/8/4 283/8/4
f 283/7/4 279/7/4 284/7/4
f 280/1/4 281/1/4 285/1/4
f 285/1/4 281/1/4 286/1/4
f 287/1/4 288/1/4 291/1/4
f 289/7/4 290/7/4 292/7/4
f 292/7/4 290/7/4 293/7/4
f 291/1/4 288/1/4 294/1/4
f 294/1/4 288/1/4 295/1/4
f 296/4/4 297/4/4 300/4/4
f 300/4/4 297/4/4 301/4/4
f 298/4/4 299/4/4 303/4/4
f 303/4/4 299/4/4 304/4/4
f 301/2/4 302/2/4 305/2/4
f 305/2/4 302/2/4 306/2/4
f 298/4/4 303/4/4 307/4/4
f 307/4/4 303/4/4 308/4/4
f 305/3/4 306/3/4 309/3/4
f 309/3/4 306/3/4 310/3/4
f 311/4/4 312/4/4 315/4/4
f 313/2/4 314/2/4 317/2/4
f 317/2/4 314/2/4 318/2/4
f 315/4/4 316/4/4 319/4/4
f 311/4/4 315/4/4 319/4/4
f 319/4/4 316/4/4 320/4/4
f 317/4/4 318/4/4 322/4/4
f 322/4/4 318/4/4 323/4/4
f 321/3/4 322/3/4 324/3/4
f 324/3/4 322/3/4 325/3/4
f 326/4/4 327/4/4 329/4/4
f 327/6/4 328/6/4 330/6/4
f 329/4/4 327/4/4 330/4/4
f 330/6/4 328/6/4 331/6/4
f 329/8/4 330/8/4 332/8/4
f 329/8/4 332/8/4 333/8/4
f 333/8/4 332/8/4 334/8/4
f 333/6/4 334/6/4 335/6/4
f 335/6/4 334/6/4 336/6/4
f 335/4/4 336/4/4 338/4/4
f 336/7/4 337/7/4 339/7/4
f 338/4/4 336/4/4 339/4/4
f 339/7/4 337/7/4 340/7/4
f 341/8/4 342/8/4 345/8/4
f 342/7/4 343/7/4 346/7/4
f 345/8/4 342/8/4 346/8/4
f 346/7/4 343/7/4 347/7/4
f 344/8/4 345/8/4 350/8/4
f 348/4/4 349/4/4 351/4/4
f 347/2/4 348/2/4 351/2/4
f 351/4/4 349/4/4 352/4/4
f 344/8/4 350/8/4 353/8/4
f 353/8/4 350/8/4 354/8/4
f 347/2/4 351/2/4 355/2/4
f 351/2/4 352/2/4 355/2/4
f 355/2/4 352/2/4 356/2/4
f 356/2/4 352/2/4 357/2/4
f 353/6/4 354/6/4 358/6/4
f 355/3/4 356/3/4 359/3/4
f 356/4/4 357/4/4 359/4/4
f 359/4/4 357/4/4 360/4/4
f 353/6/4 358/6/4 361/6/4
f 361/6/4 358/6/4 362/6/4
f 355/3/4 359/3/4 363/3/4
f 359/3/4 360/3/4 363/3/4
f 363/3/4 360/3/4 364/3/4
f 362/7/4 363/7/4 365/7/4
f 365/7/4 363/7/4 366/7/4
f 367/6/4 368/6/4 370/6/4
f 368/7/4 369/7/4 371/7/4
f 370/6/4 368/6/4 371/6/4
f 370/7/4 371/7/4 372/7/4
f 371/7/4 369/7/4 373/7/4
f 372/7/4 371/7/4 373/7/4
f 372/6/4 373/6/4 374/6/4
f 373/7/4 369/7/4 375/7/4
f 374/6/4 373/6/4 375/6/4
f 374/7/4 375/7/4 376/7/4
f 375/7/4 369/7/4 377/7/4
f 376/7/4 375/7/4 377/7/4
f 382/4/5 379/4/5 378/4/5
f 383/4/5 379/4/5 382/4/5
f 384/4/5 381/4/5 380/4/5
f 385/4/5 381/4/5 384/4/5
f 391/4/5 387/4/5 386/4/5
f 392/8/5 388/8/5 387/8/5
f 392/4/5 387/4/5 391/4/5
f 393/8/5 388/8/5 392/8/5
f 394/7/5 389/7/5 388/7/5
f 394/8/5 388/8/5 393/8/5
f 395/7/5 389/7/5 394/7/5
f 396/4/5 390/4/5 389/4/5
f 396/7/5 389/7/5 395/7/5
f 397/4/5 390/4/5 396/4/5
f 399/6/5 393/6/5 392/6/5
f 400/7/5 394/7/5 393/7/5
f 400/6/5 393/6/5 399/6/5
f 401/6/5 395/6/5 394/6/5
f 401/7/5 394/7/5 400/7/5
f 402/8/5 396/8/5 395/8/5
f 402/6/5 395/6/5 401/6/5
f 403/8/5 396/8/5 402/8/5
f 405/4/5 399/4/5 398/4/5
f 406/8/5 400/8/5 399/8/5
f 406/4/5 399/4/5 405/4/5
f 406/8/5 401/8/5 400/8/5
f 406/8/5 402/8/5 401/8/5
f 407/6/5 403/6/5 402/6/5
f 407/8/5 402/8/5 406/8/5
f 408/4/5 404/4/5 403/4/5
f 408/6/5 403/6/5 407/6/5
f 409/4/5 404/4/5 408/4/5
f 414/8/5 411/8/5 410/8/5
f 415/8/5 411/8/5 414/8/5
f 416/7/5 412/7/5 411/7/5
f 416/8/5 411/8/5 415/8/5
f 417/7/5 412/7/5 416/7/5
f 418/6/5 413/6/5 412/6/5
f 418/7/5 412/7/5 417/7/5
f 419/6/5 413/6/5 418/6/5
f 424/8/5 421/8/5 420/8/5
f 425/6/5 423/6/5 422/6/5
f 425/8/5 421/8/5 424/8/5
f 425/6/5 422/6/5 421/6/5
f 426/6/5 423/6/5 425/6/5
f 431/8/5 428/8/5 427/8/5
f 432/8/5 428/8/5 431/8/5
f 436/7/5 430/7/5 429/7/5
f 437/7/5 430/7/5 436/7/5
f 438/6/5 433/6/5 432/6/5
f 439/7/5 434/7/5 433/7/5
f 439/6/5 433/6/5 438/6/5
f 440/6/5 435/6/5 434/6/5
f 440/7/5 434/7/5 439/7/5
f 441/7/5 436/7/5 435/7/5
f 441/6/5 435/6/5 440/6/5
f 442/7/5 436/7/5 441/7/5
f 445/1/5 444/1/5 443/1/5
f 446/1/5 444/1/5 445/1/5
f 447/1/5 444/1/5 446/1/5
f 452/4/5 449/4/5 448/4/5
f 453/4/5 449/4/5 452/4/5
f 454/3/5 451/3/5 450/3/5
f 455/3/5 451/3/5 454/3/5
f 461/1/5 457/1/5 456/1/5
f 462/1/5 457/1/5 461/1/5
f 463/1/5 459/1/5 458/1/5
f 464/1/5 459/1/5 463/1/5
f 466/2/5 461/2/5 460/2/5
f 467/3/5 462/3/5 461/3/5
f 467/2/5 461/2/5 466/2/5
f 468/3/5 462/3/5 467/3/5
f 469/2/5 464/2/5 463/2/5
f 470/4/5 465/4/5 464/4/5
f 470/2/5 464/2/5 469/2/5
f 471/4/5 465/4/5 470/4/5
f 472/4/6 473/4/6 476/4/6
f 476/4/6 473/4/6 477/4/6
f 474/4/6 475/4/6 478/4/6
f 478/4/6 475/4/6 479/4/6
f 480/8/6 481/8/6 486/8/6
f 486/8/6 481/8/6 487/8/6
f 482/7/6 483/7/6 488/7/6
f 488/7/6 483/7/6 489/7/6
f 489/7/6 483/7/6 490/7/6
f 484/6/6 485/6/6 491/6/6
f 491/6/6 485/6/6 492/6/6
f 493/6/6 494/6/6 497/6/6
f 497/6/6 494/6/6 498/6/6
f 495/7/6 496/7/6 499/7/6
f 499/7/6 496/7/6 500/7/6
f 501/1/6 502/1/6 505/1/6
f 505/1/6 502/1/6 506/1/6
f 503/1/6 504/1/6 507/1/6
f 507/1/6 504/1/6 508/1/6
f 509/7/6 510/7/6 513/7/6
f 513/7/6 510/7/6 514/7/6
f 511/7/6 512/7/6 515/7/6
f 515/7/6 512/7/6 516/7/6
f 517/1/6 518/1/6 521/1/6
f 521/1/6 518/1/6 522/1/6
f 522/1/6 518/1/6 523/1/6
f 519/7/6 520/7/6 526/7/6
f 526/7/6 520/7/6 527/7/6
f 524/7/6 525/7/6 528/7/6
f 528/7/6 525/7/6 529/7/6
f 530/7/6 531/7/6 534/7/6
f 534/7/6 531/7/6 535/7/6
f 532/7/6 533/7/6 537/7/6
f 537/7/6 533/7/6 538/7/6
f 535/7/6 536/7/6 539/7/6
f 536/7/6 537/7/6 539/7/6
f 539/7/6 537/7/6 540/7/6
f 541/4/6 542/4/6 545/4/6
f 545/4/6 542/4/6 546/4/6
f 543/3/6 544/3/6 547/3/6
f 547/3/6 544/3/6 548/3/6
f 549/4/6 550/4/6 554/4/6
f 550/3/6 551/3/6 555/3/6
f 554/4/6 550/4/6 555/4/6
f 555/3/6 551/3/6 556/3/6
f 552/2/6 553/2/6 560/2/6
f 553/3/6 554/3/6 561/3/6
f 560/2/6 553/2/6 561/2/6
f 561/3/6 554/3/6 562/3/6
f 554/2/6 555/2/6 563/2/6
f 562/3/6 554/3/6 563/3/6
f 555/4/6 556/4/6 564/4/6
f 563/2/6 555/2/6 564/2/6
f 556/4/6 557/4/6 564/4/6
f 557/2/6 558/2/6 565/2/6
f 564/4/6 557/4/6 565/4/6
f 558/4/6 559/4/6 566/4/6
f 565/2/6 558/2/6 566/2/6
f 566/4/6 559/4/6 567/4/6
f 562/4/6 563/4/6 568/4/6
f 563/3/6 564/3/6 568/3/6
f 564/4/6 565/4/6 569/4/6
f 568/3/6 564/3/6 569/3/6
f 569/4/6 565/4/6 570/4/6
f 570/4/6 565/4/6 571/4/6
f 562/4/6 568/4/6 572/4/6
f 568/2/6 569/2/6 573/2/6
f 572/4/6 568/4/6 573/4/6
f 569/4/6 570/4/6 574/4/6
f 573/2/6 569/2/6 574/2/6
f 570/3/6 571/3/6 575/3/6
f 574/4/6 570/4/6 575/4/6
f 575/3/6 571/3/6 576/3/6
f 577/1/6 578/1/6 581/1/6
f 581/1/6 578/1/6 582/1/6
f 579/1/6 580/1/6 583/1/6
f 583/1/6 580/1/6 584/1/6
