# MagicaVoxel @ Ephtracy

# group
o 

# material
mtllib arm_L_gun2.mtl
usemtl palette

# normals
vn -1 0 0
vn 1 0 0
vn 0 0 1
vn 0 0 -1
vn 0 -1 0
vn 0 1 0

# texcoords
vt 0.275391 0.5
vt 0.720703 0.5
vt 0.974609 0.5
vt 0.978516 0.5

# verts
v 3.72529e-008 0.4 0.4
v 3.72529e-008 0.4 0.3
v 3.72529e-008 0.5 0.4
v 3.72529e-008 0.5 0.3
v 0.1 0.4 0.3
v 0.1 0.4 0.2
v 0.1 0.5 0.3
v 0.1 0.5 0.2
v 0.2 0.3 0.5
v 0.2 0.3 0.2
v 0.2 0.4 0.5
v 0.2 0.4 0.4
v 0.2 0.4 0.3
v 0.2 0.4 0.2
v 0.2 0.4 -0.1
v 0.2 0.5 0.5
v 0.2 0.5 0.4
v 0.2 0.5 0.3
v 0.2 0.5 0.2
v 0.2 0.5 -0.1
v 0.2 0.6 0.5
v 0.2 0.6 0.2
v 0.3 0.3 0.5
v 0.3 0.3 0.2
v 0.3 0.4 0.5
v 0.3 0.4 0.4
v 0.3 0.4 0.3
v 0.3 0.4 0.2
v 0.3 0.4 -0.1
v 0.3 0.5 0.5
v 0.3 0.5 0.4
v 0.3 0.5 0.3
v 0.3 0.5 0.2
v 0.3 0.5 -0.1
v 0.3 0.6 0.5
v 0.3 0.6 0.2
v 0.4 0.4 0.3
v 0.4 0.4 0.2
v 0.4 0.5 0.3
v 0.4 0.5 0.2
v 0.5 0.4 0.4
v 0.5 0.4 0.3
v 0.5 0.5 0.4
v 0.5 0.5 0.3
v 0.2 0.3 0.5
v 0.2 0.4 0.5
v 0.2 0.5 0.5
v 0.2 0.6 0.5
v 0.3 0.3 0.5
v 0.3 0.4 0.5
v 0.3 0.5 0.5
v 0.3 0.6 0.5
v 3.72529e-008 0.4 0.4
v 3.72529e-008 0.5 0.4
v 0.1 0.4 0.4
v 0.1 0.5 0.4
v 0.2 0.4 0.4
v 0.2 0.5 0.4
v 0.3 0.4 0.4
v 0.3 0.5 0.4
v 0.4 0.4 0.4
v 0.4 0.5 0.4
v 0.5 0.4 0.4
v 0.5 0.5 0.4
v 3.72529e-008 0.4 0.3
v 3.72529e-008 0.5 0.3
v 0.1 0.4 0.3
v 0.1 0.5 0.3
v 0.4 0.4 0.3
v 0.4 0.5 0.3
v 0.5 0.4 0.3
v 0.5 0.5 0.3
v 0.1 0.4 0.2
v 0.1 0.5 0.2
v 0.2 0.3 0.2
v 0.2 0.4 0.2
v 0.2 0.5 0.2
v 0.2 0.6 0.2
v 0.3 0.3 0.2
v 0.3 0.4 0.2
v 0.3 0.5 0.2
v 0.3 0.6 0.2
v 0.4 0.4 0.2
v 0.4 0.5 0.2
v 0.2 0.4 -0.1
v 0.2 0.5 -0.1
v 0.3 0.4 -0.1
v 0.3 0.5 -0.1
v 0.2 0.3 0.5
v 0.3 0.3 0.5
v 0.2 0.3 0.2
v 0.3 0.3 0.2
v 3.72529e-008 0.4 0.4
v 0.1 0.4 0.4
v 0.2 0.4 0.4
v 0.3 0.4 0.4
v 0.4 0.4 0.4
v 0.5 0.4 0.4
v 3.72529e-008 0.4 0.3
v 0.1 0.4 0.3
v 0.2 0.4 0.3
v 0.3 0.4 0.3
v 0.4 0.4 0.3
v 0.5 0.4 0.3
v 0.1 0.4 0.2
v 0.2 0.4 0.2
v 0.3 0.4 0.2
v 0.4 0.4 0.2
v 0.2 0.4 -0.1
v 0.3 0.4 -0.1
v 0.2 0.5 0.5
v 0.3 0.5 0.5
v 0.2 0.5 0.4
v 0.3 0.5 0.4
v 0.2 0.4 0.5
v 0.3 0.4 0.5
v 0.2 0.4 0.4
v 0.3 0.4 0.4
v 3.72529e-008 0.5 0.4
v 0.1 0.5 0.4
v 0.2 0.5 0.4
v 0.3 0.5 0.4
v 0.4 0.5 0.4
v 0.5 0.5 0.4
v 3.72529e-008 0.5 0.3
v 0.1 0.5 0.3
v 0.2 0.5 0.3
v 0.3 0.5 0.3
v 0.4 0.5 0.3
v 0.5 0.5 0.3
v 0.1 0.5 0.2
v 0.2 0.5 0.2
v 0.3 0.5 0.2
v 0.4 0.5 0.2
v 0.2 0.5 -0.1
v 0.3 0.5 -0.1
v 0.2 0.6 0.5
v 0.3 0.6 0.5
v 0.2 0.6 0.2
v 0.3 0.6 0.2

# faces
f 3/4/1 2/4/1 1/4/1
f 4/4/1 2/4/1 3/4/1
f 7/3/1 6/3/1 5/3/1
f 8/3/1 6/3/1 7/3/1
f 11/3/1 10/3/1 9/3/1
f 12/3/1 10/3/1 11/3/1
f 13/3/1 10/3/1 12/3/1
f 14/3/1 10/3/1 13/3/1
f 19/1/1 15/1/1 14/1/1
f 20/1/1 15/1/1 19/1/1
f 21/3/1 18/3/1 17/3/1
f 21/3/1 17/3/1 16/3/1
f 21/3/1 19/3/1 18/3/1
f 22/3/1 19/3/1 21/3/1
f 23/3/2 24/3/2 25/3/2
f 25/3/2 24/3/2 26/3/2
f 26/3/2 24/3/2 27/3/2
f 27/3/2 24/3/2 28/3/2
f 28/1/2 29/1/2 33/1/2
f 33/1/2 29/1/2 34/1/2
f 31/3/2 32/3/2 35/3/2
f 30/3/2 31/3/2 35/3/2
f 32/3/2 33/3/2 35/3/2
f 35/3/2 33/3/2 36/3/2
f 37/3/2 38/3/2 39/3/2
f 39/3/2 38/3/2 40/3/2
f 41/3/2 42/3/2 43/3/2
f 43/3/2 42/3/2 44/3/2
f 49/3/3 46/3/3 45/3/3
f 50/3/3 46/3/3 49/3/3
f 51/3/3 48/3/3 47/3/3
f 52/3/3 48/3/3 51/3/3
f 55/4/3 54/4/3 53/4/3
f 56/4/3 54/4/3 55/4/3
f 57/2/3 56/2/3 55/2/3
f 58/2/3 56/2/3 57/2/3
f 59/2/3 58/2/3 57/2/3
f 60/2/3 58/2/3 59/2/3
f 61/2/3 60/2/3 59/2/3
f 62/2/3 60/2/3 61/2/3
f 63/3/3 62/3/3 61/3/3
f 64/3/3 62/3/3 63/3/3
f 65/4/4 66/4/4 67/4/4
f 67/4/4 66/4/4 68/4/4
f 69/3/4 70/3/4 71/3/4
f 71/3/4 70/3/4 72/3/4
f 73/3/4 74/3/4 76/3/4
f 76/3/4 74/3/4 77/3/4
f 75/3/4 76/3/4 79/3/4
f 79/3/4 76/3/4 80/3/4
f 77/3/4 78/3/4 81/3/4
f 81/3/4 78/3/4 82/3/4
f 80/3/4 81/3/4 83/3/4
f 83/3/4 81/3/4 84/3/4
f 85/1/4 86/1/4 87/1/4
f 87/1/4 86/1/4 88/1/4
f 91/3/5 90/3/5 89/3/5
f 92/3/5 90/3/5 91/3/5
f 99/4/5 94/4/5 93/4/5
f 100/2/5 95/2/5 94/2/5
f 100/4/5 94/4/5 99/4/5
f 101/2/5 95/2/5 100/2/5
f 102/2/5 97/2/5 96/2/5
f 103/3/5 98/3/5 97/3/5
f 103/2/5 97/2/5 102/2/5
f 104/3/5 98/3/5 103/3/5
f 105/3/5 101/3/5 100/3/5
f 106/3/5 101/3/5 105/3/5
f 107/3/5 103/3/5 102/3/5
f 108/3/5 103/3/5 107/3/5
f 109/1/5 107/1/5 106/1/5
f 110/1/5 107/1/5 109/1/5
f 113/3/5 112/3/5 111/3/5
f 114/3/5 112/3/5 113/3/5
f 115/3/6 116/3/6 117/3/6
f 117/3/6 116/3/6 118/3/6
f 119/4/6 120/4/6 125/4/6
f 120/2/6 121/2/6 126/2/6
f 125/4/6 120/4/6 126/4/6
f 126/2/6 121/2/6 127/2/6
f 122/2/6 123/2/6 128/2/6
f 123/3/6 124/3/6 129/3/6
f 128/2/6 123/2/6 129/2/6
f 129/3/6 124/3/6 130/3/6
f 126/3/6 127/3/6 131/3/6
f 131/3/6 127/3/6 132/3/6
f 128/3/6 129/3/6 133/3/6
f 133/3/6 129/3/6 134/3/6
f 132/1/6 133/1/6 135/1/6
f 135/1/6 133/1/6 136/1/6
f 137/3/6 138/3/6 139/3/6
f 139/3/6 138/3/6 140/3/6
