# MagicaVoxel @ Ephtracy

# group
o 

# material
mtllib arm_R_beam.mtl
usemtl palette

# normals
vn -1 0 0
vn 1 0 0
vn 0 0 1
vn 0 0 -1
vn 0 -1 0
vn 0 1 0

# texcoords
vt 0.115234 0.5
vt 0.275391 0.5
vt 0.974609 0.5

# verts
v -0.7 0.4 -2.98023e-008
v -0.7 0.4 -0.1
v -0.7 0.5 -2.98023e-008
v -0.7 0.5 -0.1
v -0.6 0.2 0.2
v -0.6 0.2 -0.1
v -0.6 0.3 0.3
v -0.6 0.3 0.2
v -0.6 0.3 -0.1
v -0.6 0.3 -0.2
v -0.6 0.4 0.3
v -0.6 0.4 0.2
v -0.6 0.4 -2.98023e-008
v -0.6 0.4 -0.1
v -0.6 0.4 -0.2
v -0.6 0.5 0.2
v -0.6 0.5 -2.98023e-008
v -0.6 0.5 -0.1
v -0.6 0.6 -2.98023e-008
v -0.6 0.6 -0.1
v -0.5 0.2 0.3
v -0.5 0.2 0.2
v -0.5 0.2 -0.1
v -0.5 0.2 -0.2
v -0.5 0.3 0.3
v -0.5 0.3 0.2
v -0.5 0.3 -0.1
v -0.5 0.3 -0.2
v -0.5 0.4 0.3
v -0.5 0.4 0.2
v -0.5 0.4 -0.1
v -0.5 0.4 -0.2
v -0.5 0.5 0.3
v -0.5 0.5 0.2
v -0.5 0.5 -0.1
v -0.5 0.5 -0.2
v -0.4 0.3 0.3
v -0.4 0.3 -2.98023e-008
v -0.4 0.4 0.3
v -0.4 0.4 -2.98023e-008
v -0.5 0.3 0.3
v -0.5 0.3 -2.98023e-008
v -0.5 0.4 0.3
v -0.5 0.4 -2.98023e-008
v -0.4 0.2 0.3
v -0.4 0.2 0.2
v -0.4 0.2 -0.1
v -0.4 0.2 -0.2
v -0.4 0.3 0.3
v -0.4 0.3 0.2
v -0.4 0.3 -0.1
v -0.4 0.3 -0.2
v -0.4 0.4 0.3
v -0.4 0.4 0.2
v -0.4 0.4 -0.1
v -0.4 0.4 -0.2
v -0.4 0.5 0.3
v -0.4 0.5 0.2
v -0.4 0.5 -0.1
v -0.4 0.5 -0.2
v -0.3 0.2 0.2
v -0.3 0.2 -0.1
v -0.3 0.3 0.3
v -0.3 0.3 0.2
v -0.3 0.3 0.1
v -0.3 0.3 -0.1
v -0.3 0.4 0.3
v -0.3 0.4 0.2
v -0.3 0.4 0.1
v -0.3 0.4 -0.1
v -0.3 0.5 0.2
v -0.3 0.5 -2.98023e-008
v -0.3 0.5 -0.1
v -0.3 0.6 -2.98023e-008
v -0.3 0.6 -0.1
v -0.2 0.3 0.1
v -0.2 0.3 -0.2
v -0.2 0.4 0.1
v -0.2 0.4 -0.2
v -0.6 0.3 0.3
v -0.6 0.4 0.3
v -0.5 0.2 0.3
v -0.5 0.3 0.3
v -0.5 0.4 0.3
v -0.5 0.5 0.3
v -0.4 0.2 0.3
v -0.4 0.3 0.3
v -0.4 0.4 0.3
v -0.4 0.5 0.3
v -0.3 0.3 0.3
v -0.3 0.4 0.3
v -0.6 0.2 0.2
v -0.6 0.3 0.2
v -0.6 0.4 0.2
v -0.6 0.5 0.2
v -0.5 0.2 0.2
v -0.5 0.3 0.2
v -0.5 0.4 0.2
v -0.5 0.5 0.2
v -0.4 0.2 0.2
v -0.4 0.3 0.2
v -0.4 0.4 0.2
v -0.4 0.5 0.2
v -0.3 0.2 0.2
v -0.3 0.3 0.2
v -0.3 0.4 0.2
v -0.3 0.5 0.2
v -0.3 0.3 0.1
v -0.3 0.4 0.1
v -0.2 0.3 0.1
v -0.2 0.4 0.1
v -0.7 0.4 -2.98023e-008
v -0.7 0.5 -2.98023e-008
v -0.6 0.4 -2.98023e-008
v -0.6 0.5 -2.98023e-008
v -0.6 0.6 -2.98023e-008
v -0.5 0.3 -2.98023e-008
v -0.5 0.4 -2.98023e-008
v -0.4 0.3 -2.98023e-008
v -0.4 0.4 -2.98023e-008
v -0.3 0.5 -2.98023e-008
v -0.3 0.6 -2.98023e-008
v -0.7 0.4 -0.1
v -0.7 0.5 -0.1
v -0.6 0.2 -0.1
v -0.6 0.3 -0.1
v -0.6 0.4 -0.1
v -0.6 0.5 -0.1
v -0.6 0.6 -0.1
v -0.5 0.2 -0.1
v -0.5 0.3 -0.1
v -0.5 0.4 -0.1
v -0.5 0.5 -0.1
v -0.4 0.2 -0.1
v -0.4 0.3 -0.1
v -0.4 0.4 -0.1
v -0.4 0.5 -0.1
v -0.3 0.2 -0.1
v -0.3 0.3 -0.1
v -0.3 0.4 -0.1
v -0.3 0.5 -0.1
v -0.3 0.6 -0.1
v -0.6 0.3 -0.2
v -0.6 0.4 -0.2
v -0.5 0.2 -0.2
v -0.5 0.3 -0.2
v -0.5 0.4 -0.2
v -0.5 0.5 -0.2
v -0.4 0.2 -0.2
v -0.4 0.3 -0.2
v -0.4 0.4 -0.2
v -0.4 0.5 -0.2
v -0.2 0.3 -0.2
v -0.2 0.4 -0.2
v -0.5 0.2 0.3
v -0.4 0.2 0.3
v -0.6 0.2 0.2
v -0.5 0.2 0.2
v -0.4 0.2 0.2
v -0.3 0.2 0.2
v -0.6 0.2 -0.1
v -0.5 0.2 -0.1
v -0.4 0.2 -0.1
v -0.3 0.2 -0.1
v -0.5 0.2 -0.2
v -0.4 0.2 -0.2
v -0.6 0.3 0.3
v -0.5 0.3 0.3
v -0.4 0.3 0.3
v -0.3 0.3 0.3
v -0.6 0.3 0.2
v -0.5 0.3 0.2
v -0.4 0.3 0.2
v -0.3 0.3 0.2
v -0.3 0.3 0.1
v -0.2 0.3 0.1
v -0.6 0.3 -0.1
v -0.5 0.3 -0.1
v -0.4 0.3 -0.1
v -0.3 0.3 -0.1
v -0.6 0.3 -0.2
v -0.5 0.3 -0.2
v -0.4 0.3 -0.2
v -0.2 0.3 -0.2
v -0.5 0.4 0.3
v -0.4 0.4 0.3
v -0.7 0.4 -2.98023e-008
v -0.6 0.4 -2.98023e-008
v -0.5 0.4 -2.98023e-008
v -0.4 0.4 -2.98023e-008
v -0.7 0.4 -0.1
v -0.6 0.4 -0.1
v -0.5 0.3 0.3
v -0.4 0.3 0.3
v -0.5 0.3 -2.98023e-008
v -0.4 0.3 -2.98023e-008
v -0.6 0.4 0.3
v -0.5 0.4 0.3
v -0.4 0.4 0.3
v -0.3 0.4 0.3
v -0.6 0.4 0.2
v -0.5 0.4 0.2
v -0.4 0.4 0.2
v -0.3 0.4 0.2
v -0.3 0.4 0.1
v -0.2 0.4 0.1
v -0.6 0.4 -0.1
v -0.5 0.4 -0.1
v -0.4 0.4 -0.1
v -0.3 0.4 -0.1
v -0.6 0.4 -0.2
v -0.5 0.4 -0.2
v -0.4 0.4 -0.2
v -0.2 0.4 -0.2
v -0.5 0.5 0.3
v -0.4 0.5 0.3
v -0.6 0.5 0.2
v -0.5 0.5 0.2
v -0.4 0.5 0.2
v -0.3 0.5 0.2
v -0.7 0.5 -2.98023e-008
v -0.6 0.5 -2.98023e-008
v -0.3 0.5 -2.98023e-008
v -0.7 0.5 -0.1
v -0.6 0.5 -0.1
v -0.5 0.5 -0.1
v -0.4 0.5 -0.1
v -0.5 0.5 -0.2
v -0.4 0.5 -0.2
v -0.6 0.6 -2.98023e-008
v -0.3 0.6 -2.98023e-008
v -0.6 0.6 -0.1
v -0.3 0.6 -0.1

# faces
f 3/2/1 2/2/1 1/2/1
f 4/2/1 2/2/1 3/2/1
f 8/3/1 6/3/1 5/3/1
f 9/3/1 6/3/1 8/3/1
f 11/3/1 8/3/1 7/3/1
f 11/3/1 10/3/1 9/3/1
f 11/3/1 9/3/1 8/3/1
f 12/3/1 10/3/1 11/3/1
f 13/3/1 10/3/1 12/3/1
f 14/3/1 10/3/1 13/3/1
f 15/3/1 10/3/1 14/3/1
f 16/3/1 13/3/1 12/3/1
f 17/3/1 13/3/1 16/3/1
f 19/2/1 18/2/1 17/2/1
f 20/2/1 18/2/1 19/2/1
f 25/3/1 22/3/1 21/3/1
f 26/3/1 22/3/1 25/3/1
f 27/3/1 24/3/1 23/3/1
f 28/3/1 24/3/1 27/3/1
f 33/3/1 30/3/1 29/3/1
f 34/3/1 30/3/1 33/3/1
f 35/3/1 32/3/1 31/3/1
f 36/3/1 32/3/1 35/3/1
f 39/3/1 38/3/1 37/3/1
f 40/3/1 38/3/1 39/3/1
f 41/3/2 42/3/2 43/3/2
f 43/3/2 42/3/2 44/3/2
f 45/3/2 46/3/2 49/3/2
f 49/3/2 46/3/2 50/3/2
f 47/3/2 48/3/2 51/3/2
f 51/3/2 48/3/2 52/3/2
f 53/3/2 54/3/2 57/3/2
f 57/3/2 54/3/2 58/3/2
f 55/3/2 56/3/2 59/3/2
f 59/3/2 56/3/2 60/3/2
f 61/3/2 62/3/2 64/3/2
f 64/3/2 62/3/2 65/3/2
f 65/3/2 62/3/2 66/3/2
f 63/3/2 64/3/2 67/3/2
f 64/3/2 65/3/2 67/3/2
f 67/3/2 65/3/2 68/3/2
f 68/3/2 65/3/2 69/3/2
f 69/3/2 70/3/2 71/3/2
f 68/3/2 69/3/2 71/3/2
f 71/3/2 70/3/2 72/3/2
f 72/3/2 70/3/2 73/3/2
f 72/2/2 73/2/2 74/2/2
f 74/2/2 73/2/2 75/2/2
f 76/3/2 77/3/2 78/3/2
f 78/3/2 77/3/2 79/3/2
f 83/3/3 81/3/3 80/3/3
f 84/3/3 81/3/3 83/3/3
f 86/3/3 83/3/3 82/3/3
f 87/3/3 83/3/3 86/3/3
f 88/3/3 85/3/3 84/3/3
f 89/3/3 85/3/3 88/3/3
f 90/3/3 88/3/3 87/3/3
f 91/3/3 88/3/3 90/3/3
f 96/3/3 93/3/3 92/3/3
f 97/3/3 93/3/3 96/3/3
f 98/3/3 95/3/3 94/3/3
f 99/3/3 95/3/3 98/3/3
f 104/3/3 101/3/3 100/3/3
f 105/3/3 101/3/3 104/3/3
f 106/3/3 103/3/3 102/3/3
f 107/3/3 103/3/3 106/3/3
f 110/3/3 109/3/3 108/3/3
f 111/3/3 109/3/3 110/3/3
f 114/2/3 113/2/3 112/2/3
f 115/2/3 113/2/3 114/2/3
f 119/1/3 118/1/3 117/1/3
f 120/1/3 118/1/3 119/1/3
f 121/2/3 116/2/3 115/2/3
f 122/2/3 116/2/3 121/2/3
f 123/2/4 124/2/4 127/2/4
f 127/2/4 124/2/4 128/2/4
f 125/3/4 126/3/4 130/3/4
f 130/3/4 126/3/4 131/3/4
f 127/3/4 128/3/4 132/3/4
f 128/2/4 129/2/4 133/2/4
f 132/3/4 128/3/4 133/3/4
f 133/2/4 129/2/4 137/2/4
f 134/3/4 135/3/4 138/3/4
f 138/3/4 135/3/4 139/3/4
f 136/3/4 137/3/4 140/3/4
f 137/2/4 129/2/4 141/2/4
f 140/3/4 137/3/4 141/3/4
f 141/2/4 129/2/4 142/2/4
f 143/3/4 144/3/4 146/3/4
f 146/3/4 144/3/4 147/3/4
f 145/3/4 146/3/4 149/3/4
f 147/3/4 148/3/4 149/3/4
f 146/3/4 147/3/4 149/3/4
f 149/3/4 148/3/4 150/3/4
f 150/3/4 148/3/4 151/3/4
f 151/3/4 148/3/4 152/3/4
f 150/3/4 151/3/4 153/3/4
f 153/3/4 151/3/4 154/3/4
f 158/3/5 156/3/5 155/3/5
f 159/3/5 156/3/5 158/3/5
f 161/3/5 158/3/5 157/3/5
f 161/3/5 160/3/5 159/3/5
f 161/3/5 159/3/5 158/3/5
f 162/3/5 160/3/5 161/3/5
f 163/3/5 160/3/5 162/3/5
f 164/3/5 160/3/5 163/3/5
f 165/3/5 163/3/5 162/3/5
f 166/3/5 163/3/5 165/3/5
f 171/3/5 168/3/5 167/3/5
f 172/3/5 168/3/5 171/3/5
f 173/3/5 170/3/5 169/3/5
f 174/3/5 170/3/5 173/3/5
f 180/3/5 176/3/5 175/3/5
f 181/3/5 178/3/5 177/3/5
f 182/3/5 178/3/5 181/3/5
f 183/3/5 180/3/5 179/3/5
f 184/3/5 176/3/5 180/3/5
f 184/3/5 180/3/5 183/3/5
f 189/3/5 186/3/5 185/3/5
f 190/3/5 186/3/5 189/3/5
f 191/2/5 188/2/5 187/2/5
f 192/2/5 188/2/5 191/2/5
f 193/3/6 194/3/6 195/3/6
f 195/3/6 194/3/6 196/3/6
f 197/3/6 198/3/6 201/3/6
f 201/3/6 198/3/6 202/3/6
f 199/3/6 200/3/6 203/3/6
f 203/3/6 200/3/6 204/3/6
f 205/3/6 206/3/6 210/3/6
f 207/3/6 208/3/6 211/3/6
f 211/3/6 208/3/6 212/3/6
f 209/3/6 210/3/6 213/3/6
f 210/3/6 206/3/6 214/3/6
f 213/3/6 210/3/6 214/3/6
f 215/3/6 216/3/6 218/3/6
f 218/3/6 216/3/6 219/3/6
f 217/3/6 218/3/6 222/3/6
f 219/3/6 220/3/6 222/3/6
f 218/3/6 219/3/6 222/3/6
f 222/3/6 220/3/6 223/3/6
f 221/2/6 222/2/6 224/2/6
f 224/2/6 222/2/6 225/2/6
f 226/3/6 227/3/6 228/3/6
f 228/3/6 227/3/6 229/3/6
f 230/2/6 231/2/6 232/2/6
f 232/2/6 231/2/6 233/2/6
