# MagicaVoxel @ Ephtracy

# group
o 

# material
mtllib chassis_cult.mtl
usemtl palette

# normals
vn -1 0 0
vn 1 0 0
vn 0 0 1
vn 0 0 -1
vn 0 -1 0
vn 0 1 0

# texcoords
vt 0.224609 0.5
vt 0.248047 0.5
vt 0.275391 0.5
vt 0.634766 0.5
vt 0.958984 0.5
vt 0.962891 0.5
vt 0.966797 0.5
vt 0.990234 0.5
vt 0.994141 0.5

# verts
v -0.3 0.5 -1.49012e-008
v -0.3 0.5 -0.2
v -0.3 0.6 -1.49012e-008
v -0.3 0.6 -0.2
v -0.2 0 -1.49012e-008
v -0.2 0 -0.1
v -0.2 0.1 0.1
v -0.2 0.1 -1.49012e-008
v -0.2 0.1 -0.1
v -0.2 0.1 -0.2
v -0.2 0.3 0.1
v -0.2 0.3 -1.49012e-008
v -0.2 0.3 -0.1
v -0.2 0.3 -0.2
v -0.2 0.4 -1.49012e-008
v -0.2 0.4 -0.1
v -0.2 0.5 0.1
v -0.2 0.5 -1.49012e-008
v -0.2 0.5 -0.2
v -0.2 0.6 -1.49012e-008
v -0.2 0.6 -0.2
v -0.2 0.7 0.1
v -0.2 0.7 -1.49012e-008
v -0.2 0.7 -0.2
v -0.2 0.7 -0.3
v -0.2 0.8 0.1
v -0.2 0.8 -1.49012e-008
v -0.2 0.9 0.1
v -0.2 0.9 -1.49012e-008
v -0.2 1 -1.49012e-008
v -0.2 1 -0.3
v 0.1 0 -1.49012e-008
v 0.1 0 -0.1
v 0.1 0.1 -1.49012e-008
v 0.1 0.1 -0.1
v 0.1 0.2 -1.49012e-008
v 0.1 0.2 -0.1
v -0.1 0 -1.49012e-008
v -0.1 0 -0.1
v -0.1 0.1 -1.49012e-008
v -0.1 0.1 -0.1
v -0.1 0.2 -1.49012e-008
v -0.1 0.2 -0.1
v 0.2 0 -1.49012e-008
v 0.2 0 -0.1
v 0.2 0.1 0.1
v 0.2 0.1 -1.49012e-008
v 0.2 0.1 -0.1
v 0.2 0.1 -0.2
v 0.2 0.3 0.1
v 0.2 0.3 -1.49012e-008
v 0.2 0.3 -0.1
v 0.2 0.3 -0.2
v 0.2 0.4 -1.49012e-008
v 0.2 0.4 -0.1
v 0.2 0.5 0.1
v 0.2 0.5 -1.49012e-008
v 0.2 0.5 -0.2
v 0.2 0.6 -1.49012e-008
v 0.2 0.6 -0.2
v 0.2 0.7 0.1
v 0.2 0.7 -0.2
v 0.2 0.7 -0.3
v 0.2 0.8 0.1
v 0.2 0.8 -1.49012e-008
v 0.2 0.9 0.1
v 0.2 0.9 -1.49012e-008
v 0.2 1 -1.49012e-008
v 0.2 1 -0.3
v 0.3 0.5 -1.49012e-008
v 0.3 0.5 -0.2
v 0.3 0.6 -1.49012e-008
v 0.3 0.6 -0.2
v -0.2 0.1 0.1
v -0.2 0.3 0.1
v -0.2 0.5 0.1
v -0.2 0.7 0.1
v -0.2 0.8 0.1
v -0.2 0.9 0.1
v -0.1 0.2 0.1
v -0.1 0.3 0.1
v -0.1 0.6 0.1
v -0.1 0.7 0.1
v -0.1 0.8 0.1
v -0.1 0.9 0.1
v 2.98023e-008 0.2 0.1
v 2.98023e-008 0.3 0.1
v 2.98023e-008 0.5 0.1
v 2.98023e-008 0.6 0.1
v 2.98023e-008 0.7 0.1
v 2.98023e-008 0.8 0.1
v 0.1 0.5 0.1
v 0.1 0.6 0.1
v 0.1 0.7 0.1
v 0.1 0.8 0.1
v 0.1 0.9 0.1
v 0.2 0.1 0.1
v 0.2 0.3 0.1
v 0.2 0.5 0.1
v 0.2 0.7 0.1
v 0.2 0.8 0.1
v 0.2 0.9 0.1
v -0.3 0.5 -1.49012e-008
v -0.3 0.6 -1.49012e-008
v -0.2 0 -1.49012e-008
v -0.2 0.1 -1.49012e-008
v -0.2 0.5 -1.49012e-008
v -0.2 0.6 -1.49012e-008
v -0.2 0.9 -1.49012e-008
v -0.2 1 -1.49012e-008
v -0.1 0 -1.49012e-008
v -0.1 0.1 -1.49012e-008
v -0.1 0.9 -1.49012e-008
v 0.1 0 -1.49012e-008
v 0.1 0.1 -1.49012e-008
v 0.1 0.9 -1.49012e-008
v 0.2 0 -1.49012e-008
v 0.2 0.1 -1.49012e-008
v 0.2 0.5 -1.49012e-008
v 0.2 0.6 -1.49012e-008
v 0.2 0.9 -1.49012e-008
v 0.2 1 -1.49012e-008
v 0.3 0.5 -1.49012e-008
v 0.3 0.6 -1.49012e-008
v -0.1 0.1 -0.1
v -0.1 0.2 -0.1
v 0.1 0.1 -0.1
v 0.1 0.2 -0.1
v -0.1 0.1 -1.49012e-008
v -0.1 0.2 -1.49012e-008
v 0.1 0.1 -1.49012e-008
v 0.1 0.2 -1.49012e-008
v -0.2 0 -0.1
v -0.2 0.1 -0.1
v -0.1 0 -0.1
v -0.1 0.1 -0.1
v 0.1 0 -0.1
v 0.1 0.1 -0.1
v 0.2 0 -0.1
v 0.2 0.1 -0.1
v -0.3 0.5 -0.2
v -0.3 0.6 -0.2
v -0.2 0.1 -0.2
v -0.2 0.3 -0.2
v -0.2 0.5 -0.2
v -0.2 0.6 -0.2
v -0.2 0.7 -0.2
v -0.1 0.3 -0.2
v -0.1 0.4 -0.2
v 2.98023e-008 0.3 -0.2
v 2.98023e-008 0.4 -0.2
v 2.98023e-008 0.5 -0.2
v 2.98023e-008 0.6 -0.2
v 0.1 0.5 -0.2
v 0.1 0.6 -0.2
v 0.2 0.1 -0.2
v 0.2 0.3 -0.2
v 0.2 0.5 -0.2
v 0.2 0.6 -0.2
v 0.2 0.7 -0.2
v 0.3 0.5 -0.2
v 0.3 0.6 -0.2
v -0.2 0.7 -0.3
v -0.2 1 -0.3
v 0.2 0.7 -0.3
v 0.2 1 -0.3
v -0.2 0 -1.49012e-008
v -0.1 0 -1.49012e-008
v 0.1 0 -1.49012e-008
v 0.2 0 -1.49012e-008
v -0.2 0 -0.1
v -0.1 0 -0.1
v 0.1 0 -0.1
v 0.2 0 -0.1
v -0.2 0.1 0.1
v 0.2 0.1 0.1
v -0.2 0.1 -1.49012e-008
v -0.1 0.1 -1.49012e-008
v 0.1 0.1 -1.49012e-008
v 0.2 0.1 -1.49012e-008
v -0.2 0.1 -0.1
v -0.1 0.1 -0.1
v 0.1 0.1 -0.1
v 0.2 0.1 -0.1
v -0.2 0.1 -0.2
v 0.2 0.1 -0.2
v -0.1 0.2 -1.49012e-008
v 0.1 0.2 -1.49012e-008
v -0.1 0.2 -0.1
v 0.1 0.2 -0.1
v -0.3 0.5 -1.49012e-008
v -0.2 0.5 -1.49012e-008
v 0.2 0.5 -1.49012e-008
v 0.3 0.5 -1.49012e-008
v -0.3 0.5 -0.2
v -0.2 0.5 -0.2
v 0.2 0.5 -0.2
v 0.3 0.5 -0.2
v -0.2 0.7 -0.2
v 0.2 0.7 -0.2
v -0.2 0.7 -0.3
v 0.2 0.7 -0.3
v -0.3 0.6 -1.49012e-008
v -0.2 0.6 -1.49012e-008
v 0.2 0.6 -1.49012e-008
v 0.3 0.6 -1.49012e-008
v -0.3 0.6 -0.2
v -0.2 0.6 -0.2
v 0.2 0.6 -0.2
v 0.3 0.6 -0.2
v -0.2 0.9 0.1
v -0.1 0.9 0.1
v 0.1 0.9 0.1
v 0.2 0.9 0.1
v -0.2 0.9 -1.49012e-008
v -0.1 0.9 -1.49012e-008
v 0.1 0.9 -1.49012e-008
v 0.2 0.9 -1.49012e-008
v -0.2 1 -1.49012e-008
v 0.2 1 -1.49012e-008
v -0.2 1 -0.3
v 0.2 1 -0.3

# faces
f 3/7/1 2/7/1 1/7/1
f 4/7/1 2/7/1 3/7/1
f 8/8/1 6/8/1 5/8/1
f 9/8/1 6/8/1 8/8/1
f 11/5/1 8/5/1 7/5/1
f 12/8/1 9/8/1 8/8/1
f 12/5/1 8/5/1 11/5/1
f 13/5/1 10/5/1 9/5/1
f 13/8/1 9/8/1 12/8/1
f 14/5/1 10/5/1 13/5/1
f 15/6/1 12/6/1 11/6/1
f 15/8/1 13/8/1 12/8/1
f 16/6/1 14/6/1 13/6/1
f 16/8/1 13/8/1 15/8/1
f 17/6/1 15/6/1 11/6/1
f 17/6/1 16/6/1 15/6/1
f 18/6/1 16/6/1 17/6/1
f 19/6/1 14/6/1 16/6/1
f 19/6/1 16/6/1 18/6/1
f 20/7/1 18/7/1 17/7/1
f 22/7/1 20/7/1 17/7/1
f 22/7/1 21/7/1 20/7/1
f 23/7/1 21/7/1 22/7/1
f 24/7/1 21/7/1 23/7/1
f 26/2/1 23/2/1 22/2/1
f 27/3/1 24/3/1 23/3/1
f 27/2/1 23/2/1 26/2/1
f 27/3/1 25/3/1 24/3/1
f 28/9/1 27/9/1 26/9/1
f 29/3/1 25/3/1 27/3/1
f 29/9/1 27/9/1 28/9/1
f 30/3/1 25/3/1 29/3/1
f 31/3/1 25/3/1 30/3/1
f 34/8/1 33/8/1 32/8/1
f 35/8/1 33/8/1 34/8/1
f 36/8/1 35/8/1 34/8/1
f 37/8/1 35/8/1 36/8/1
f 38/8/2 39/8/2 40/8/2
f 40/8/2 39/8/2 41/8/2
f 40/8/2 41/8/2 42/8/2
f 42/8/2 41/8/2 43/8/2
f 44/8/2 45/8/2 47/8/2
f 47/8/2 45/8/2 48/8/2
f 46/5/2 47/5/2 50/5/2
f 47/8/2 48/8/2 51/8/2
f 50/5/2 47/5/2 51/5/2
f 48/5/2 49/5/2 52/5/2
f 51/8/2 48/8/2 52/8/2
f 52/5/2 49/5/2 53/5/2
f 50/6/2 51/6/2 54/6/2
f 51/8/2 52/8/2 54/8/2
f 52/6/2 53/6/2 55/6/2
f 54/8/2 52/8/2 55/8/2
f 50/6/2 54/6/2 56/6/2
f 54/6/2 55/6/2 56/6/2
f 56/6/2 55/6/2 57/6/2
f 55/6/2 53/6/2 58/6/2
f 57/6/2 55/6/2 58/6/2
f 56/7/2 57/7/2 59/7/2
f 56/7/2 59/7/2 61/7/2
f 59/7/2 60/7/2 61/7/2
f 61/7/2 60/7/2 62/7/2
f 61/3/2 62/3/2 64/3/2
f 62/3/2 63/3/2 64/3/2
f 64/3/2 63/3/2 65/3/2
f 64/9/2 65/9/2 66/9/2
f 65/3/2 63/3/2 67/3/2
f 66/9/2 65/9/2 67/9/2
f 67/3/2 63/3/2 68/3/2
f 68/3/2 63/3/2 69/3/2
f 70/7/2 71/7/2 72/7/2
f 72/7/2 71/7/2 73/7/2
f 80/5/3 75/5/3 74/5/3
f 81/6/3 76/6/3 75/6/3
f 81/5/3 75/5/3 80/5/3
f 82/7/3 77/7/3 76/7/3
f 83/2/3 78/2/3 77/2/3
f 83/7/3 77/7/3 82/7/3
f 84/9/3 79/9/3 78/9/3
f 84/2/3 78/2/3 83/2/3
f 85/9/3 79/9/3 84/9/3
f 86/5/3 80/5/3 74/5/3
f 86/6/3 81/6/3 80/6/3
f 87/6/3 76/6/3 81/6/3
f 87/6/3 81/6/3 86/6/3
f 88/7/3 82/7/3 76/7/3
f 88/6/3 76/6/3 87/6/3
f 89/1/3 83/1/3 82/1/3
f 89/7/3 82/7/3 88/7/3
f 90/2/3 84/2/3 83/2/3
f 90/1/3 83/1/3 89/1/3
f 91/3/3 85/3/3 84/3/3
f 91/2/3 84/2/3 90/2/3
f 92/6/3 88/6/3 87/6/3
f 92/6/3 89/6/3 88/6/3
f 93/1/3 90/1/3 89/1/3
f 93/6/3 89/6/3 92/6/3
f 94/3/3 91/3/3 90/3/3
f 94/1/3 90/1/3 93/1/3
f 95/3/3 85/3/3 91/3/3
f 95/3/3 91/3/3 94/3/3
f 96/3/3 85/3/3 95/3/3
f 97/5/3 86/5/3 74/5/3
f 97/5/3 87/5/3 86/5/3
f 98/6/3 92/6/3 87/6/3
f 98/5/3 87/5/3 97/5/3
f 99/7/3 94/7/3 93/7/3
f 99/6/3 92/6/3 98/6/3
f 99/7/3 93/7/3 92/7/3
f 100/3/3 95/3/3 94/3/3
f 100/7/3 94/7/3 99/7/3
f 101/9/3 96/9/3 95/9/3
f 101/3/3 95/3/3 100/3/3
f 102/9/3 96/9/3 101/9/3
f 107/7/3 104/7/3 103/7/3
f 108/7/3 104/7/3 107/7/3
f 111/8/3 106/8/3 105/8/3
f 112/8/3 106/8/3 111/8/3
f 113/3/3 110/3/3 109/3/3
f 116/3/3 110/3/3 113/3/3
f 117/8/3 115/8/3 114/8/3
f 118/8/3 115/8/3 117/8/3
f 121/3/3 110/3/3 116/3/3
f 122/3/3 110/3/3 121/3/3
f 123/7/3 120/7/3 119/7/3
f 124/7/3 120/7/3 123/7/3
f 127/5/3 126/5/3 125/5/3
f 128/5/3 126/5/3 127/5/3
f 129/5/4 130/5/4 131/5/4
f 131/5/4 130/5/4 132/5/4
f 133/8/4 134/8/4 135/8/4
f 135/8/4 134/8/4 136/8/4
f 137/8/4 138/8/4 139/8/4
f 139/8/4 138/8/4 140/8/4
f 141/7/4 142/7/4 145/7/4
f 145/7/4 142/7/4 146/7/4
f 143/5/4 144/5/4 148/5/4
f 144/6/4 145/6/4 148/6/4
f 148/6/4 145/6/4 149/6/4
f 143/5/4 148/5/4 150/5/4
f 148/5/4 149/5/4 150/5/4
f 149/6/4 145/6/4 151/6/4
f 150/5/4 149/5/4 151/5/4
f 146/7/4 147/7/4 152/7/4
f 151/6/4 145/6/4 152/6/4
f 145/7/4 146/7/4 152/7/4
f 152/7/4 147/7/4 153/7/4
f 150/6/4 151/6/4 154/6/4
f 151/6/4 152/6/4 154/6/4
f 152/6/4 153/6/4 154/6/4
f 153/7/4 147/7/4 155/7/4
f 154/6/4 153/6/4 155/6/4
f 143/5/4 150/5/4 156/5/4
f 150/6/4 154/6/4 157/6/4
f 156/5/4 150/5/4 157/5/4
f 154/7/4 155/7/4 158/7/4
f 157/6/4 154/6/4 158/6/4
f 155/7/4 147/7/4 159/7/4
f 158/7/4 155/7/4 159/7/4
f 159/7/4 147/7/4 160/7/4
f 158/7/4 159/7/4 161/7/4
f 161/7/4 159/7/4 162/7/4
f 163/3/4 164/3/4 165/3/4
f 165/3/4 164/3/4 166/3/4
f 171/8/5 168/8/5 167/8/5
f 172/8/5 168/8/5 171/8/5
f 173/8/5 170/8/5 169/8/5
f 174/8/5 170/8/5 173/8/5
f 177/5/5 176/5/5 175/5/5
f 178/5/5 176/5/5 177/5/5
f 179/5/5 176/5/5 178/5/5
f 180/5/5 176/5/5 179/5/5
f 185/5/5 182/5/5 181/5/5
f 185/5/5 184/5/5 183/5/5
f 185/5/5 183/5/5 182/5/5
f 186/5/5 184/5/5 185/5/5
f 189/8/5 188/8/5 187/8/5
f 190/8/5 188/8/5 189/8/5
f 195/7/5 192/7/5 191/7/5
f 196/7/5 192/7/5 195/7/5
f 197/7/5 194/7/5 193/7/5
f 198/7/5 194/7/5 197/7/5
f 201/3/5 200/3/5 199/3/5
f 202/3/5 200/3/5 201/3/5
f 203/7/6 204/7/6 207/7/6
f 207/7/6 204/7/6 208/7/6
f 205/7/6 206/7/6 209/7/6
f 209/7/6 206/7/6 210/7/6
f 211/9/6 212/9/6 215/9/6
f 212/3/6 213/3/6 216/3/6
f 215/9/6 212/9/6 216/9/6
f 213/9/6 214/9/6 217/9/6
f 216/3/6 213/3/6 217/3/6
f 217/9/6 214/9/6 218/9/6
f 219/3/6 220/3/6 221/3/6
f 221/3/6 220/3/6 222/3/6
