# MagicaVoxel @ Ephtracy

# group
o 

# material
mtllib hair_hat.mtl
usemtl palette

# normals
vn -1 0 0
vn 1 0 0
vn 0 0 1
vn 0 0 -1
vn 0 -1 0
vn 0 1 0

# texcoords
vt 0.248047 0.5
vt 0.310547 0.5
vt 0.373047 0.5
vt 0.990234 0.5
vt 0.994141 0.5

# verts
v -0.5 1.1 0.2
v -0.5 1.1 -0.4
v -0.5 1.2 0.2
v -0.5 1.2 -0.4
v -0.4 0.8 0
v -0.4 0.8 -0.1
v -0.4 0.8 -0.2
v -0.4 0.9 0
v -0.4 0.9 -0.1
v -0.4 1 0.2
v -0.4 1 0
v -0.4 1 -0.2
v -0.4 1 -0.4
v -0.4 1.1 0.2
v -0.4 1.1 -0.4
v -0.3 0.7 0
v -0.3 0.7 -0.3
v -0.3 0.8 0.1
v -0.3 0.8 0
v -0.3 0.8 -0.1
v -0.3 0.8 -0.2
v -0.3 0.8 -0.3
v -0.3 0.8 -0.4
v -0.3 0.9 0
v -0.3 0.9 -0.3
v -0.3 0.9 -0.4
v -0.3 1 0.3
v -0.3 1 0.2
v -0.3 1 0.1
v -0.3 1 0
v -0.3 1 -0.2
v -0.3 1 -0.3
v -0.3 1 -0.4
v -0.3 1 -0.5
v -0.3 1.1 0.3
v -0.3 1.1 0.2
v -0.3 1.1 0.1
v -0.3 1.1 -0.3
v -0.3 1.1 -0.4
v -0.3 1.1 -0.5
v -0.3 1.2 0.1
v -0.3 1.2 -0.3
v -0.2 0.7 -0.3
v -0.2 0.7 -0.4
v -0.2 0.8 -0.3
v -0.2 0.8 -0.4
v -0.2 0.9 0.2
v -0.2 0.9 0.1
v -0.2 0.9 -0.3
v -0.2 0.9 -0.4
v -0.2 1 0.4
v -0.2 1 0.3
v -0.2 1 0.2
v -0.2 1 0.1
v -0.2 1 -0.3
v -0.2 1 -0.4
v -0.2 1 -0.5
v -0.2 1 -0.6
v -0.2 1.1 0.4
v -0.2 1.1 0.3
v -0.2 1.1 0.2
v -0.2 1.1 0.1
v -0.2 1.1 -0.3
v -0.2 1.1 -0.5
v -0.2 1.1 -0.6
v -0.2 1.2 0.3
v -0.2 1.2 0.2
v -0.2 1.2 0.1
v -0.2 1.2 -0.3
v -0.2 1.2 -0.5
v -0.2 1.3 0.3
v -0.2 1.3 0.2
v -0.2 1.3 -0.3
v -0.1 1.1 0.3
v -0.1 1.1 0.2
v -0.1 1.1 -0.5
v -0.1 1.1 -0.6
v -0.1 1.2 0.3
v -0.1 1.2 0.2
v -0.1 1.2 -0.3
v -0.1 1.2 -0.4
v -0.1 1.2 -0.5
v -0.1 1.2 -0.6
v -0.1 1.3 0.3
v -0.1 1.3 0.2
v -0.1 1.3 0.1
v -0.1 1.3 -0.3
v -0.1 1.3 -0.4
v -0.1 1.4 0.3
v -0.1 1.4 0.2
v -0.1 1.4 0.1
v -0.1 1.4 -0.3
v 0.2 0.7 0
v 0.2 0.7 -0.3
v 0.2 0.8 0.1
v 0.2 0.8 0
v 0.2 0.8 -0.1
v 0.2 0.9 0.1
v 0.2 0.9 0
v 0.2 0.9 -0.1
v 0.2 1 0
v 0.2 1 -0.2
v 0.2 1 -0.3
v 0.3 0.8 0
v 0.3 0.8 -0.1
v 0.3 0.9 0
v 0.3 0.9 -0.1
v 0.4 1.1 0.2
v 0.4 1.1 -0.4
v 0.4 1.2 0.2
v 0.4 1.2 -0.4
v -0.4 1.1 0.2
v -0.4 1.1 -0.4
v -0.4 1.2 0.2
v -0.4 1.2 -0.4
v -0.3 0.8 0
v -0.3 0.8 -0.1
v -0.3 0.9 0
v -0.3 0.9 -0.1
v -0.2 0.7 0
v -0.2 0.7 -0.3
v -0.2 0.8 0.1
v -0.2 0.8 0
v -0.2 0.8 -0.1
v -0.2 0.9 0.1
v -0.2 0.9 0
v -0.2 0.9 -0.1
v -0.2 1 0
v -0.2 1 -0.2
v -0.2 1 -0.3
v 0.1 1.1 0.3
v 0.1 1.1 0.2
v 0.1 1.1 -0.5
v 0.1 1.1 -0.6
v 0.1 1.2 0.3
v 0.1 1.2 0.2
v 0.1 1.2 -0.3
v 0.1 1.2 -0.4
v 0.1 1.2 -0.5
v 0.1 1.2 -0.6
v 0.1 1.3 0.3
v 0.1 1.3 0.2
v 0.1 1.3 0.1
v 0.1 1.3 -0.3
v 0.1 1.3 -0.4
v 0.1 1.4 0.3
v 0.1 1.4 0.2
v 0.1 1.4 0.1
v 0.1 1.4 -0.3
v 0.2 0.7 -0.3
v 0.2 0.7 -0.4
v 0.2 0.8 -0.3
v 0.2 0.8 -0.4
v 0.2 0.9 0.2
v 0.2 0.9 0.1
v 0.2 1 0.4
v 0.2 1 0.3
v 0.2 1 0.2
v 0.2 1 0.1
v 0.2 1 -0.5
v 0.2 1 -0.6
v 0.2 1.1 0.4
v 0.2 1.1 0.3
v 0.2 1.1 0.2
v 0.2 1.1 0.1
v 0.2 1.1 -0.3
v 0.2 1.1 -0.5
v 0.2 1.1 -0.6
v 0.2 1.2 0.3
v 0.2 1.2 0.2
v 0.2 1.2 0.1
v 0.2 1.2 -0.3
v 0.2 1.2 -0.5
v 0.2 1.3 0.3
v 0.2 1.3 0.2
v 0.2 1.3 -0.3
v 0.3 0.7 0
v 0.3 0.7 -0.3
v 0.3 0.8 0.1
v 0.3 0.8 0
v 0.3 0.8 -0.1
v 0.3 0.8 -0.2
v 0.3 0.8 -0.3
v 0.3 0.8 -0.4
v 0.3 0.9 0
v 0.3 1 0.3
v 0.3 1 0.2
v 0.3 1 0.1
v 0.3 1 0
v 0.3 1 -0.2
v 0.3 1 -0.4
v 0.3 1 -0.5
v 0.3 1.1 0.3
v 0.3 1.1 0.2
v 0.3 1.1 0.1
v 0.3 1.1 -0.3
v 0.3 1.1 -0.4
v 0.3 1.1 -0.5
v 0.3 1.2 0.1
v 0.3 1.2 -0.3
v 0.4 0.8 0
v 0.4 0.8 -0.1
v 0.4 0.8 -0.2
v 0.4 0.9 0
v 0.4 0.9 -0.1
v 0.4 1 0.2
v 0.4 1 0
v 0.4 1 -0.2
v 0.4 1 -0.4
v 0.4 1.1 0.2
v 0.4 1.1 -0.4
v 0.5 1.1 0.2
v 0.5 1.1 -0.4
v 0.5 1.2 0.2
v 0.5 1.2 -0.4
v -0.2 1 0.4
v -0.2 1.1 0.4
v 0.2 1 0.4
v 0.2 1.1 0.4
v -0.3 1 0.3
v -0.3 1.1 0.3
v -0.2 1 0.3
v -0.2 1.1 0.3
v -0.2 1.2 0.3
v -0.2 1.3 0.3
v -0.1 1.1 0.3
v -0.1 1.2 0.3
v -0.1 1.3 0.3
v -0.1 1.4 0.3
v 0.1 1.1 0.3
v 0.1 1.2 0.3
v 0.1 1.3 0.3
v 0.1 1.4 0.3
v 0.2 1 0.3
v 0.2 1.1 0.3
v 0.2 1.2 0.3
v 0.2 1.3 0.3
v 0.3 1 0.3
v 0.3 1.1 0.3
v -0.5 1.1 0.2
v -0.5 1.2 0.2
v -0.4 1 0.2
v -0.4 1.1 0.2
v -0.4 1.2 0.2
v -0.3 1 0.2
v -0.3 1.1 0.2
v -0.2 0.9 0.2
v -0.2 1 0.2
v -0.2 1.1 0.2
v -0.2 1.2 0.2
v -0.1 1.1 0.2
v -0.1 1.2 0.2
v 0.1 1.1 0.2
v 0.1 1.2 0.2
v 0.2 0.9 0.2
v 0.2 1 0.2
v 0.2 1.1 0.2
v 0.2 1.2 0.2
v 0.3 1 0.2
v 0.3 1.1 0.2
v 0.4 1 0.2
v 0.4 1.1 0.2
v 0.4 1.2 0.2
v 0.5 1.1 0.2
v 0.5 1.2 0.2
v -0.3 0.8 0.1
v -0.3 1 0.1
v -0.3 1.1 0.1
v -0.3 1.2 0.1
v -0.2 0.8 0.1
v -0.2 0.9 0.1
v -0.2 1 0.1
v -0.2 1.1 0.1
v -0.2 1.2 0.1
v -0.1 1.3 0.1
v -0.1 1.4 0.1
v 0.1 1.3 0.1
v 0.1 1.4 0.1
v 0.2 0.8 0.1
v 0.2 0.9 0.1
v 0.2 1 0.1
v 0.2 1.1 0.1
v 0.2 1.2 0.1
v 0.3 0.8 0.1
v 0.3 1 0.1
v 0.3 1.1 0.1
v 0.3 1.2 0.1
v -0.4 0.8 0
v -0.4 0.9 0
v -0.4 1 0
v -0.3 0.7 0
v -0.3 0.8 0
v -0.3 0.9 0
v -0.3 1 0
v -0.2 0.7 0
v -0.2 0.8 0
v 0.2 0.7 0
v 0.2 0.8 0
v 0.3 0.7 0
v 0.3 0.8 0
v 0.3 0.9 0
v 0.3 1 0
v 0.4 0.8 0
v 0.4 0.9 0
v 0.4 1 0
v -0.3 0.8 -0.1
v -0.3 0.9 -0.1
v -0.2 0.8 -0.1
v -0.2 0.9 -0.1
v 0.2 0.8 -0.1
v 0.2 0.9 -0.1
v 0.3 0.8 -0.1
v 0.3 0.9 -0.1
v -0.2 0.7 -0.3
v -0.2 1 -0.3
v 0.2 0.7 -0.3
v 0.2 1 -0.3
v -0.1 1.3 0.2
v -0.1 1.4 0.2
v 0.1 1.3 0.2
v 0.1 1.4 0.2
v -0.3 0.8 0
v -0.3 0.9 0
v -0.2 0.8 0
v -0.2 0.9 0
v -0.2 1 0
v 0.2 0.8 0
v 0.2 0.9 0
v 0.2 1 0
v 0.3 0.8 0
v 0.3 0.9 0
v -0.4 0.8 -0.2
v -0.4 1 -0.2
v -0.3 0.8 -0.2
v -0.3 1 -0.2
v 0.3 0.8 -0.2
v 0.3 1 -0.2
v 0.4 0.8 -0.2
v 0.4 1 -0.2
v -0.3 0.7 -0.3
v -0.3 0.8 -0.3
v -0.3 0.9 -0.3
v -0.3 1 -0.3
v -0.3 1.1 -0.3
v -0.3 1.2 -0.3
v -0.2 0.7 -0.3
v -0.2 0.8 -0.3
v -0.2 0.9 -0.3
v -0.2 1 -0.3
v -0.2 1.1 -0.3
v -0.2 1.2 -0.3
v -0.2 1.3 -0.3
v -0.1 1.2 -0.3
v -0.1 1.3 -0.3
v -0.1 1.4 -0.3
v 0.1 1.2 -0.3
v 0.1 1.3 -0.3
v 0.1 1.4 -0.3
v 0.2 0.7 -0.3
v 0.2 0.8 -0.3
v 0.2 1.1 -0.3
v 0.2 1.2 -0.3
v 0.2 1.3 -0.3
v 0.3 0.7 -0.3
v 0.3 0.8 -0.3
v 0.3 1.1 -0.3
v 0.3 1.2 -0.3
v -0.5 1.1 -0.4
v -0.5 1.2 -0.4
v -0.4 1 -0.4
v -0.4 1.1 -0.4
v -0.4 1.2 -0.4
v -0.3 0.8 -0.4
v -0.3 0.9 -0.4
v -0.3 1 -0.4
v -0.3 1.1 -0.4
v -0.2 0.7 -0.4
v -0.2 0.8 -0.4
v -0.2 0.9 -0.4
v -0.2 1 -0.4
v -0.1 1.2 -0.4
v -0.1 1.3 -0.4
v 0.1 1.2 -0.4
v 0.1 1.3 -0.4
v 0.2 0.7 -0.4
v 0.2 0.8 -0.4
v 0.3 0.8 -0.4
v 0.3 1 -0.4
v 0.3 1.1 -0.4
v 0.4 1 -0.4
v 0.4 1.1 -0.4
v 0.4 1.2 -0.4
v 0.5 1.1 -0.4
v 0.5 1.2 -0.4
v -0.3 1 -0.5
v -0.3 1.1 -0.5
v -0.2 1 -0.5
v -0.2 1.1 -0.5
v -0.2 1.2 -0.5
v -0.1 1.1 -0.5
v -0.1 1.2 -0.5
v 0.1 1.1 -0.5
v 0.1 1.2 -0.5
v 0.2 1 -0.5
v 0.2 1.1 -0.5
v 0.2 1.2 -0.5
v 0.3 1 -0.5
v 0.3 1.1 -0.5
v -0.2 1 -0.6
v -0.2 1.1 -0.6
v -0.1 1.1 -0.6
v -0.1 1.2 -0.6
v 0.1 1.1 -0.6
v 0.1 1.2 -0.6
v 0.2 1 -0.6
v 0.2 1.1 -0.6
v -0.3 0.7 0
v -0.2 0.7 0
v 0.2 0.7 0
v 0.3 0.7 0
v -0.3 0.7 -0.3
v -0.2 0.7 -0.3
v 0.2 0.7 -0.3
v 0.3 0.7 -0.3
v -0.2 0.7 -0.4
v 0.2 0.7 -0.4
v -0.3 0.8 0.1
v -0.2 0.8 0.1
v 0.2 0.8 0.1
v 0.3 0.8 0.1
v -0.4 0.8 0
v -0.3 0.8 0
v -0.2 0.8 0
v 0.2 0.8 0
v 0.3 0.8 0
v 0.4 0.8 0
v -0.4 0.8 -0.1
v -0.3 0.8 -0.1
v 0.3 0.8 -0.1
v 0.4 0.8 -0.1
v -0.4 0.8 -0.2
v -0.3 0.8 -0.2
v 0.3 0.8 -0.2
v 0.4 0.8 -0.2
v -0.3 0.8 -0.3
v -0.2 0.8 -0.3
v 0.2 0.8 -0.3
v 0.3 0.8 -0.3
v -0.3 0.8 -0.4
v -0.2 0.8 -0.4
v 0.2 0.8 -0.4
v 0.3 0.8 -0.4
v -0.2 0.9 0.2
v 0.2 0.9 0.2
v -0.2 0.9 0.1
v 0.2 0.9 0.1
v -0.3 0.9 0
v -0.2 0.9 0
v 0.2 0.9 0
v 0.3 0.9 0
v -0.3 0.9 -0.1
v -0.2 0.9 -0.1
v 0.2 0.9 -0.1
v 0.3 0.9 -0.1
v -0.2 1 0.4
v 0.2 1 0.4
v -0.3 1 0.3
v -0.2 1 0.3
v 0.2 1 0.3
v 0.3 1 0.3
v -0.4 1 0.2
v -0.3 1 0.2
v -0.2 1 0.2
v 0.2 1 0.2
v 0.3 1 0.2
v 0.4 1 0.2
v -0.3 1 0.1
v -0.2 1 0.1
v 0.2 1 0.1
v 0.3 1 0.1
v -0.4 1 0
v -0.3 1 0
v -0.2 1 0
v 0.2 1 0
v 0.3 1 0
v 0.4 1 0
v -0.4 1 -0.2
v -0.3 1 -0.2
v -0.2 1 -0.2
v 0.2 1 -0.2
v 0.3 1 -0.2
v 0.4 1 -0.2
v -0.3 1 -0.3
v -0.2 1 -0.3
v 0.2 1 -0.3
v -0.4 1 -0.4
v -0.3 1 -0.4
v -0.2 1 -0.4
v 0.3 1 -0.4
v 0.4 1 -0.4
v -0.3 1 -0.5
v -0.2 1 -0.5
v 0.2 1 -0.5
v 0.3 1 -0.5
v -0.2 1 -0.6
v 0.2 1 -0.6
v -0.5 1.1 0.2
v -0.4 1.1 0.2
v 0.4 1.1 0.2
v 0.5 1.1 0.2
v -0.5 1.1 -0.4
v -0.4 1.1 -0.4
v 0.4 1.1 -0.4
v 0.5 1.1 -0.4
v -0.2 1.2 0.3
v -0.1 1.2 0.3
v 0.1 1.2 0.3
v 0.2 1.2 0.3
v -0.2 1.2 0.2
v -0.1 1.2 0.2
v 0.1 1.2 0.2
v 0.2 1.2 0.2
v -0.3 0.8 0
v -0.2 0.8 0
v 0.2 0.8 0
v 0.3 0.8 0
v -0.3 0.8 -0.1
v -0.2 0.8 -0.1
v 0.2 0.8 -0.1
v 0.3 0.8 -0.1
v -0.3 0.9 -0.3
v -0.2 0.9 -0.3
v -0.3 0.9 -0.4
v -0.2 0.9 -0.4
v -0.2 1.1 0.4
v 0.2 1.1 0.4
v -0.3 1.1 0.3
v -0.2 1.1 0.3
v -0.1 1.1 0.3
v 0.1 1.1 0.3
v 0.2 1.1 0.3
v 0.3 1.1 0.3
v -0.4 1.1 0.2
v -0.3 1.1 0.2
v -0.2 1.1 0.2
v -0.1 1.1 0.2
v 0.1 1.1 0.2
v 0.2 1.1 0.2
v 0.3 1.1 0.2
v 0.4 1.1 0.2
v -0.3 1.1 0.1
v -0.2 1.1 0.1
v 0.2 1.1 0.1
v 0.3 1.1 0.1
v -0.3 1.1 -0.3
v -0.2 1.1 -0.3
v 0.2 1.1 -0.3
v 0.3 1.1 -0.3
v -0.4 1.1 -0.4
v -0.3 1.1 -0.4
v 0.3 1.1 -0.4
v 0.4 1.1 -0.4
v -0.3 1.1 -0.5
v -0.2 1.1 -0.5
v -0.1 1.1 -0.5
v 0.1 1.1 -0.5
v 0.2 1.1 -0.5
v 0.3 1.1 -0.5
v -0.2 1.1 -0.6
v -0.1 1.1 -0.6
v 0.1 1.1 -0.6
v 0.2 1.1 -0.6
v -0.5 1.2 0.2
v -0.4 1.2 0.2
v 0.4 1.2 0.2
v 0.5 1.2 0.2
v -0.3 1.2 0.1
v -0.2 1.2 0.1
v 0.2 1.2 0.1
v 0.3 1.2 0.1
v -0.3 1.2 -0.3
v -0.2 1.2 -0.3
v -0.1 1.2 -0.3
v 0.1 1.2 -0.3
v 0.2 1.2 -0.3
v 0.3 1.2 -0.3
v -0.5 1.2 -0.4
v -0.4 1.2 -0.4
v -0.1 1.2 -0.4
v 0.1 1.2 -0.4
v 0.4 1.2 -0.4
v 0.5 1.2 -0.4
v -0.2 1.2 -0.5
v -0.1 1.2 -0.5
v 0.1 1.2 -0.5
v 0.2 1.2 -0.5
v -0.1 1.2 -0.6
v 0.1 1.2 -0.6
v -0.2 1.3 0.3
v -0.1 1.3 0.3
v 0.1 1.3 0.3
v 0.2 1.3 0.3
v -0.2 1.3 0.2
v -0.1 1.3 0.2
v 0.1 1.3 0.2
v 0.2 1.3 0.2
v -0.1 1.3 0.1
v 0.1 1.3 0.1
v -0.2 1.3 -0.3
v -0.1 1.3 -0.3
v 0.1 1.3 -0.3
v 0.2 1.3 -0.3
v -0.1 1.3 -0.4
v 0.1 1.3 -0.4
v -0.1 1.4 0.3
v 0.1 1.4 0.3
v -0.1 1.4 0.2
v 0.1 1.4 0.2
v -0.1 1.4 0.1
v 0.1 1.4 0.1
v -0.1 1.4 -0.3
v 0.1 1.4 -0.3

# faces
f 3/2/1 2/2/1 1/2/1
f 4/2/1 2/2/1 3/2/1
f 8/1/1 6/1/1 5/1/1
f 9/4/1 7/4/1 6/4/1
f 9/1/1 6/1/1 8/1/1
f 11/4/1 9/4/1 8/4/1
f 12/4/1 7/4/1 9/4/1
f 12/4/1 9/4/1 11/4/1
f 14/2/1 11/2/1 10/2/1
f 14/2/1 13/2/1 12/2/1
f 14/2/1 12/2/1 11/2/1
f 15/2/1 13/2/1 14/2/1
f 19/4/1 17/4/1 16/4/1
f 20/4/1 17/4/1 19/4/1
f 21/4/1 17/4/1 20/4/1
f 22/4/1 17/4/1 21/4/1
f 24/4/1 19/4/1 18/4/1
f 25/4/1 23/4/1 22/4/1
f 25/4/1 22/4/1 21/4/1
f 26/4/1 23/4/1 25/4/1
f 29/4/1 24/4/1 18/4/1
f 30/4/1 24/4/1 29/4/1
f 31/4/1 25/4/1 21/4/1
f 32/4/1 25/4/1 31/4/1
f 35/2/1 28/2/1 27/2/1
f 36/2/1 28/2/1 35/2/1
f 39/2/1 34/2/1 33/2/1
f 40/2/1 34/2/1 39/2/1
f 41/2/1 38/2/1 37/2/1
f 42/2/1 38/2/1 41/2/1
f 45/4/1 44/4/1 43/4/1
f 46/4/1 44/4/1 45/4/1
f 53/4/1 48/4/1 47/4/1
f 54/4/1 48/4/1 53/4/1
f 55/4/1 50/4/1 49/4/1
f 56/4/1 50/4/1 55/4/1
f 59/2/1 52/2/1 51/2/1
f 60/2/1 52/2/1 59/2/1
f 64/2/1 58/2/1 57/2/1
f 65/2/1 58/2/1 64/2/1
f 67/2/1 62/2/1 61/2/1
f 68/2/1 62/2/1 67/2/1
f 69/5/1 64/5/1 63/5/1
f 70/5/1 64/5/1 69/5/1
f 71/3/1 67/3/1 66/3/1
f 72/5/1 68/5/1 67/5/1
f 72/3/1 67/3/1 71/3/1
f 72/5/1 69/5/1 68/5/1
f 73/5/1 69/5/1 72/5/1
f 78/2/1 75/2/1 74/2/1
f 79/2/1 75/2/1 78/2/1
f 82/5/1 77/5/1 76/5/1
f 83/5/1 77/5/1 82/5/1
f 87/2/1 81/2/1 80/2/1
f 88/2/1 81/2/1 87/2/1
f 89/3/1 85/3/1 84/3/1
f 90/3/1 85/3/1 89/3/1
f 91/2/1 87/2/1 86/2/1
f 92/2/1 87/2/1 91/2/1
f 96/4/1 94/4/1 93/4/1
f 97/4/1 94/4/1 96/4/1
f 98/4/1 96/4/1 95/4/1
f 99/4/1 96/4/1 98/4/1
f 100/4/1 94/4/1 97/4/1
f 101/4/1 100/4/1 99/4/1
f 102/4/1 94/4/1 100/4/1
f 102/4/1 100/4/1 101/4/1
f 103/4/1 94/4/1 102/4/1
f 106/1/1 105/1/1 104/1/1
f 107/1/1 105/1/1 106/1/1
f 110/2/1 109/2/1 108/2/1
f 111/2/1 109/2/1 110/2/1
f 112/2/2 113/2/2 114/2/2
f 114/2/2 113/2/2 115/2/2
f 116/1/2 117/1/2 118/1/2
f 118/1/2 117/1/2 119/1/2
f 120/4/2 121/4/2 123/4/2
f 123/4/2 121/4/2 124/4/2
f 122/4/2 123/4/2 125/4/2
f 125/4/2 123/4/2 126/4/2
f 124/4/2 121/4/2 127/4/2
f 126/4/2 127/4/2 128/4/2
f 127/4/2 121/4/2 129/4/2
f 128/4/2 127/4/2 129/4/2
f 129/4/2 121/4/2 130/4/2
f 131/2/2 132/2/2 135/2/2
f 135/2/2 132/2/2 136/2/2
f 133/5/2 134/5/2 139/5/2
f 139/5/2 134/5/2 140/5/2
f 137/2/2 138/2/2 144/2/2
f 144/2/2 138/2/2 145/2/2
f 141/3/2 142/3/2 146/3/2
f 146/3/2 142/3/2 147/3/2
f 143/2/2 144/2/2 148/2/2
f 148/2/2 144/2/2 149/2/2
f 150/4/2 151/4/2 152/4/2
f 152/4/2 151/4/2 153/4/2
f 154/4/2 155/4/2 158/4/2
f 158/4/2 155/4/2 159/4/2
f 156/2/2 157/2/2 162/2/2
f 162/2/2 157/2/2 163/2/2
f 160/2/2 161/2/2 167/2/2
f 167/2/2 161/2/2 168/2/2
f 164/2/2 165/2/2 170/2/2
f 170/2/2 165/2/2 171/2/2
f 166/5/2 167/5/2 172/5/2
f 172/5/2 167/5/2 173/5/2
f 169/3/2 170/3/2 174/3/2
f 170/5/2 171/5/2 175/5/2
f 174/3/2 170/3/2 175/3/2
f 171/5/2 172/5/2 175/5/2
f 175/5/2 172/5/2 176/5/2
f 177/4/2 178/4/2 180/4/2
f 180/4/2 178/4/2 181/4/2
f 181/4/2 178/4/2 182/4/2
f 182/4/2 178/4/2 183/4/2
f 179/4/2 180/4/2 185/4/2
f 179/4/2 185/4/2 188/4/2
f 188/4/2 185/4/2 189/4/2
f 183/4/2 184/4/2 190/4/2
f 182/4/2 183/4/2 190/4/2
f 190/4/2 184/4/2 191/4/2
f 186/2/2 187/2/2 193/2/2
f 193/2/2 187/2/2 194/2/2
f 191/2/2 192/2/2 197/2/2
f 197/2/2 192/2/2 198/2/2
f 195/2/2 196/2/2 199/2/2
f 199/2/2 196/2/2 200/2/2
f 201/1/2 202/1/2 204/1/2
f 202/4/2 203/4/2 205/4/2
f 204/1/2 202/1/2 205/1/2
f 204/4/2 205/4/2 207/4/2
f 205/4/2 203/4/2 208/4/2
f 207/4/2 205/4/2 208/4/2
f 206/2/2 207/2/2 210/2/2
f 208/2/2 209/2/2 210/2/2
f 207/2/2 208/2/2 210/2/2
f 210/2/2 209/2/2 211/2/2
f 212/2/2 213/2/2 214/2/2
f 214/2/2 213/2/2 215/2/2
f 218/2/3 217/2/3 216/2/3
f 219/2/3 217/2/3 218/2/3
f 222/2/3 221/2/3 220/2/3
f 223/2/3 221/2/3 222/2/3
f 227/3/3 225/3/3 224/3/3
f 228/3/3 225/3/3 227/3/3
f 230/2/3 227/2/3 226/2/3
f 231/5/3 228/5/3 227/5/3
f 231/2/3 227/2/3 230/2/3
f 232/3/3 229/3/3 228/3/3
f 232/5/3 228/5/3 231/5/3
f 233/3/3 229/3/3 232/3/3
f 236/3/3 232/3/3 231/3/3
f 237/3/3 232/3/3 236/3/3
f 238/2/3 235/2/3 234/2/3
f 239/2/3 235/2/3 238/2/3
f 243/2/3 241/2/3 240/2/3
f 244/2/3 241/2/3 243/2/3
f 245/2/3 243/2/3 242/2/3
f 246/2/3 243/2/3 245/2/3
f 251/2/3 250/2/3 249/2/3
f 252/2/3 250/2/3 251/2/3
f 255/4/3 248/4/3 247/4/3
f 256/4/3 248/4/3 255/4/3
f 257/2/3 254/2/3 253/2/3
f 258/2/3 254/2/3 257/2/3
f 261/2/3 260/2/3 259/2/3
f 262/2/3 260/2/3 261/2/3
f 264/2/3 263/2/3 262/2/3
f 265/2/3 263/2/3 264/2/3
f 270/4/3 267/4/3 266/4/3
f 271/4/3 267/4/3 270/4/3
f 272/4/3 267/4/3 271/4/3
f 273/2/3 269/2/3 268/2/3
f 274/2/3 269/2/3 273/2/3
f 277/2/3 276/2/3 275/2/3
f 278/2/3 276/2/3 277/2/3
f 284/4/3 280/4/3 279/4/3
f 284/4/3 281/4/3 280/4/3
f 285/4/3 281/4/3 284/4/3
f 286/2/3 283/2/3 282/2/3
f 287/2/3 283/2/3 286/2/3
f 292/1/3 289/1/3 288/1/3
f 293/4/3 290/4/3 289/4/3
f 293/1/3 289/1/3 292/1/3
f 294/4/3 290/4/3 293/4/3
f 295/4/3 292/4/3 291/4/3
f 296/4/3 292/4/3 295/4/3
f 299/4/3 298/4/3 297/4/3
f 300/4/3 298/4/3 299/4/3
f 303/1/3 301/1/3 300/1/3
f 304/4/3 302/4/3 301/4/3
f 304/1/3 301/1/3 303/1/3
f 305/4/3 302/4/3 304/4/3
f 308/4/3 307/4/3 306/4/3
f 309/4/3 307/4/3 308/4/3
f 312/4/3 311/4/3 310/4/3
f 313/4/3 311/4/3 312/4/3
f 316/4/3 315/4/3 314/4/3
f 317/4/3 315/4/3 316/4/3
f 318/3/4 319/3/4 320/3/4
f 320/3/4 319/3/4 321/3/4
f 322/4/4 323/4/4 324/4/4
f 324/4/4 323/4/4 325/4/4
f 325/4/4 326/4/4 328/4/4
f 328/4/4 326/4/4 329/4/4
f 327/4/4 328/4/4 330/4/4
f 330/4/4 328/4/4 331/4/4
f 332/4/4 333/4/4 334/4/4
f 334/4/4 333/4/4 335/4/4
f 336/4/4 337/4/4 338/4/4
f 338/4/4 337/4/4 339/4/4
f 340/4/4 341/4/4 346/4/4
f 346/4/4 341/4/4 347/4/4
f 342/4/4 343/4/4 348/4/4
f 348/4/4 343/4/4 349/4/4
f 344/2/4 345/2/4 350/2/4
f 350/2/4 345/2/4 351/2/4
f 351/5/4 352/5/4 353/5/4
f 353/5/4 352/5/4 354/5/4
f 354/2/4 355/2/4 357/2/4
f 357/2/4 355/2/4 358/2/4
f 356/5/4 357/5/4 362/5/4
f 362/5/4 357/5/4 363/5/4
f 359/4/4 360/4/4 364/4/4
f 364/4/4 360/4/4 365/4/4
f 361/2/4 362/2/4 366/2/4
f 366/2/4 362/2/4 367/2/4
f 368/2/4 369/2/4 371/2/4
f 371/2/4 369/2/4 372/2/4
f 370/2/4 371/2/4 375/2/4
f 375/2/4 371/2/4 376/2/4
f 373/4/4 374/4/4 378/4/4
f 378/4/4 374/4/4 379/4/4
f 381/2/4 382/2/4 383/2/4
f 383/2/4 382/2/4 384/2/4
f 379/4/4 380/4/4 385/4/4
f 378/4/4 379/4/4 385/4/4
f 377/4/4 378/4/4 385/4/4
f 385/4/4 380/4/4 386/4/4
f 386/4/4 380/4/4 387/4/4
f 387/4/4 380/4/4 388/4/4
f 388/2/4 389/2/4 390/2/4
f 390/2/4 389/2/4 391/2/4
f 391/2/4 392/2/4 393/2/4
f 393/2/4 392/2/4 394/2/4
f 395/2/4 396/2/4 397/2/4
f 397/2/4 396/2/4 398/2/4
f 398/5/4 399/5/4 400/5/4
f 400/5/4 399/5/4 401/5/4
f 402/5/4 403/5/4 405/5/4
f 405/5/4 403/5/4 406/5/4
f 404/2/4 405/2/4 407/2/4
f 407/2/4 405/2/4 408/2/4
f 409/2/4 410/2/4 411/2/4
f 409/2/4 411/2/4 413/2/4
f 411/5/4 412/5/4 413/5/4
f 413/5/4 412/5/4 414/5/4
f 409/2/4 413/2/4 415/2/4
f 415/2/4 413/2/4 416/2/4
f 421/4/5 418/4/5 417/4/5
f 422/4/5 418/4/5 421/4/5
f 423/4/5 420/4/5 419/4/5
f 424/4/5 420/4/5 423/4/5
f 425/4/5 423/4/5 422/4/5
f 426/4/5 423/4/5 425/4/5
f 432/4/5 428/4/5 427/4/5
f 433/4/5 428/4/5 432/4/5
f 434/4/5 430/4/5 429/4/5
f 435/4/5 430/4/5 434/4/5
f 437/1/5 432/1/5 431/1/5
f 438/1/5 432/1/5 437/1/5
f 439/1/5 436/1/5 435/1/5
f 440/1/5 436/1/5 439/1/5
f 441/4/5 438/4/5 437/4/5
f 442/4/5 438/4/5 441/4/5
f 443/4/5 440/4/5 439/4/5
f 444/4/5 440/4/5 443/4/5
f 449/4/5 446/4/5 445/4/5
f 450/4/5 446/4/5 449/4/5
f 451/4/5 448/4/5 447/4/5
f 452/4/5 448/4/5 451/4/5
f 455/4/5 454/4/5 453/4/5
f 456/4/5 454/4/5 455/4/5
f 458/4/5 456/4/5 455/4/5
f 459/4/5 456/4/5 458/4/5
f 461/4/5 458/4/5 457/4/5
f 462/4/5 458/4/5 461/4/5
f 463/4/5 460/4/5 459/4/5
f 464/4/5 460/4/5 463/4/5
f 468/2/5 466/2/5 465/2/5
f 469/2/5 466/2/5 468/2/5
f 472/2/5 468/2/5 467/2/5
f 472/2/5 470/2/5 469/2/5
f 472/2/5 469/2/5 468/2/5
f 473/2/5 470/2/5 472/2/5
f 474/2/5 470/2/5 473/2/5
f 475/2/5 470/2/5 474/2/5
f 477/2/5 472/2/5 471/2/5
f 477/2/5 473/2/5 472/2/5
f 478/2/5 473/2/5 477/2/5
f 479/2/5 476/2/5 475/2/5
f 479/2/5 475/2/5 474/2/5
f 480/2/5 476/2/5 479/2/5
f 481/2/5 477/2/5 471/2/5
f 482/2/5 477/2/5 481/2/5
f 485/2/5 476/2/5 480/2/5
f 486/2/5 476/2/5 485/2/5
f 489/4/5 484/4/5 483/4/5
f 490/4/5 484/4/5 489/4/5
f 493/2/5 488/2/5 487/2/5
f 494/2/5 490/2/5 489/2/5
f 495/2/5 490/2/5 494/2/5
f 496/2/5 493/2/5 487/2/5
f 496/2/5 494/2/5 493/2/5
f 497/2/5 494/2/5 496/2/5
f 498/2/5 494/2/5 497/2/5
f 499/2/5 492/2/5 491/2/5
f 500/2/5 492/2/5 499/2/5
f 501/2/5 498/2/5 497/2/5
f 501/2/5 499/2/5 498/2/5
f 502/2/5 499/2/5 501/2/5
f 503/2/5 499/2/5 502/2/5
f 504/2/5 499/2/5 503/2/5
f 505/2/5 503/2/5 502/2/5
f 506/2/5 503/2/5 505/2/5
f 511/2/5 508/2/5 507/2/5
f 512/2/5 508/2/5 511/2/5
f 513/2/5 510/2/5 509/2/5
f 514/2/5 510/2/5 513/2/5
f 519/3/5 516/3/5 515/3/5
f 520/3/5 516/3/5 519/3/5
f 521/3/5 518/3/5 517/3/5
f 522/3/5 518/3/5 521/3/5
f 523/4/6 524/4/6 527/4/6
f 527/4/6 524/4/6 528/4/6
f 525/4/6 526/4/6 529/4/6
f 529/4/6 526/4/6 530/4/6
f 531/4/6 532/4/6 533/4/6
f 533/4/6 532/4/6 534/4/6
f 535/2/6 536/2/6 538/2/6
f 538/2/6 536/2/6 539/2/6
f 539/2/6 536/2/6 540/2/6
f 540/2/6 536/2/6 541/2/6
f 537/2/6 538/2/6 544/2/6
f 538/2/6 539/2/6 544/2/6
f 544/2/6 539/2/6 545/2/6
f 545/2/6 539/2/6 546/2/6
f 540/2/6 541/2/6 547/2/6
f 541/2/6 542/2/6 547/2/6
f 547/2/6 542/2/6 548/2/6
f 548/2/6 542/2/6 549/2/6
f 544/2/6 545/2/6 551/2/6
f 543/2/6 544/2/6 551/2/6
f 551/2/6 545/2/6 552/2/6
f 549/2/6 550/2/6 553/2/6
f 548/2/6 549/2/6 553/2/6
f 553/2/6 550/2/6 554/2/6
f 543/2/6 551/2/6 555/2/6
f 554/2/6 550/2/6 558/2/6
f 555/2/6 556/2/6 559/2/6
f 543/2/6 555/2/6 559/2/6
f 559/2/6 556/2/6 560/2/6
f 557/2/6 558/2/6 561/2/6
f 558/2/6 550/2/6 561/2/6
f 561/2/6 550/2/6 562/2/6
f 560/2/6 556/2/6 563/2/6
f 563/2/6 556/2/6 564/2/6
f 557/2/6 561/2/6 567/2/6
f 567/2/6 561/2/6 568/2/6
f 564/2/6 565/2/6 569/2/6
f 569/2/6 565/2/6 570/2/6
f 566/2/6 567/2/6 571/2/6
f 571/2/6 567/2/6 572/2/6
f 577/2/6 578/2/6 581/2/6
f 581/2/6 578/2/6 582/2/6
f 579/2/6 580/2/6 585/2/6
f 585/2/6 580/2/6 586/2/6
f 573/2/6 574/2/6 587/2/6
f 587/2/6 574/2/6 588/2/6
f 582/5/6 583/5/6 589/5/6
f 584/5/6 585/5/6 590/5/6
f 575/2/6 576/2/6 591/2/6
f 591/2/6 576/2/6 592/2/6
f 582/5/6 589/5/6 593/5/6
f 589/2/6 590/2/6 594/2/6
f 593/5/6 589/5/6 594/5/6
f 590/5/6 585/5/6 595/5/6
f 594/2/6 590/2/6 595/2/6
f 595/5/6 585/5/6 596/5/6
f 594/5/6 595/5/6 597/5/6
f 597/5/6 595/5/6 598/5/6
f 599/3/6 600/3/6 603/3/6
f 603/3/6 600/3/6 604/3/6
f 601/3/6 602/3/6 605/3/6
f 605/3/6 602/3/6 606/3/6
f 603/5/6 604/5/6 607/5/6
f 604/2/6 605/2/6 607/2/6
f 605/5/6 606/5/6 608/5/6
f 607/2/6 605/2/6 608/2/6
f 603/5/6 607/5/6 609/5/6
f 609/5/6 607/5/6 610/5/6
f 608/5/6 606/5/6 611/5/6
f 611/5/6 606/5/6 612/5/6
f 610/2/6 611/2/6 613/2/6
f 613/2/6 611/2/6 614/2/6
f 615/3/6 616/3/6 617/3/6
f 617/3/6 616/3/6 618/3/6
f 619/2/6 620/2/6 621/2/6
f 621/2/6 620/2/6 622/2/6
