# MagicaVoxel @ Ephtracy

# group
o 

# material
mtllib hair_white.mtl
usemtl palette

# normals
vn -1 0 0
vn 1 0 0
vn 0 0 1
vn 0 0 -1
vn 0 -1 0
vn 0 1 0

# texcoords
vt 0.248047 0.5
vt 0.482422 0.5
vt 0.919922 0.5
vt 0.962891 0.5

# verts
v -0.5 1.1 -0.2
v -0.5 1.1 -0.3
v -0.5 1.3 -0.1
v -0.5 1.3 -0.2
v -0.5 1.3 -0.3
v -0.5 1.4 0
v -0.5 1.4 -0.1
v -0.5 1.4 -0.2
v -0.5 1.5 0
v -0.5 1.5 -0.1
v -0.4 0.8 0
v -0.4 0.8 -0.1
v -0.4 0.8 -0.2
v -0.4 0.9 0.1
v -0.4 0.9 0
v -0.4 0.9 -0.1
v -0.4 0.9 -0.2
v -0.4 0.9 -0.3
v -0.4 1.1 -0.1
v -0.4 1.1 -0.2
v -0.4 1.1 -0.3
v -0.4 1.3 0
v -0.4 1.3 -0.1
v -0.4 1.3 -0.2
v -0.4 1.4 0.1
v -0.4 1.4 0
v -0.4 1.4 -0.1
v -0.3 0.6 -0.2
v -0.3 0.6 -0.3
v -0.3 0.7 0
v -0.3 0.7 -0.2
v -0.3 0.8 0.1
v -0.3 0.8 0
v -0.3 0.8 -0.1
v -0.3 0.8 -0.2
v -0.3 0.9 0.2
v -0.3 0.9 0.1
v -0.3 0.9 0
v -0.3 0.9 -0.1
v -0.3 0.9 -0.2
v -0.3 0.9 -0.3
v -0.3 1.1 0.2
v -0.3 1.1 0.1
v -0.3 1.1 0
v -0.3 1.1 -0.1
v -0.3 1.1 -0.2
v -0.3 1.1 -0.3
v -0.3 1.2 -0.2
v -0.3 1.2 -0.3
v -0.3 1.3 0
v -0.3 1.3 -0.1
v -0.2 0.6 -0.3
v -0.2 0.6 -0.4
v -0.2 1.1 0.2
v -0.2 1.1 0.1
v -0.2 1.1 -0.3
v -0.2 1.1 -0.4
v -0.2 1.2 0.2
v -0.2 1.2 0.1
v -0.1 0.5 -0.3
v -0.1 0.5 -0.4
v -0.1 0.6 -0.3
v -0.1 0.6 -0.4
v 0 0.9 0.2
v 0 0.9 0.1
v 0 1 0.2
v 0 1 0.1
v 0.1 0.6 -0.3
v 0.1 0.6 -0.4
v 0.1 0.7 -0.3
v 0.1 0.7 -0.4
v 0.1 0.9 -0.1
v 0.1 0.9 -0.2
v 0.1 1 -0.1
v 0.1 1 -0.2
v 0.2 0.6 -0.2
v 0.2 0.6 -0.3
v 0.2 0.7 0
v 0.2 0.7 -0.2
v 0.2 0.8 0.1
v 0.2 0.8 0
v 0.2 0.9 0.2
v 0.2 0.9 0.1
v 0.2 0.9 0
v 0.2 0.9 -0.1
v 0.2 0.9 -0.2
v 0.2 1 0.2
v 0.2 1 0.1
v 0.2 1 0
v 0.2 1 -0.1
v 0.2 1 -0.2
v 0.2 1 -0.3
v 0.2 1.2 0
v 0.2 1.2 -0.2
v 0.2 1.3 0
v 0.2 1.3 -0.2
v 0.3 1.2 0.1
v 0.3 1.2 0
v 0.3 1.2 -0.2
v 0.3 1.2 -0.3
v 0.3 1.3 0
v 0.3 1.3 -0.1
v 0.3 1.3 -0.2
v 0.3 1.3 -0.3
v 0.3 1.4 0.1
v 0.3 1.4 -0.1
v 0.4 1.1 -0.2
v 0.4 1.1 -0.3
v 0.4 1.2 -0.2
v 0.4 1.2 -0.3
v 0.4 1.3 -0.1
v 0.4 1.3 -0.2
v 0.4 1.3 -0.3
v 0.4 1.4 0
v 0.4 1.4 -0.1
v 0.4 1.4 -0.2
v 0.4 1.4 -0.3
v 0.4 1.5 0
v 0.4 1.5 -0.1
v -0.4 1.1 -0.2
v -0.4 1.1 -0.3
v -0.4 1.3 -0.1
v -0.4 1.3 -0.2
v -0.4 1.3 -0.3
v -0.4 1.4 0
v -0.4 1.4 -0.1
v -0.4 1.4 -0.2
v -0.4 1.5 0
v -0.4 1.5 -0.1
v -0.3 1.2 0.1
v -0.3 1.2 0
v -0.3 1.3 0
v -0.3 1.3 -0.1
v -0.3 1.4 0.1
v -0.3 1.4 -0.1
v -0.2 0.6 -0.2
v -0.2 0.6 -0.3
v -0.2 0.7 0
v -0.2 0.7 -0.2
v -0.2 0.8 0.1
v -0.2 0.8 0
v -0.2 0.9 0.2
v -0.2 0.9 0.1
v -0.2 0.9 0
v -0.2 0.9 -0.2
v -0.2 1 0.2
v -0.2 1 0.1
v -0.2 1 0
v -0.2 1 -0.2
v -0.2 1 -0.3
v -0.2 1.2 0
v -0.2 1.2 -0.2
v -0.2 1.3 0
v -0.2 1.3 -0.2
v 0 0.5 -0.3
v 0 0.5 -0.4
v 0 0.7 -0.3
v 0 0.7 -0.4
v 0.1 0.9 0.2
v 0.1 0.9 0.1
v 0.1 1 0.2
v 0.1 1 0.1
v 0.2 0.6 -0.3
v 0.2 0.6 -0.4
v 0.2 1.1 0.2
v 0.2 1.1 0.1
v 0.2 1.1 -0.3
v 0.2 1.1 -0.4
v 0.2 1.2 0.2
v 0.2 1.2 0.1
v 0.3 0.6 -0.2
v 0.3 0.6 -0.3
v 0.3 0.7 0
v 0.3 0.7 -0.2
v 0.3 0.8 0.1
v 0.3 0.8 0
v 0.3 0.8 -0.1
v 0.3 0.8 -0.2
v 0.3 0.9 0.2
v 0.3 0.9 0.1
v 0.3 0.9 0
v 0.3 0.9 -0.1
v 0.3 0.9 -0.2
v 0.3 0.9 -0.3
v 0.3 1.1 0.2
v 0.3 1.1 0.1
v 0.3 1.1 0
v 0.3 1.1 -0.1
v 0.3 1.1 -0.2
v 0.3 1.1 -0.3
v 0.3 1.2 -0.2
v 0.3 1.2 -0.3
v 0.3 1.3 0
v 0.3 1.3 -0.1
v 0.4 0.8 0
v 0.4 0.8 -0.1
v 0.4 0.8 -0.2
v 0.4 0.9 0.1
v 0.4 0.9 0
v 0.4 0.9 -0.1
v 0.4 0.9 -0.2
v 0.4 0.9 -0.3
v 0.4 1.1 -0.1
v 0.4 1.1 -0.2
v 0.4 1.1 -0.3
v 0.4 1.2 -0.1
v 0.4 1.2 -0.2
v 0.4 1.3 0
v 0.4 1.3 -0.1
v 0.4 1.4 0.1
v 0.4 1.4 0
v 0.4 1.4 -0.1
v 0.5 1.1 -0.2
v 0.5 1.1 -0.3
v 0.5 1.2 -0.1
v 0.5 1.2 -0.2
v 0.5 1.3 -0.1
v 0.5 1.3 -0.2
v 0.5 1.3 -0.3
v 0.5 1.4 0
v 0.5 1.4 -0.1
v 0.5 1.4 -0.2
v 0.5 1.4 -0.3
v 0.5 1.5 0
v 0.5 1.5 -0.1
v -0.3 0.9 0.2
v -0.3 1.1 0.2
v -0.2 0.9 0.2
v -0.2 1 0.2
v -0.2 1.1 0.2
v -0.2 1.2 0.2
v 0 0.9 0.2
v 0 1 0.2
v 0.1 0.9 0.2
v 0.1 1 0.2
v 0.2 0.9 0.2
v 0.2 1 0.2
v 0.2 1.1 0.2
v 0.2 1.2 0.2
v 0.3 0.9 0.2
v 0.3 1.1 0.2
v -0.4 0.9 0.1
v -0.4 1.4 0.1
v -0.3 0.8 0.1
v -0.3 0.9 0.1
v -0.3 1.1 0.1
v -0.3 1.2 0.1
v -0.3 1.4 0.1
v -0.2 0.8 0.1
v -0.2 0.9 0.1
v -0.2 1 0.1
v -0.2 1.1 0.1
v -0.2 1.2 0.1
v 0 0.9 0.1
v 0 1 0.1
v 0.1 0.9 0.1
v 0.1 1 0.1
v 0.2 0.8 0.1
v 0.2 0.9 0.1
v 0.2 1 0.1
v 0.2 1.1 0.1
v 0.2 1.2 0.1
v 0.3 0.8 0.1
v 0.3 0.9 0.1
v 0.3 1.1 0.1
v 0.3 1.2 0.1
v 0.3 1.4 0.1
v 0.4 0.9 0.1
v 0.4 1.4 0.1
v -0.5 1.4 0
v -0.5 1.5 0
v -0.4 0.8 0
v -0.4 0.9 0
v -0.4 1.4 0
v -0.4 1.5 0
v -0.3 0.7 0
v -0.3 0.8 0
v -0.3 0.9 0
v -0.3 1.2 0
v -0.3 1.3 0
v -0.2 0.7 0
v -0.2 0.8 0
v -0.2 1.2 0
v -0.2 1.3 0
v 0.2 0.7 0
v 0.2 0.8 0
v 0.2 1.2 0
v 0.2 1.3 0
v 0.3 0.7 0
v 0.3 0.8 0
v 0.3 0.9 0
v 0.3 1.2 0
v 0.3 1.3 0
v 0.4 0.8 0
v 0.4 0.9 0
v 0.4 1.4 0
v 0.4 1.5 0
v 0.5 1.4 0
v 0.5 1.5 0
v -0.5 1.3 -0.1
v -0.5 1.4 -0.1
v -0.4 1.1 -0.1
v -0.4 1.3 -0.1
v -0.4 1.4 -0.1
v -0.3 1.1 -0.1
v -0.3 1.3 -0.1
v 0.1 0.9 -0.1
v 0.1 1 -0.1
v 0.2 0.9 -0.1
v 0.2 1 -0.1
v 0.3 1.1 -0.1
v 0.3 1.3 -0.1
v 0.4 1.1 -0.1
v 0.4 1.2 -0.1
v 0.4 1.3 -0.1
v 0.4 1.4 -0.1
v 0.5 1.2 -0.1
v 0.5 1.3 -0.1
v 0.5 1.4 -0.1
v -0.5 1.1 -0.2
v -0.5 1.3 -0.2
v -0.4 0.9 -0.2
v -0.4 1.1 -0.2
v -0.4 1.3 -0.2
v -0.3 0.6 -0.2
v -0.3 0.7 -0.2
v -0.3 0.9 -0.2
v -0.3 1.1 -0.2
v -0.2 0.6 -0.2
v -0.2 0.7 -0.2
v 0.2 0.6 -0.2
v 0.2 0.7 -0.2
v 0.3 0.6 -0.2
v 0.3 0.7 -0.2
v 0.3 0.9 -0.2
v 0.3 1.1 -0.2
v 0.4 0.9 -0.2
v 0.4 1.1 -0.2
v 0.4 1.2 -0.2
v 0.5 1.1 -0.2
v 0.5 1.2 -0.2
v -0.2 0.6 -0.3
v -0.2 1 -0.3
v -0.1 0.5 -0.3
v -0.1 0.6 -0.3
v 0 0.5 -0.3
v 0 0.7 -0.3
v 0.1 0.6 -0.3
v 0.1 0.7 -0.3
v 0.2 0.6 -0.3
v 0.2 1 -0.3
v -0.4 0.9 0
v -0.4 1.3 0
v -0.3 0.9 0
v -0.3 1.1 0
v -0.3 1.3 0
v -0.2 0.9 0
v -0.2 1 0
v 0.2 0.9 0
v 0.2 1 0
v 0.3 0.9 0
v 0.3 1.1 0
v 0.3 1.3 0
v 0.4 0.9 0
v 0.4 1.3 0
v -0.5 1.4 -0.1
v -0.5 1.5 -0.1
v -0.4 1.3 -0.1
v -0.4 1.4 -0.1
v -0.4 1.5 -0.1
v -0.3 1.3 -0.1
v -0.3 1.4 -0.1
v 0.3 1.3 -0.1
v 0.3 1.4 -0.1
v 0.4 1.3 -0.1
v 0.4 1.4 -0.1
v 0.4 1.5 -0.1
v 0.5 1.4 -0.1
v 0.5 1.5 -0.1
v -0.5 1.3 -0.2
v -0.5 1.4 -0.2
v -0.4 0.8 -0.2
v -0.4 0.9 -0.2
v -0.4 1.1 -0.2
v -0.4 1.3 -0.2
v -0.4 1.4 -0.2
v -0.3 0.8 -0.2
v -0.3 0.9 -0.2
v -0.3 1.1 -0.2
v -0.3 1.2 -0.2
v -0.2 1.2 -0.2
v -0.2 1.3 -0.2
v 0.1 0.9 -0.2
v 0.1 1 -0.2
v 0.2 0.9 -0.2
v 0.2 1 -0.2
v 0.2 1.2 -0.2
v 0.2 1.3 -0.2
v 0.3 0.8 -0.2
v 0.3 0.9 -0.2
v 0.3 1.1 -0.2
v 0.3 1.2 -0.2
v 0.3 1.3 -0.2
v 0.4 0.8 -0.2
v 0.4 0.9 -0.2
v 0.4 1.1 -0.2
v 0.4 1.2 -0.2
v -0.5 1.1 -0.3
v -0.5 1.3 -0.3
v -0.4 0.9 -0.3
v -0.4 1.1 -0.3
v -0.4 1.3 -0.3
v -0.3 0.6 -0.3
v -0.3 0.9 -0.3
v -0.3 1.1 -0.3
v -0.3 1.2 -0.3
v -0.2 0.6 -0.3
v -0.2 1.1 -0.3
v -0.2 1.2 -0.3
v 0.2 0.6 -0.3
v 0.2 1.1 -0.3
v 0.2 1.2 -0.3
v 0.3 0.6 -0.3
v 0.3 0.9 -0.3
v 0.3 1.1 -0.3
v 0.3 1.2 -0.3
v 0.3 1.3 -0.3
v 0.4 0.9 -0.3
v 0.4 1.1 -0.3
v 0.4 1.2 -0.3
v 0.4 1.3 -0.3
v 0.4 1.4 -0.3
v 0.5 1.1 -0.3
v 0.5 1.3 -0.3
v 0.5 1.4 -0.3
v -0.2 0.6 -0.4
v -0.2 1.1 -0.4
v -0.1 0.5 -0.4
v -0.1 0.6 -0.4
v 0 0.5 -0.4
v 0 0.7 -0.4
v 0.1 0.6 -0.4
v 0.1 0.7 -0.4
v 0.2 0.6 -0.4
v 0.2 1.1 -0.4
v -0.1 0.5 -0.3
v 0 0.5 -0.3
v -0.1 0.5 -0.4
v 0 0.5 -0.4
v -0.3 0.6 -0.2
v -0.2 0.6 -0.2
v 0.2 0.6 -0.2
v 0.3 0.6 -0.2
v -0.3 0.6 -0.3
v -0.2 0.6 -0.3
v -0.1 0.6 -0.3
v 0.1 0.6 -0.3
v 0.2 0.6 -0.3
v 0.3 0.6 -0.3
v -0.2 0.6 -0.4
v -0.1 0.6 -0.4
v 0.1 0.6 -0.4
v 0.2 0.6 -0.4
v -0.3 0.7 0
v -0.2 0.7 0
v 0.2 0.7 0
v 0.3 0.7 0
v -0.3 0.7 -0.2
v -0.2 0.7 -0.2
v 0.2 0.7 -0.2
v 0.3 0.7 -0.2
v 0 0.7 -0.3
v 0.1 0.7 -0.3
v 0 0.7 -0.4
v 0.1 0.7 -0.4
v -0.3 0.8 0.1
v -0.2 0.8 0.1
v 0.2 0.8 0.1
v 0.3 0.8 0.1
v -0.4 0.8 0
v -0.3 0.8 0
v -0.2 0.8 0
v 0.2 0.8 0
v 0.3 0.8 0
v 0.4 0.8 0
v -0.4 0.8 -0.1
v -0.3 0.8 -0.1
v 0.3 0.8 -0.1
v 0.4 0.8 -0.1
v -0.4 0.8 -0.2
v -0.3 0.8 -0.2
v 0.3 0.8 -0.2
v 0.4 0.8 -0.2
v -0.3 0.9 0.2
v -0.2 0.9 0.2
v 0 0.9 0.2
v 0.1 0.9 0.2
v 0.2 0.9 0.2
v 0.3 0.9 0.2
v -0.4 0.9 0.1
v -0.3 0.9 0.1
v -0.2 0.9 0.1
v 0 0.9 0.1
v 0.1 0.9 0.1
v 0.2 0.9 0.1
v 0.3 0.9 0.1
v 0.4 0.9 0.1
v -0.4 0.9 0
v -0.3 0.9 0
v -0.2 0.9 0
v 0.2 0.9 0
v 0.3 0.9 0
v 0.4 0.9 0
v 0.1 0.9 -0.1
v 0.2 0.9 -0.1
v -0.4 0.9 -0.2
v -0.3 0.9 -0.2
v 0.1 0.9 -0.2
v 0.2 0.9 -0.2
v 0.3 0.9 -0.2
v 0.4 0.9 -0.2
v -0.4 0.9 -0.3
v -0.3 0.9 -0.3
v 0.3 0.9 -0.3
v 0.4 0.9 -0.3
v -0.2 1 0.2
v 0 1 0.2
v 0.1 1 0.2
v 0.2 1 0.2
v -0.2 1 0.1
v 0 1 0.1
v 0.1 1 0.1
v 0.2 1 0.1
v -0.2 1 0
v 0.2 1 0
v 0.1 1 -0.1
v 0.2 1 -0.1
v -0.2 1 -0.2
v 0.1 1 -0.2
v 0.2 1 -0.2
v -0.2 1 -0.3
v 0.2 1 -0.3
v -0.4 1.1 -0.1
v -0.3 1.1 -0.1
v 0.3 1.1 -0.1
v 0.4 1.1 -0.1
v -0.5 1.1 -0.2
v -0.4 1.1 -0.2
v -0.3 1.1 -0.2
v 0.3 1.1 -0.2
v 0.4 1.1 -0.2
v 0.5 1.1 -0.2
v -0.5 1.1 -0.3
v -0.4 1.1 -0.3
v 0.4 1.1 -0.3
v 0.5 1.1 -0.3
v 0.4 1.2 -0.1
v 0.5 1.2 -0.1
v 0.3 1.2 -0.2
v 0.4 1.2 -0.2
v 0.5 1.2 -0.2
v 0.3 1.2 -0.3
v 0.4 1.2 -0.3
v -0.4 1.3 0
v -0.3 1.3 0
v 0.3 1.3 0
v 0.4 1.3 0
v -0.5 1.3 -0.1
v -0.4 1.3 -0.1
v -0.3 1.3 -0.1
v 0.3 1.3 -0.1
v 0.4 1.3 -0.1
v -0.5 1.3 -0.2
v -0.4 1.3 -0.2
v -0.5 1.4 0
v -0.4 1.4 0
v 0.4 1.4 0
v 0.5 1.4 0
v -0.5 1.4 -0.1
v -0.4 1.4 -0.1
v 0.4 1.4 -0.1
v 0.5 1.4 -0.1
v -0.4 0.9 0
v -0.3 0.9 0
v 0.3 0.9 0
v 0.4 0.9 0
v -0.4 0.9 -0.1
v -0.3 0.9 -0.1
v 0.3 0.9 -0.1
v 0.4 0.9 -0.1
v -0.4 0.9 -0.2
v -0.3 0.9 -0.2
v 0.3 0.9 -0.2
v 0.4 0.9 -0.2
v -0.3 1.1 0.2
v -0.2 1.1 0.2
v 0.2 1.1 0.2
v 0.3 1.1 0.2
v -0.3 1.1 0.1
v -0.2 1.1 0.1
v 0.2 1.1 0.1
v 0.3 1.1 0.1
v -0.4 1.1 -0.2
v -0.3 1.1 -0.2
v 0.3 1.1 -0.2
v 0.4 1.1 -0.2
v -0.4 1.1 -0.3
v -0.3 1.1 -0.3
v -0.2 1.1 -0.3
v 0.2 1.1 -0.3
v 0.3 1.1 -0.3
v 0.4 1.1 -0.3
v -0.2 1.1 -0.4
v 0.2 1.1 -0.4
v -0.2 1.2 0.2
v 0.2 1.2 0.2
v -0.3 1.2 0.1
v -0.2 1.2 0.1
v 0.2 1.2 0.1
v 0.3 1.2 0.1
v -0.3 1.2 0
v -0.2 1.2 0
v 0.2 1.2 0
v 0.3 1.2 0
v -0.3 1.2 -0.2
v -0.2 1.2 -0.2
v 0.2 1.2 -0.2
v 0.3 1.2 -0.2
v -0.3 1.2 -0.3
v -0.2 1.2 -0.3
v 0.2 1.2 -0.3
v 0.3 1.2 -0.3
v -0.3 1.3 0
v -0.2 1.3 0
v 0.2 1.3 0
v 0.3 1.3 0
v -0.4 1.3 -0.1
v -0.3 1.3 -0.1
v 0.3 1.3 -0.1
v 0.4 1.3 -0.1
v -0.5 1.3 -0.2
v -0.4 1.3 -0.2
v -0.2 1.3 -0.2
v 0.2 1.3 -0.2
v 0.3 1.3 -0.2
v 0.4 1.3 -0.2
v -0.5 1.3 -0.3
v -0.4 1.3 -0.3
v 0.3 1.3 -0.3
v 0.4 1.3 -0.3
v -0.4 1.4 0.1
v -0.3 1.4 0.1
v 0.3 1.4 0.1
v 0.4 1.4 0.1
v -0.4 1.4 0
v 0.4 1.4 0
v -0.5 1.4 -0.1
v -0.4 1.4 -0.1
v -0.3 1.4 -0.1
v 0.3 1.4 -0.1
v 0.4 1.4 -0.1
v 0.5 1.4 -0.1
v -0.5 1.4 -0.2
v -0.4 1.4 -0.2
v 0.4 1.4 -0.2
v 0.5 1.4 -0.2
v 0.4 1.4 -0.3
v 0.5 1.4 -0.3
v -0.5 1.5 0
v -0.4 1.5 0
v 0.4 1.5 0
v 0.5 1.5 0
v -0.5 1.5 -0.1
v -0.4 1.5 -0.1
v 0.4 1.5 -0.1
v 0.5 1.5 -0.1

# faces
f 4/3/1 2/3/1 1/3/1
f 5/3/1 2/3/1 4/3/1
f 7/3/1 4/3/1 3/3/1
f 8/3/1 4/3/1 7/3/1
f 9/3/1 7/3/1 6/3/1
f 10/3/1 7/3/1 9/3/1
f 15/1/1 12/1/1 11/1/1
f 16/3/1 13/3/1 12/3/1
f 16/1/1 12/1/1 15/1/1
f 17/3/1 13/3/1 16/3/1
f 20/3/1 18/3/1 17/3/1
f 21/3/1 18/3/1 20/3/1
f 22/3/1 15/3/1 14/3/1
f 23/3/1 20/3/1 19/3/1
f 24/3/1 20/3/1 23/3/1
f 25/3/1 22/3/1 14/3/1
f 25/3/1 23/3/1 22/3/1
f 26/3/1 23/3/1 25/3/1
f 27/3/1 23/3/1 26/3/1
f 31/4/1 29/4/1 28/4/1
f 33/4/1 31/4/1 30/4/1
f 34/4/1 31/4/1 33/4/1
f 35/4/1 29/4/1 31/4/1
f 35/4/1 31/4/1 34/4/1
f 37/4/1 33/4/1 32/4/1
f 38/4/1 33/4/1 37/4/1
f 40/4/1 29/4/1 35/4/1
f 41/4/1 29/4/1 40/4/1
f 42/4/1 37/4/1 36/4/1
f 43/4/1 37/4/1 42/4/1
f 44/1/1 39/1/1 38/1/1
f 44/1/1 40/1/1 39/1/1
f 45/1/1 40/1/1 44/1/1
f 46/1/1 40/1/1 45/1/1
f 48/3/1 47/3/1 46/3/1
f 49/3/1 47/3/1 48/3/1
f 50/3/1 45/3/1 44/3/1
f 51/3/1 45/3/1 50/3/1
f 56/4/1 53/4/1 52/4/1
f 57/4/1 53/4/1 56/4/1
f 58/4/1 55/4/1 54/4/1
f 59/4/1 55/4/1 58/4/1
f 62/4/1 61/4/1 60/4/1
f 63/4/1 61/4/1 62/4/1
f 66/4/1 65/4/1 64/4/1
f 67/4/1 65/4/1 66/4/1
f 70/4/1 69/4/1 68/4/1
f 71/4/1 69/4/1 70/4/1
f 74/4/1 73/4/1 72/4/1
f 75/4/1 73/4/1 74/4/1
f 79/4/1 77/4/1 76/4/1
f 81/4/1 79/4/1 78/4/1
f 83/4/1 81/4/1 80/4/1
f 84/4/1 79/4/1 81/4/1
f 84/4/1 81/4/1 83/4/1
f 85/4/1 79/4/1 84/4/1
f 86/4/1 77/4/1 79/4/1
f 86/4/1 79/4/1 85/4/1
f 87/4/1 83/4/1 82/4/1
f 88/4/1 83/4/1 87/4/1
f 89/1/1 85/1/1 84/1/1
f 90/1/1 85/1/1 89/1/1
f 91/4/1 77/4/1 86/4/1
f 92/4/1 77/4/1 91/4/1
f 95/3/1 94/3/1 93/3/1
f 96/3/1 94/3/1 95/3/1
f 101/3/1 98/3/1 97/3/1
f 103/2/1 100/2/1 99/2/1
f 104/2/1 100/2/1 103/2/1
f 105/3/1 102/3/1 101/3/1
f 105/3/1 101/3/1 97/3/1
f 106/3/1 102/3/1 105/3/1
f 109/3/1 108/3/1 107/3/1
f 110/3/1 108/3/1 109/3/1
f 115/3/1 112/3/1 111/3/1
f 116/2/1 113/2/1 112/2/1
f 116/3/1 112/3/1 115/3/1
f 117/2/1 113/2/1 116/2/1
f 118/3/1 115/3/1 114/3/1
f 119/3/1 115/3/1 118/3/1
f 120/3/2 121/3/2 123/3/2
f 123/3/2 121/3/2 124/3/2
f 122/3/2 123/3/2 126/3/2
f 126/3/2 123/3/2 127/3/2
f 125/3/2 126/3/2 128/3/2
f 128/3/2 126/3/2 129/3/2
f 130/3/2 131/3/2 132/3/2
f 130/3/2 132/3/2 134/3/2
f 132/3/2 133/3/2 134/3/2
f 134/3/2 133/3/2 135/3/2
f 136/4/2 137/4/2 139/4/2
f 138/4/2 139/4/2 141/4/2
f 140/4/2 141/4/2 143/4/2
f 141/4/2 139/4/2 144/4/2
f 143/4/2 141/4/2 144/4/2
f 139/4/2 137/4/2 145/4/2
f 144/4/2 139/4/2 145/4/2
f 142/4/2 143/4/2 146/4/2
f 146/4/2 143/4/2 147/4/2
f 144/1/2 145/1/2 148/1/2
f 145/4/2 137/4/2 149/4/2
f 148/1/2 145/1/2 149/1/2
f 149/4/2 137/4/2 150/4/2
f 151/3/2 152/3/2 153/3/2
f 153/3/2 152/3/2 154/3/2
f 155/4/2 156/4/2 157/4/2
f 157/4/2 156/4/2 158/4/2
f 159/4/2 160/4/2 161/4/2
f 161/4/2 160/4/2 162/4/2
f 163/4/2 164/4/2 167/4/2
f 167/4/2 164/4/2 168/4/2
f 165/4/2 166/4/2 169/4/2
f 169/4/2 166/4/2 170/4/2
f 171/4/2 172/4/2 174/4/2
f 173/4/2 174/4/2 176/4/2
f 176/4/2 174/4/2 177/4/2
f 174/4/2 172/4/2 178/4/2
f 177/4/2 174/4/2 178/4/2
f 175/4/2 176/4/2 180/4/2
f 180/4/2 176/4/2 181/4/2
f 178/4/2 172/4/2 183/4/2
f 183/4/2 172/4/2 184/4/2
f 179/4/2 180/4/2 185/4/2
f 185/4/2 180/4/2 186/4/2
f 181/1/2 182/1/2 187/1/2
f 182/1/2 183/1/2 187/1/2
f 187/1/2 183/1/2 188/1/2
f 188/1/2 183/1/2 189/1/2
f 189/3/2 190/3/2 191/3/2
f 191/3/2 190/3/2 192/3/2
f 187/3/2 188/3/2 193/3/2
f 193/3/2 188/3/2 194/3/2
f 195/1/2 196/1/2 199/1/2
f 196/3/2 197/3/2 200/3/2
f 199/1/2 196/1/2 200/1/2
f 200/3/2 197/3/2 201/3/2
f 201/3/2 202/3/2 204/3/2
f 204/3/2 202/3/2 205/3/2
f 203/3/2 204/3/2 206/3/2
f 206/3/2 204/3/2 207/3/2
f 198/3/2 199/3/2 208/3/2
f 198/3/2 208/3/2 210/3/2
f 208/3/2 209/3/2 210/3/2
f 210/3/2 209/3/2 211/3/2
f 211/3/2 209/3/2 212/3/2
f 213/3/2 214/3/2 216/3/2
f 215/2/2 216/2/2 217/2/2
f 216/3/2 214/3/2 218/3/2
f 217/2/2 216/2/2 218/2/2
f 218/3/2 214/3/2 219/3/2
f 217/3/2 218/3/2 221/3/2
f 218/2/2 219/2/2 222/2/2
f 221/3/2 218/3/2 222/3/2
f 222/2/2 219/2/2 223/2/2
f 220/3/2 221/3/2 224/3/2
f 224/3/2 221/3/2 225/3/2
f 228/4/3 227/4/3 226/4/3
f 229/4/3 227/4/3 228/4/3
f 230/4/3 227/4/3 229/4/3
f 233/4/3 231/4/3 230/4/3
f 233/4/3 230/4/3 229/4/3
f 234/4/3 233/4/3 232/4/3
f 235/4/3 231/4/3 233/4/3
f 235/4/3 233/4/3 234/4/3
f 237/4/3 231/4/3 235/4/3
f 238/4/3 231/4/3 237/4/3
f 239/4/3 231/4/3 238/4/3
f 240/4/3 237/4/3 236/4/3
f 240/4/3 238/4/3 237/4/3
f 241/4/3 238/4/3 240/4/3
f 245/3/3 243/3/3 242/3/3
f 246/3/3 243/3/3 245/3/3
f 247/3/3 243/3/3 246/3/3
f 248/3/3 243/3/3 247/3/3
f 249/4/3 245/4/3 244/4/3
f 250/4/3 245/4/3 249/4/3
f 252/4/3 247/4/3 246/4/3
f 253/4/3 247/4/3 252/4/3
f 254/4/3 251/4/3 250/4/3
f 255/4/3 251/4/3 254/4/3
f 259/4/3 257/4/3 256/4/3
f 260/4/3 257/4/3 259/4/3
f 263/4/3 259/4/3 258/4/3
f 264/4/3 259/4/3 263/4/3
f 265/4/3 262/4/3 261/4/3
f 266/4/3 262/4/3 265/4/3
f 268/3/3 266/3/3 265/3/3
f 268/3/3 267/3/3 266/3/3
f 268/3/3 265/3/3 264/3/3
f 269/3/3 267/3/3 268/3/3
f 274/3/3 271/3/3 270/3/3
f 275/3/3 271/3/3 274/3/3
f 277/1/3 273/1/3 272/1/3
f 278/1/3 273/1/3 277/1/3
f 281/4/3 277/4/3 276/4/3
f 282/4/3 277/4/3 281/4/3
f 283/3/3 280/3/3 279/3/3
f 284/3/3 280/3/3 283/3/3
f 289/4/3 286/4/3 285/4/3
f 290/4/3 286/4/3 289/4/3
f 292/3/3 288/3/3 287/3/3
f 293/3/3 288/3/3 292/3/3
f 294/1/3 291/1/3 290/1/3
f 295/1/3 291/1/3 294/1/3
f 298/3/3 297/3/3 296/3/3
f 299/3/3 297/3/3 298/3/3
f 303/3/3 301/3/3 300/3/3
f 304/3/3 301/3/3 303/3/3
f 305/3/3 303/3/3 302/3/3
f 306/3/3 303/3/3 305/3/3
f 309/4/3 308/4/3 307/4/3
f 310/4/3 308/4/3 309/4/3
f 313/3/3 312/3/3 311/3/3
f 314/3/3 312/3/3 313/3/3
f 315/3/3 312/3/3 314/3/3
f 317/2/3 315/2/3 314/2/3
f 318/3/3 316/3/3 315/3/3
f 318/2/3 315/2/3 317/2/3
f 319/3/3 316/3/3 318/3/3
f 323/3/3 321/3/3 320/3/3
f 324/3/3 321/3/3 323/3/3
f 327/3/3 323/3/3 322/3/3
f 328/3/3 323/3/3 327/3/3
f 329/4/3 326/4/3 325/4/3
f 330/4/3 326/4/3 329/4/3
f 333/4/3 332/4/3 331/4/3
f 334/4/3 332/4/3 333/4/3
f 337/3/3 336/3/3 335/3/3
f 338/3/3 336/3/3 337/3/3
f 340/3/3 339/3/3 338/3/3
f 341/3/3 339/3/3 340/3/3
f 345/4/3 343/4/3 342/4/3
f 346/4/3 345/4/3 344/4/3
f 347/4/3 343/4/3 345/4/3
f 347/4/3 345/4/3 346/4/3
f 349/4/3 343/4/3 347/4/3
f 350/4/3 349/4/3 348/4/3
f 351/4/3 343/4/3 349/4/3
f 351/4/3 349/4/3 350/4/3
f 352/3/4 353/3/4 354/3/4
f 354/3/4 353/3/4 355/3/4
f 355/3/4 353/3/4 356/3/4
f 357/4/4 358/4/4 359/4/4
f 359/4/4 358/4/4 360/4/4
f 361/3/4 362/3/4 364/3/4
f 362/3/4 363/3/4 364/3/4
f 364/3/4 363/3/4 365/3/4
f 366/3/4 367/3/4 369/3/4
f 369/3/4 367/3/4 370/3/4
f 368/3/4 369/3/4 371/3/4
f 371/3/4 369/3/4 372/3/4
f 373/3/4 374/3/4 375/3/4
f 375/3/4 374/3/4 376/3/4
f 376/3/4 377/3/4 378/3/4
f 378/3/4 377/3/4 379/3/4
f 380/3/4 381/3/4 385/3/4
f 385/3/4 381/3/4 386/3/4
f 382/3/4 383/3/4 387/3/4
f 387/3/4 383/3/4 388/3/4
f 384/3/4 385/3/4 389/3/4
f 389/3/4 385/3/4 390/3/4
f 390/3/4 385/3/4 391/3/4
f 391/3/4 385/3/4 392/3/4
f 393/4/4 394/4/4 395/4/4
f 395/4/4 394/4/4 396/4/4
f 397/3/4 398/3/4 402/3/4
f 402/3/4 398/3/4 403/3/4
f 399/3/4 400/3/4 404/3/4
f 404/3/4 400/3/4 405/3/4
f 401/3/4 402/3/4 406/3/4
f 406/3/4 402/3/4 407/3/4
f 408/3/4 409/3/4 411/3/4
f 411/3/4 409/3/4 412/3/4
f 410/3/4 411/3/4 414/3/4
f 414/3/4 411/3/4 415/3/4
f 413/4/4 414/4/4 417/4/4
f 414/4/4 415/4/4 417/4/4
f 415/3/4 416/3/4 418/3/4
f 417/4/4 415/4/4 418/4/4
f 418/3/4 416/3/4 419/3/4
f 418/4/4 419/4/4 421/4/4
f 421/4/4 419/4/4 422/4/4
f 420/4/4 421/4/4 423/4/4
f 423/4/4 421/4/4 424/4/4
f 421/3/4 422/3/4 425/3/4
f 424/4/4 421/4/4 425/4/4
f 425/3/4 422/3/4 426/3/4
f 424/3/4 425/3/4 428/3/4
f 428/3/4 425/3/4 429/3/4
f 426/2/4 427/2/4 430/2/4
f 430/2/4 427/2/4 431/2/4
f 430/3/4 431/3/4 433/3/4
f 429/3/4 430/3/4 433/3/4
f 431/2/4 432/2/4 434/2/4
f 433/3/4 431/3/4 434/3/4
f 434/2/4 432/2/4 435/2/4
f 436/4/4 437/4/4 439/4/4
f 438/4/4 439/4/4 440/4/4
f 439/4/4 437/4/4 441/4/4
f 440/4/4 439/4/4 441/4/4
f 441/4/4 437/4/4 443/4/4
f 442/4/4 443/4/4 444/4/4
f 443/4/4 437/4/4 445/4/4
f 444/4/4 443/4/4 445/4/4
f 448/4/5 447/4/5 446/4/5
f 449/4/5 447/4/5 448/4/5
f 454/4/5 451/4/5 450/4/5
f 455/4/5 451/4/5 454/4/5
f 458/4/5 453/4/5 452/4/5
f 459/4/5 453/4/5 458/4/5
f 460/4/5 456/4/5 455/4/5
f 461/4/5 456/4/5 460/4/5
f 462/4/5 458/4/5 457/4/5
f 463/4/5 458/4/5 462/4/5
f 468/4/5 465/4/5 464/4/5
f 469/4/5 465/4/5 468/4/5
f 470/4/5 467/4/5 466/4/5
f 471/4/5 467/4/5 470/4/5
f 474/4/5 473/4/5 472/4/5
f 475/4/5 473/4/5 474/4/5
f 481/4/5 477/4/5 476/4/5
f 482/4/5 477/4/5 481/4/5
f 483/4/5 479/4/5 478/4/5
f 484/4/5 479/4/5 483/4/5
f 486/1/5 481/1/5 480/1/5
f 487/1/5 481/1/5 486/1/5
f 488/1/5 485/1/5 484/1/5
f 489/1/5 485/1/5 488/1/5
f 490/3/5 487/3/5 486/3/5
f 491/3/5 487/3/5 490/3/5
f 492/3/5 489/3/5 488/3/5
f 493/3/5 489/3/5 492/3/5
f 501/4/5 495/4/5 494/4/5
f 502/4/5 495/4/5 501/4/5
f 503/4/5 497/4/5 496/4/5
f 504/4/5 497/4/5 503/4/5
f 505/4/5 499/4/5 498/4/5
f 506/4/5 499/4/5 505/4/5
f 508/3/5 501/3/5 500/3/5
f 509/3/5 501/3/5 508/3/5
f 510/4/5 504/4/5 503/4/5
f 510/4/5 505/4/5 504/4/5
f 510/4/5 503/4/5 502/4/5
f 511/4/5 505/4/5 510/4/5
f 512/3/5 507/3/5 506/3/5
f 513/3/5 507/3/5 512/3/5
f 518/4/5 515/4/5 514/4/5
f 519/4/5 515/4/5 518/4/5
f 522/3/5 517/3/5 516/3/5
f 523/3/5 517/3/5 522/3/5
f 524/3/5 521/3/5 520/3/5
f 525/3/5 521/3/5 524/3/5
f 530/4/5 527/4/5 526/4/5
f 531/4/5 527/4/5 530/4/5
f 532/4/5 529/4/5 528/4/5
f 533/4/5 529/4/5 532/4/5
f 536/4/5 535/4/5 534/4/5
f 537/4/5 535/4/5 536/4/5
f 538/4/5 536/4/5 534/4/5
f 539/4/5 536/4/5 538/4/5
f 541/4/5 539/4/5 538/4/5
f 541/4/5 540/4/5 539/4/5
f 542/4/5 540/4/5 541/4/5
f 548/3/5 544/3/5 543/3/5
f 549/3/5 544/3/5 548/3/5
f 550/3/5 546/3/5 545/3/5
f 551/3/5 546/3/5 550/3/5
f 553/3/5 548/3/5 547/3/5
f 554/3/5 548/3/5 553/3/5
f 555/3/5 552/3/5 551/3/5
f 556/3/5 552/3/5 555/3/5
f 560/2/5 558/2/5 557/2/5
f 561/2/5 558/2/5 560/2/5
f 562/2/5 560/2/5 559/2/5
f 563/2/5 560/2/5 562/2/5
f 569/3/5 565/3/5 564/3/5
f 570/3/5 565/3/5 569/3/5
f 571/3/5 567/3/5 566/3/5
f 572/3/5 567/3/5 571/3/5
f 573/3/5 569/3/5 568/3/5
f 574/3/5 569/3/5 573/3/5
f 579/3/5 576/3/5 575/3/5
f 580/3/5 576/3/5 579/3/5
f 581/3/5 578/3/5 577/3/5
f 582/3/5 578/3/5 581/3/5
f 583/1/6 584/1/6 587/1/6
f 587/1/6 584/1/6 588/1/6
f 585/1/6 586/1/6 589/1/6
f 589/1/6 586/1/6 590/1/6
f 587/3/6 588/3/6 591/3/6
f 591/3/6 588/3/6 592/3/6
f 589/3/6 590/3/6 593/3/6
f 593/3/6 590/3/6 594/3/6
f 595/4/6 596/4/6 599/4/6
f 599/4/6 596/4/6 600/4/6
f 597/4/6 598/4/6 601/4/6
f 601/4/6 598/4/6 602/4/6
f 603/3/6 604/3/6 607/3/6
f 607/3/6 604/3/6 608/3/6
f 605/3/6 606/3/6 611/3/6
f 611/3/6 606/3/6 612/3/6
f 609/4/6 610/4/6 613/4/6
f 613/4/6 610/4/6 614/4/6
f 615/4/6 616/4/6 618/4/6
f 618/4/6 616/4/6 619/4/6
f 617/4/6 618/4/6 621/4/6
f 619/4/6 620/4/6 621/4/6
f 618/4/6 619/4/6 621/4/6
f 621/4/6 620/4/6 622/4/6
f 622/4/6 620/4/6 623/4/6
f 623/4/6 620/4/6 624/4/6
f 622/4/6 623/4/6 626/4/6
f 626/4/6 623/4/6 627/4/6
f 625/3/6 626/3/6 629/3/6
f 626/4/6 627/4/6 630/4/6
f 629/3/6 626/3/6 630/3/6
f 627/3/6 628/3/6 631/3/6
f 630/4/6 627/4/6 631/4/6
f 631/3/6 628/3/6 632/3/6
f 633/3/6 634/3/6 638/3/6
f 635/3/6 636/3/6 639/3/6
f 637/3/6 638/3/6 642/3/6
f 638/3/6 634/3/6 643/3/6
f 642/3/6 638/3/6 643/3/6
f 639/3/6 640/3/6 644/3/6
f 635/3/6 639/3/6 644/3/6
f 644/3/6 640/3/6 645/3/6
f 645/3/6 640/3/6 646/3/6
f 641/3/6 642/3/6 647/3/6
f 647/3/6 642/3/6 648/3/6
f 645/2/6 646/2/6 649/2/6
f 649/2/6 646/2/6 650/2/6
f 651/3/6 652/3/6 655/3/6
f 653/3/6 654/3/6 656/3/6
f 655/3/6 652/3/6 658/3/6
f 658/3/6 652/3/6 659/3/6
f 653/3/6 656/3/6 660/3/6
f 660/3/6 656/3/6 661/3/6
f 657/3/6 658/3/6 663/3/6
f 663/3/6 658/3/6 664/3/6
f 661/3/6 662/3/6 665/3/6
f 665/3/6 662/3/6 666/3/6
f 665/2/6 666/2/6 667/2/6
f 667/2/6 666/2/6 668/2/6
f 669/3/6 670/3/6 673/3/6
f 673/3/6 670/3/6 674/3/6
f 671/3/6 672/3/6 675/3/6
f 675/3/6 672/3/6 676/3/6
