# MagicaVoxel @ Ephtracy

# group
o 

# material
mtllib hair_hat.mtl
usemtl palette

# normals
vn -1 0 0
vn 1 0 0
vn 0 0 1
vn 0 0 -1
vn 0 -1 0
vn 0 1 0

# texcoords
vt 0.248047 0.5
vt 0.310547 0.5
vt 0.373047 0.5
vt 0.955078 0.5
vt 0.994141 0.5

# verts
v -0.5 1.2 0.2
v -0.5 1.2 -0.4
v -0.5 1.3 0.2
v -0.5 1.3 -0.4
v -0.4 0.8 0
v -0.4 0.8 -0.1
v -0.4 0.8 -0.2
v -0.4 0.9 0
v -0.4 0.9 -0.1
v -0.4 1 0
v -0.4 1 -0.2
v -0.4 1.1 0.2
v -0.4 1.1 -0.4
v -0.4 1.2 0.2
v -0.4 1.2 -0.4
v -0.3 0.7 0
v -0.3 0.7 -0.3
v -0.3 0.8 0.1
v -0.3 0.8 0
v -0.3 0.8 -0.1
v -0.3 0.8 -0.2
v -0.3 0.8 -0.3
v -0.3 0.8 -0.4
v -0.3 0.9 0
v -0.3 0.9 -0.3
v -0.3 0.9 -0.4
v -0.3 1 0
v -0.3 1 -0.1
v -0.3 1 -0.2
v -0.3 1 -0.3
v -0.3 1.1 0.3
v -0.3 1.1 0.2
v -0.3 1.1 0.1
v -0.3 1.1 -0.1
v -0.3 1.1 -0.4
v -0.3 1.1 -0.5
v -0.3 1.2 0.3
v -0.3 1.2 0.2
v -0.3 1.2 0.1
v -0.3 1.2 -0.3
v -0.3 1.2 -0.4
v -0.3 1.2 -0.5
v -0.3 1.3 0.1
v -0.3 1.3 -0.3
v -0.2 0.7 -0.3
v -0.2 0.7 -0.4
v -0.2 0.8 -0.3
v -0.2 0.8 -0.4
v -0.2 0.9 0.2
v -0.2 0.9 0.1
v -0.2 0.9 -0.3
v -0.2 0.9 -0.4
v -0.2 1 -0.1
v -0.2 1 -0.3
v -0.2 1.1 0.4
v -0.2 1.1 0.3
v -0.2 1.1 0.2
v -0.2 1.1 0.1
v -0.2 1.1 -0.1
v -0.2 1.1 -0.4
v -0.2 1.1 -0.5
v -0.2 1.1 -0.6
v -0.2 1.2 0.4
v -0.2 1.2 0.3
v -0.2 1.2 0.2
v -0.2 1.2 0.1
v -0.2 1.2 -0.3
v -0.2 1.2 -0.5
v -0.2 1.2 -0.6
v -0.2 1.3 0.3
v -0.2 1.3 0.2
v -0.2 1.3 0.1
v -0.2 1.3 -0.3
v -0.2 1.3 -0.5
v -0.2 1.4 0.3
v -0.2 1.4 0.2
v -0.2 1.4 -0.3
v -0.1 1.2 0.3
v -0.1 1.2 0.2
v -0.1 1.2 -0.5
v -0.1 1.2 -0.6
v -0.1 1.3 0.3
v -0.1 1.3 0.2
v -0.1 1.3 -0.3
v -0.1 1.3 -0.4
v -0.1 1.3 -0.5
v -0.1 1.3 -0.6
v -0.1 1.4 0.3
v -0.1 1.4 0.2
v -0.1 1.4 0.1
v -0.1 1.4 -0.3
v -0.1 1.4 -0.4
v -0.1 1.5 0.3
v -0.1 1.5 0.2
v -0.1 1.5 0.1
v -0.1 1.5 -0.3
v 0.2 0.7 0
v 0.2 0.7 -0.3
v 0.2 0.8 0.1
v 0.2 0.8 0
v 0.2 0.8 -0.1
v 0.2 0.9 0.1
v 0.2 0.9 0
v 0.2 0.9 -0.1
v 0.2 1 0
v 0.2 1 -0.3
v 0.3 0.8 0
v 0.3 0.8 -0.1
v 0.3 0.9 0
v 0.3 0.9 -0.1
v 0.4 1.2 0.2
v 0.4 1.2 -0.4
v 0.4 1.3 0.2
v 0.4 1.3 -0.4
v -0.4 1.2 0.2
v -0.4 1.2 -0.4
v -0.4 1.3 0.2
v -0.4 1.3 -0.4
v -0.3 0.8 0
v -0.3 0.8 -0.1
v -0.3 0.9 0
v -0.3 0.9 -0.1
v -0.2 0.7 0
v -0.2 0.7 -0.3
v -0.2 0.8 0.1
v -0.2 0.8 0
v -0.2 0.8 -0.1
v -0.2 0.9 0.1
v -0.2 0.9 0
v -0.2 0.9 -0.1
v -0.2 1 0
v -0.2 1 -0.3
v 0.1 1.2 0.3
v 0.1 1.2 0.2
v 0.1 1.2 -0.5
v 0.1 1.2 -0.6
v 0.1 1.3 0.3
v 0.1 1.3 0.2
v 0.1 1.3 -0.3
v 0.1 1.3 -0.4
v 0.1 1.3 -0.5
v 0.1 1.3 -0.6
v 0.1 1.4 0.3
v 0.1 1.4 0.2
v 0.1 1.4 0.1
v 0.1 1.4 -0.3
v 0.1 1.4 -0.4
v 0.1 1.5 0.3
v 0.1 1.5 0.2
v 0.1 1.5 0.1
v 0.1 1.5 -0.3
v 0.2 0.7 -0.3
v 0.2 0.7 -0.4
v 0.2 0.8 -0.3
v 0.2 0.8 -0.4
v 0.2 0.9 0.2
v 0.2 0.9 0.1
v 0.2 1 -0.3
v 0.2 1 -0.4
v 0.2 1.1 0.4
v 0.2 1.1 0.3
v 0.2 1.1 0.2
v 0.2 1.1 0.1
v 0.2 1.1 -0.3
v 0.2 1.1 -0.4
v 0.2 1.1 -0.5
v 0.2 1.1 -0.6
v 0.2 1.2 0.4
v 0.2 1.2 0.3
v 0.2 1.2 0.2
v 0.2 1.2 0.1
v 0.2 1.2 -0.3
v 0.2 1.2 -0.5
v 0.2 1.2 -0.6
v 0.2 1.3 0.3
v 0.2 1.3 0.2
v 0.2 1.3 0.1
v 0.2 1.3 -0.3
v 0.2 1.3 -0.5
v 0.2 1.4 0.3
v 0.2 1.4 0.2
v 0.2 1.4 -0.3
v 0.3 0.7 0
v 0.3 0.7 -0.3
v 0.3 0.8 0.1
v 0.3 0.8 0
v 0.3 0.8 -0.1
v 0.3 0.8 -0.2
v 0.3 0.8 -0.3
v 0.3 0.8 -0.4
v 0.3 0.9 0
v 0.3 1 0
v 0.3 1 -0.2
v 0.3 1 -0.3
v 0.3 1 -0.4
v 0.3 1.1 0.3
v 0.3 1.1 0.2
v 0.3 1.1 0.1
v 0.3 1.1 -0.3
v 0.3 1.1 -0.4
v 0.3 1.1 -0.5
v 0.3 1.2 0.3
v 0.3 1.2 0.2
v 0.3 1.2 0.1
v 0.3 1.2 -0.3
v 0.3 1.2 -0.4
v 0.3 1.2 -0.5
v 0.3 1.3 0.1
v 0.3 1.3 -0.3
v 0.4 0.8 0
v 0.4 0.8 -0.1
v 0.4 0.8 -0.2
v 0.4 0.9 0
v 0.4 0.9 -0.1
v 0.4 1 0
v 0.4 1 -0.2
v 0.4 1.1 0.2
v 0.4 1.1 -0.4
v 0.4 1.2 0.2
v 0.4 1.2 -0.4
v 0.5 1.2 0.2
v 0.5 1.2 -0.4
v 0.5 1.3 0.2
v 0.5 1.3 -0.4
v -0.2 1.1 0.4
v -0.2 1.2 0.4
v 0.2 1.1 0.4
v 0.2 1.2 0.4
v -0.3 1.1 0.3
v -0.3 1.2 0.3
v -0.2 1.1 0.3
v -0.2 1.2 0.3
v -0.2 1.3 0.3
v -0.2 1.4 0.3
v -0.1 1.2 0.3
v -0.1 1.3 0.3
v -0.1 1.4 0.3
v -0.1 1.5 0.3
v 0.1 1.2 0.3
v 0.1 1.3 0.3
v 0.1 1.4 0.3
v 0.1 1.5 0.3
v 0.2 1.1 0.3
v 0.2 1.2 0.3
v 0.2 1.3 0.3
v 0.2 1.4 0.3
v 0.3 1.1 0.3
v 0.3 1.2 0.3
v -0.5 1.2 0.2
v -0.5 1.3 0.2
v -0.4 1.1 0.2
v -0.4 1.2 0.2
v -0.4 1.3 0.2
v -0.3 1.1 0.2
v -0.3 1.2 0.2
v -0.2 0.9 0.2
v -0.2 1.1 0.2
v -0.2 1.2 0.2
v -0.2 1.3 0.2
v -0.1 1.2 0.2
v -0.1 1.3 0.2
v 0.1 1.2 0.2
v 0.1 1.3 0.2
v 0.2 0.9 0.2
v 0.2 1.1 0.2
v 0.2 1.2 0.2
v 0.2 1.3 0.2
v 0.3 1.1 0.2
v 0.3 1.2 0.2
v 0.4 1.1 0.2
v 0.4 1.2 0.2
v 0.4 1.3 0.2
v 0.5 1.2 0.2
v 0.5 1.3 0.2
v -0.3 0.8 0.1
v -0.3 1.1 0.1
v -0.3 1.2 0.1
v -0.3 1.3 0.1
v -0.2 0.8 0.1
v -0.2 0.9 0.1
v -0.2 1.1 0.1
v -0.2 1.2 0.1
v -0.2 1.3 0.1
v -0.1 1.4 0.1
v -0.1 1.5 0.1
v 0.1 1.4 0.1
v 0.1 1.5 0.1
v 0.2 0.8 0.1
v 0.2 0.9 0.1
v 0.2 1.1 0.1
v 0.2 1.2 0.1
v 0.2 1.3 0.1
v 0.3 0.8 0.1
v 0.3 1.1 0.1
v 0.3 1.2 0.1
v 0.3 1.3 0.1
v -0.4 0.8 0
v -0.4 0.9 0
v -0.4 1 0
v -0.3 0.7 0
v -0.3 0.8 0
v -0.3 0.9 0
v -0.3 1 0
v -0.2 0.7 0
v -0.2 0.8 0
v 0.2 0.7 0
v 0.2 0.8 0
v 0.3 0.7 0
v 0.3 0.8 0
v 0.3 0.9 0
v 0.3 1 0
v 0.4 0.8 0
v 0.4 0.9 0
v 0.4 1 0
v -0.3 0.8 -0.1
v -0.3 0.9 -0.1
v -0.2 0.8 -0.1
v -0.2 0.9 -0.1
v 0.2 0.8 -0.1
v 0.2 0.9 -0.1
v 0.3 0.8 -0.1
v 0.3 0.9 -0.1
v -0.2 0.7 -0.3
v -0.2 1 -0.3
v 0.2 0.7 -0.3
v 0.2 1 -0.3
v -0.1 1.4 0.2
v -0.1 1.5 0.2
v 0.1 1.4 0.2
v 0.1 1.5 0.2
v -0.3 0.8 0
v -0.3 0.9 0
v -0.2 0.8 0
v -0.2 0.9 0
v -0.2 1 0
v 0.2 0.8 0
v 0.2 0.9 0
v 0.2 1 0
v 0.3 0.8 0
v 0.3 0.9 0
v -0.3 1 -0.1
v -0.3 1.1 -0.1
v -0.2 1 -0.1
v -0.2 1.1 -0.1
v -0.4 0.8 -0.2
v -0.4 1 -0.2
v -0.3 0.8 -0.2
v -0.3 1 -0.2
v 0.3 0.8 -0.2
v 0.3 1 -0.2
v 0.4 0.8 -0.2
v 0.4 1 -0.2
v -0.3 0.7 -0.3
v -0.3 0.8 -0.3
v -0.3 0.9 -0.3
v -0.3 1 -0.3
v -0.3 1.2 -0.3
v -0.3 1.3 -0.3
v -0.2 0.7 -0.3
v -0.2 0.8 -0.3
v -0.2 0.9 -0.3
v -0.2 1 -0.3
v -0.2 1.2 -0.3
v -0.2 1.3 -0.3
v -0.2 1.4 -0.3
v -0.1 1.3 -0.3
v -0.1 1.4 -0.3
v -0.1 1.5 -0.3
v 0.1 1.3 -0.3
v 0.1 1.4 -0.3
v 0.1 1.5 -0.3
v 0.2 0.7 -0.3
v 0.2 0.8 -0.3
v 0.2 1 -0.3
v 0.2 1.1 -0.3
v 0.2 1.2 -0.3
v 0.2 1.3 -0.3
v 0.2 1.4 -0.3
v 0.3 0.7 -0.3
v 0.3 0.8 -0.3
v 0.3 1 -0.3
v 0.3 1.1 -0.3
v 0.3 1.2 -0.3
v 0.3 1.3 -0.3
v -0.5 1.2 -0.4
v -0.5 1.3 -0.4
v -0.4 1.1 -0.4
v -0.4 1.2 -0.4
v -0.4 1.3 -0.4
v -0.3 0.8 -0.4
v -0.3 0.9 -0.4
v -0.3 1.1 -0.4
v -0.3 1.2 -0.4
v -0.2 0.7 -0.4
v -0.2 0.8 -0.4
v -0.2 0.9 -0.4
v -0.2 1.1 -0.4
v -0.1 1.3 -0.4
v -0.1 1.4 -0.4
v 0.1 1.3 -0.4
v 0.1 1.4 -0.4
v 0.2 0.7 -0.4
v 0.2 0.8 -0.4
v 0.2 1 -0.4
v 0.2 1.1 -0.4
v 0.3 0.8 -0.4
v 0.3 1 -0.4
v 0.3 1.1 -0.4
v 0.3 1.2 -0.4
v 0.4 1.1 -0.4
v 0.4 1.2 -0.4
v 0.4 1.3 -0.4
v 0.5 1.2 -0.4
v 0.5 1.3 -0.4
v -0.3 1.1 -0.5
v -0.3 1.2 -0.5
v -0.2 1.1 -0.5
v -0.2 1.2 -0.5
v -0.2 1.3 -0.5
v -0.1 1.2 -0.5
v -0.1 1.3 -0.5
v 0.1 1.2 -0.5
v 0.1 1.3 -0.5
v 0.2 1.1 -0.5
v 0.2 1.2 -0.5
v 0.2 1.3 -0.5
v 0.3 1.1 -0.5
v 0.3 1.2 -0.5
v -0.2 1.1 -0.6
v -0.2 1.2 -0.6
v -0.1 1.2 -0.6
v -0.1 1.3 -0.6
v 0.1 1.2 -0.6
v 0.1 1.3 -0.6
v 0.2 1.1 -0.6
v 0.2 1.2 -0.6
v -0.3 0.7 0
v -0.2 0.7 0
v 0.2 0.7 0
v 0.3 0.7 0
v -0.3 0.7 -0.3
v -0.2 0.7 -0.3
v 0.2 0.7 -0.3
v 0.3 0.7 -0.3
v -0.2 0.7 -0.4
v 0.2 0.7 -0.4
v -0.3 0.8 0.1
v -0.2 0.8 0.1
v 0.2 0.8 0.1
v 0.3 0.8 0.1
v -0.4 0.8 0
v -0.3 0.8 0
v -0.2 0.8 0
v 0.2 0.8 0
v 0.3 0.8 0
v 0.4 0.8 0
v -0.4 0.8 -0.1
v -0.3 0.8 -0.1
v 0.3 0.8 -0.1
v 0.4 0.8 -0.1
v -0.4 0.8 -0.2
v -0.3 0.8 -0.2
v 0.3 0.8 -0.2
v 0.4 0.8 -0.2
v -0.3 0.8 -0.3
v -0.2 0.8 -0.3
v 0.2 0.8 -0.3
v 0.3 0.8 -0.3
v -0.3 0.8 -0.4
v -0.2 0.8 -0.4
v 0.2 0.8 -0.4
v 0.3 0.8 -0.4
v -0.2 0.9 0.2
v 0.2 0.9 0.2
v -0.2 0.9 0.1
v 0.2 0.9 0.1
v -0.3 0.9 0
v -0.2 0.9 0
v 0.2 0.9 0
v 0.3 0.9 0
v -0.3 0.9 -0.1
v -0.2 0.9 -0.1
v 0.2 0.9 -0.1
v 0.3 0.9 -0.1
v -0.2 1 0
v 0.2 1 0
v -0.2 1 -0.3
v 0.2 1 -0.3
v -0.2 1.1 0.4
v 0.2 1.1 0.4
v -0.3 1.1 0.3
v -0.2 1.1 0.3
v 0.2 1.1 0.3
v 0.3 1.1 0.3
v -0.4 1.1 0.2
v -0.3 1.1 0.2
v -0.2 1.1 0.2
v 0.2 1.1 0.2
v 0.3 1.1 0.2
v 0.4 1.1 0.2
v -0.3 1.1 0.1
v -0.2 1.1 0.1
v 0.2 1.1 0.1
v 0.3 1.1 0.1
v -0.3 1.1 -0.1
v -0.2 1.1 -0.1
v 0.2 1.1 -0.3
v 0.3 1.1 -0.3
v -0.4 1.1 -0.4
v -0.3 1.1 -0.4
v -0.2 1.1 -0.4
v 0.2 1.1 -0.4
v 0.3 1.1 -0.4
v 0.4 1.1 -0.4
v -0.3 1.1 -0.5
v -0.2 1.1 -0.5
v 0.2 1.1 -0.5
v 0.3 1.1 -0.5
v -0.2 1.1 -0.6
v 0.2 1.1 -0.6
v -0.5 1.2 0.2
v -0.4 1.2 0.2
v 0.4 1.2 0.2
v 0.5 1.2 0.2
v -0.5 1.2 -0.4
v -0.4 1.2 -0.4
v 0.4 1.2 -0.4
v 0.5 1.2 -0.4
v -0.2 1.3 0.3
v -0.1 1.3 0.3
v 0.1 1.3 0.3
v 0.2 1.3 0.3
v -0.2 1.3 0.2
v -0.1 1.3 0.2
v 0.1 1.3 0.2
v 0.2 1.3 0.2
v -0.3 0.8 0
v -0.2 0.8 0
v 0.2 0.8 0
v 0.3 0.8 0
v -0.3 0.8 -0.1
v -0.2 0.8 -0.1
v 0.2 0.8 -0.1
v 0.3 0.8 -0.1
v -0.3 0.9 -0.3
v -0.2 0.9 -0.3
v -0.3 0.9 -0.4
v -0.2 0.9 -0.4
v -0.4 1 0
v -0.3 1 0
v 0.3 1 0
v 0.4 1 0
v -0.3 1 -0.1
v -0.2 1 -0.1
v -0.4 1 -0.2
v -0.3 1 -0.2
v 0.3 1 -0.2
v 0.4 1 -0.2
v -0.3 1 -0.3
v -0.2 1 -0.3
v 0.2 1 -0.3
v 0.3 1 -0.3
v 0.2 1 -0.4
v 0.3 1 -0.4
v -0.2 1.2 0.4
v 0.2 1.2 0.4
v -0.3 1.2 0.3
v -0.2 1.2 0.3
v -0.1 1.2 0.3
v 0.1 1.2 0.3
v 0.2 1.2 0.3
v 0.3 1.2 0.3
v -0.4 1.2 0.2
v -0.3 1.2 0.2
v -0.2 1.2 0.2
v -0.1 1.2 0.2
v 0.1 1.2 0.2
v 0.2 1.2 0.2
v 0.3 1.2 0.2
v 0.4 1.2 0.2
v -0.3 1.2 0.1
v -0.2 1.2 0.1
v 0.2 1.2 0.1
v 0.3 1.2 0.1
v -0.3 1.2 -0.3
v -0.2 1.2 -0.3
v 0.2 1.2 -0.3
v 0.3 1.2 -0.3
v -0.4 1.2 -0.4
v -0.3 1.2 -0.4
v 0.3 1.2 -0.4
v 0.4 1.2 -0.4
v -0.3 1.2 -0.5
v -0.2 1.2 -0.5
v -0.1 1.2 -0.5
v 0.1 1.2 -0.5
v 0.2 1.2 -0.5
v 0.3 1.2 -0.5
v -0.2 1.2 -0.6
v -0.1 1.2 -0.6
v 0.1 1.2 -0.6
v 0.2 1.2 -0.6
v -0.5 1.3 0.2
v -0.4 1.3 0.2
v 0.4 1.3 0.2
v 0.5 1.3 0.2
v -0.3 1.3 0.1
v -0.2 1.3 0.1
v 0.2 1.3 0.1
v 0.3 1.3 0.1
v -0.3 1.3 -0.3
v -0.2 1.3 -0.3
v -0.1 1.3 -0.3
v 0.1 1.3 -0.3
v 0.2 1.3 -0.3
v 0.3 1.3 -0.3
v -0.5 1.3 -0.4
v -0.4 1.3 -0.4
v -0.1 1.3 -0.4
v 0.1 1.3 -0.4
v 0.4 1.3 -0.4
v 0.5 1.3 -0.4
v -0.2 1.3 -0.5
v -0.1 1.3 -0.5
v 0.1 1.3 -0.5
v 0.2 1.3 -0.5
v -0.1 1.3 -0.6
v 0.1 1.3 -0.6
v -0.2 1.4 0.3
v -0.1 1.4 0.3
v 0.1 1.4 0.3
v 0.2 1.4 0.3
v -0.2 1.4 0.2
v -0.1 1.4 0.2
v 0.1 1.4 0.2
v 0.2 1.4 0.2
v -0.1 1.4 0.1
v 0.1 1.4 0.1
v -0.2 1.4 -0.3
v -0.1 1.4 -0.3
v 0.1 1.4 -0.3
v 0.2 1.4 -0.3
v -0.1 1.4 -0.4
v 0.1 1.4 -0.4
v -0.1 1.5 0.3
v 0.1 1.5 0.3
v -0.1 1.5 0.2
v 0.1 1.5 0.2
v -0.1 1.5 0.1
v 0.1 1.5 0.1
v -0.1 1.5 -0.3
v 0.1 1.5 -0.3

# faces
f 3/2/1 2/2/1 1/2/1
f 4/2/1 2/2/1 3/2/1
f 8/1/1 6/1/1 5/1/1
f 9/4/1 7/4/1 6/4/1
f 9/1/1 6/1/1 8/1/1
f 10/4/1 9/4/1 8/4/1
f 11/4/1 7/4/1 9/4/1
f 11/4/1 9/4/1 10/4/1
f 14/2/1 13/2/1 12/2/1
f 15/2/1 13/2/1 14/2/1
f 19/4/1 17/4/1 16/4/1
f 20/4/1 17/4/1 19/4/1
f 21/4/1 17/4/1 20/4/1
f 22/4/1 17/4/1 21/4/1
f 24/4/1 19/4/1 18/4/1
f 25/4/1 23/4/1 22/4/1
f 25/4/1 22/4/1 21/4/1
f 26/4/1 23/4/1 25/4/1
f 27/4/1 24/4/1 18/4/1
f 29/4/1 25/4/1 21/4/1
f 30/4/1 25/4/1 29/4/1
f 33/4/1 28/4/1 27/4/1
f 33/4/1 27/4/1 18/4/1
f 34/4/1 28/4/1 33/4/1
f 37/2/1 32/2/1 31/2/1
f 38/2/1 32/2/1 37/2/1
f 41/2/1 36/2/1 35/2/1
f 42/2/1 36/2/1 41/2/1
f 43/2/1 40/2/1 39/2/1
f 44/2/1 40/2/1 43/2/1
f 47/4/1 46/4/1 45/4/1
f 48/4/1 46/4/1 47/4/1
f 54/4/1 52/4/1 51/4/1
f 57/4/1 50/4/1 49/4/1
f 58/4/1 50/4/1 57/4/1
f 59/4/1 54/4/1 53/4/1
f 60/4/1 52/4/1 54/4/1
f 60/4/1 54/4/1 59/4/1
f 63/2/1 56/2/1 55/2/1
f 64/2/1 56/2/1 63/2/1
f 68/2/1 62/2/1 61/2/1
f 69/2/1 62/2/1 68/2/1
f 71/2/1 66/2/1 65/2/1
f 72/2/1 66/2/1 71/2/1
f 73/5/1 68/5/1 67/5/1
f 74/5/1 68/5/1 73/5/1
f 75/3/1 71/3/1 70/3/1
f 76/5/1 72/5/1 71/5/1
f 76/3/1 71/3/1 75/3/1
f 76/5/1 73/5/1 72/5/1
f 77/5/1 73/5/1 76/5/1
f 82/2/1 79/2/1 78/2/1
f 83/2/1 79/2/1 82/2/1
f 86/5/1 81/5/1 80/5/1
f 87/5/1 81/5/1 86/5/1
f 91/2/1 85/2/1 84/2/1
f 92/2/1 85/2/1 91/2/1
f 93/3/1 89/3/1 88/3/1
f 94/3/1 89/3/1 93/3/1
f 95/2/1 91/2/1 90/2/1
f 96/2/1 91/2/1 95/2/1
f 100/4/1 98/4/1 97/4/1
f 101/4/1 98/4/1 100/4/1
f 102/4/1 100/4/1 99/4/1
f 103/4/1 100/4/1 102/4/1
f 104/4/1 98/4/1 101/4/1
f 105/4/1 104/4/1 103/4/1
f 106/4/1 98/4/1 104/4/1
f 106/4/1 104/4/1 105/4/1
f 109/1/1 108/1/1 107/1/1
f 110/1/1 108/1/1 109/1/1
f 113/2/1 112/2/1 111/2/1
f 114/2/1 112/2/1 113/2/1
f 115/2/2 116/2/2 117/2/2
f 117/2/2 116/2/2 118/2/2
f 119/1/2 120/1/2 121/1/2
f 121/1/2 120/1/2 122/1/2
f 123/4/2 124/4/2 126/4/2
f 126/4/2 124/4/2 127/4/2
f 125/4/2 126/4/2 128/4/2
f 128/4/2 126/4/2 129/4/2
f 127/4/2 124/4/2 130/4/2
f 129/4/2 130/4/2 131/4/2
f 130/4/2 124/4/2 132/4/2
f 131/4/2 130/4/2 132/4/2
f 133/2/2 134/2/2 137/2/2
f 137/2/2 134/2/2 138/2/2
f 135/5/2 136/5/2 141/5/2
f 141/5/2 136/5/2 142/5/2
f 139/2/2 140/2/2 146/2/2
f 146/2/2 140/2/2 147/2/2
f 143/3/2 144/3/2 148/3/2
f 148/3/2 144/3/2 149/3/2
f 145/2/2 146/2/2 150/2/2
f 150/2/2 146/2/2 151/2/2
f 152/4/2 153/4/2 154/4/2
f 154/4/2 153/4/2 155/4/2
f 156/4/2 157/4/2 162/4/2
f 162/4/2 157/4/2 163/4/2
f 158/4/2 159/4/2 164/4/2
f 164/4/2 159/4/2 165/4/2
f 160/2/2 161/2/2 168/2/2
f 168/2/2 161/2/2 169/2/2
f 166/2/2 167/2/2 173/2/2
f 173/2/2 167/2/2 174/2/2
f 170/2/2 171/2/2 176/2/2
f 176/2/2 171/2/2 177/2/2
f 172/5/2 173/5/2 178/5/2
f 178/5/2 173/5/2 179/5/2
f 175/3/2 176/3/2 180/3/2
f 176/5/2 177/5/2 181/5/2
f 180/3/2 176/3/2 181/3/2
f 177/5/2 178/5/2 181/5/2
f 181/5/2 178/5/2 182/5/2
f 183/4/2 184/4/2 186/4/2
f 186/4/2 184/4/2 187/4/2
f 187/4/2 184/4/2 188/4/2
f 188/4/2 184/4/2 189/4/2
f 185/4/2 186/4/2 191/4/2
f 185/4/2 191/4/2 192/4/2
f 189/4/2 190/4/2 193/4/2
f 188/4/2 189/4/2 193/4/2
f 193/4/2 190/4/2 194/4/2
f 194/4/2 190/4/2 195/4/2
f 185/4/2 192/4/2 198/4/2
f 192/4/2 193/4/2 198/4/2
f 193/4/2 194/4/2 198/4/2
f 198/4/2 194/4/2 199/4/2
f 196/2/2 197/2/2 202/2/2
f 202/2/2 197/2/2 203/2/2
f 200/2/2 201/2/2 206/2/2
f 206/2/2 201/2/2 207/2/2
f 204/2/2 205/2/2 208/2/2
f 208/2/2 205/2/2 209/2/2
f 210/1/2 211/1/2 213/1/2
f 211/4/2 212/4/2 214/4/2
f 213/1/2 211/1/2 214/1/2
f 213/4/2 214/4/2 215/4/2
f 214/4/2 212/4/2 216/4/2
f 215/4/2 214/4/2 216/4/2
f 217/2/2 218/2/2 219/2/2
f 219/2/2 218/2/2 220/2/2
f 221/2/2 222/2/2 223/2/2
f 223/2/2 222/2/2 224/2/2
f 227/2/3 226/2/3 225/2/3
f 228/2/3 226/2/3 227/2/3
f 231/2/3 230/2/3 229/2/3
f 232/2/3 230/2/3 231/2/3
f 236/3/3 234/3/3 233/3/3
f 237/3/3 234/3/3 236/3/3
f 239/2/3 236/2/3 235/2/3
f 240/5/3 237/5/3 236/5/3
f 240/2/3 236/2/3 239/2/3
f 241/3/3 238/3/3 237/3/3
f 241/5/3 237/5/3 240/5/3
f 242/3/3 238/3/3 241/3/3
f 245/3/3 241/3/3 240/3/3
f 246/3/3 241/3/3 245/3/3
f 247/2/3 244/2/3 243/2/3
f 248/2/3 244/2/3 247/2/3
f 252/2/3 250/2/3 249/2/3
f 253/2/3 250/2/3 252/2/3
f 254/2/3 252/2/3 251/2/3
f 255/2/3 252/2/3 254/2/3
f 260/2/3 259/2/3 258/2/3
f 261/2/3 259/2/3 260/2/3
f 264/4/3 257/4/3 256/4/3
f 265/4/3 257/4/3 264/4/3
f 266/2/3 263/2/3 262/2/3
f 267/2/3 263/2/3 266/2/3
f 270/2/3 269/2/3 268/2/3
f 271/2/3 269/2/3 270/2/3
f 273/2/3 272/2/3 271/2/3
f 274/2/3 272/2/3 273/2/3
f 279/4/3 276/4/3 275/4/3
f 280/4/3 276/4/3 279/4/3
f 281/4/3 276/4/3 280/4/3
f 282/2/3 278/2/3 277/2/3
f 283/2/3 278/2/3 282/2/3
f 286/2/3 285/2/3 284/2/3
f 287/2/3 285/2/3 286/2/3
f 293/4/3 289/4/3 288/4/3
f 293/4/3 290/4/3 289/4/3
f 294/4/3 290/4/3 293/4/3
f 295/2/3 292/2/3 291/2/3
f 296/2/3 292/2/3 295/2/3
f 301/1/3 298/1/3 297/1/3
f 302/4/3 299/4/3 298/4/3
f 302/1/3 298/1/3 301/1/3
f 303/4/3 299/4/3 302/4/3
f 304/4/3 301/4/3 300/4/3
f 305/4/3 301/4/3 304/4/3
f 308/4/3 307/4/3 306/4/3
f 309/4/3 307/4/3 308/4/3
f 312/1/3 310/1/3 309/1/3
f 313/4/3 311/4/3 310/4/3
f 313/1/3 310/1/3 312/1/3
f 314/4/3 311/4/3 313/4/3
f 317/4/3 316/4/3 315/4/3
f 318/4/3 316/4/3 317/4/3
f 321/4/3 320/4/3 319/4/3
f 322/4/3 320/4/3 321/4/3
f 325/4/3 324/4/3 323/4/3
f 326/4/3 324/4/3 325/4/3
f 327/3/4 328/3/4 329/3/4
f 329/3/4 328/3/4 330/3/4
f 331/4/4 332/4/4 333/4/4
f 333/4/4 332/4/4 334/4/4
f 334/4/4 335/4/4 337/4/4
f 337/4/4 335/4/4 338/4/4
f 336/4/4 337/4/4 339/4/4
f 339/4/4 337/4/4 340/4/4
f 341/4/4 342/4/4 343/4/4
f 343/4/4 342/4/4 344/4/4
f 345/4/4 346/4/4 347/4/4
f 347/4/4 346/4/4 348/4/4
f 349/4/4 350/4/4 351/4/4
f 351/4/4 350/4/4 352/4/4
f 353/4/4 354/4/4 359/4/4
f 359/4/4 354/4/4 360/4/4
f 355/4/4 356/4/4 361/4/4
f 361/4/4 356/4/4 362/4/4
f 357/2/4 358/2/4 363/2/4
f 363/2/4 358/2/4 364/2/4
f 364/5/4 365/5/4 366/5/4
f 366/5/4 365/5/4 367/5/4
f 367/2/4 368/2/4 370/2/4
f 370/2/4 368/2/4 371/2/4
f 369/5/4 370/5/4 377/5/4
f 377/5/4 370/5/4 378/5/4
f 372/4/4 373/4/4 379/4/4
f 379/4/4 373/4/4 380/4/4
f 374/4/4 375/4/4 381/4/4
f 381/4/4 375/4/4 382/4/4
f 376/2/4 377/2/4 383/2/4
f 383/2/4 377/2/4 384/2/4
f 385/2/4 386/2/4 388/2/4
f 388/2/4 386/2/4 389/2/4
f 387/2/4 388/2/4 392/2/4
f 392/2/4 388/2/4 393/2/4
f 390/4/4 391/4/4 395/4/4
f 395/4/4 391/4/4 396/4/4
f 398/2/4 399/2/4 400/2/4
f 400/2/4 399/2/4 401/2/4
f 396/4/4 397/4/4 402/4/4
f 395/4/4 396/4/4 402/4/4
f 394/4/4 395/4/4 402/4/4
f 402/4/4 397/4/4 403/4/4
f 403/4/4 397/4/4 404/4/4
f 404/4/4 397/4/4 405/4/4
f 403/4/4 404/4/4 406/4/4
f 406/4/4 404/4/4 407/4/4
f 408/2/4 409/2/4 410/2/4
f 410/2/4 409/2/4 411/2/4
f 411/2/4 412/2/4 413/2/4
f 413/2/4 412/2/4 414/2/4
f 415/2/4 416/2/4 417/2/4
f 417/2/4 416/2/4 418/2/4
f 418/5/4 419/5/4 420/5/4
f 420/5/4 419/5/4 421/5/4
f 422/5/4 423/5/4 425/5/4
f 425/5/4 423/5/4 426/5/4
f 424/2/4 425/2/4 427/2/4
f 427/2/4 425/2/4 428/2/4
f 429/2/4 430/2/4 431/2/4
f 429/2/4 431/2/4 433/2/4
f 431/5/4 432/5/4 433/5/4
f 433/5/4 432/5/4 434/5/4
f 429/2/4 433/2/4 435/2/4
f 435/2/4 433/2/4 436/2/4
f 441/4/5 438/4/5 437/4/5
f 442/4/5 438/4/5 441/4/5
f 443/4/5 440/4/5 439/4/5
f 444/4/5 440/4/5 443/4/5
f 445/4/5 443/4/5 442/4/5
f 446/4/5 443/4/5 445/4/5
f 452/4/5 448/4/5 447/4/5
f 453/4/5 448/4/5 452/4/5
f 454/4/5 450/4/5 449/4/5
f 455/4/5 450/4/5 454/4/5
f 457/1/5 452/1/5 451/1/5
f 458/1/5 452/1/5 457/1/5
f 459/1/5 456/1/5 455/1/5
f 460/1/5 456/1/5 459/1/5
f 461/4/5 458/4/5 457/4/5
f 462/4/5 458/4/5 461/4/5
f 463/4/5 460/4/5 459/4/5
f 464/4/5 460/4/5 463/4/5
f 469/4/5 466/4/5 465/4/5
f 470/4/5 466/4/5 469/4/5
f 471/4/5 468/4/5 467/4/5
f 472/4/5 468/4/5 471/4/5
f 475/4/5 474/4/5 473/4/5
f 476/4/5 474/4/5 475/4/5
f 478/4/5 476/4/5 475/4/5
f 479/4/5 476/4/5 478/4/5
f 481/4/5 478/4/5 477/4/5
f 482/4/5 478/4/5 481/4/5
f 483/4/5 480/4/5 479/4/5
f 484/4/5 480/4/5 483/4/5
f 487/4/5 486/4/5 485/4/5
f 488/4/5 486/4/5 487/4/5
f 492/2/5 490/2/5 489/2/5
f 493/2/5 490/2/5 492/2/5
f 496/2/5 492/2/5 491/2/5
f 496/2/5 494/2/5 493/2/5
f 496/2/5 493/2/5 492/2/5
f 497/2/5 494/2/5 496/2/5
f 498/2/5 494/2/5 497/2/5
f 499/2/5 494/2/5 498/2/5
f 501/2/5 496/2/5 495/2/5
f 501/2/5 497/2/5 496/2/5
f 502/2/5 497/2/5 501/2/5
f 503/2/5 500/2/5 499/2/5
f 503/2/5 499/2/5 498/2/5
f 504/2/5 500/2/5 503/2/5
f 505/2/5 501/2/5 495/2/5
f 508/2/5 500/2/5 504/2/5
f 509/2/5 506/2/5 505/2/5
f 509/2/5 505/2/5 495/2/5
f 510/2/5 506/2/5 509/2/5
f 511/2/5 506/2/5 510/2/5
f 512/2/5 508/2/5 507/2/5
f 513/2/5 500/2/5 508/2/5
f 513/2/5 508/2/5 512/2/5
f 514/2/5 500/2/5 513/2/5
f 515/2/5 511/2/5 510/2/5
f 515/2/5 512/2/5 511/2/5
f 515/2/5 513/2/5 512/2/5
f 516/2/5 513/2/5 515/2/5
f 517/2/5 513/2/5 516/2/5
f 518/2/5 513/2/5 517/2/5
f 519/2/5 517/2/5 516/2/5
f 520/2/5 517/2/5 519/2/5
f 525/2/5 522/2/5 521/2/5
f 526/2/5 522/2/5 525/2/5
f 527/2/5 524/2/5 523/2/5
f 528/2/5 524/2/5 527/2/5
f 533/3/5 530/3/5 529/3/5
f 534/3/5 530/3/5 533/3/5
f 535/3/5 532/3/5 531/3/5
f 536/3/5 532/3/5 535/3/5
f 537/4/6 538/4/6 541/4/6
f 541/4/6 538/4/6 542/4/6
f 539/4/6 540/4/6 543/4/6
f 543/4/6 540/4/6 544/4/6
f 545/4/6 546/4/6 547/4/6
f 547/4/6 546/4/6 548/4/6
f 549/4/6 550/4/6 553/4/6
f 549/4/6 553/4/6 555/4/6
f 553/4/6 554/4/6 555/4/6
f 555/4/6 554/4/6 556/4/6
f 551/4/6 552/4/6 557/4/6
f 557/4/6 552/4/6 558/4/6
f 556/4/6 554/4/6 559/4/6
f 559/4/6 554/4/6 560/4/6
f 561/4/6 562/4/6 563/4/6
f 563/4/6 562/4/6 564/4/6
f 565/2/6 566/2/6 568/2/6
f 568/2/6 566/2/6 569/2/6
f 569/2/6 566/2/6 570/2/6
f 570/2/6 566/2/6 571/2/6
f 567/2/6 568/2/6 574/2/6
f 568/2/6 569/2/6 574/2/6
f 574/2/6 569/2/6 575/2/6
f 575/2/6 569/2/6 576/2/6
f 570/2/6 571/2/6 577/2/6
f 571/2/6 572/2/6 577/2/6
f 577/2/6 572/2/6 578/2/6
f 578/2/6 572/2/6 579/2/6
f 574/2/6 575/2/6 581/2/6
f 573/2/6 574/2/6 581/2/6
f 581/2/6 575/2/6 582/2/6
f 579/2/6 580/2/6 583/2/6
f 578/2/6 579/2/6 583/2/6
f 583/2/6 580/2/6 584/2/6
f 573/2/6 581/2/6 585/2/6
f 584/2/6 580/2/6 588/2/6
f 585/2/6 586/2/6 589/2/6
f 573/2/6 585/2/6 589/2/6
f 589/2/6 586/2/6 590/2/6
f 587/2/6 588/2/6 591/2/6
f 588/2/6 580/2/6 591/2/6
f 591/2/6 580/2/6 592/2/6
f 590/2/6 586/2/6 593/2/6
f 593/2/6 586/2/6 594/2/6
f 587/2/6 591/2/6 597/2/6
f 597/2/6 591/2/6 598/2/6
f 594/2/6 595/2/6 599/2/6
f 599/2/6 595/2/6 600/2/6
f 596/2/6 597/2/6 601/2/6
f 601/2/6 597/2/6 602/2/6
f 607/2/6 608/2/6 611/2/6
f 611/2/6 608/2/6 612/2/6
f 609/2/6 610/2/6 615/2/6
f 615/2/6 610/2/6 616/2/6
f 603/2/6 604/2/6 617/2/6
f 617/2/6 604/2/6 618/2/6
f 612/5/6 613/5/6 619/5/6
f 614/5/6 615/5/6 620/5/6
f 605/2/6 606/2/6 621/2/6
f 621/2/6 606/2/6 622/2/6
f 612/5/6 619/5/6 623/5/6
f 619/2/6 620/2/6 624/2/6
f 623/5/6 619/5/6 624/5/6
f 620/5/6 615/5/6 625/5/6
f 624/2/6 620/2/6 625/2/6
f 625/5/6 615/5/6 626/5/6
f 624/5/6 625/5/6 627/5/6
f 627/5/6 625/5/6 628/5/6
f 629/3/6 630/3/6 633/3/6
f 633/3/6 630/3/6 634/3/6
f 631/3/6 632/3/6 635/3/6
f 635/3/6 632/3/6 636/3/6
f 633/5/6 634/5/6 637/5/6
f 634/2/6 635/2/6 637/2/6
f 635/5/6 636/5/6 638/5/6
f 637/2/6 635/2/6 638/2/6
f 633/5/6 637/5/6 639/5/6
f 639/5/6 637/5/6 640/5/6
f 638/5/6 636/5/6 641/5/6
f 641/5/6 636/5/6 642/5/6
f 640/2/6 641/2/6 643/2/6
f 643/2/6 641/2/6 644/2/6
f 645/3/6 646/3/6 647/3/6
f 647/3/6 646/3/6 648/3/6
f 649/2/6 650/2/6 651/2/6
f 651/2/6 650/2/6 652/2/6
