# MagicaVoxel @ ephtracy

# material
mtllib ggj_enemyG.mtl
usemtl palette

# normals
vn -1 0 0
vn 1 0 0
vn 0 0 1
vn 0 0 -1
vn 0 -1 0
vn 0 1 0

# texcoords
vt 0.654297 0.5
vt 0.857422 0.5
vt 0.896484 0.5
vt 0.900391 0.5
vt 0.904297 0.5
vt 0.978516 0.5
vt 0.982422 0.5
vt 0.986328 0.5
vt 0.994141 0.5

# verts
v -3 5 2
v -3 5 1
v -3 5 -1
v -3 5 -2
v -3 6 2
v -3 6 1
v -3 6 -0
v -3 6 -1
v -3 6 -2
v -3 7 3
v -3 7 2
v -3 7 1
v -3 7 -0
v -3 7 -1
v -3 7 -2
v -3 8 3
v -3 8 2
v -3 8 1
v -3 8 -0
v -3 8 -1
v -3 9 1
v -3 9 -0
v -3 9 -1
v -2 0 -0
v -2 0 -1
v -2 1 1
v -2 1 -0
v -2 1 -1
v -2 2 1
v -2 2 -0
v -2 3 2
v -2 3 1
v -2 3 -0
v -2 3 -2
v -2 4 1
v -2 4 -2
v -2 5 2
v -2 5 1
v -2 5 -1
v -2 5 -2
v -2 5 -3
v -2 6 1
v -2 6 -0
v -2 6 -1
v -2 6 -2
v -2 6 -3
v -2 7 1
v -2 7 -0
v -2 7 -1
v -2 7 -2
v -2 7 -3
v -2 8 3
v -2 8 2
v -2 8 1
v -2 8 -1
v -2 8 -2
v -2 9 3
v -2 9 2
v -2 9 1
v -2 9 -0
v -2 9 -1
v -2 10 2
v -2 10 1
v -2 10 -0
v -2 10 -1
v -2 11 1
v -2 11 -0
v -1 7 -2
v -1 7 -3
v -1 8 -1
v -1 8 -2
v -1 8 -3
v -1 9 -1
v -1 9 -2
v -1 10 -1
v -1 10 -2
v 0 9 2
v 0 9 1
v 0 10 2
v 0 10 1
v 1 0 -0
v 1 0 -1
v 1 1 1
v 1 1 -0
v 1 1 -1
v 1 2 1
v 1 2 -0
v 1 3 1
v 1 3 -0
v 1 7 -2
v 1 7 -3
v 1 8 -2
v 1 8 -3
v 1 9 1
v 1 9 -0
v 1 10 1
v 1 10 -0
v -1 0 -0
v -1 0 -1
v -1 1 1
v -1 1 -0
v -1 1 -1
v -1 2 1
v -1 2 -0
v -1 3 1
v -1 3 -0
v -1 9 2
v -1 9 1
v -1 9 -0
v -1 10 2
v -1 10 1
v -1 10 -0
v -1 11 1
v -1 11 -0
v 0 7 -2
v 0 7 -3
v 0 8 -2
v 0 8 -3
v 0 9 -1
v 0 9 -2
v 0 10 -1
v 0 10 -2
v 1 8 -1
v 1 8 -2
v 1 9 -1
v 1 9 -2
v 2 0 -0
v 2 0 -1
v 2 1 1
v 2 1 -0
v 2 1 -1
v 2 2 1
v 2 2 -0
v 2 3 2
v 2 3 1
v 2 3 -0
v 2 3 -2
v 2 4 2
v 2 4 1
v 2 4 -0
v 2 4 -1
v 2 4 -2
v 2 5 2
v 2 5 1
v 2 5 -1
v 2 5 -2
v 2 5 -3
v 2 6 1
v 2 6 -0
v 2 6 -1
v 2 7 1
v 2 7 -0
v 2 7 -2
v 2 7 -3
v 2 8 3
v 2 8 2
v 2 8 1
v 2 8 -0
v 2 8 -2
v 2 8 -3
v 2 9 3
v 2 9 2
v 2 9 1
v 2 9 -0
v 2 9 -1
v 2 10 2
v 2 10 1
v 2 10 -0
v 2 10 -1
v 3 5 2
v 3 5 1
v 3 5 -1
v 3 5 -2
v 3 6 -0
v 3 6 -1
v 3 7 3
v 3 7 2
v 3 7 1
v 3 7 -0
v 3 7 -1
v 3 7 -2
v 3 8 3
v 3 8 1
v 3 8 -0
v 3 8 -1
v 3 8 -2
v 3 9 -0
v 3 9 -1
v -3 7 3
v -3 8 3
v -2 8 3
v -2 9 3
v -1 7 3
v -1 8 3
v 2 7 3
v 2 8 3
v 2 9 3
v 3 7 3
v 3 8 3
v -3 5 2
v -3 6 2
v -3 7 2
v -2 3 2
v -2 5 2
v -2 6 2
v -2 7 2
v -2 9 2
v -2 10 2
v -1 3 2
v -1 4 2
v -1 6 2
v -1 7 2
v -1 9 2
v -1 10 2
v 0 4 2
v 0 5 2
v 0 6 2
v 0 9 2
v 0 10 2
v 1 4 2
v 1 5 2
v 1 6 2
v 1 7 2
v 1 9 2
v 1 10 2
v 2 3 2
v 2 4 2
v 2 5 2
v 2 6 2
v 2 7 2
v 2 9 2
v 2 10 2
v 3 5 2
v 3 7 2
v -3 8 1
v -3 9 1
v -2 1 1
v -2 2 1
v -2 3 1
v -2 8 1
v -2 9 1
v -2 10 1
v -2 11 1
v -1 1 1
v -1 2 1
v -1 3 1
v -1 10 1
v -1 11 1
v 1 1 1
v 1 2 1
v 1 3 1
v 2 1 1
v 2 2 1
v 2 3 1
v -3 6 -0
v -3 7 -0
v -2 0 -0
v -2 1 -0
v -2 6 -0
v -2 7 -0
v -1 0 -0
v -1 1 -0
v -1 9 -0
v -1 10 -0
v 0 9 -0
v 1 0 -0
v 1 1 -0
v 1 9 -0
v 1 10 -0
v 2 0 -0
v 2 1 -0
v 2 6 -0
v 2 7 -0
v 2 8 -0
v 2 9 -0
v 3 6 -0
v 3 7 -0
v 3 8 -0
v 3 9 -0
v -3 5 -1
v -3 6 -1
v -2 5 -1
v -2 6 -1
v 2 5 -1
v 2 6 -1
v 3 5 -1
v 3 6 -1
v -3 5 1
v -3 6 1
v -3 7 1
v -2 5 1
v -2 6 1
v -2 7 1
v 0 9 1
v 0 10 1
v 1 9 1
v 1 10 1
v 2 5 1
v 2 6 1
v 2 7 1
v 3 5 1
v 3 7 1
v -2 1 -0
v -2 2 -0
v -2 3 -0
v -2 10 -0
v -2 11 -0
v -1 1 -0
v -1 2 -0
v -1 3 -0
v -1 10 -0
v -1 11 -0
v 1 1 -0
v 1 2 -0
v 1 3 -0
v 2 1 -0
v 2 2 -0
v 2 3 -0
v -3 7 -1
v -3 8 -1
v -3 9 -1
v -2 0 -1
v -2 1 -1
v -2 7 -1
v -2 8 -1
v -2 9 -1
v -2 10 -1
v -1 0 -1
v -1 1 -1
v -1 8 -1
v -1 9 -1
v -1 10 -1
v 0 9 -1
v 0 10 -1
v 1 0 -1
v 1 1 -1
v 1 8 -1
v 1 9 -1
v 1 10 -1
v 2 0 -1
v 2 1 -1
v 2 8 -1
v 2 9 -1
v 2 10 -1
v 3 8 -1
v 3 9 -1
v -3 5 -2
v -3 6 -2
v -3 7 -2
v -2 3 -2
v -2 4 -2
v -2 5 -2
v -2 6 -2
v -2 7 -2
v -2 8 -2
v -1 7 -2
v -1 8 -2
v -1 9 -2
v -1 10 -2
v 0 4 -2
v 0 5 -2
v 0 7 -2
v 0 8 -2
v 0 9 -2
v 0 10 -2
v 1 4 -2
v 1 5 -2
v 1 7 -2
v 1 8 -2
v 1 9 -2
v 2 3 -2
v 2 4 -2
v 2 5 -2
v 2 7 -2
v 2 8 -2
v 3 5 -2
v 3 7 -2
v 3 8 -2
v -2 5 -3
v -2 6 -3
v -2 7 -3
v -1 6 -3
v -1 7 -3
v -1 8 -3
v 0 6 -3
v 0 7 -3
v 0 8 -3
v 1 6 -3
v 1 7 -3
v 1 8 -3
v 2 5 -3
v 2 7 -3
v 2 8 -3
v -2 0 -0
v -1 0 -0
v 1 0 -0
v 2 0 -0
v -2 0 -1
v -1 0 -1
v 1 0 -1
v 2 0 -1
v -2 1 1
v -1 1 1
v 1 1 1
v 2 1 1
v -2 1 -0
v -1 1 -0
v 1 1 -0
v 2 1 -0
v -2 3 2
v -1 3 2
v 2 3 2
v -2 3 1
v -1 3 1
v 1 3 1
v 2 3 1
v -2 3 -0
v -1 3 -0
v 1 3 -0
v 2 3 -0
v -2 3 -2
v 2 3 -2
v -3 5 2
v -2 5 2
v 2 5 2
v 3 5 2
v -3 5 1
v -2 5 1
v 2 5 1
v 3 5 1
v -3 5 -1
v -2 5 -1
v 2 5 -1
v 3 5 -1
v -3 5 -2
v -2 5 -2
v 0 5 -2
v 1 5 -2
v 2 5 -2
v 3 5 -2
v -2 5 -3
v 2 5 -3
v -3 6 -0
v -2 6 -0
v 2 6 -0
v 3 6 -0
v -3 6 -1
v -2 6 -1
v 2 6 -1
v 3 6 -1
v -3 7 3
v -1 7 3
v 2 7 3
v 3 7 3
v -3 7 2
v -2 7 2
v -1 7 2
v 1 7 2
v 2 7 2
v 3 7 2
v -3 7 1
v -2 7 1
v 2 7 1
v 3 7 1
v -3 7 -0
v -2 7 -0
v 2 7 -0
v 3 7 -0
v -2 1 -0
v -1 1 -0
v 1 1 -0
v 2 1 -0
v -2 1 -1
v -1 1 -1
v 1 1 -1
v 2 1 -1
v -3 7 -1
v -2 7 -1
v -3 7 -2
v -2 7 -2
v -1 7 -2
v 0 7 -2
v 1 7 -2
v -2 7 -3
v -1 7 -3
v 0 7 -3
v 1 7 -3
v -3 8 3
v -2 8 3
v 2 8 3
v 3 8 3
v -3 8 2
v -2 8 2
v 2 8 2
v -3 8 1
v -2 8 1
v 2 8 1
v 3 8 1
v 2 8 -0
v 3 8 -0
v -2 8 -1
v -1 8 -1
v 1 8 -1
v 2 8 -1
v 3 8 -1
v -2 8 -2
v -1 8 -2
v 0 8 -2
v 1 8 -2
v 2 8 -2
v 3 8 -2
v -1 8 -3
v 0 8 -3
v 1 8 -3
v 2 8 -3
v -2 9 3
v 2 9 3
v -2 9 2
v -1 9 2
v 0 9 2
v 1 9 2
v 2 9 2
v -3 9 1
v -2 9 1
v -1 9 1
v 0 9 1
v 1 9 1
v -3 9 -0
v -2 9 -0
v -1 9 -0
v 0 9 -0
v 1 9 -0
v 2 9 -0
v 3 9 -0
v -3 9 -1
v -2 9 -1
v 0 9 -1
v 1 9 -1
v 2 9 -1
v 3 9 -1
v 0 9 -2
v 1 9 -2
v -2 10 2
v -1 10 2
v 0 10 2
v 1 10 2
v 2 10 2
v -2 10 1
v -1 10 1
v 0 10 1
v 1 10 1
v 2 10 1
v -2 10 -0
v -1 10 -0
v 1 10 -0
v 2 10 -0
v -2 10 -1
v -1 10 -1
v 0 10 -1
v 1 10 -1
v 2 10 -1
v -1 10 -2
v 0 10 -2
v -2 11 1
v -1 11 1
v -2 11 -0
v -1 11 -0

# faces
f 5/7/1 2/7/1 1/7/1
f 6/7/1 2/7/1 5/7/1
f 8/7/1 4/7/1 3/7/1
f 9/7/1 4/7/1 8/7/1
f 11/8/1 6/8/1 5/8/1
f 12/8/1 6/8/1 11/8/1
f 13/7/1 8/7/1 7/7/1
f 14/8/1 9/8/1 8/8/1
f 14/7/1 8/7/1 13/7/1
f 15/8/1 9/8/1 14/8/1
f 16/8/1 11/8/1 10/8/1
f 17/6/1 12/6/1 11/6/1
f 17/8/1 11/8/1 16/8/1
f 17/6/1 13/6/1 12/6/1
f 17/6/1 14/6/1 13/6/1
f 18/6/1 14/6/1 17/6/1
f 19/6/1 14/6/1 18/6/1
f 20/6/1 14/6/1 19/6/1
f 21/3/1 19/3/1 18/3/1
f 22/1/1 20/1/1 19/1/1
f 22/3/1 19/3/1 21/3/1
f 23/1/1 20/1/1 22/1/1
f 27/3/1 25/3/1 24/3/1
f 28/3/1 25/3/1 27/3/1
f 29/5/1 27/5/1 26/5/1
f 30/5/1 27/5/1 29/5/1
f 32/4/1 30/4/1 29/4/1
f 33/4/1 30/4/1 32/4/1
f 35/4/1 33/4/1 32/4/1
f 35/4/1 34/4/1 33/4/1
f 35/5/1 32/5/1 31/5/1
f 36/4/1 34/4/1 35/4/1
f 37/5/1 35/5/1 31/5/1
f 38/3/1 36/3/1 35/3/1
f 38/5/1 35/5/1 37/5/1
f 39/3/1 36/3/1 38/3/1
f 40/3/1 36/3/1 39/3/1
f 42/3/1 39/3/1 38/3/1
f 43/3/1 39/3/1 42/3/1
f 44/3/1 39/3/1 43/3/1
f 45/7/1 41/7/1 40/7/1
f 46/7/1 41/7/1 45/7/1
f 47/3/1 43/3/1 42/3/1
f 48/3/1 43/3/1 47/3/1
f 50/6/1 46/6/1 45/6/1
f 51/6/1 46/6/1 50/6/1
f 55/8/1 50/8/1 49/8/1
f 56/8/1 50/8/1 55/8/1
f 57/5/1 53/5/1 52/5/1
f 58/8/1 54/8/1 53/8/1
f 58/5/1 53/5/1 57/5/1
f 59/8/1 54/8/1 58/8/1
f 62/3/1 59/3/1 58/3/1
f 63/1/1 60/1/1 59/1/1
f 63/3/1 59/3/1 62/3/1
f 64/5/1 61/5/1 60/5/1
f 64/1/1 60/1/1 63/1/1
f 65/5/1 61/5/1 64/5/1
f 66/1/1 64/1/1 63/1/1
f 67/1/1 64/1/1 66/1/1
f 71/5/1 69/5/1 68/5/1
f 72/5/1 69/5/1 71/5/1
f 73/1/1 71/1/1 70/1/1
f 74/1/1 71/1/1 73/1/1
f 75/5/1 74/5/1 73/5/1
f 76/5/1 74/5/1 75/5/1
f 79/5/1 78/5/1 77/5/1
f 80/5/1 78/5/1 79/5/1
f 84/3/1 82/3/1 81/3/1
f 85/3/1 82/3/1 84/3/1
f 86/3/1 84/3/1 83/3/1
f 87/3/1 84/3/1 86/3/1
f 88/4/1 87/4/1 86/4/1
f 89/4/1 87/4/1 88/4/1
f 92/5/1 91/5/1 90/5/1
f 93/5/1 91/5/1 92/5/1
f 96/5/1 95/5/1 94/5/1
f 97/5/1 95/5/1 96/5/1
f 98/3/2 99/3/2 101/3/2
f 101/3/2 99/3/2 102/3/2
f 100/5/2 101/5/2 103/5/2
f 103/5/2 101/5/2 104/5/2
f 103/4/2 104/4/2 105/4/2
f 105/4/2 104/4/2 106/4/2
f 107/3/2 108/3/2 110/3/2
f 108/1/2 109/1/2 111/1/2
f 110/3/2 108/3/2 111/3/2
f 111/1/2 109/1/2 112/1/2
f 111/1/2 112/1/2 113/1/2
f 113/1/2 112/1/2 114/1/2
f 115/5/2 116/5/2 117/5/2
f 117/5/2 116/5/2 118/5/2
f 119/5/2 120/5/2 121/5/2
f 121/5/2 120/5/2 122/5/2
f 123/3/2 124/3/2 125/3/2
f 125/3/2 124/3/2 126/3/2
f 127/3/2 128/3/2 130/3/2
f 130/3/2 128/3/2 131/3/2
f 129/3/2 130/3/2 132/3/2
f 132/3/2 130/3/2 133/3/2
f 132/4/2 133/4/2 135/4/2
f 135/4/2 133/4/2 136/4/2
f 135/4/2 136/4/2 138/4/2
f 136/4/2 137/4/2 138/4/2
f 134/4/2 135/4/2 138/4/2
f 138/4/2 137/4/2 139/4/2
f 139/4/2 137/4/2 140/4/2
f 140/4/2 137/4/2 141/4/2
f 141/4/2 137/4/2 142/4/2
f 138/5/2 139/5/2 143/5/2
f 139/4/2 140/4/2 144/4/2
f 143/5/2 139/5/2 144/5/2
f 140/3/2 141/3/2 145/3/2
f 141/5/2 142/5/2 145/5/2
f 145/5/2 142/5/2 146/5/2
f 144/4/2 140/4/2 148/4/2
f 140/3/2 145/3/2 149/3/2
f 148/4/2 140/4/2 149/4/2
f 149/3/2 145/3/2 150/3/2
f 148/3/2 149/3/2 151/3/2
f 151/3/2 149/3/2 152/3/2
f 146/7/2 147/7/2 153/7/2
f 153/7/2 147/7/2 154/7/2
f 153/5/2 154/5/2 159/5/2
f 159/5/2 154/5/2 160/5/2
f 155/5/2 156/5/2 161/5/2
f 156/7/2 157/7/2 162/7/2
f 161/5/2 156/5/2 162/5/2
f 157/8/2 158/8/2 163/8/2
f 162/7/2 157/7/2 163/7/2
f 163/8/2 158/8/2 164/8/2
f 162/1/2 163/1/2 166/1/2
f 163/5/2 164/5/2 167/5/2
f 166/1/2 163/1/2 167/1/2
f 164/1/2 165/1/2 168/1/2
f 167/5/2 164/5/2 168/5/2
f 168/1/2 165/1/2 169/1/2
f 172/7/2 173/7/2 175/7/2
f 170/7/2 171/7/2 177/7/2
f 177/7/2 171/7/2 178/7/2
f 174/7/2 175/7/2 179/7/2
f 175/7/2 173/7/2 180/7/2
f 179/7/2 175/7/2 180/7/2
f 180/7/2 173/7/2 181/7/2
f 177/6/2 178/6/2 182/6/2
f 176/6/2 177/6/2 182/6/2
f 178/7/2 179/7/2 183/7/2
f 182/6/2 178/6/2 183/6/2
f 179/7/2 180/7/2 183/7/2
f 183/7/2 180/7/2 184/7/2
f 180/5/2 181/5/2 185/5/2
f 184/7/2 180/7/2 185/7/2
f 185/5/2 181/5/2 186/5/2
f 184/5/2 185/5/2 187/5/2
f 187/5/2 185/5/2 188/5/2
f 191/8/3 190/8/3 189/8/3
f 193/8/3 191/8/3 189/8/3
f 194/5/3 192/5/3 191/5/3
f 194/8/3 191/8/3 193/8/3
f 195/7/3 194/7/3 193/7/3
f 196/5/3 192/5/3 194/5/3
f 196/7/3 194/7/3 195/7/3
f 197/5/3 192/5/3 196/5/3
f 198/6/3 196/6/3 195/6/3
f 199/6/3 196/6/3 198/6/3
f 204/7/3 201/7/3 200/7/3
f 205/8/3 202/8/3 201/8/3
f 205/7/3 201/7/3 204/7/3
f 206/8/3 202/8/3 205/8/3
f 209/5/3 204/5/3 203/5/3
f 210/5/3 204/5/3 209/5/3
f 211/3/3 205/3/3 204/3/3
f 211/9/3 206/9/3 205/9/3
f 212/9/3 206/9/3 211/9/3
f 213/3/3 208/3/3 207/3/3
f 214/3/3 208/3/3 213/3/3
f 215/5/3 204/5/3 210/5/3
f 215/4/3 210/4/3 209/4/3
f 216/3/3 212/3/3 211/3/3
f 216/5/3 204/5/3 215/5/3
f 216/3/3 211/3/3 204/3/3
f 217/3/3 212/3/3 216/3/3
f 220/4/3 215/4/3 209/4/3
f 220/4/3 216/4/3 215/4/3
f 220/4/3 217/4/3 216/4/3
f 221/4/3 217/4/3 220/4/3
f 222/3/3 212/3/3 217/3/3
f 222/4/3 217/4/3 221/4/3
f 223/3/3 212/3/3 222/3/3
f 224/5/3 219/5/3 218/5/3
f 225/5/3 219/5/3 224/5/3
f 226/4/3 220/4/3 209/4/3
f 227/5/3 221/5/3 220/5/3
f 227/4/3 220/4/3 226/4/3
f 228/3/3 222/3/3 221/3/3
f 228/5/3 221/5/3 227/5/3
f 229/9/3 223/9/3 222/9/3
f 229/3/3 222/3/3 228/3/3
f 230/9/3 223/9/3 229/9/3
f 231/1/3 225/1/3 224/1/3
f 232/1/3 225/1/3 231/1/3
f 233/7/3 230/7/3 229/7/3
f 233/7/3 229/7/3 228/7/3
f 234/7/3 230/7/3 233/7/3
f 240/3/3 236/3/3 235/3/3
f 241/3/3 236/3/3 240/3/3
f 244/5/3 238/5/3 237/5/3
f 245/4/3 239/4/3 238/4/3
f 245/5/3 238/5/3 244/5/3
f 246/4/3 239/4/3 245/4/3
f 247/1/3 243/1/3 242/1/3
f 248/1/3 243/1/3 247/1/3
f 252/3/3 250/3/3 249/3/3
f 253/4/3 251/4/3 250/4/3
f 253/3/3 250/3/3 252/3/3
f 254/4/3 251/4/3 253/4/3
f 259/7/3 256/7/3 255/7/3
f 260/7/3 256/7/3 259/7/3
f 261/3/3 258/3/3 257/3/3
f 262/3/3 258/3/3 261/3/3
f 265/5/3 264/5/3 263/5/3
f 268/5/3 264/5/3 265/5/3
f 269/5/3 264/5/3 268/5/3
f 270/3/3 267/3/3 266/3/3
f 271/3/3 267/3/3 270/3/3
f 276/7/3 273/7/3 272/7/3
f 277/7/3 273/7/3 276/7/3
f 278/5/3 275/5/3 274/5/3
f 279/5/3 275/5/3 278/5/3
f 282/7/3 281/7/3 280/7/3
f 283/7/3 281/7/3 282/7/3
f 286/7/3 285/7/3 284/7/3
f 287/7/3 285/7/3 286/7/3
f 288/7/4 289/7/4 291/7/4
f 289/8/4 290/8/4 292/8/4
f 291/7/4 289/7/4 292/7/4
f 292/8/4 290/8/4 293/8/4
f 294/5/4 295/5/4 296/5/4
f 296/5/4 295/5/4 297/5/4
f 298/7/4 299/7/4 301/7/4
f 299/7/4 300/7/4 301/7/4
f 301/7/4 300/7/4 302/7/4
f 303/5/4 304/5/4 308/5/4
f 304/4/4 305/4/4 309/4/4
f 308/5/4 304/5/4 309/5/4
f 309/4/4 305/4/4 310/4/4
f 306/1/4 307/1/4 311/1/4
f 311/1/4 307/1/4 312/1/4
f 313/3/4 314/3/4 316/3/4
f 314/4/4 315/4/4 317/4/4
f 316/3/4 314/3/4 317/3/4
f 317/4/4 315/4/4 318/4/4
f 319/6/4 320/6/4 324/6/4
f 320/1/4 321/1/4 325/1/4
f 324/6/4 320/6/4 325/6/4
f 325/1/4 321/1/4 326/1/4
f 322/3/4 323/3/4 328/3/4
f 328/3/4 323/3/4 329/3/4
f 325/8/4 326/8/4 330/8/4
f 326/5/4 327/5/4 331/5/4
f 330/8/4 326/8/4 331/8/4
f 331/5/4 327/5/4 332/5/4
f 333/5/4 334/5/4 338/5/4
f 338/5/4 334/5/4 339/5/4
f 335/3/4 336/3/4 340/3/4
f 340/3/4 336/3/4 341/3/4
f 337/6/4 338/6/4 342/6/4
f 338/1/4 339/1/4 343/1/4
f 342/6/4 338/6/4 343/6/4
f 343/1/4 339/1/4 344/1/4
f 342/5/4 343/5/4 345/5/4
f 345/5/4 343/5/4 346/5/4
f 347/7/4 348/7/4 352/7/4
f 348/8/4 349/8/4 353/8/4
f 352/7/4 348/7/4 353/7/4
f 353/8/4 349/8/4 354/8/4
f 354/8/4 355/8/4 356/8/4
f 356/8/4 355/8/4 357/8/4
f 350/4/4 351/4/4 360/4/4
f 351/3/4 352/3/4 360/3/4
f 360/3/4 352/3/4 361/3/4
f 357/1/4 358/1/4 363/1/4
f 358/5/4 359/5/4 364/5/4
f 363/1/4 358/1/4 364/1/4
f 364/5/4 359/5/4 365/5/4
f 360/4/4 361/4/4 366/4/4
f 350/4/4 360/4/4 366/4/4
f 366/4/4 361/4/4 367/4/4
f 362/6/4 363/6/4 368/6/4
f 363/3/4 364/3/4 369/3/4
f 368/6/4 363/6/4 369/6/4
f 369/3/4 364/3/4 370/3/4
f 350/4/4 366/4/4 371/4/4
f 366/5/4 367/5/4 372/5/4
f 371/4/4 366/4/4 372/4/4
f 372/5/4 367/5/4 373/5/4
f 373/7/4 374/7/4 376/7/4
f 374/5/4 375/5/4 377/5/4
f 376/7/4 374/7/4 377/7/4
f 377/5/4 375/5/4 378/5/4
f 379/7/4 380/7/4 382/7/4
f 380/6/4 381/6/4 382/6/4
f 382/6/4 381/6/4 383/6/4
f 379/7/4 382/7/4 385/7/4
f 382/7/4 383/7/4 385/7/4
f 383/5/4 384/5/4 386/5/4
f 385/7/4 383/7/4 386/7/4
f 386/5/4 384/5/4 387/5/4
f 379/7/4 385/7/4 388/7/4
f 385/6/4 386/6/4 388/6/4
f 388/6/4 386/6/4 389/6/4
f 379/7/4 388/7/4 391/7/4
f 388/7/4 389/7/4 391/7/4
f 389/5/4 390/5/4 392/5/4
f 391/7/4 389/7/4 392/7/4
f 392/5/4 390/5/4 393/5/4
f 398/3/5 395/3/5 394/3/5
f 399/3/5 395/3/5 398/3/5
f 400/3/5 397/3/5 396/3/5
f 401/3/5 397/3/5 400/3/5
f 406/5/5 403/5/5 402/5/5
f 407/5/5 403/5/5 406/5/5
f 408/3/5 405/3/5 404/3/5
f 409/3/5 405/3/5 408/3/5
f 413/5/5 411/5/5 410/5/5
f 414/4/5 412/4/5 411/4/5
f 414/5/5 411/5/5 413/5/5
f 415/4/5 412/4/5 414/4/5
f 416/4/5 412/4/5 415/4/5
f 418/4/5 415/4/5 414/4/5
f 419/4/5 415/4/5 418/4/5
f 421/4/5 418/4/5 417/4/5
f 421/4/5 420/4/5 419/4/5
f 421/4/5 419/4/5 418/4/5
f 422/4/5 420/4/5 421/4/5
f 427/7/5 424/7/5 423/7/5
f 428/7/5 424/7/5 427/7/5
f 429/7/5 426/7/5 425/7/5
f 430/7/5 426/7/5 429/7/5
f 435/7/5 432/7/5 431/7/5
f 436/7/5 432/7/5 435/7/5
f 439/7/5 434/7/5 433/7/5
f 440/7/5 434/7/5 439/7/5
f 441/7/5 438/7/5 437/7/5
f 441/7/5 439/7/5 438/7/5
f 441/7/5 437/7/5 436/7/5
f 442/7/5 439/7/5 441/7/5
f 447/7/5 444/7/5 443/7/5
f 448/7/5 444/7/5 447/7/5
f 449/7/5 446/7/5 445/7/5
f 450/7/5 446/7/5 449/7/5
f 455/8/5 452/8/5 451/8/5
f 456/8/5 452/8/5 455/8/5
f 457/7/5 453/7/5 452/7/5
f 457/8/5 452/8/5 456/8/5
f 458/7/5 453/7/5 457/7/5
f 459/6/5 454/6/5 453/6/5
f 459/7/5 453/7/5 458/7/5
f 460/6/5 454/6/5 459/6/5
f 465/6/5 462/6/5 461/6/5
f 466/6/5 462/6/5 465/6/5
f 467/7/5 464/7/5 463/7/5
f 468/7/5 464/7/5 467/7/5
f 469/3/6 470/3/6 473/3/6
f 473/3/6 470/3/6 474/3/6
f 471/3/6 472/3/6 475/3/6
f 475/3/6 472/3/6 476/3/6
f 477/8/6 478/8/6 479/8/6
f 479/8/6 478/8/6 480/8/6
f 480/6/6 481/6/6 484/6/6
f 484/6/6 481/6/6 485/6/6
f 482/6/6 483/6/6 486/6/6
f 486/6/6 483/6/6 487/6/6
f 488/8/6 489/8/6 492/8/6
f 492/8/6 489/8/6 493/8/6
f 490/6/6 491/6/6 494/6/6
f 492/6/6 493/6/6 495/6/6
f 495/6/6 493/6/6 496/6/6
f 494/6/6 491/6/6 497/6/6
f 497/6/6 491/6/6 498/6/6
f 497/7/6 498/7/6 499/7/6
f 499/7/6 498/7/6 500/7/6
f 501/8/6 502/8/6 506/8/6
f 506/8/6 502/8/6 507/8/6
f 503/6/6 504/6/6 509/6/6
f 504/5/6 505/5/6 510/5/6
f 509/6/6 504/6/6 510/6/6
f 510/5/6 505/5/6 511/5/6
f 507/5/6 508/5/6 512/5/6
f 512/5/6 508/5/6 513/5/6
f 509/5/6 510/5/6 514/5/6
f 514/5/6 510/5/6 515/5/6
f 516/5/6 517/5/6 518/5/6
f 518/5/6 517/5/6 519/5/6
f 519/5/6 517/5/6 520/5/6
f 520/5/6 517/5/6 521/5/6
f 521/5/6 517/5/6 522/5/6
f 519/8/6 520/8/6 525/8/6
f 525/8/6 520/8/6 526/8/6
f 523/3/6 524/3/6 528/3/6
f 528/3/6 524/3/6 529/3/6
f 525/7/6 526/7/6 530/7/6
f 526/6/6 527/6/6 531/6/6
f 530/7/6 526/7/6 531/7/6
f 531/6/6 527/6/6 532/6/6
f 528/1/6 529/1/6 535/1/6
f 535/1/6 529/1/6 536/1/6
f 533/5/6 534/5/6 539/5/6
f 539/5/6 534/5/6 540/5/6
f 537/3/6 538/3/6 541/3/6
f 541/3/6 538/3/6 542/3/6
f 543/3/6 544/3/6 548/3/6
f 548/3/6 544/3/6 549/3/6
f 545/5/6 546/5/6 550/5/6
f 546/1/6 547/1/6 551/1/6
f 550/5/6 546/5/6 551/5/6
f 551/1/6 547/1/6 552/1/6
f 551/5/6 552/5/6 555/5/6
f 555/5/6 552/5/6 556/5/6
f 553/5/6 554/5/6 557/5/6
f 554/5/6 555/5/6 557/5/6
f 557/5/6 555/5/6 558/5/6
f 558/5/6 555/5/6 559/5/6
f 555/1/6 556/1/6 560/1/6
f 559/5/6 555/5/6 560/5/6
f 560/1/6 556/1/6 561/1/6
f 558/5/6 559/5/6 562/5/6
f 562/5/6 559/5/6 563/5/6
f 564/1/6 565/1/6 566/1/6
f 566/1/6 565/1/6 567/1/6
