# MagicaVoxel @ ephtracy

# material
mtllib ggj_enemyR.mtl
usemtl palette

# normals
vn -1 0 0
vn 1 0 0
vn 0 0 1
vn 0 0 -1
vn 0 -1 0
vn 0 1 0

# texcoords
vt 0.857422 0.5
vt 0.861328 0.5
vt 0.865234 0.5
vt 0.978516 0.5
vt 0.982422 0.5
vt 0.986328 0.5
vt 0.994141 0.5

# verts
v -3 5 2
v -3 5 1
v -3 5 -1
v -3 5 -2
v -3 6 2
v -3 6 1
v -3 6 -0
v -3 6 -1
v -3 6 -2
v -3 7 3
v -3 7 2
v -3 7 1
v -3 7 -0
v -3 7 -1
v -3 7 -2
v -3 8 3
v -3 8 2
v -3 8 1
v -3 8 -0
v -3 8 -1
v -3 10 2
v -3 10 1
v -3 11 2
v -3 11 -0
v -2 0 -0
v -2 0 -1
v -2 1 1
v -2 1 -0
v -2 1 -1
v -2 2 1
v -2 2 -0
v -2 3 2
v -2 3 1
v -2 3 -0
v -2 3 -1
v -2 3 -2
v -2 4 2
v -2 4 1
v -2 4 -0
v -2 4 -1
v -2 4 -2
v -2 5 2
v -2 5 1
v -2 5 -1
v -2 5 -2
v -2 5 -3
v -2 6 1
v -2 6 -0
v -2 6 -1
v -2 6 -2
v -2 6 -3
v -2 7 1
v -2 7 -0
v -2 7 -1
v -2 7 -2
v -2 7 -3
v -2 8 2
v -2 8 1
v -2 8 -0
v -2 8 -1
v -2 8 -2
v -2 9 2
v -2 9 1
v -2 9 -0
v -2 9 -1
v 1 0 -0
v 1 0 -1
v 1 1 1
v 1 1 -0
v 1 1 -1
v 1 3 1
v 1 3 -0
v 2 9 1
v 2 9 -0
v 2 10 2
v 2 10 1
v 2 11 2
v 2 11 -0
v -2 9 1
v -2 9 -0
v -2 10 2
v -2 10 1
v -2 11 2
v -2 11 -0
v -1 0 -0
v -1 0 -1
v -1 1 1
v -1 1 -0
v -1 1 -1
v -1 2 1
v -1 2 -0
v -1 3 1
v -1 3 -0
v 2 0 -0
v 2 0 -1
v 2 1 1
v 2 1 -0
v 2 1 -1
v 2 3 2
v 2 3 1
v 2 3 -0
v 2 3 -2
v 2 4 -0
v 2 4 -1
v 2 5 2
v 2 5 1
v 2 5 -0
v 2 5 -1
v 2 5 -2
v 2 5 -3
v 2 6 -0
v 2 6 -1
v 2 7 1
v 2 7 -0
v 2 7 -1
v 2 7 -2
v 2 7 -3
v 2 8 2
v 2 8 1
v 2 8 -0
v 2 8 -1
v 2 8 -2
v 2 9 2
v 2 9 1
v 2 9 -0
v 2 9 -1
v 3 5 2
v 3 5 1
v 3 5 -1
v 3 5 -2
v 3 6 -0
v 3 6 -1
v 3 7 3
v 3 7 2
v 3 7 1
v 3 7 -0
v 3 7 -1
v 3 7 -2
v 3 8 3
v 3 8 1
v 3 8 -0
v 3 8 -1
v 3 10 2
v 3 10 1
v 3 11 2
v 3 11 -0
v -3 7 3
v -3 8 3
v -1 7 3
v -1 8 3
v 2 7 3
v 2 8 3
v 3 7 3
v 3 8 3
v -3 5 2
v -3 6 2
v -3 7 2
v -3 10 2
v -3 11 2
v -2 3 2
v -2 4 2
v -2 5 2
v -2 6 2
v -2 7 2
v -2 8 2
v -2 9 2
v -2 10 2
v -2 11 2
v -1 3 2
v -1 4 2
v -1 5 2
v -1 6 2
v -1 7 2
v -1 8 2
v 0 4 2
v 0 5 2
v 0 6 2
v 0 7 2
v 0 8 2
v 0 9 2
v 1 3 2
v 1 5 2
v 1 6 2
v 1 7 2
v 2 3 2
v 2 5 2
v 2 6 2
v 2 7 2
v 2 8 2
v 2 9 2
v 2 10 2
v 2 11 2
v 3 5 2
v 3 7 2
v 3 10 2
v 3 11 2
v -3 8 1
v -3 10 1
v -2 1 1
v -2 2 1
v -2 3 1
v -2 8 1
v -2 9 1
v -2 10 1
v -1 1 1
v -1 2 1
v -1 3 1
v 1 1 1
v 1 3 1
v 2 1 1
v 2 3 1
v 2 8 1
v 2 9 1
v 2 10 1
v 3 8 1
v 3 10 1
v -3 6 -0
v -3 7 -0
v -2 0 -0
v -2 1 -0
v -2 6 -0
v -2 7 -0
v -1 0 -0
v -1 1 -0
v 1 0 -0
v 1 1 -0
v 2 0 -0
v 2 1 -0
v 2 6 -0
v 2 7 -0
v 3 6 -0
v 3 7 -0
v -3 5 -1
v -3 6 -1
v -2 5 -1
v -2 6 -1
v 2 5 -1
v 2 6 -1
v 3 5 -1
v 3 6 -1
v -3 5 1
v -3 6 1
v -3 7 1
v -2 5 1
v -2 6 1
v -2 7 1
v 2 5 1
v 2 7 1
v 3 5 1
v 3 7 1
v -3 8 -0
v -3 11 -0
v -2 1 -0
v -2 2 -0
v -2 3 -0
v -2 8 -0
v -2 9 -0
v -2 11 -0
v -1 1 -0
v -1 2 -0
v -1 3 -0
v 1 1 -0
v 1 3 -0
v 2 1 -0
v 2 3 -0
v 2 8 -0
v 2 9 -0
v 2 11 -0
v 3 8 -0
v 3 11 -0
v -3 7 -1
v -3 8 -1
v -2 0 -1
v -2 1 -1
v -2 7 -1
v -2 8 -1
v -2 9 -1
v -1 0 -1
v -1 1 -1
v 0 8 -1
v 1 0 -1
v 1 1 -1
v 1 8 -1
v 1 9 -1
v 2 0 -1
v 2 1 -1
v 2 7 -1
v 2 8 -1
v 2 9 -1
v 3 7 -1
v 3 8 -1
v -3 5 -2
v -3 6 -2
v -3 7 -2
v -2 3 -2
v -2 4 -2
v -2 5 -2
v -2 6 -2
v -2 7 -2
v -2 8 -2
v -1 3 -2
v -1 4 -2
v -1 7 -2
v 0 3 -2
v 0 4 -2
v 0 5 -2
v 0 7 -2
v 0 8 -2
v 1 7 -2
v 2 3 -2
v 2 5 -2
v 2 7 -2
v 2 8 -2
v 3 5 -2
v 3 7 -2
v -2 5 -3
v -2 6 -3
v -2 7 -3
v -1 6 -3
v -1 7 -3
v 0 6 -3
v 0 7 -3
v 1 6 -3
v 1 7 -3
v 2 5 -3
v 2 7 -3
v -2 0 -0
v -1 0 -0
v 1 0 -0
v 2 0 -0
v -2 0 -1
v -1 0 -1
v 1 0 -1
v 2 0 -1
v -2 1 1
v -1 1 1
v 1 1 1
v 2 1 1
v -2 1 -0
v -1 1 -0
v 1 1 -0
v 2 1 -0
v -2 3 2
v -1 3 2
v 1 3 2
v 2 3 2
v -2 3 1
v -1 3 1
v 1 3 1
v 2 3 1
v -2 3 -0
v -1 3 -0
v 0 3 -0
v 1 3 -0
v 2 3 -0
v -2 3 -1
v -1 3 -1
v 0 3 -1
v 1 3 -1
v -2 3 -2
v -1 3 -2
v 0 3 -2
v 2 3 -2
v -3 5 2
v -2 5 2
v 2 5 2
v 3 5 2
v -3 5 1
v -2 5 1
v 2 5 1
v 3 5 1
v -3 5 -1
v -2 5 -1
v 2 5 -1
v 3 5 -1
v -3 5 -2
v -2 5 -2
v 0 5 -2
v 2 5 -2
v 3 5 -2
v -2 5 -3
v 2 5 -3
v -3 6 -0
v -2 6 -0
v 2 6 -0
v 3 6 -0
v -3 6 -1
v -2 6 -1
v 2 6 -1
v 3 6 -1
v -3 7 3
v -1 7 3
v 2 7 3
v 3 7 3
v -3 7 2
v -2 7 2
v -1 7 2
v 0 7 2
v 1 7 2
v 2 7 2
v 3 7 2
v -3 7 1
v -2 7 1
v 2 7 1
v 3 7 1
v -3 7 -0
v -2 7 -0
v 2 7 -0
v 3 7 -0
v -3 10 2
v -2 10 2
v 2 10 2
v 3 10 2
v -3 10 1
v -2 10 1
v 2 10 1
v 3 10 1
v -2 1 -0
v -1 1 -0
v 1 1 -0
v 2 1 -0
v -2 1 -1
v -1 1 -1
v 1 1 -1
v 2 1 -1
v -3 7 -1
v -2 7 -1
v 2 7 -1
v 3 7 -1
v -3 7 -2
v -2 7 -2
v -1 7 -2
v 0 7 -2
v 1 7 -2
v 2 7 -2
v 3 7 -2
v -2 7 -3
v -1 7 -3
v 0 7 -3
v 1 7 -3
v 2 7 -3
v -3 8 3
v -1 8 3
v 2 8 3
v 3 8 3
v -3 8 2
v -2 8 2
v -1 8 2
v 0 8 2
v 2 8 2
v -3 8 1
v -2 8 1
v 2 8 1
v 3 8 1
v -3 8 -0
v -2 8 -0
v 2 8 -0
v 3 8 -0
v -3 8 -1
v -2 8 -1
v 0 8 -1
v 1 8 -1
v 2 8 -1
v 3 8 -1
v -2 8 -2
v 0 8 -2
v 2 8 -2
v -2 9 2
v 0 9 2
v 2 9 2
v -2 9 1
v -1 9 1
v 0 9 1
v 1 9 1
v 2 9 1
v -2 9 -0
v -1 9 -0
v 0 9 -0
v 1 9 -0
v 2 9 -0
v -2 9 -1
v 1 9 -1
v 2 9 -1
v -3 11 2
v -2 11 2
v 2 11 2
v 3 11 2
v -3 11 -0
v -2 11 -0
v 2 11 -0
v 3 11 -0

# faces
f 5/5/1 2/5/1 1/5/1
f 6/5/1 2/5/1 5/5/1
f 8/5/1 4/5/1 3/5/1
f 9/5/1 4/5/1 8/5/1
f 11/6/1 6/6/1 5/6/1
f 12/6/1 6/6/1 11/6/1
f 13/5/1 8/5/1 7/5/1
f 14/6/1 9/6/1 8/6/1
f 14/5/1 8/5/1 13/5/1
f 15/6/1 9/6/1 14/6/1
f 16/6/1 11/6/1 10/6/1
f 17/4/1 12/4/1 11/4/1
f 17/6/1 11/6/1 16/6/1
f 17/4/1 13/4/1 12/4/1
f 17/4/1 14/4/1 13/4/1
f 18/4/1 14/4/1 17/4/1
f 19/4/1 14/4/1 18/4/1
f 20/4/1 14/4/1 19/4/1
f 22/3/1 19/3/1 18/3/1
f 23/3/1 22/3/1 21/3/1
f 24/3/1 19/3/1 22/3/1
f 24/3/1 22/3/1 23/3/1
f 28/2/1 26/2/1 25/2/1
f 29/2/1 26/2/1 28/2/1
f 30/2/1 28/2/1 27/2/1
f 31/2/1 28/2/1 30/2/1
f 33/3/1 31/3/1 30/3/1
f 34/3/1 31/3/1 33/3/1
f 37/3/1 33/3/1 32/3/1
f 38/1/1 34/1/1 33/1/1
f 38/3/1 33/3/1 37/3/1
f 39/3/1 35/3/1 34/3/1
f 39/1/1 34/1/1 38/1/1
f 40/2/1 36/2/1 35/2/1
f 40/3/1 35/3/1 39/3/1
f 41/2/1 36/2/1 40/2/1
f 42/1/1 38/1/1 37/1/1
f 43/2/1 39/2/1 38/2/1
f 43/1/1 38/1/1 42/1/1
f 43/2/1 40/2/1 39/2/1
f 44/1/1 41/1/1 40/1/1
f 44/2/1 40/2/1 43/2/1
f 45/1/1 41/1/1 44/1/1
f 47/1/1 44/1/1 43/1/1
f 48/1/1 44/1/1 47/1/1
f 49/1/1 44/1/1 48/1/1
f 50/5/1 46/5/1 45/5/1
f 51/5/1 46/5/1 50/5/1
f 52/1/1 48/1/1 47/1/1
f 53/1/1 48/1/1 52/1/1
f 55/4/1 51/4/1 50/4/1
f 56/4/1 51/4/1 55/4/1
f 60/6/1 55/6/1 54/6/1
f 61/6/1 55/6/1 60/6/1
f 62/6/1 58/6/1 57/6/1
f 63/6/1 58/6/1 62/6/1
f 64/6/1 60/6/1 59/6/1
f 65/6/1 60/6/1 64/6/1
f 69/2/1 67/2/1 66/2/1
f 70/2/1 67/2/1 69/2/1
f 71/2/1 69/2/1 68/2/1
f 72/2/1 69/2/1 71/2/1
f 76/3/1 74/3/1 73/3/1
f 77/3/1 76/3/1 75/3/1
f 78/3/1 74/3/1 76/3/1
f 78/3/1 76/3/1 77/3/1
f 79/3/2 80/3/2 82/3/2
f 81/3/2 82/3/2 83/3/2
f 82/3/2 80/3/2 84/3/2
f 83/3/2 82/3/2 84/3/2
f 85/2/2 86/2/2 88/2/2
f 88/2/2 86/2/2 89/2/2
f 87/2/2 88/2/2 90/2/2
f 90/2/2 88/2/2 91/2/2
f 90/3/2 91/3/2 92/3/2
f 92/3/2 91/3/2 93/3/2
f 94/2/2 95/2/2 97/2/2
f 97/2/2 95/2/2 98/2/2
f 96/2/2 97/2/2 100/2/2
f 100/2/2 97/2/2 101/2/2
f 100/2/2 101/2/2 103/2/2
f 101/2/2 102/2/2 103/2/2
f 103/2/2 102/2/2 104/2/2
f 99/3/2 100/3/2 105/3/2
f 100/2/2 103/2/2 106/2/2
f 105/3/2 100/3/2 106/3/2
f 103/3/2 104/3/2 107/3/2
f 106/2/2 103/2/2 107/2/2
f 104/2/2 102/2/2 108/2/2
f 107/3/2 104/3/2 108/3/2
f 108/2/2 102/2/2 109/2/2
f 106/1/2 107/1/2 111/1/2
f 107/1/2 108/1/2 111/1/2
f 111/1/2 108/1/2 112/1/2
f 106/1/2 111/1/2 113/1/2
f 113/1/2 111/1/2 114/1/2
f 109/5/2 110/5/2 116/5/2
f 116/5/2 110/5/2 117/5/2
f 115/4/2 116/4/2 121/4/2
f 121/4/2 116/4/2 122/4/2
f 118/5/2 119/5/2 123/5/2
f 123/5/2 119/5/2 124/5/2
f 120/4/2 121/4/2 125/4/2
f 125/4/2 121/4/2 126/4/2
f 129/5/2 130/5/2 132/5/2
f 127/5/2 128/5/2 134/5/2
f 134/5/2 128/5/2 135/5/2
f 131/5/2 132/5/2 136/5/2
f 132/5/2 130/5/2 137/5/2
f 136/5/2 132/5/2 137/5/2
f 137/5/2 130/5/2 138/5/2
f 134/4/2 135/4/2 139/4/2
f 133/4/2 134/4/2 139/4/2
f 135/5/2 136/5/2 140/5/2
f 139/4/2 135/4/2 140/4/2
f 136/5/2 137/5/2 140/5/2
f 140/5/2 137/5/2 141/5/2
f 141/5/2 137/5/2 142/5/2
f 140/3/2 141/3/2 144/3/2
f 143/3/2 144/3/2 145/3/2
f 144/3/2 141/3/2 146/3/2
f 145/3/2 144/3/2 146/3/2
f 149/6/3 148/6/3 147/6/3
f 150/6/3 148/6/3 149/6/3
f 151/5/3 150/5/3 149/5/3
f 152/5/3 150/5/3 151/5/3
f 153/4/3 152/4/3 151/4/3
f 154/4/3 152/4/3 153/4/3
f 162/5/3 156/5/3 155/5/3
f 163/6/3 157/6/3 156/6/3
f 163/5/3 156/5/3 162/5/3
f 164/6/3 157/6/3 163/6/3
f 167/3/3 159/3/3 158/3/3
f 168/3/3 159/3/3 167/3/3
f 169/3/3 161/3/3 160/3/3
f 170/1/3 162/1/3 161/1/3
f 170/3/3 161/3/3 169/3/3
f 171/2/3 163/2/3 162/2/3
f 171/1/3 162/1/3 170/1/3
f 172/7/3 164/7/3 163/7/3
f 172/2/3 163/2/3 171/2/3
f 173/7/3 164/7/3 172/7/3
f 174/6/3 166/6/3 165/6/3
f 175/2/3 170/2/3 169/2/3
f 175/3/3 171/3/3 170/3/3
f 175/3/3 172/3/3 171/3/3
f 176/3/3 172/3/3 175/3/3
f 177/1/3 173/1/3 172/1/3
f 177/3/3 172/3/3 176/3/3
f 178/1/3 173/1/3 177/1/3
f 179/6/3 166/6/3 174/6/3
f 180/6/3 166/6/3 179/6/3
f 181/2/3 176/2/3 175/2/3
f 181/2/3 175/2/3 169/2/3
f 182/3/3 177/3/3 176/3/3
f 182/2/3 176/2/3 181/2/3
f 183/2/3 178/2/3 177/2/3
f 183/3/3 177/3/3 182/3/3
f 184/2/3 178/2/3 183/2/3
f 185/3/3 182/3/3 181/3/3
f 186/1/3 183/1/3 182/1/3
f 186/3/3 182/3/3 185/3/3
f 187/7/3 184/7/3 183/7/3
f 187/1/3 183/1/3 186/1/3
f 188/7/3 184/7/3 187/7/3
f 189/5/3 180/5/3 179/5/3
f 190/5/3 180/5/3 189/5/3
f 193/5/3 188/5/3 187/5/3
f 193/5/3 187/5/3 186/5/3
f 194/5/3 188/5/3 193/5/3
f 195/3/3 192/3/3 191/3/3
f 196/3/3 192/3/3 195/3/3
f 202/3/3 198/3/3 197/3/3
f 203/3/3 198/3/3 202/3/3
f 204/3/3 198/3/3 203/3/3
f 205/2/3 200/2/3 199/2/3
f 206/3/3 201/3/3 200/3/3
f 206/2/3 200/2/3 205/2/3
f 207/3/3 201/3/3 206/3/3
f 210/2/3 209/2/3 208/2/3
f 211/2/3 209/2/3 210/2/3
f 215/3/3 214/3/3 213/3/3
f 215/3/3 213/3/3 212/3/3
f 216/3/3 214/3/3 215/3/3
f 221/5/3 218/5/3 217/5/3
f 222/5/3 218/5/3 221/5/3
f 223/2/3 220/2/3 219/2/3
f 224/2/3 220/2/3 223/2/3
f 227/2/3 226/2/3 225/2/3
f 228/2/3 226/2/3 227/2/3
f 231/5/3 230/5/3 229/5/3
f 232/5/3 230/5/3 231/5/3
f 235/5/3 234/5/3 233/5/3
f 236/5/3 234/5/3 235/5/3
f 239/5/3 238/5/3 237/5/3
f 240/5/3 238/5/3 239/5/3
f 241/5/4 242/5/4 244/5/4
f 242/6/4 243/6/4 245/6/4
f 244/5/4 242/5/4 245/5/4
f 245/6/4 243/6/4 246/6/4
f 247/5/4 248/5/4 249/5/4
f 249/5/4 248/5/4 250/5/4
f 251/3/4 252/3/4 256/3/4
f 256/3/4 252/3/4 257/3/4
f 257/3/4 252/3/4 258/3/4
f 253/2/4 254/2/4 259/2/4
f 254/3/4 255/3/4 260/3/4
f 259/2/4 254/2/4 260/2/4
f 260/3/4 255/3/4 261/3/4
f 262/2/4 263/2/4 264/2/4
f 264/2/4 263/2/4 265/2/4
f 267/3/4 268/3/4 269/3/4
f 266/3/4 267/3/4 269/3/4
f 269/3/4 268/3/4 270/3/4
f 271/4/4 272/4/4 275/4/4
f 275/4/4 272/4/4 276/4/4
f 273/2/4 274/2/4 278/2/4
f 278/2/4 274/2/4 279/2/4
f 276/6/4 277/6/4 280/6/4
f 280/6/4 277/6/4 283/6/4
f 283/6/4 277/6/4 284/6/4
f 281/2/4 282/2/4 285/2/4
f 285/2/4 282/2/4 286/2/4
f 283/4/4 284/4/4 288/4/4
f 288/4/4 284/4/4 289/4/4
f 287/5/4 288/5/4 290/5/4
f 290/5/4 288/5/4 291/5/4
f 292/5/4 293/5/4 297/5/4
f 293/6/4 294/6/4 298/6/4
f 297/5/4 293/5/4 298/5/4
f 298/6/4 294/6/4 299/6/4
f 295/2/4 296/2/4 301/2/4
f 296/1/4 297/1/4 302/1/4
f 301/2/4 296/2/4 302/2/4
f 299/6/4 300/6/4 303/6/4
f 301/3/4 302/3/4 304/3/4
f 302/1/4 297/1/4 305/1/4
f 304/3/4 302/3/4 305/3/4
f 305/1/4 297/1/4 306/1/4
f 303/6/4 300/6/4 307/6/4
f 307/6/4 300/6/4 308/6/4
f 307/4/4 308/4/4 309/4/4
f 305/2/4 306/2/4 310/2/4
f 304/2/4 305/2/4 310/2/4
f 310/2/4 306/2/4 311/2/4
f 309/4/4 308/4/4 312/4/4
f 312/4/4 308/4/4 313/4/4
f 311/5/4 312/5/4 314/5/4
f 314/5/4 312/5/4 315/5/4
f 316/5/4 317/5/4 319/5/4
f 317/4/4 318/4/4 319/4/4
f 319/4/4 318/4/4 320/4/4
f 316/5/4 319/5/4 321/5/4
f 319/5/4 320/5/4 321/5/4
f 321/5/4 320/5/4 322/5/4
f 316/5/4 321/5/4 323/5/4
f 321/4/4 322/4/4 323/4/4
f 323/4/4 322/4/4 324/4/4
f 316/5/4 323/5/4 325/5/4
f 323/5/4 324/5/4 325/5/4
f 325/5/4 324/5/4 326/5/4
f 331/2/5 328/2/5 327/2/5
f 332/2/5 328/2/5 331/2/5
f 333/2/5 330/2/5 329/2/5
f 334/2/5 330/2/5 333/2/5
f 339/2/5 336/2/5 335/2/5
f 340/2/5 336/2/5 339/2/5
f 341/2/5 338/2/5 337/2/5
f 342/2/5 338/2/5 341/2/5
f 347/3/5 344/3/5 343/3/5
f 348/2/5 345/2/5 344/2/5
f 348/3/5 344/3/5 347/3/5
f 349/3/5 346/3/5 345/3/5
f 349/2/5 345/2/5 348/2/5
f 350/3/5 346/3/5 349/3/5
f 352/1/5 349/1/5 348/1/5
f 353/1/5 349/1/5 352/1/5
f 354/1/5 349/1/5 353/1/5
f 356/3/5 352/3/5 351/3/5
f 357/2/5 353/2/5 352/2/5
f 357/3/5 352/3/5 356/3/5
f 358/1/5 354/1/5 353/1/5
f 358/2/5 353/2/5 357/2/5
f 359/2/5 355/2/5 354/2/5
f 359/1/5 354/1/5 358/1/5
f 360/2/5 357/2/5 356/2/5
f 361/3/5 358/3/5 357/3/5
f 361/2/5 357/2/5 360/2/5
f 362/2/5 359/2/5 358/2/5
f 362/3/5 358/3/5 361/3/5
f 363/2/5 355/2/5 359/2/5
f 363/2/5 359/2/5 362/2/5
f 368/5/5 365/5/5 364/5/5
f 369/5/5 365/5/5 368/5/5
f 370/5/5 367/5/5 366/5/5
f 371/5/5 367/5/5 370/5/5
f 376/5/5 373/5/5 372/5/5
f 377/5/5 373/5/5 376/5/5
f 379/5/5 375/5/5 374/5/5
f 380/5/5 375/5/5 379/5/5
f 381/5/5 378/5/5 377/5/5
f 381/5/5 379/5/5 378/5/5
f 382/5/5 379/5/5 381/5/5
f 387/5/5 384/5/5 383/5/5
f 388/5/5 384/5/5 387/5/5
f 389/5/5 386/5/5 385/5/5
f 390/5/5 386/5/5 389/5/5
f 395/6/5 392/6/5 391/6/5
f 396/6/5 392/6/5 395/6/5
f 397/5/5 393/5/5 392/5/5
f 397/6/5 392/6/5 396/6/5
f 398/5/5 393/5/5 397/5/5
f 399/5/5 393/5/5 398/5/5
f 400/4/5 394/4/5 393/4/5
f 400/5/5 393/5/5 399/5/5
f 401/4/5 394/4/5 400/4/5
f 406/4/5 403/4/5 402/4/5
f 407/4/5 403/4/5 406/4/5
f 408/5/5 405/5/5 404/5/5
f 409/5/5 405/5/5 408/5/5
f 414/3/5 411/3/5 410/3/5
f 415/3/5 411/3/5 414/3/5
f 416/3/5 413/3/5 412/3/5
f 417/3/5 413/3/5 416/3/5
f 418/2/6 419/2/6 422/2/6
f 422/2/6 419/2/6 423/2/6
f 420/2/6 421/2/6 424/2/6
f 424/2/6 421/2/6 425/2/6
f 426/6/6 427/6/6 430/6/6
f 430/6/6 427/6/6 431/6/6
f 428/5/6 429/5/6 435/5/6
f 435/5/6 429/5/6 436/5/6
f 431/4/6 432/4/6 437/4/6
f 432/5/6 433/5/6 438/5/6
f 437/4/6 432/4/6 438/4/6
f 433/4/6 434/4/6 439/4/6
f 438/5/6 433/5/6 439/5/6
f 434/5/6 435/5/6 440/5/6
f 439/4/6 434/4/6 440/4/6
f 440/5/6 435/5/6 441/5/6
f 442/6/6 443/6/6 446/6/6
f 446/6/6 443/6/6 447/6/6
f 443/5/6 444/5/6 448/5/6
f 447/6/6 443/6/6 448/6/6
f 448/5/6 444/5/6 449/5/6
f 444/4/6 445/4/6 450/4/6
f 449/5/6 444/5/6 450/5/6
f 446/4/6 447/4/6 451/4/6
f 451/4/6 447/4/6 452/4/6
f 450/4/6 445/4/6 453/4/6
f 453/4/6 445/4/6 454/4/6
f 455/4/6 456/4/6 459/4/6
f 459/4/6 456/4/6 460/4/6
f 457/5/6 458/5/6 463/5/6
f 463/5/6 458/5/6 464/5/6
f 460/6/6 461/6/6 465/6/6
f 461/4/6 462/4/6 466/4/6
f 465/6/6 461/6/6 466/6/6
f 462/4/6 463/4/6 466/4/6
f 466/4/6 463/4/6 467/4/6
f 468/6/6 469/6/6 471/6/6
f 471/6/6 469/6/6 472/6/6
f 469/5/6 470/5/6 473/5/6
f 472/6/6 469/6/6 473/6/6
f 473/5/6 470/5/6 474/5/6
f 474/5/6 470/5/6 475/5/6
f 471/4/6 472/4/6 476/4/6
f 472/5/6 473/5/6 477/5/6
f 476/4/6 472/4/6 477/4/6
f 473/4/6 474/4/6 478/4/6
f 477/5/6 473/5/6 478/5/6
f 474/6/6 475/6/6 479/6/6
f 478/4/6 474/4/6 479/4/6
f 479/6/6 475/6/6 480/6/6
f 476/6/6 477/6/6 481/6/6
f 477/6/6 478/6/6 481/6/6
f 478/6/6 479/6/6 481/6/6
f 479/4/6 480/4/6 482/4/6
f 481/6/6 479/6/6 482/6/6
f 482/4/6 480/4/6 483/4/6
f 484/3/6 485/3/6 488/3/6
f 488/3/6 485/3/6 489/3/6
f 486/3/6 487/3/6 490/3/6
f 490/3/6 487/3/6 491/3/6
