# MagicaVoxel @ Ephtracy

# group
o 

# material
mtllib mesa_rock.mtl
usemtl palette

# normals
vn -1 0 0
vn 1 0 0
vn 0 0 1
vn 0 0 -1
vn 0 -1 0
vn 0 1 0

# texcoords
vt 0.216797 0.5
vt 0.220703 0.5
vt 0.244141 0.5
vt 0.337891 0.5

# verts
v -0.5 0 0.2
v -0.5 0 -0.2
v -0.5 0.2 0.2
v -0.5 0.2 -0.2
v -0.5 0.3 0.2
v -0.5 0.3 -0.2
v -0.5 0.4 0.2
v -0.5 0.4 -0.2
v -0.4 0 0.3
v -0.4 0 0.2
v -0.4 0 -0.2
v -0.4 0 -0.3
v -0.4 0.2 0.3
v -0.4 0.2 0.2
v -0.4 0.2 -0.2
v -0.4 0.2 -0.3
v -0.4 0.3 0.3
v -0.4 0.3 0.2
v -0.4 0.3 -0.2
v -0.4 0.3 -0.3
v -0.4 0.4 0.3
v -0.4 0.4 0.2
v -0.4 0.4 -0.2
v -0.4 0.4 -0.3
v -0.4 0.5 0.2
v -0.4 0.5 -0.2
v -0.4 0.6 0.2
v -0.4 0.6 -0.2
v -0.4 0.7 0.2
v -0.4 0.7 -0.2
v -0.3 0 0.4
v -0.3 0 0.3
v -0.3 0 -0.3
v -0.3 0 -0.4
v -0.3 0.2 0.4
v -0.3 0.2 0.3
v -0.3 0.2 -0.3
v -0.3 0.2 -0.4
v -0.3 0.3 0.4
v -0.3 0.3 0.3
v -0.3 0.3 -0.3
v -0.3 0.3 -0.4
v -0.3 0.4 0.4
v -0.3 0.4 0.3
v -0.3 0.4 0.2
v -0.3 0.4 -0.2
v -0.3 0.4 -0.3
v -0.3 0.4 -0.4
v -0.3 0.5 0.3
v -0.3 0.5 0.2
v -0.3 0.5 -0.2
v -0.3 0.5 -0.3
v -0.3 0.6 0.3
v -0.3 0.6 0.2
v -0.3 0.6 -0.2
v -0.3 0.6 -0.3
v -0.3 0.7 0.3
v -0.3 0.7 0.2
v -0.3 0.7 0.1
v -0.3 0.7 -0.1
v -0.3 0.7 -0.2
v -0.3 0.7 -0.3
v -0.3 0.8 0.1
v -0.3 0.8 -0.1
v -0.2 0 0.5
v -0.2 0 0.4
v -0.2 0 -0.4
v -0.2 0 -0.5
v -0.2 0.2 0.5
v -0.2 0.2 0.4
v -0.2 0.2 -0.4
v -0.2 0.2 -0.5
v -0.2 0.3 0.5
v -0.2 0.3 0.4
v -0.2 0.3 -0.4
v -0.2 0.3 -0.5
v -0.2 0.4 0.5
v -0.2 0.4 0.4
v -0.2 0.4 0.3
v -0.2 0.4 -0.3
v -0.2 0.4 -0.4
v -0.2 0.4 -0.5
v -0.2 0.5 0.4
v -0.2 0.5 0.3
v -0.2 0.5 -0.3
v -0.2 0.5 -0.4
v -0.2 0.6 0.4
v -0.2 0.6 0.3
v -0.2 0.6 -0.3
v -0.2 0.6 -0.4
v -0.2 0.7 0.4
v -0.2 0.7 0.3
v -0.2 0.7 0.2
v -0.2 0.7 0.1
v -0.2 0.7 -0.1
v -0.2 0.7 -0.2
v -0.2 0.7 -0.3
v -0.2 0.7 -0.4
v -0.2 0.8 0.2
v -0.2 0.8 0.1
v -0.2 0.8 -0.1
v -0.2 0.8 -0.2
v -0.1 0.7 0.3
v -0.1 0.7 0.2
v -0.1 0.7 -0.2
v -0.1 0.7 -0.3
v -0.1 0.8 0.3
v -0.1 0.8 0.2
v -0.1 0.8 0.1
v -0.1 0.8 -0.1
v -0.1 0.8 -0.2
v -0.1 0.8 -0.3
v -0.1 0.9 0.1
v -0.1 0.9 -0.1
v 0.1 0.7 0.3
v 0.1 0.7 0.2
v 0.1 0.7 -0.2
v 0.1 0.7 -0.3
v 0.1 0.8 0.3
v 0.1 0.8 0.2
v 0.1 0.8 0.1
v 0.1 0.8 -0.1
v 0.1 0.8 -0.2
v 0.1 0.8 -0.3
v 0.1 0.9 0.1
v 0.1 0.9 -0.1
v 0.2 0 0.5
v 0.2 0 0.4
v 0.2 0 -0.4
v 0.2 0 -0.5
v 0.2 0.2 0.5
v 0.2 0.2 0.4
v 0.2 0.2 -0.4
v 0.2 0.2 -0.5
v 0.2 0.3 0.5
v 0.2 0.3 0.4
v 0.2 0.3 -0.4
v 0.2 0.3 -0.5
v 0.2 0.4 0.5
v 0.2 0.4 0.4
v 0.2 0.4 0.3
v 0.2 0.4 -0.3
v 0.2 0.4 -0.4
v 0.2 0.4 -0.5
v 0.2 0.5 0.4
v 0.2 0.5 0.3
v 0.2 0.5 -0.3
v 0.2 0.5 -0.4
v 0.2 0.6 0.4
v 0.2 0.6 0.3
v 0.2 0.6 -0.3
v 0.2 0.6 -0.4
v 0.2 0.7 0.4
v 0.2 0.7 0.3
v 0.2 0.7 0.2
v 0.2 0.7 0.1
v 0.2 0.7 -0.1
v 0.2 0.7 -0.2
v 0.2 0.7 -0.3
v 0.2 0.7 -0.4
v 0.2 0.8 0.2
v 0.2 0.8 0.1
v 0.2 0.8 -0.1
v 0.2 0.8 -0.2
v 0.3 0 0.4
v 0.3 0 0.3
v 0.3 0 -0.3
v 0.3 0 -0.4
v 0.3 0.2 0.4
v 0.3 0.2 0.3
v 0.3 0.2 -0.3
v 0.3 0.2 -0.4
v 0.3 0.3 0.4
v 0.3 0.3 0.3
v 0.3 0.3 -0.3
v 0.3 0.3 -0.4
v 0.3 0.4 0.4
v 0.3 0.4 0.3
v 0.3 0.4 0.2
v 0.3 0.4 -0.2
v 0.3 0.4 -0.3
v 0.3 0.4 -0.4
v 0.3 0.5 0.3
v 0.3 0.5 0.2
v 0.3 0.5 -0.2
v 0.3 0.5 -0.3
v 0.3 0.6 0.3
v 0.3 0.6 0.2
v 0.3 0.6 -0.2
v 0.3 0.6 -0.3
v 0.3 0.7 0.3
v 0.3 0.7 0.2
v 0.3 0.7 0.1
v 0.3 0.7 -0.1
v 0.3 0.7 -0.2
v 0.3 0.7 -0.3
v 0.3 0.8 0.1
v 0.3 0.8 -0.1
v 0.4 0 0.3
v 0.4 0 0.2
v 0.4 0 -0.2
v 0.4 0 -0.3
v 0.4 0.2 0.3
v 0.4 0.2 0.2
v 0.4 0.2 -0.2
v 0.4 0.2 -0.3
v 0.4 0.3 0.3
v 0.4 0.3 0.2
v 0.4 0.3 -0.2
v 0.4 0.3 -0.3
v 0.4 0.4 0.3
v 0.4 0.4 0.2
v 0.4 0.4 -0.2
v 0.4 0.4 -0.3
v 0.4 0.5 0.2
v 0.4 0.5 -0.2
v 0.4 0.6 0.2
v 0.4 0.6 -0.2
v 0.4 0.7 0.2
v 0.4 0.7 -0.2
v 0.5 0 0.2
v 0.5 0 -0.2
v 0.5 0.2 0.2
v 0.5 0.2 -0.2
v 0.5 0.3 0.2
v 0.5 0.3 -0.2
v 0.5 0.4 0.2
v 0.5 0.4 -0.2
v -0.2 0 0.5
v -0.2 0.2 0.5
v -0.2 0.3 0.5
v -0.2 0.4 0.5
v 0.2 0 0.5
v 0.2 0.2 0.5
v 0.2 0.3 0.5
v 0.2 0.4 0.5
v -0.3 0 0.4
v -0.3 0.2 0.4
v -0.3 0.3 0.4
v -0.3 0.4 0.4
v -0.2 0 0.4
v -0.2 0.2 0.4
v -0.2 0.3 0.4
v -0.2 0.4 0.4
v -0.2 0.5 0.4
v -0.2 0.6 0.4
v -0.2 0.7 0.4
v 0.2 0 0.4
v 0.2 0.2 0.4
v 0.2 0.3 0.4
v 0.2 0.4 0.4
v 0.2 0.5 0.4
v 0.2 0.6 0.4
v 0.2 0.7 0.4
v 0.3 0 0.4
v 0.3 0.2 0.4
v 0.3 0.3 0.4
v 0.3 0.4 0.4
v -0.4 0 0.3
v -0.4 0.2 0.3
v -0.4 0.3 0.3
v -0.4 0.4 0.3
v -0.3 0 0.3
v -0.3 0.2 0.3
v -0.3 0.3 0.3
v -0.3 0.4 0.3
v -0.3 0.5 0.3
v -0.3 0.6 0.3
v -0.3 0.7 0.3
v -0.2 0.4 0.3
v -0.2 0.5 0.3
v -0.2 0.6 0.3
v -0.2 0.7 0.3
v -0.1 0.7 0.3
v -0.1 0.8 0.3
v 0.1 0.7 0.3
v 0.1 0.8 0.3
v 0.2 0.4 0.3
v 0.2 0.5 0.3
v 0.2 0.6 0.3
v 0.2 0.7 0.3
v 0.3 0 0.3
v 0.3 0.2 0.3
v 0.3 0.3 0.3
v 0.3 0.4 0.3
v 0.3 0.5 0.3
v 0.3 0.6 0.3
v 0.3 0.7 0.3
v 0.4 0 0.3
v 0.4 0.2 0.3
v 0.4 0.3 0.3
v 0.4 0.4 0.3
v -0.5 0 0.2
v -0.5 0.2 0.2
v -0.5 0.3 0.2
v -0.5 0.4 0.2
v -0.4 0 0.2
v -0.4 0.2 0.2
v -0.4 0.3 0.2
v -0.4 0.4 0.2
v -0.4 0.5 0.2
v -0.4 0.6 0.2
v -0.4 0.7 0.2
v -0.3 0.4 0.2
v -0.3 0.5 0.2
v -0.3 0.6 0.2
v -0.3 0.7 0.2
v -0.2 0.7 0.2
v -0.2 0.8 0.2
v -0.1 0.7 0.2
v -0.1 0.8 0.2
v 0.1 0.7 0.2
v 0.1 0.8 0.2
v 0.2 0.7 0.2
v 0.2 0.8 0.2
v 0.3 0.4 0.2
v 0.3 0.5 0.2
v 0.3 0.6 0.2
v 0.3 0.7 0.2
v 0.4 0 0.2
v 0.4 0.2 0.2
v 0.4 0.3 0.2
v 0.4 0.4 0.2
v 0.4 0.5 0.2
v 0.4 0.6 0.2
v 0.4 0.7 0.2
v 0.5 0 0.2
v 0.5 0.2 0.2
v 0.5 0.3 0.2
v 0.5 0.4 0.2
v -0.3 0.7 0.1
v -0.3 0.8 0.1
v -0.2 0.7 0.1
v -0.2 0.8 0.1
v -0.1 0.8 0.1
v -0.1 0.9 0.1
v 0.1 0.8 0.1
v 0.1 0.9 0.1
v 0.2 0.7 0.1
v 0.2 0.8 0.1
v 0.3 0.7 0.1
v 0.3 0.8 0.1
v -0.3 0.7 -0.1
v -0.3 0.8 -0.1
v -0.2 0.7 -0.1
v -0.2 0.8 -0.1
v -0.1 0.8 -0.1
v -0.1 0.9 -0.1
v 0.1 0.8 -0.1
v 0.1 0.9 -0.1
v 0.2 0.7 -0.1
v 0.2 0.8 -0.1
v 0.3 0.7 -0.1
v 0.3 0.8 -0.1
v -0.5 0 -0.2
v -0.5 0.2 -0.2
v -0.5 0.3 -0.2
v -0.5 0.4 -0.2
v -0.4 0 -0.2
v -0.4 0.2 -0.2
v -0.4 0.3 -0.2
v -0.4 0.4 -0.2
v -0.4 0.5 -0.2
v -0.4 0.6 -0.2
v -0.4 0.7 -0.2
v -0.3 0.4 -0.2
v -0.3 0.5 -0.2
v -0.3 0.6 -0.2
v -0.3 0.7 -0.2
v -0.2 0.7 -0.2
v -0.2 0.8 -0.2
v -0.1 0.7 -0.2
v -0.1 0.8 -0.2
v 0.1 0.7 -0.2
v 0.1 0.8 -0.2
v 0.2 0.7 -0.2
v 0.2 0.8 -0.2
v 0.3 0.4 -0.2
v 0.3 0.5 -0.2
v 0.3 0.6 -0.2
v 0.3 0.7 -0.2
v 0.4 0 -0.2
v 0.4 0.2 -0.2
v 0.4 0.3 -0.2
v 0.4 0.4 -0.2
v 0.4 0.5 -0.2
v 0.4 0.6 -0.2
v 0.4 0.7 -0.2
v 0.5 0 -0.2
v 0.5 0.2 -0.2
v 0.5 0.3 -0.2
v 0.5 0.4 -0.2
v -0.4 0 -0.3
v -0.4 0.2 -0.3
v -0.4 0.3 -0.3
v -0.4 0.4 -0.3
v -0.3 0 -0.3
v -0.3 0.2 -0.3
v -0.3 0.3 -0.3
v -0.3 0.4 -0.3
v -0.3 0.5 -0.3
v -0.3 0.6 -0.3
v -0.3 0.7 -0.3
v -0.2 0.4 -0.3
v -0.2 0.5 -0.3
v -0.2 0.6 -0.3
v -0.2 0.7 -0.3
v -0.1 0.7 -0.3
v -0.1 0.8 -0.3
v 0.1 0.7 -0.3
v 0.1 0.8 -0.3
v 0.2 0.4 -0.3
v 0.2 0.5 -0.3
v 0.2 0.6 -0.3
v 0.2 0.7 -0.3
v 0.3 0 -0.3
v 0.3 0.2 -0.3
v 0.3 0.3 -0.3
v 0.3 0.4 -0.3
v 0.3 0.5 -0.3
v 0.3 0.6 -0.3
v 0.3 0.7 -0.3
v 0.4 0 -0.3
v 0.4 0.2 -0.3
v 0.4 0.3 -0.3
v 0.4 0.4 -0.3
v -0.3 0 -0.4
v -0.3 0.2 -0.4
v -0.3 0.3 -0.4
v -0.3 0.4 -0.4
v -0.2 0 -0.4
v -0.2 0.2 -0.4
v -0.2 0.3 -0.4
v -0.2 0.4 -0.4
v -0.2 0.5 -0.4
v -0.2 0.6 -0.4
v -0.2 0.7 -0.4
v 0.2 0 -0.4
v 0.2 0.2 -0.4
v 0.2 0.3 -0.4
v 0.2 0.4 -0.4
v 0.2 0.5 -0.4
v 0.2 0.6 -0.4
v 0.2 0.7 -0.4
v 0.3 0 -0.4
v 0.3 0.2 -0.4
v 0.3 0.3 -0.4
v 0.3 0.4 -0.4
v -0.2 0 -0.5
v -0.2 0.2 -0.5
v -0.2 0.3 -0.5
v -0.2 0.4 -0.5
v 0.2 0 -0.5
v 0.2 0.2 -0.5
v 0.2 0.3 -0.5
v 0.2 0.4 -0.5
v -0.2 0 0.5
v 0.2 0 0.5
v -0.3 0 0.4
v -0.2 0 0.4
v 0.2 0 0.4
v 0.3 0 0.4
v -0.4 0 0.3
v -0.3 0 0.3
v 0.3 0 0.3
v 0.4 0 0.3
v -0.5 0 0.2
v -0.4 0 0.2
v 0.4 0 0.2
v 0.5 0 0.2
v -0.5 0 -0.2
v -0.4 0 -0.2
v 0.4 0 -0.2
v 0.5 0 -0.2
v -0.4 0 -0.3
v -0.3 0 -0.3
v 0.3 0 -0.3
v 0.4 0 -0.3
v -0.3 0 -0.4
v -0.2 0 -0.4
v 0.2 0 -0.4
v 0.3 0 -0.4
v -0.2 0 -0.5
v 0.2 0 -0.5
v -0.2 0.4 0.5
v 0.2 0.4 0.5
v -0.3 0.4 0.4
v -0.2 0.4 0.4
v 0.2 0.4 0.4
v 0.3 0.4 0.4
v -0.4 0.4 0.3
v -0.3 0.4 0.3
v -0.2 0.4 0.3
v 0.2 0.4 0.3
v 0.3 0.4 0.3
v 0.4 0.4 0.3
v -0.5 0.4 0.2
v -0.4 0.4 0.2
v -0.3 0.4 0.2
v 0.3 0.4 0.2
v 0.4 0.4 0.2
v 0.5 0.4 0.2
v -0.5 0.4 -0.2
v -0.4 0.4 -0.2
v -0.3 0.4 -0.2
v 0.3 0.4 -0.2
v 0.4 0.4 -0.2
v 0.5 0.4 -0.2
v -0.4 0.4 -0.3
v -0.3 0.4 -0.3
v -0.2 0.4 -0.3
v 0.2 0.4 -0.3
v 0.3 0.4 -0.3
v 0.4 0.4 -0.3
v -0.3 0.4 -0.4
v -0.2 0.4 -0.4
v 0.2 0.4 -0.4
v 0.3 0.4 -0.4
v -0.2 0.4 -0.5
v 0.2 0.4 -0.5
v -0.2 0.7 0.4
v 0.2 0.7 0.4
v -0.3 0.7 0.3
v -0.2 0.7 0.3
v -0.1 0.7 0.3
v 0.1 0.7 0.3
v 0.2 0.7 0.3
v 0.3 0.7 0.3
v -0.4 0.7 0.2
v -0.3 0.7 0.2
v -0.2 0.7 0.2
v -0.1 0.7 0.2
v 0.1 0.7 0.2
v 0.2 0.7 0.2
v 0.3 0.7 0.2
v 0.4 0.7 0.2
v -0.3 0.7 0.1
v -0.2 0.7 0.1
v 0.2 0.7 0.1
v 0.3 0.7 0.1
v -0.3 0.7 -0.1
v -0.2 0.7 -0.1
v 0.2 0.7 -0.1
v 0.3 0.7 -0.1
v -0.4 0.7 -0.2
v -0.3 0.7 -0.2
v -0.2 0.7 -0.2
v -0.1 0.7 -0.2
v 0.1 0.7 -0.2
v 0.2 0.7 -0.2
v 0.3 0.7 -0.2
v 0.4 0.7 -0.2
v -0.3 0.7 -0.3
v -0.2 0.7 -0.3
v -0.1 0.7 -0.3
v 0.1 0.7 -0.3
v 0.2 0.7 -0.3
v 0.3 0.7 -0.3
v -0.2 0.7 -0.4
v 0.2 0.7 -0.4
v -0.1 0.8 0.3
v 0.1 0.8 0.3
v -0.2 0.8 0.2
v -0.1 0.8 0.2
v 0.1 0.8 0.2
v 0.2 0.8 0.2
v -0.3 0.8 0.1
v -0.2 0.8 0.1
v -0.1 0.8 0.1
v 0.1 0.8 0.1
v 0.2 0.8 0.1
v 0.3 0.8 0.1
v -0.3 0.8 -0.1
v -0.2 0.8 -0.1
v -0.1 0.8 -0.1
v 0.1 0.8 -0.1
v 0.2 0.8 -0.1
v 0.3 0.8 -0.1
v -0.2 0.8 -0.2
v -0.1 0.8 -0.2
v 0.1 0.8 -0.2
v 0.2 0.8 -0.2
v -0.1 0.8 -0.3
v 0.1 0.8 -0.3
v -0.1 0.9 0.1
v 0.1 0.9 0.1
v -0.1 0.9 -0.1
v 0.1 0.9 -0.1

# faces
f 3/2/1 2/2/1 1/2/1
f 4/2/1 2/2/1 3/2/1
f 5/4/1 4/4/1 3/4/1
f 6/4/1 4/4/1 5/4/1
f 7/1/1 6/1/1 5/1/1
f 8/1/1 6/1/1 7/1/1
f 13/2/1 10/2/1 9/2/1
f 14/2/1 10/2/1 13/2/1
f 15/2/1 12/2/1 11/2/1
f 16/2/1 12/2/1 15/2/1
f 17/4/1 14/4/1 13/4/1
f 18/4/1 14/4/1 17/4/1
f 19/4/1 16/4/1 15/4/1
f 20/4/1 16/4/1 19/4/1
f 21/1/1 18/1/1 17/1/1
f 22/1/1 18/1/1 21/1/1
f 23/1/1 20/1/1 19/1/1
f 24/1/1 20/1/1 23/1/1
f 25/1/1 23/1/1 22/1/1
f 26/1/1 23/1/1 25/1/1
f 27/3/1 26/3/1 25/3/1
f 28/3/1 26/3/1 27/3/1
f 29/2/1 28/2/1 27/2/1
f 30/2/1 28/2/1 29/2/1
f 35/2/1 32/2/1 31/2/1
f 36/2/1 32/2/1 35/2/1
f 37/2/1 34/2/1 33/2/1
f 38/2/1 34/2/1 37/2/1
f 39/4/1 36/4/1 35/4/1
f 40/4/1 36/4/1 39/4/1
f 41/4/1 38/4/1 37/4/1
f 42/4/1 38/4/1 41/4/1
f 43/1/1 40/1/1 39/1/1
f 44/1/1 40/1/1 43/1/1
f 47/1/1 42/1/1 41/1/1
f 48/1/1 42/1/1 47/1/1
f 49/1/1 45/1/1 44/1/1
f 50/1/1 45/1/1 49/1/1
f 51/1/1 47/1/1 46/1/1
f 52/1/1 47/1/1 51/1/1
f 53/3/1 50/3/1 49/3/1
f 54/3/1 50/3/1 53/3/1
f 55/3/1 52/3/1 51/3/1
f 56/3/1 52/3/1 55/3/1
f 57/2/1 54/2/1 53/2/1
f 58/2/1 54/2/1 57/2/1
f 61/2/1 56/2/1 55/2/1
f 62/2/1 56/2/1 61/2/1
f 63/2/1 60/2/1 59/2/1
f 64/2/1 60/2/1 63/2/1
f 69/2/1 66/2/1 65/2/1
f 70/2/1 66/2/1 69/2/1
f 71/2/1 68/2/1 67/2/1
f 72/2/1 68/2/1 71/2/1
f 73/4/1 70/4/1 69/4/1
f 74/4/1 70/4/1 73/4/1
f 75/4/1 72/4/1 71/4/1
f 76/4/1 72/4/1 75/4/1
f 77/1/1 74/1/1 73/1/1
f 78/1/1 74/1/1 77/1/1
f 81/1/1 76/1/1 75/1/1
f 82/1/1 76/1/1 81/1/1
f 83/1/1 79/1/1 78/1/1
f 84/1/1 79/1/1 83/1/1
f 85/1/1 81/1/1 80/1/1
f 86/1/1 81/1/1 85/1/1
f 87/3/1 84/3/1 83/3/1
f 88/3/1 84/3/1 87/3/1
f 89/3/1 86/3/1 85/3/1
f 90/3/1 86/3/1 89/3/1
f 91/2/1 88/2/1 87/2/1
f 92/2/1 88/2/1 91/2/1
f 97/2/1 90/2/1 89/2/1
f 98/2/1 90/2/1 97/2/1
f 99/2/1 94/2/1 93/2/1
f 100/2/1 94/2/1 99/2/1
f 101/2/1 96/2/1 95/2/1
f 102/2/1 96/2/1 101/2/1
f 107/2/1 104/2/1 103/2/1
f 108/2/1 104/2/1 107/2/1
f 111/2/1 106/2/1 105/2/1
f 112/2/1 106/2/1 111/2/1
f 113/2/1 110/2/1 109/2/1
f 114/2/1 110/2/1 113/2/1
f 115/2/2 116/2/2 119/2/2
f 119/2/2 116/2/2 120/2/2
f 117/2/2 118/2/2 123/2/2
f 123/2/2 118/2/2 124/2/2
f 121/2/2 122/2/2 125/2/2
f 125/2/2 122/2/2 126/2/2
f 127/2/2 128/2/2 131/2/2
f 131/2/2 128/2/2 132/2/2
f 129/2/2 130/2/2 133/2/2
f 133/2/2 130/2/2 134/2/2
f 131/4/2 132/4/2 135/4/2
f 135/4/2 132/4/2 136/4/2
f 133/4/2 134/4/2 137/4/2
f 137/4/2 134/4/2 138/4/2
f 135/1/2 136/1/2 139/1/2
f 139/1/2 136/1/2 140/1/2
f 137/1/2 138/1/2 143/1/2
f 143/1/2 138/1/2 144/1/2
f 140/1/2 141/1/2 145/1/2
f 145/1/2 141/1/2 146/1/2
f 142/1/2 143/1/2 147/1/2
f 147/1/2 143/1/2 148/1/2
f 145/3/2 146/3/2 149/3/2
f 149/3/2 146/3/2 150/3/2
f 147/3/2 148/3/2 151/3/2
f 151/3/2 148/3/2 152/3/2
f 149/2/2 150/2/2 153/2/2
f 153/2/2 150/2/2 154/2/2
f 151/2/2 152/2/2 159/2/2
f 159/2/2 152/2/2 160/2/2
f 155/2/2 156/2/2 161/2/2
f 161/2/2 156/2/2 162/2/2
f 157/2/2 158/2/2 163/2/2
f 163/2/2 158/2/2 164/2/2
f 165/2/2 166/2/2 169/2/2
f 169/2/2 166/2/2 170/2/2
f 167/2/2 168/2/2 171/2/2
f 171/2/2 168/2/2 172/2/2
f 169/4/2 170/4/2 173/4/2
f 173/4/2 170/4/2 174/4/2
f 171/4/2 172/4/2 175/4/2
f 175/4/2 172/4/2 176/4/2
f 173/1/2 174/1/2 177/1/2
f 177/1/2 174/1/2 178/1/2
f 175/1/2 176/1/2 181/1/2
f 181/1/2 176/1/2 182/1/2
f 178/1/2 179/1/2 183/1/2
f 183/1/2 179/1/2 184/1/2
f 180/1/2 181/1/2 185/1/2
f 185/1/2 181/1/2 186/1/2
f 183/3/2 184/3/2 187/3/2
f 187/3/2 184/3/2 188/3/2
f 185/3/2 186/3/2 189/3/2
f 189/3/2 186/3/2 190/3/2
f 187/2/2 188/2/2 191/2/2
f 191/2/2 188/2/2 192/2/2
f 189/2/2 190/2/2 195/2/2
f 195/2/2 190/2/2 196/2/2
f 193/2/2 194/2/2 197/2/2
f 197/2/2 194/2/2 198/2/2
f 199/2/2 200/2/2 203/2/2
f 203/2/2 200/2/2 204/2/2
f 201/2/2 202/2/2 205/2/2
f 205/2/2 202/2/2 206/2/2
f 203/4/2 204/4/2 207/4/2
f 207/4/2 204/4/2 208/4/2
f 205/4/2 206/4/2 209/4/2
f 209/4/2 206/4/2 210/4/2
f 207/1/2 208/1/2 211/1/2
f 211/1/2 208/1/2 212/1/2
f 209/1/2 210/1/2 213/1/2
f 213/1/2 210/1/2 214/1/2
f 212/1/2 213/1/2 215/1/2
f 215/1/2 213/1/2 216/1/2
f 215/3/2 216/3/2 217/3/2
f 217/3/2 216/3/2 218/3/2
f 217/2/2 218/2/2 219/2/2
f 219/2/2 218/2/2 220/2/2
f 221/2/2 222/2/2 223/2/2
f 223/2/2 222/2/2 224/2/2
f 223/4/2 224/4/2 225/4/2
f 225/4/2 224/4/2 226/4/2
f 225/1/2 226/1/2 227/1/2
f 227/1/2 226/1/2 228/1/2
f 233/2/3 230/2/3 229/2/3
f 234/4/3 231/4/3 230/4/3
f 234/2/3 230/2/3 233/2/3
f 235/1/3 232/1/3 231/1/3
f 235/4/3 231/4/3 234/4/3
f 236/1/3 232/1/3 235/1/3
f 241/2/3 238/2/3 237/2/3
f 242/4/3 239/4/3 238/4/3
f 242/2/3 238/2/3 241/2/3
f 243/1/3 240/1/3 239/1/3
f 243/4/3 239/4/3 242/4/3
f 244/1/3 240/1/3 243/1/3
f 251/1/3 245/1/3 244/1/3
f 252/3/3 246/3/3 245/3/3
f 252/1/3 245/1/3 251/1/3
f 253/2/3 247/2/3 246/2/3
f 253/3/3 246/3/3 252/3/3
f 254/2/3 247/2/3 253/2/3
f 255/2/3 249/2/3 248/2/3
f 256/4/3 250/4/3 249/4/3
f 256/2/3 249/2/3 255/2/3
f 257/1/3 251/1/3 250/1/3
f 257/4/3 250/4/3 256/4/3
f 258/1/3 251/1/3 257/1/3
f 263/2/3 260/2/3 259/2/3
f 264/4/3 261/4/3 260/4/3
f 264/2/3 260/2/3 263/2/3
f 265/1/3 262/1/3 261/1/3
f 265/4/3 261/4/3 264/4/3
f 266/1/3 262/1/3 265/1/3
f 270/1/3 267/1/3 266/1/3
f 271/3/3 268/3/3 267/3/3
f 271/1/3 267/1/3 270/1/3
f 272/2/3 269/2/3 268/2/3
f 272/3/3 268/3/3 271/3/3
f 273/2/3 269/2/3 272/2/3
f 276/2/3 275/2/3 274/2/3
f 277/2/3 275/2/3 276/2/3
f 285/1/3 279/1/3 278/1/3
f 286/3/3 280/3/3 279/3/3
f 286/1/3 279/1/3 285/1/3
f 287/2/3 281/2/3 280/2/3
f 287/3/3 280/3/3 286/3/3
f 288/2/3 281/2/3 287/2/3
f 289/2/3 283/2/3 282/2/3
f 290/4/3 284/4/3 283/4/3
f 290/2/3 283/2/3 289/2/3
f 291/1/3 285/1/3 284/1/3
f 291/4/3 284/4/3 290/4/3
f 292/1/3 285/1/3 291/1/3
f 297/2/3 294/2/3 293/2/3
f 298/4/3 295/4/3 294/4/3
f 298/2/3 294/2/3 297/2/3
f 299/1/3 296/1/3 295/1/3
f 299/4/3 295/4/3 298/4/3
f 300/1/3 296/1/3 299/1/3
f 304/1/3 301/1/3 300/1/3
f 305/3/3 302/3/3 301/3/3
f 305/1/3 301/1/3 304/1/3
f 306/2/3 303/2/3 302/2/3
f 306/3/3 302/3/3 305/3/3
f 307/2/3 303/2/3 306/2/3
f 310/2/3 309/2/3 308/2/3
f 311/2/3 309/2/3 310/2/3
f 314/2/3 313/2/3 312/2/3
f 315/2/3 313/2/3 314/2/3
f 323/1/3 317/1/3 316/1/3
f 324/3/3 318/3/3 317/3/3
f 324/1/3 317/1/3 323/1/3
f 325/2/3 319/2/3 318/2/3
f 325/3/3 318/3/3 324/3/3
f 326/2/3 319/2/3 325/2/3
f 327/2/3 321/2/3 320/2/3
f 328/4/3 322/4/3 321/4/3
f 328/2/3 321/2/3 327/2/3
f 329/1/3 323/1/3 322/1/3
f 329/4/3 322/4/3 328/4/3
f 330/1/3 323/1/3 329/1/3
f 333/2/3 332/2/3 331/2/3
f 334/2/3 332/2/3 333/2/3
f 337/2/3 336/2/3 335/2/3
f 338/2/3 336/2/3 337/2/3
f 341/2/3 340/2/3 339/2/3
f 342/2/3 340/2/3 341/2/3
f 343/2/4 344/2/4 345/2/4
f 345/2/4 344/2/4 346/2/4
f 347/2/4 348/2/4 349/2/4
f 349/2/4 348/2/4 350/2/4
f 351/2/4 352/2/4 353/2/4
f 353/2/4 352/2/4 354/2/4
f 355/2/4 356/2/4 359/2/4
f 356/4/4 357/4/4 360/4/4
f 359/2/4 356/2/4 360/2/4
f 357/1/4 358/1/4 361/1/4
f 360/4/4 357/4/4 361/4/4
f 361/1/4 358/1/4 362/1/4
f 362/1/4 363/1/4 366/1/4
f 363/3/4 364/3/4 367/3/4
f 366/1/4 363/1/4 367/1/4
f 364/2/4 365/2/4 368/2/4
f 367/3/4 364/3/4 368/3/4
f 368/2/4 365/2/4 369/2/4
f 370/2/4 371/2/4 372/2/4
f 372/2/4 371/2/4 373/2/4
f 374/2/4 375/2/4 376/2/4
f 376/2/4 375/2/4 377/2/4
f 378/1/4 379/1/4 385/1/4
f 379/3/4 380/3/4 386/3/4
f 385/1/4 379/1/4 386/1/4
f 380/2/4 381/2/4 387/2/4
f 386/3/4 380/3/4 387/3/4
f 387/2/4 381/2/4 388/2/4
f 382/2/4 383/2/4 389/2/4
f 383/4/4 384/4/4 390/4/4
f 389/2/4 383/2/4 390/2/4
f 384/1/4 385/1/4 391/1/4
f 390/4/4 384/4/4 391/4/4
f 391/1/4 385/1/4 392/1/4
f 393/2/4 394/2/4 397/2/4
f 394/4/4 395/4/4 398/4/4
f 397/2/4 394/2/4 398/2/4
f 395/1/4 396/1/4 399/1/4
f 398/4/4 395/4/4 399/4/4
f 399/1/4 396/1/4 400/1/4
f 400/1/4 401/1/4 404/1/4
f 401/3/4 402/3/4 405/3/4
f 404/1/4 401/1/4 405/1/4
f 402/2/4 403/2/4 406/2/4
f 405/3/4 402/3/4 406/3/4
f 406/2/4 403/2/4 407/2/4
f 408/2/4 409/2/4 410/2/4
f 410/2/4 409/2/4 411/2/4
f 412/1/4 413/1/4 419/1/4
f 413/3/4 414/3/4 420/3/4
f 419/1/4 413/1/4 420/1/4
f 414/2/4 415/2/4 421/2/4
f 420/3/4 414/3/4 421/3/4
f 421/2/4 415/2/4 422/2/4
f 416/2/4 417/2/4 423/2/4
f 417/4/4 418/4/4 424/4/4
f 423/2/4 417/2/4 424/2/4
f 418/1/4 419/1/4 425/1/4
f 424/4/4 418/4/4 425/4/4
f 425/1/4 419/1/4 426/1/4
f 427/2/4 428/2/4 431/2/4
f 428/4/4 429/4/4 432/4/4
f 431/2/4 428/2/4 432/2/4
f 429/1/4 430/1/4 433/1/4
f 432/4/4 429/4/4 433/4/4
f 433/1/4 430/1/4 434/1/4
f 434/1/4 435/1/4 441/1/4
f 435/3/4 436/3/4 442/3/4
f 441/1/4 435/1/4 442/1/4
f 436/2/4 437/2/4 443/2/4
f 442/3/4 436/3/4 443/3/4
f 443/2/4 437/2/4 444/2/4
f 438/2/4 439/2/4 445/2/4
f 439/4/4 440/4/4 446/4/4
f 445/2/4 439/2/4 446/2/4
f 440/1/4 441/1/4 447/1/4
f 446/4/4 440/4/4 447/4/4
f 447/1/4 441/1/4 448/1/4
f 449/2/4 450/2/4 453/2/4
f 450/4/4 451/4/4 454/4/4
f 453/2/4 450/2/4 454/2/4
f 451/1/4 452/1/4 455/1/4
f 454/4/4 451/4/4 455/4/4
f 455/1/4 452/1/4 456/1/4
f 460/2/5 458/2/5 457/2/5
f 461/2/5 458/2/5 460/2/5
f 464/2/5 460/2/5 459/2/5
f 464/2/5 462/2/5 461/2/5
f 464/2/5 461/2/5 460/2/5
f 465/2/5 462/2/5 464/2/5
f 468/2/5 464/2/5 463/2/5
f 468/2/5 466/2/5 465/2/5
f 468/2/5 465/2/5 464/2/5
f 469/2/5 466/2/5 468/2/5
f 471/2/5 468/2/5 467/2/5
f 471/2/5 470/2/5 469/2/5
f 471/2/5 469/2/5 468/2/5
f 472/2/5 470/2/5 471/2/5
f 473/2/5 470/2/5 472/2/5
f 474/2/5 470/2/5 473/2/5
f 475/2/5 473/2/5 472/2/5
f 476/2/5 473/2/5 475/2/5
f 477/2/5 473/2/5 476/2/5
f 478/2/5 473/2/5 477/2/5
f 479/2/5 477/2/5 476/2/5
f 480/2/5 477/2/5 479/2/5
f 481/2/5 477/2/5 480/2/5
f 482/2/5 477/2/5 481/2/5
f 483/2/5 481/2/5 480/2/5
f 484/2/5 481/2/5 483/2/5
f 485/1/6 486/1/6 488/1/6
f 488/1/6 486/1/6 489/1/6
f 487/1/6 488/1/6 492/1/6
f 492/1/6 488/1/6 493/1/6
f 489/1/6 490/1/6 494/1/6
f 494/1/6 490/1/6 495/1/6
f 491/1/6 492/1/6 498/1/6
f 498/1/6 492/1/6 499/1/6
f 495/1/6 496/1/6 500/1/6
f 500/1/6 496/1/6 501/1/6
f 497/1/6 498/1/6 503/1/6
f 503/1/6 498/1/6 504/1/6
f 501/1/6 502/1/6 507/1/6
f 507/1/6 502/1/6 508/1/6
f 504/1/6 505/1/6 509/1/6
f 509/1/6 505/1/6 510/1/6
f 506/1/6 507/1/6 513/1/6
f 513/1/6 507/1/6 514/1/6
f 510/1/6 511/1/6 515/1/6
f 515/1/6 511/1/6 516/1/6
f 512/1/6 513/1/6 517/1/6
f 517/1/6 513/1/6 518/1/6
f 516/1/6 517/1/6 519/1/6
f 519/1/6 517/1/6 520/1/6
f 521/2/6 522/2/6 524/2/6
f 524/2/6 522/2/6 525/2/6
f 525/2/6 522/2/6 526/2/6
f 526/2/6 522/2/6 527/2/6
f 523/2/6 524/2/6 530/2/6
f 524/2/6 525/2/6 530/2/6
f 530/2/6 525/2/6 531/2/6
f 531/2/6 525/2/6 532/2/6
f 526/2/6 527/2/6 533/2/6
f 527/2/6 528/2/6 533/2/6
f 533/2/6 528/2/6 534/2/6
f 534/2/6 528/2/6 535/2/6
f 530/2/6 531/2/6 537/2/6
f 529/2/6 530/2/6 537/2/6
f 537/2/6 531/2/6 538/2/6
f 535/2/6 536/2/6 539/2/6
f 534/2/6 535/2/6 539/2/6
f 539/2/6 536/2/6 540/2/6
f 529/2/6 537/2/6 541/2/6
f 540/2/6 536/2/6 544/2/6
f 541/2/6 542/2/6 545/2/6
f 529/2/6 541/2/6 545/2/6
f 545/2/6 542/2/6 546/2/6
f 546/2/6 542/2/6 547/2/6
f 543/2/6 544/2/6 550/2/6
f 544/2/6 536/2/6 551/2/6
f 550/2/6 544/2/6 551/2/6
f 551/2/6 536/2/6 552/2/6
f 547/2/6 548/2/6 553/2/6
f 546/2/6 547/2/6 553/2/6
f 553/2/6 548/2/6 554/2/6
f 554/2/6 548/2/6 555/2/6
f 549/2/6 550/2/6 556/2/6
f 550/2/6 551/2/6 556/2/6
f 556/2/6 551/2/6 557/2/6
f 557/2/6 551/2/6 558/2/6
f 554/2/6 555/2/6 559/2/6
f 556/2/6 557/2/6 559/2/6
f 555/2/6 556/2/6 559/2/6
f 559/2/6 557/2/6 560/2/6
f 561/2/6 562/2/6 564/2/6
f 564/2/6 562/2/6 565/2/6
f 563/2/6 564/2/6 568/2/6
f 565/2/6 566/2/6 568/2/6
f 564/2/6 565/2/6 568/2/6
f 568/2/6 566/2/6 569/2/6
f 569/2/6 566/2/6 570/2/6
f 570/2/6 566/2/6 571/2/6
f 567/2/6 568/2/6 573/2/6
f 568/2/6 569/2/6 573/2/6
f 573/2/6 569/2/6 574/2/6
f 574/2/6 569/2/6 575/2/6
f 571/2/6 572/2/6 576/2/6
f 570/2/6 571/2/6 576/2/6
f 576/2/6 572/2/6 577/2/6
f 577/2/6 572/2/6 578/2/6
f 574/2/6 575/2/6 579/2/6
f 576/2/6 577/2/6 579/2/6
f 575/2/6 576/2/6 579/2/6
f 579/2/6 577/2/6 580/2/6
f 580/2/6 577/2/6 581/2/6
f 581/2/6 577/2/6 582/2/6
f 580/2/6 581/2/6 583/2/6
f 583/2/6 581/2/6 584/2/6
f 585/2/6 586/2/6 587/2/6
f 587/2/6 586/2/6 588/2/6
