# MagicaVoxel @ Ephtracy

# group
o 

# material
mtllib mesa_wall_tall.mtl
usemtl palette

# normals
vn -1 0 0
vn 1 0 0
vn 0 0 1
vn 0 0 -1
vn 0 -1 0
vn 0 1 0

# texcoords
vt 0.189453 0.5
vt 0.216797 0.5
vt 0.220703 0.5
vt 0.244141 0.5
vt 0.337891 0.5

# verts
v -0.5 0 0.5
v -0.5 0 0
v -0.5 0 -0.4
v -0.5 0 -0.5
v -0.5 0.1 0
v -0.5 0.1 -0.4
v -0.5 0.2 0.5
v -0.5 0.2 -0.5
v -0.5 0.3 0.5
v -0.5 0.3 -0.5
v -0.5 0.5 0.5
v -0.5 0.5 -0.5
v -0.5 0.6 0.5
v -0.5 0.6 -0.1
v -0.5 0.6 -0.2
v -0.5 0.6 -0.5
v -0.5 0.7 0.5
v -0.5 0.7 0.4
v -0.5 0.7 0.1
v -0.5 0.7 -0.1
v -0.5 0.8 0.5
v -0.5 0.8 0.4
v -0.5 0.8 0.3
v -0.5 0.8 0.1
v -0.5 0.8 -0.1
v -0.5 0.8 -0.2
v -0.5 0.9 0.3
v -0.5 0.9 0.2
v -0.5 0.9 0.1
v -0.5 0.9 -0.1
v -0.5 1 0.5
v -0.5 1 0.2
v -0.5 1 0.1
v -0.5 1 -0.5
v -0.5 1.1 0.5
v -0.5 1.1 -0.5
v -0.5 1.2 0.5
v -0.5 1.2 -0.5
v -0.5 1.4 0.5
v -0.5 1.4 0.1
v -0.5 1.4 -0.1
v -0.5 1.4 -0.5
v -0.5 1.5 0.3
v -0.5 1.5 0.1
v -0.5 1.5 0
v -0.5 1.5 -0.1
v -0.5 1.5 -0.3
v -0.5 1.6 0.2
v -0.5 1.6 0.1
v -0.5 1.6 0
v -0.5 1.6 -0.1
v -0.5 1.6 -0.2
v -0.5 1.7 0.5
v -0.5 1.7 0.3
v -0.5 1.7 0.2
v -0.5 1.7 0.1
v -0.5 1.7 -0.1
v -0.5 1.7 -0.2
v -0.5 1.7 -0.3
v -0.5 1.7 -0.5
v -0.5 1.8 0.5
v -0.5 1.8 -0.5
v -0.5 1.9 0.5
v -0.5 1.9 0.2
v -0.5 1.9 -0.1
v -0.5 1.9 -0.5
v -0.5 2 0.5
v -0.5 2 0.2
v -0.5 2 -0.1
v -0.5 2 -0.5
v 0.5 0 0.5
v 0.5 0 0.2
v 0.5 0 -0.1
v 0.5 0 -0.5
v 0.5 0.1 0.2
v 0.5 0.1 -0.1
v 0.5 0.2 0.5
v 0.5 0.2 -0.5
v 0.5 0.3 0.5
v 0.5 0.3 -0.5
v 0.5 0.5 0.5
v 0.5 0.5 -0.5
v 0.5 0.6 0.5
v 0.5 0.6 0.3
v 0.5 0.6 0.2
v 0.5 0.6 -0.5
v 0.5 0.7 0.3
v 0.5 0.7 0.2
v 0.5 0.7 -0.1
v 0.5 0.8 0.5
v 0.5 0.8 0.4
v 0.5 0.8 0.2
v 0.5 0.8 -0.1
v 0.5 0.8 -0.3
v 0.5 0.9 0.5
v 0.5 0.9 0.4
v 0.5 0.9 -0.1
v 0.5 0.9 -0.3
v 0.5 1 0.5
v 0.5 1 -0.5
v 0.5 1.1 0.5
v 0.5 1.1 -0.5
v 0.5 1.2 0.5
v 0.5 1.2 -0.5
v 0.5 1.4 0.5
v 0.5 1.4 0.4
v 0.5 1.4 0.2
v 0.5 1.4 -0.5
v 0.5 1.5 0.4
v 0.5 1.5 0.2
v 0.5 1.5 -0.3
v 0.5 1.6 0.2
v 0.5 1.6 -0.1
v 0.5 1.7 0.5
v 0.5 1.7 -0.1
v 0.5 1.7 -0.3
v 0.5 1.7 -0.5
v 0.5 1.8 0.5
v 0.5 1.8 -0.5
v 0.5 1.9 0.5
v 0.5 1.9 0
v 0.5 1.9 -0.2
v 0.5 1.9 -0.5
v 0.5 2 0.5
v 0.5 2 0
v 0.5 2 -0.2
v 0.5 2 -0.5
v -0.5 0 0.5
v -0.5 0.2 0.5
v -0.5 0.3 0.5
v -0.5 0.5 0.5
v -0.5 0.6 0.5
v -0.5 0.7 0.5
v -0.5 0.8 0.5
v -0.5 1 0.5
v -0.5 1.1 0.5
v -0.5 1.2 0.5
v -0.5 1.4 0.5
v -0.5 1.7 0.5
v -0.5 1.8 0.5
v -0.5 1.9 0.5
v -0.5 2 0.5
v -0.4 1.4 0.5
v -0.4 1.5 0.5
v -0.3 1.5 0.5
v -0.3 1.6 0.5
v -0.2 0.8 0.5
v -0.2 0.9 0.5
v -0.2 1.9 0.5
v -0.2 2 0.5
v 0 0.7 0.5
v 0 0.8 0.5
v 0 1.4 0.5
v 0 1.5 0.5
v 0 1.9 0.5
v 0 2 0.5
v 0.1 0 0.5
v 0.1 0.1 0.5
v 0.1 0.9 0.5
v 0.1 1 0.5
v 0.1 1.6 0.5
v 0.1 1.7 0.5
v 0.3 0 0.5
v 0.3 0.1 0.5
v 0.4 0.9 0.5
v 0.4 1 0.5
v 0.4 1.5 0.5
v 0.4 1.7 0.5
v 0.5 0 0.5
v 0.5 0.2 0.5
v 0.5 0.3 0.5
v 0.5 0.5 0.5
v 0.5 0.6 0.5
v 0.5 0.8 0.5
v 0.5 0.9 0.5
v 0.5 1 0.5
v 0.5 1.1 0.5
v 0.5 1.2 0.5
v 0.5 1.4 0.5
v 0.5 1.7 0.5
v 0.5 1.8 0.5
v 0.5 1.9 0.5
v 0.5 2 0.5
v -0.5 0 -0.5
v -0.5 0.2 -0.5
v -0.5 0.3 -0.5
v -0.5 0.5 -0.5
v -0.5 0.6 -0.5
v -0.5 1 -0.5
v -0.5 1.1 -0.5
v -0.5 1.2 -0.5
v -0.5 1.4 -0.5
v -0.5 1.7 -0.5
v -0.5 1.8 -0.5
v -0.5 1.9 -0.5
v -0.5 2 -0.5
v -0.4 0.9 -0.5
v -0.4 1 -0.5
v -0.4 1.5 -0.5
v -0.4 1.6 -0.5
v -0.3 0.8 -0.5
v -0.3 0.9 -0.5
v -0.3 1 -0.5
v -0.2 1.6 -0.5
v -0.2 1.7 -0.5
v 0 0.7 -0.5
v 0 0.8 -0.5
v 0 1.6 -0.5
v 0 1.7 -0.5
v 0.1 0.8 -0.5
v 0.1 0.9 -0.5
v 0.1 1.9 -0.5
v 0.1 2 -0.5
v 0.2 0.7 -0.5
v 0.2 0.8 -0.5
v 0.2 1.4 -0.5
v 0.2 1.5 -0.5
v 0.3 1.5 -0.5
v 0.3 1.6 -0.5
v 0.3 1.9 -0.5
v 0.3 2 -0.5
v 0.4 1.4 -0.5
v 0.4 1.5 -0.5
v 0.5 0 -0.5
v 0.5 0.2 -0.5
v 0.5 0.3 -0.5
v 0.5 0.5 -0.5
v 0.5 0.6 -0.5
v 0.5 1 -0.5
v 0.5 1.1 -0.5
v 0.5 1.2 -0.5
v 0.5 1.4 -0.5
v 0.5 1.7 -0.5
v 0.5 1.8 -0.5
v 0.5 1.9 -0.5
v 0.5 2 -0.5
v -0.5 0 0.5
v 0.1 0 0.5
v 0.3 0 0.5
v 0.5 0 0.5
v 0.1 0 0.4
v 0.3 0 0.4
v 0.4 0 0.2
v 0.5 0 0.2
v -0.5 0 0
v -0.4 0 0
v 0.4 0 -0.1
v 0.5 0 -0.1
v -0.5 0 -0.4
v -0.4 0 -0.4
v -0.5 0 -0.5
v 0.5 0 -0.5
v -0.5 2 0.5
v -0.2 2 0.5
v 0 2 0.5
v 0.5 2 0.5
v -0.4 2 0.4
v -0.2 2 0.4
v -0.1 2 0.3
v 0 2 0.3
v -0.5 2 0.2
v -0.4 2 0.2
v -0.2 2 0.2
v -0.1 2 0.2
v -0.3 2 0.1
v -0.2 2 0.1
v 0.3 2 0
v 0.5 2 0
v -0.5 2 -0.1
v -0.3 2 -0.1
v 0.2 2 -0.2
v 0.3 2 -0.2
v 0.4 2 -0.2
v 0.5 2 -0.2
v 0.1 2 -0.3
v 0.2 2 -0.3
v 0.3 2 -0.3
v 0.4 2 -0.3
v -0.5 2 -0.5
v 0.1 2 -0.5
v 0.3 2 -0.5
v 0.5 2 -0.5

# faces
f 5/3/1 2/3/1 1/3/1
f 5/1/1 3/1/1 2/1/1
f 6/3/1 4/3/1 3/3/1
f 6/1/1 3/1/1 5/1/1
f 7/3/1 5/3/1 1/3/1
f 7/3/1 6/3/1 5/3/1
f 8/3/1 4/3/1 6/3/1
f 8/3/1 6/3/1 7/3/1
f 9/5/1 8/5/1 7/5/1
f 10/5/1 8/5/1 9/5/1
f 11/2/1 10/2/1 9/2/1
f 12/2/1 10/2/1 11/2/1
f 13/4/1 12/4/1 11/4/1
f 14/4/1 12/4/1 13/4/1
f 15/4/1 12/4/1 14/4/1
f 16/4/1 12/4/1 15/4/1
f 17/3/1 14/3/1 13/3/1
f 18/3/1 14/3/1 17/3/1
f 19/3/1 14/3/1 18/3/1
f 20/1/1 15/1/1 14/1/1
f 20/3/1 14/3/1 19/3/1
f 21/1/1 18/1/1 17/1/1
f 22/3/1 19/3/1 18/3/1
f 22/1/1 18/1/1 21/1/1
f 23/3/1 19/3/1 22/3/1
f 24/1/1 20/1/1 19/1/1
f 24/3/1 19/3/1 23/3/1
f 25/1/1 15/1/1 20/1/1
f 25/1/1 20/1/1 24/1/1
f 26/3/1 16/3/1 15/3/1
f 26/1/1 15/1/1 25/1/1
f 27/1/1 25/1/1 24/1/1
f 27/1/1 24/1/1 23/1/1
f 27/3/1 23/3/1 22/3/1
f 27/3/1 22/3/1 21/3/1
f 28/1/1 25/1/1 27/1/1
f 29/1/1 25/1/1 28/1/1
f 30/3/1 26/3/1 25/3/1
f 30/1/1 25/1/1 29/1/1
f 31/3/1 27/3/1 21/3/1
f 31/3/1 28/3/1 27/3/1
f 32/1/1 29/1/1 28/1/1
f 32/3/1 28/3/1 31/3/1
f 33/3/1 30/3/1 29/3/1
f 33/1/1 29/1/1 32/1/1
f 34/3/1 16/3/1 26/3/1
f 34/3/1 30/3/1 33/3/1
f 34/3/1 26/3/1 30/3/1
f 35/5/1 33/5/1 32/5/1
f 35/5/1 32/5/1 31/5/1
f 35/5/1 34/5/1 33/5/1
f 36/5/1 34/5/1 35/5/1
f 37/4/1 36/4/1 35/4/1
f 38/4/1 36/4/1 37/4/1
f 39/2/1 38/2/1 37/2/1
f 40/2/1 38/2/1 39/2/1
f 41/2/1 38/2/1 40/2/1
f 42/2/1 38/2/1 41/2/1
f 43/3/1 40/3/1 39/3/1
f 44/1/1 41/1/1 40/1/1
f 44/3/1 40/3/1 43/3/1
f 45/1/1 41/1/1 44/1/1
f 46/3/1 42/3/1 41/3/1
f 46/1/1 41/1/1 45/1/1
f 47/3/1 42/3/1 46/3/1
f 48/1/1 45/1/1 44/1/1
f 48/1/1 44/1/1 43/1/1
f 49/1/1 45/1/1 48/1/1
f 50/3/1 46/3/1 45/3/1
f 50/1/1 45/1/1 49/1/1
f 51/1/1 47/1/1 46/1/1
f 51/3/1 46/3/1 50/3/1
f 52/1/1 47/1/1 51/1/1
f 53/3/1 43/3/1 39/3/1
f 54/1/1 48/1/1 43/1/1
f 54/3/1 43/3/1 53/3/1
f 55/3/1 49/3/1 48/3/1
f 55/1/1 48/1/1 54/1/1
f 56/1/1 50/1/1 49/1/1
f 56/3/1 49/3/1 55/3/1
f 56/1/1 51/1/1 50/1/1
f 57/3/1 52/3/1 51/3/1
f 57/1/1 51/1/1 56/1/1
f 58/1/1 47/1/1 52/1/1
f 58/3/1 52/3/1 57/3/1
f 59/3/1 42/3/1 47/3/1
f 59/1/1 47/1/1 58/1/1
f 60/3/1 42/3/1 59/3/1
f 61/2/1 57/2/1 56/2/1
f 61/2/1 58/2/1 57/2/1
f 61/2/1 60/2/1 59/2/1
f 61/2/1 59/2/1 58/2/1
f 61/2/1 56/2/1 55/2/1
f 61/2/1 55/2/1 54/2/1
f 61/2/1 54/2/1 53/2/1
f 62/2/1 60/2/1 61/2/1
f 63/4/1 62/4/1 61/4/1
f 64/4/1 62/4/1 63/4/1
f 65/4/1 62/4/1 64/4/1
f 66/4/1 62/4/1 65/4/1
f 67/3/1 64/3/1 63/3/1
f 68/1/1 65/1/1 64/1/1
f 68/3/1 64/3/1 67/3/1
f 69/3/1 66/3/1 65/3/1
f 69/1/1 65/1/1 68/1/1
f 70/3/1 66/3/1 69/3/1
f 71/3/2 72/3/2 75/3/2
f 72/1/2 73/1/2 75/1/2
f 73/3/2 74/3/2 76/3/2
f 75/1/2 73/1/2 76/1/2
f 71/3/2 75/3/2 77/3/2
f 75/3/2 76/3/2 77/3/2
f 76/3/2 74/3/2 78/3/2
f 77/3/2 76/3/2 78/3/2
f 77/5/2 78/5/2 79/5/2
f 79/5/2 78/5/2 80/5/2
f 79/2/2 80/2/2 81/2/2
f 81/2/2 80/2/2 82/2/2
f 81/4/2 82/4/2 83/4/2
f 83/4/2 82/4/2 84/4/2
f 84/4/2 82/4/2 85/4/2
f 85/4/2 82/4/2 86/4/2
f 83/3/2 84/3/2 87/3/2
f 84/1/2 85/1/2 87/1/2
f 85/3/2 86/3/2 88/3/2
f 87/1/2 85/1/2 88/1/2
f 88/3/2 86/3/2 89/3/2
f 83/3/2 87/3/2 90/3/2
f 87/3/2 88/3/2 90/3/2
f 90/3/2 88/3/2 91/3/2
f 88/1/2 89/1/2 92/1/2
f 91/3/2 88/3/2 92/3/2
f 89/3/2 86/3/2 93/3/2
f 92/1/2 89/1/2 93/1/2
f 93/3/2 86/3/2 94/3/2
f 90/1/2 91/1/2 95/1/2
f 91/3/2 92/3/2 96/3/2
f 95/1/2 91/1/2 96/1/2
f 92/3/2 93/3/2 96/3/2
f 93/1/2 94/1/2 97/1/2
f 96/3/2 93/3/2 97/3/2
f 94/3/2 86/3/2 98/3/2
f 97/1/2 94/1/2 98/1/2
f 96/3/2 97/3/2 99/3/2
f 95/3/2 96/3/2 99/3/2
f 97/3/2 98/3/2 99/3/2
f 98/3/2 86/3/2 100/3/2
f 99/3/2 98/3/2 100/3/2
f 99/5/2 100/5/2 101/5/2
f 101/5/2 100/5/2 102/5/2
f 101/4/2 102/4/2 103/4/2
f 103/4/2 102/4/2 104/4/2
f 103/2/2 104/2/2 105/2/2
f 105/2/2 104/2/2 106/2/2
f 106/2/2 104/2/2 107/2/2
f 107/2/2 104/2/2 108/2/2
f 105/3/2 106/3/2 109/3/2
f 106/1/2 107/1/2 109/1/2
f 107/3/2 108/3/2 110/3/2
f 109/1/2 107/1/2 110/1/2
f 110/3/2 108/3/2 111/3/2
f 109/3/2 110/3/2 112/3/2
f 110/1/2 111/1/2 112/1/2
f 112/1/2 111/1/2 113/1/2
f 105/3/2 109/3/2 114/3/2
f 109/3/2 112/3/2 114/3/2
f 112/3/2 113/3/2 114/3/2
f 113/1/2 111/1/2 115/1/2
f 114/3/2 113/3/2 115/3/2
f 111/3/2 108/3/2 116/3/2
f 115/1/2 111/1/2 116/1/2
f 116/3/2 108/3/2 117/3/2
f 114/2/2 115/2/2 118/2/2
f 115/2/2 116/2/2 118/2/2
f 116/2/2 117/2/2 118/2/2
f 118/2/2 117/2/2 119/2/2
f 118/4/2 119/4/2 120/4/2
f 120/4/2 119/4/2 121/4/2
f 121/4/2 119/4/2 122/4/2
f 122/4/2 119/4/2 123/4/2
f 120/3/2 121/3/2 124/3/2
f 121/1/2 122/1/2 125/1/2
f 124/3/2 121/3/2 125/3/2
f 122/3/2 123/3/2 126/3/2
f 125/1/2 122/1/2 126/1/2
f 126/3/2 123/3/2 127/3/2
f 143/2/3 138/2/3 137/2/3
f 143/3/3 139/3/3 138/3/3
f 144/3/3 139/3/3 143/3/3
f 145/1/3 144/1/3 143/1/3
f 145/3/3 139/3/3 144/3/3
f 146/3/3 139/3/3 145/3/3
f 147/1/3 134/1/3 133/1/3
f 147/3/3 135/3/3 134/3/3
f 148/3/3 135/3/3 147/3/3
f 149/3/3 142/3/3 141/3/3
f 149/4/3 141/4/3 140/4/3
f 150/3/3 142/3/3 149/3/3
f 151/3/3 133/3/3 132/3/3
f 151/1/3 148/1/3 147/1/3
f 151/1/3 147/1/3 133/1/3
f 152/1/3 148/1/3 151/1/3
f 153/1/3 146/1/3 145/1/3
f 153/2/3 143/2/3 137/2/3
f 153/1/3 145/1/3 143/1/3
f 154/1/3 146/1/3 153/1/3
f 155/1/3 150/1/3 149/1/3
f 155/4/3 149/4/3 140/4/3
f 156/1/3 150/1/3 155/1/3
f 157/3/3 129/3/3 128/3/3
f 158/3/3 129/3/3 157/3/3
f 159/1/3 148/1/3 152/1/3
f 159/3/3 135/3/3 148/3/3
f 160/5/3 136/5/3 135/5/3
f 160/3/3 135/3/3 159/3/3
f 161/3/3 139/3/3 146/3/3
f 161/1/3 146/1/3 154/1/3
f 162/2/3 140/2/3 139/2/3
f 162/3/3 139/3/3 161/3/3
f 163/1/3 158/1/3 157/1/3
f 164/3/3 129/3/3 158/3/3
f 164/1/3 158/1/3 163/1/3
f 165/1/3 159/1/3 152/1/3
f 165/1/3 160/1/3 159/1/3
f 166/5/3 136/5/3 160/5/3
f 166/1/3 160/1/3 165/1/3
f 167/1/3 161/1/3 154/1/3
f 167/3/3 154/3/3 153/3/3
f 167/1/3 162/1/3 161/1/3
f 168/2/3 140/2/3 162/2/3
f 168/1/3 162/1/3 167/1/3
f 169/3/3 164/3/3 163/3/3
f 170/5/3 130/5/3 129/5/3
f 170/3/3 164/3/3 169/3/3
f 170/3/3 129/3/3 164/3/3
f 171/2/3 131/2/3 130/2/3
f 171/5/3 130/5/3 170/5/3
f 172/4/3 132/4/3 131/4/3
f 172/2/3 131/2/3 171/2/3
f 173/3/3 152/3/3 151/3/3
f 173/4/3 132/4/3 172/4/3
f 173/3/3 151/3/3 132/3/3
f 174/1/3 165/1/3 152/1/3
f 174/3/3 152/3/3 173/3/3
f 175/3/3 166/3/3 165/3/3
f 175/1/3 165/1/3 174/1/3
f 176/5/3 136/5/3 166/5/3
f 176/3/3 166/3/3 175/3/3
f 177/4/3 137/4/3 136/4/3
f 177/5/3 136/5/3 176/5/3
f 178/2/3 153/2/3 137/2/3
f 178/4/3 137/4/3 177/4/3
f 179/3/3 168/3/3 167/3/3
f 179/2/3 153/2/3 178/2/3
f 179/3/3 167/3/3 153/3/3
f 180/2/3 140/2/3 168/2/3
f 180/3/3 168/3/3 179/3/3
f 181/4/3 155/4/3 140/4/3
f 181/2/3 140/2/3 180/2/3
f 182/3/3 156/3/3 155/3/3
f 182/4/3 155/4/3 181/4/3
f 183/3/3 156/3/3 182/3/3
f 188/3/4 189/3/4 197/3/4
f 189/5/4 190/5/4 198/5/4
f 197/3/4 189/3/4 198/3/4
f 192/3/4 193/3/4 199/3/4
f 199/3/4 193/3/4 200/3/4
f 188/3/4 197/3/4 201/3/4
f 197/1/4 198/1/4 202/1/4
f 201/3/4 197/3/4 202/3/4
f 198/5/4 190/5/4 203/5/4
f 202/1/4 198/1/4 203/1/4
f 200/3/4 193/3/4 204/3/4
f 199/1/4 200/1/4 204/1/4
f 193/2/4 194/2/4 205/2/4
f 204/3/4 193/3/4 205/3/4
f 188/3/4 201/3/4 206/3/4
f 201/1/4 202/1/4 207/1/4
f 206/3/4 201/3/4 207/3/4
f 199/1/4 204/1/4 208/1/4
f 204/1/4 205/1/4 208/1/4
f 205/2/4 194/2/4 209/2/4
f 208/1/4 205/1/4 209/1/4
f 207/1/4 202/1/4 210/1/4
f 206/1/4 207/1/4 210/1/4
f 202/3/4 203/3/4 211/3/4
f 210/1/4 202/1/4 211/1/4
f 195/3/4 196/3/4 212/3/4
f 194/4/4 195/4/4 212/4/4
f 212/3/4 196/3/4 213/3/4
f 188/3/4 206/3/4 214/3/4
f 206/1/4 210/1/4 214/1/4
f 210/3/4 211/3/4 215/3/4
f 214/1/4 210/1/4 215/1/4
f 191/2/4 192/2/4 216/2/4
f 192/3/4 199/3/4 216/3/4
f 199/1/4 208/1/4 217/1/4
f 216/3/4 199/3/4 217/3/4
f 216/1/4 217/1/4 218/1/4
f 217/1/4 208/1/4 218/1/4
f 208/3/4 209/3/4 219/3/4
f 218/1/4 208/1/4 219/1/4
f 212/1/4 213/1/4 220/1/4
f 194/4/4 212/4/4 220/4/4
f 220/1/4 213/1/4 221/1/4
f 191/2/4 216/2/4 222/2/4
f 216/1/4 218/1/4 222/1/4
f 218/3/4 219/3/4 223/3/4
f 222/1/4 218/1/4 223/1/4
f 184/3/4 185/3/4 224/3/4
f 185/5/4 186/5/4 225/5/4
f 224/3/4 185/3/4 225/3/4
f 186/2/4 187/2/4 226/2/4
f 225/5/4 186/5/4 226/5/4
f 187/4/4 188/4/4 227/4/4
f 226/2/4 187/2/4 227/2/4
f 188/3/4 214/3/4 228/3/4
f 227/4/4 188/4/4 228/4/4
f 214/3/4 215/3/4 228/3/4
f 211/3/4 203/3/4 229/3/4
f 228/3/4 215/3/4 229/3/4
f 203/5/4 190/5/4 229/5/4
f 215/3/4 211/3/4 229/3/4
f 190/4/4 191/4/4 230/4/4
f 229/5/4 190/5/4 230/5/4
f 191/2/4 222/2/4 231/2/4
f 230/4/4 191/4/4 231/4/4
f 222/3/4 223/3/4 232/3/4
f 231/2/4 222/2/4 232/2/4
f 223/3/4 219/3/4 233/3/4
f 232/3/4 223/3/4 233/3/4
f 209/2/4 194/2/4 233/2/4
f 219/3/4 209/3/4 233/3/4
f 194/4/4 220/4/4 234/4/4
f 233/2/4 194/2/4 234/2/4
f 220/3/4 221/3/4 235/3/4
f 234/4/4 220/4/4 235/4/4
f 235/3/4 221/3/4 236/3/4
f 241/3/5 238/3/5 237/3/5
f 241/1/5 239/1/5 238/1/5
f 242/3/5 240/3/5 239/3/5
f 242/1/5 239/1/5 241/1/5
f 243/3/5 242/3/5 241/3/5
f 243/3/5 240/3/5 242/3/5
f 244/3/5 240/3/5 243/3/5
f 245/3/5 241/3/5 237/3/5
f 245/3/5 243/3/5 241/3/5
f 246/3/5 243/3/5 245/3/5
f 247/1/5 244/1/5 243/1/5
f 247/3/5 243/3/5 246/3/5
f 248/1/5 244/1/5 247/1/5
f 249/1/5 246/1/5 245/1/5
f 250/3/5 247/3/5 246/3/5
f 250/1/5 246/1/5 249/1/5
f 250/3/5 248/3/5 247/3/5
f 251/3/5 250/3/5 249/3/5
f 252/3/5 248/3/5 250/3/5
f 252/3/5 250/3/5 251/3/5
f 253/3/6 254/3/6 257/3/6
f 254/1/6 255/1/6 258/1/6
f 257/3/6 254/3/6 258/3/6
f 257/1/6 258/1/6 259/1/6
f 258/1/6 255/1/6 259/1/6
f 255/3/6 256/3/6 260/3/6
f 259/1/6 255/1/6 260/1/6
f 253/3/6 257/3/6 261/3/6
f 257/1/6 259/1/6 262/1/6
f 261/3/6 257/3/6 262/3/6
f 262/1/6 259/1/6 263/1/6
f 259/3/6 260/3/6 264/3/6
f 263/1/6 259/1/6 264/1/6
f 262/1/6 263/1/6 265/1/6
f 261/1/6 262/1/6 265/1/6
f 263/3/6 264/3/6 266/3/6
f 265/1/6 263/1/6 266/1/6
f 260/3/6 256/3/6 267/3/6
f 266/3/6 264/3/6 267/3/6
f 265/3/6 266/3/6 267/3/6
f 264/3/6 260/3/6 267/3/6
f 267/3/6 256/3/6 268/3/6
f 261/1/6 265/1/6 269/1/6
f 265/3/6 267/3/6 270/3/6
f 269/1/6 265/1/6 270/1/6
f 269/3/6 270/3/6 271/3/6
f 270/3/6 267/3/6 271/3/6
f 267/1/6 268/1/6 272/1/6
f 271/3/6 267/3/6 272/3/6
f 272/1/6 268/1/6 273/1/6
f 273/1/6 268/1/6 274/1/6
f 269/3/6 271/3/6 275/3/6
f 271/1/6 272/1/6 276/1/6
f 275/3/6 271/3/6 276/3/6
f 272/1/6 273/1/6 276/1/6
f 276/1/6 273/1/6 277/1/6
f 273/3/6 274/3/6 278/3/6
f 277/1/6 273/1/6 278/1/6
f 269/3/6 275/3/6 279/3/6
f 276/1/6 277/1/6 280/1/6
f 279/3/6 275/3/6 280/3/6
f 275/1/6 276/1/6 280/1/6
f 277/3/6 278/3/6 281/3/6
f 280/1/6 277/1/6 281/1/6
f 278/3/6 274/3/6 282/3/6
f 281/3/6 278/3/6 282/3/6
